<svg width="380" height="250" viewBox="0 0 380 250" fill="none" xmlns="http://www.w3.org/2000/svg">
<rect width="380" height="250" fill="white"/>
<rect width="362" height="244" transform="translate(9 3)" fill="white"/>
<g filter="url(#filter0_i_523_4543)">
<rect width="342" height="56" transform="translate(19 13)" fill="white"/>
<path d="M22.0341 35.3636V47H20.2784V35.3636H22.0341ZM30.9943 40.4034L29.4545 40.6761C29.3902 40.4792 29.2879 40.2917 29.1477 40.1136C29.0114 39.9356 28.8258 39.7898 28.5909 39.6761C28.3561 39.5625 28.0625 39.5057 27.7102 39.5057C27.2292 39.5057 26.8277 39.6136 26.5057 39.8295C26.1837 40.0417 26.0227 40.3163 26.0227 40.6534C26.0227 40.9451 26.1307 41.1799 26.3466 41.358C26.5625 41.536 26.911 41.6818 27.392 41.7955L28.7784 42.1136C29.5814 42.2992 30.1799 42.5852 30.5739 42.9716C30.9678 43.358 31.1648 43.8598 31.1648 44.4773C31.1648 45 31.0133 45.4659 30.7102 45.875C30.411 46.2803 29.9924 46.5985 29.4545 46.8295C28.9205 47.0606 28.3011 47.1761 27.5966 47.1761C26.6193 47.1761 25.822 46.9678 25.2045 46.5511C24.5871 46.1307 24.2083 45.5341 24.0682 44.7614L25.7102 44.5114C25.8125 44.9394 26.0227 45.2633 26.3409 45.483C26.6591 45.6989 27.0739 45.8068 27.5852 45.8068C28.142 45.8068 28.5871 45.6913 28.9205 45.4602C29.2538 45.2254 29.4205 44.9394 29.4205 44.6023C29.4205 44.3295 29.3182 44.1004 29.1136 43.9148C28.9129 43.7292 28.6042 43.589 28.1875 43.4943L26.7102 43.1705C25.8958 42.9848 25.2936 42.6894 24.9034 42.2841C24.517 41.8788 24.3239 41.3655 24.3239 40.7443C24.3239 40.2292 24.4678 39.7784 24.7557 39.392C25.0436 39.0057 25.4413 38.7045 25.9489 38.4886C26.4564 38.2689 27.0379 38.1591 27.6932 38.1591C28.6364 38.1591 29.3788 38.3636 29.9205 38.7727C30.4621 39.178 30.8201 39.7216 30.9943 40.4034ZM37.267 47V38.2727H38.9659V47H37.267ZM38.125 36.9261C37.8295 36.9261 37.5758 36.8277 37.3636 36.6307C37.1553 36.4299 37.0511 36.1913 37.0511 35.9148C37.0511 35.6345 37.1553 35.3958 37.3636 35.1989C37.5758 34.9981 37.8295 34.8977 38.125 34.8977C38.4205 34.8977 38.6723 34.9981 38.8807 35.1989C39.0928 35.3958 39.1989 35.6345 39.1989 35.9148C39.1989 36.1913 39.0928 36.4299 38.8807 36.6307C38.6723 36.8277 38.4205 36.9261 38.125 36.9261ZM45.3253 38.2727V39.6364H40.5582V38.2727H45.3253ZM41.8366 36.1818H43.5355V44.4375C43.5355 44.767 43.5848 45.0152 43.6832 45.1818C43.7817 45.3447 43.9086 45.4564 44.0639 45.517C44.223 45.5739 44.3954 45.6023 44.581 45.6023C44.7173 45.6023 44.8366 45.5928 44.9389 45.5739C45.0412 45.5549 45.1207 45.5398 45.1776 45.5284L45.4844 46.9318C45.3859 46.9697 45.2457 47.0076 45.0639 47.0455C44.8821 47.0871 44.6548 47.1098 44.3821 47.1136C43.9351 47.1212 43.5185 47.0417 43.1321 46.875C42.7457 46.7083 42.4332 46.4508 42.1946 46.1023C41.956 45.7538 41.8366 45.3163 41.8366 44.7898V36.1818ZM53.9787 47.1932C53.4257 47.1932 52.9257 47.0909 52.4787 46.8864C52.0317 46.678 51.6776 46.3769 51.4162 45.983C51.1586 45.589 51.0298 45.1061 51.0298 44.5341C51.0298 44.0417 51.1245 43.6364 51.3139 43.3182C51.5033 43 51.759 42.7481 52.081 42.5625C52.4029 42.3769 52.7628 42.2367 53.1605 42.142C53.5582 42.0473 53.9635 41.9754 54.3764 41.9261C54.8991 41.8655 55.3234 41.8163 55.6491 41.7784C55.9749 41.7367 56.2116 41.6705 56.3594 41.5795C56.5071 41.4886 56.581 41.3409 56.581 41.1364V41.0966C56.581 40.6004 56.4408 40.2159 56.1605 39.9432C55.884 39.6705 55.4711 39.5341 54.9219 39.5341C54.3499 39.5341 53.8991 39.661 53.5696 39.9148C53.2438 40.1648 53.0185 40.4432 52.8935 40.75L51.2969 40.3864C51.4863 39.8561 51.7628 39.428 52.1264 39.1023C52.4938 38.7727 52.9162 38.5341 53.3935 38.3864C53.8707 38.2348 54.3726 38.1591 54.8991 38.1591C55.2476 38.1591 55.617 38.2008 56.0071 38.2841C56.401 38.3636 56.7685 38.5114 57.1094 38.7273C57.4541 38.9432 57.7363 39.2519 57.956 39.6534C58.1757 40.0511 58.2855 40.5682 58.2855 41.2045V47H56.6264V45.8068H56.5582C56.4484 46.0265 56.2836 46.2424 56.0639 46.4545C55.8442 46.6667 55.562 46.8428 55.2173 46.983C54.8726 47.1231 54.4598 47.1932 53.9787 47.1932ZM54.348 45.8295C54.8177 45.8295 55.2192 45.7367 55.5526 45.5511C55.8897 45.3655 56.1454 45.1231 56.3196 44.8239C56.4976 44.5208 56.5866 44.197 56.5866 43.8523V42.7273C56.526 42.7879 56.4086 42.8447 56.2344 42.8977C56.0639 42.947 55.8688 42.9905 55.6491 43.0284C55.4295 43.0625 55.2154 43.0947 55.0071 43.125C54.7988 43.1515 54.6245 43.1742 54.4844 43.1932C54.1548 43.2348 53.8537 43.3049 53.581 43.4034C53.312 43.5019 53.0961 43.6439 52.9332 43.8295C52.7741 44.0114 52.6946 44.2538 52.6946 44.5568C52.6946 44.9773 52.8499 45.2955 53.1605 45.5114C53.4711 45.7235 53.867 45.8295 54.348 45.8295ZM64.2244 47.1761C63.3797 47.1761 62.6525 46.9848 62.0426 46.6023C61.4366 46.2159 60.9706 45.6837 60.6449 45.0057C60.3191 44.3277 60.1562 43.5511 60.1562 42.6761C60.1562 41.7898 60.3229 41.0076 60.6562 40.3295C60.9896 39.6477 61.4593 39.1155 62.0653 38.733C62.6714 38.3504 63.3854 38.1591 64.2074 38.1591C64.8703 38.1591 65.4612 38.2822 65.9801 38.5284C66.4991 38.7708 66.9176 39.1117 67.2358 39.5511C67.5578 39.9905 67.7491 40.5038 67.8097 41.0909H66.1562C66.0653 40.6818 65.857 40.3295 65.5312 40.0341C65.2093 39.7386 64.7775 39.5909 64.2358 39.5909C63.7623 39.5909 63.3475 39.7159 62.9915 39.9659C62.6392 40.2121 62.3646 40.5644 62.1676 41.0227C61.9706 41.4773 61.8722 42.0152 61.8722 42.6364C61.8722 43.2727 61.9688 43.822 62.1619 44.2841C62.3551 44.7462 62.6278 45.1042 62.9801 45.358C63.3362 45.6117 63.7547 45.7386 64.2358 45.7386C64.5578 45.7386 64.8494 45.6799 65.1108 45.5625C65.3759 45.4413 65.5975 45.2689 65.7756 45.0455C65.9574 44.822 66.0843 44.553 66.1562 44.2386H67.8097C67.7491 44.803 67.5653 45.3068 67.2585 45.75C66.9517 46.1932 66.5407 46.5417 66.0256 46.7955C65.5142 47.0492 64.9138 47.1761 64.2244 47.1761ZM73.3026 47.1761C72.4579 47.1761 71.7306 46.9848 71.1207 46.6023C70.5147 46.2159 70.0488 45.6837 69.723 45.0057C69.3973 44.3277 69.2344 43.5511 69.2344 42.6761C69.2344 41.7898 69.401 41.0076 69.7344 40.3295C70.0677 39.6477 70.5374 39.1155 71.1435 38.733C71.7495 38.3504 72.4635 38.1591 73.2855 38.1591C73.9484 38.1591 74.5393 38.2822 75.0582 38.5284C75.5772 38.7708 75.9957 39.1117 76.3139 39.5511C76.6359 39.9905 76.8272 40.5038 76.8878 41.0909H75.2344C75.1435 40.6818 74.9351 40.3295 74.6094 40.0341C74.2874 39.7386 73.8556 39.5909 73.3139 39.5909C72.8404 39.5909 72.4257 39.7159 72.0696 39.9659C71.7173 40.2121 71.4427 40.5644 71.2457 41.0227C71.0488 41.4773 70.9503 42.0152 70.9503 42.6364C70.9503 43.2727 71.0469 43.822 71.2401 44.2841C71.4332 44.7462 71.706 45.1042 72.0582 45.358C72.4143 45.6117 72.8329 45.7386 73.3139 45.7386C73.6359 45.7386 73.9276 45.6799 74.1889 45.5625C74.4541 45.4413 74.6757 45.2689 74.8537 45.0455C75.0355 44.822 75.1624 44.553 75.2344 44.2386H76.8878C76.8272 44.803 76.6435 45.3068 76.3366 45.75C76.0298 46.1932 75.6188 46.5417 75.1037 46.7955C74.5923 47.0492 73.992 47.1761 73.3026 47.1761ZM82.4659 47.1761C81.6061 47.1761 80.8655 46.9924 80.2443 46.625C79.6269 46.2538 79.1496 45.733 78.8125 45.0625C78.4792 44.3883 78.3125 43.5985 78.3125 42.6932C78.3125 41.7992 78.4792 41.0114 78.8125 40.3295C79.1496 39.6477 79.6193 39.1155 80.2216 38.733C80.8277 38.3504 81.536 38.1591 82.3466 38.1591C82.839 38.1591 83.3163 38.2405 83.7784 38.4034C84.2405 38.5663 84.6553 38.822 85.0227 39.1705C85.3902 39.5189 85.6799 39.9716 85.892 40.5284C86.1042 41.0814 86.2102 41.7538 86.2102 42.5455V43.1477H79.2727V41.875H84.5455C84.5455 41.428 84.4545 41.0322 84.2727 40.6875C84.0909 40.339 83.8352 40.0644 83.5057 39.8636C83.1799 39.6629 82.7973 39.5625 82.358 39.5625C81.8807 39.5625 81.464 39.6799 81.108 39.9148C80.7557 40.1458 80.483 40.4489 80.2898 40.8239C80.1004 41.1951 80.0057 41.5985 80.0057 42.0341V43.0284C80.0057 43.6117 80.108 44.108 80.3125 44.517C80.5208 44.9261 80.8106 45.2386 81.1818 45.4545C81.553 45.6667 81.9867 45.7727 82.483 45.7727C82.8049 45.7727 83.0985 45.7273 83.3636 45.6364C83.6288 45.5417 83.858 45.4015 84.0511 45.2159C84.2443 45.0303 84.392 44.8011 84.4943 44.5284L86.1023 44.8182C85.9735 45.2917 85.7424 45.7064 85.4091 46.0625C85.0795 46.4148 84.6648 46.6894 84.1648 46.8864C83.6686 47.0795 83.1023 47.1761 82.4659 47.1761ZM94.6349 40.4034L93.0952 40.6761C93.0308 40.4792 92.9285 40.2917 92.7884 40.1136C92.652 39.9356 92.4664 39.7898 92.2315 39.6761C91.9967 39.5625 91.7031 39.5057 91.3509 39.5057C90.8698 39.5057 90.4683 39.6136 90.1463 39.8295C89.8243 40.0417 89.6634 40.3163 89.6634 40.6534C89.6634 40.9451 89.7713 41.1799 89.9872 41.358C90.2031 41.536 90.5516 41.6818 91.0327 41.7955L92.419 42.1136C93.2221 42.2992 93.8205 42.5852 94.2145 42.9716C94.6084 43.358 94.8054 43.8598 94.8054 44.4773C94.8054 45 94.6539 45.4659 94.3509 45.875C94.0516 46.2803 93.633 46.5985 93.0952 46.8295C92.5611 47.0606 91.9418 47.1761 91.2372 47.1761C90.2599 47.1761 89.4626 46.9678 88.8452 46.5511C88.2277 46.1307 87.849 45.5341 87.7088 44.7614L89.3509 44.5114C89.4531 44.9394 89.6634 45.2633 89.9815 45.483C90.2997 45.6989 90.7145 45.8068 91.2259 45.8068C91.7827 45.8068 92.2277 45.6913 92.5611 45.4602C92.8944 45.2254 93.0611 44.9394 93.0611 44.6023C93.0611 44.3295 92.9588 44.1004 92.7543 43.9148C92.5535 43.7292 92.2448 43.589 91.8281 43.4943L90.3509 43.1705C89.5365 42.9848 88.9342 42.6894 88.544 42.2841C88.1577 41.8788 87.9645 41.3655 87.9645 40.7443C87.9645 40.2292 88.1084 39.7784 88.3963 39.392C88.6842 39.0057 89.0819 38.7045 89.5895 38.4886C90.0971 38.2689 90.6785 38.1591 91.3338 38.1591C92.277 38.1591 93.0194 38.3636 93.5611 38.7727C94.1027 39.178 94.4607 39.7216 94.6349 40.4034ZM103.213 40.4034L101.673 40.6761C101.609 40.4792 101.507 40.2917 101.366 40.1136C101.23 39.9356 101.045 39.7898 100.81 39.6761C100.575 39.5625 100.281 39.5057 99.929 39.5057C99.4479 39.5057 99.0464 39.6136 98.7244 39.8295C98.4025 40.0417 98.2415 40.3163 98.2415 40.6534C98.2415 40.9451 98.3494 41.1799 98.5653 41.358C98.7813 41.536 99.1297 41.6818 99.6108 41.7955L100.997 42.1136C101.8 42.2992 102.399 42.5852 102.793 42.9716C103.187 43.358 103.384 43.8598 103.384 44.4773C103.384 45 103.232 45.4659 102.929 45.875C102.63 46.2803 102.211 46.5985 101.673 46.8295C101.139 47.0606 100.52 47.1761 99.8153 47.1761C98.8381 47.1761 98.0407 46.9678 97.4233 46.5511C96.8059 46.1307 96.4271 45.5341 96.2869 44.7614L97.929 44.5114C98.0313 44.9394 98.2415 45.2633 98.5597 45.483C98.8778 45.6989 99.2926 45.8068 99.804 45.8068C100.361 45.8068 100.806 45.6913 101.139 45.4602C101.473 45.2254 101.639 44.9394 101.639 44.6023C101.639 44.3295 101.537 44.1004 101.332 43.9148C101.132 43.7292 100.823 43.589 100.406 43.4943L98.929 43.1705C98.1146 42.9848 97.5123 42.6894 97.1222 42.2841C96.7358 41.8788 96.5426 41.3655 96.5426 40.7443C96.5426 40.2292 96.6866 39.7784 96.9744 39.392C97.2623 39.0057 97.66 38.7045 98.1676 38.4886C98.6752 38.2689 99.2566 38.1591 99.9119 38.1591C100.855 38.1591 101.598 38.3636 102.139 38.7727C102.681 39.178 103.039 39.7216 103.213 40.4034ZM105.251 47V38.2727H106.95V47H105.251ZM106.109 36.9261C105.814 36.9261 105.56 36.8277 105.348 36.6307C105.14 36.4299 105.036 36.1913 105.036 35.9148C105.036 35.6345 105.14 35.3958 105.348 35.1989C105.56 34.9981 105.814 34.8977 106.109 34.8977C106.405 34.8977 106.657 34.9981 106.865 35.1989C107.077 35.3958 107.183 35.6345 107.183 35.9148C107.183 36.1913 107.077 36.4299 106.865 36.6307C106.657 36.8277 106.405 36.9261 106.109 36.9261ZM109.372 47V35.3636H111.071V39.6875H111.173C111.272 39.5057 111.414 39.2955 111.599 39.0568C111.785 38.8182 112.043 38.6098 112.372 38.4318C112.702 38.25 113.137 38.1591 113.679 38.1591C114.384 38.1591 115.012 38.3371 115.565 38.6932C116.118 39.0492 116.552 39.5625 116.866 40.233C117.185 40.9034 117.344 41.7102 117.344 42.6534C117.344 43.5966 117.187 44.4053 116.872 45.0795C116.558 45.75 116.126 46.267 115.577 46.6307C115.027 46.9905 114.401 47.1705 113.696 47.1705C113.166 47.1705 112.732 47.0814 112.395 46.9034C112.062 46.7254 111.8 46.517 111.611 46.2784C111.421 46.0398 111.276 45.8277 111.173 45.642H111.031V47H109.372ZM111.037 42.6364C111.037 43.25 111.126 43.7879 111.304 44.25C111.482 44.7121 111.74 45.0739 112.077 45.3352C112.414 45.5928 112.827 45.7216 113.315 45.7216C113.823 45.7216 114.247 45.5871 114.588 45.3182C114.929 45.0455 115.187 44.6761 115.361 44.2102C115.539 43.7443 115.628 43.2197 115.628 42.6364C115.628 42.0606 115.541 41.5436 115.366 41.0852C115.196 40.6269 114.938 40.2652 114.594 40C114.253 39.7348 113.827 39.6023 113.315 39.6023C112.823 39.6023 112.406 39.7292 112.065 39.983C111.728 40.2367 111.473 40.5909 111.298 41.0455C111.124 41.5 111.037 42.0303 111.037 42.6364ZM120.95 35.3636V47H119.251V35.3636H120.95ZM126.997 47.1761C126.137 47.1761 125.397 46.9924 124.776 46.625C124.158 46.2538 123.681 45.733 123.344 45.0625C123.01 44.3883 122.844 43.5985 122.844 42.6932C122.844 41.7992 123.01 41.0114 123.344 40.3295C123.681 39.6477 124.151 39.1155 124.753 38.733C125.359 38.3504 126.067 38.1591 126.878 38.1591C127.37 38.1591 127.848 38.2405 128.31 38.4034C128.772 38.5663 129.187 38.822 129.554 39.1705C129.921 39.5189 130.211 39.9716 130.423 40.5284C130.635 41.0814 130.741 41.7538 130.741 42.5455V43.1477H123.804V41.875H129.077C129.077 41.428 128.986 41.0322 128.804 40.6875C128.622 40.339 128.366 40.0644 128.037 39.8636C127.711 39.6629 127.329 39.5625 126.889 39.5625C126.412 39.5625 125.995 39.6799 125.639 39.9148C125.287 40.1458 125.014 40.4489 124.821 40.8239C124.632 41.1951 124.537 41.5985 124.537 42.0341V43.0284C124.537 43.6117 124.639 44.108 124.844 44.517C125.052 44.9261 125.342 45.2386 125.713 45.4545C126.084 45.6667 126.518 45.7727 127.014 45.7727C127.336 45.7727 127.63 45.7273 127.895 45.6364C128.16 45.5417 128.389 45.4015 128.582 45.2159C128.776 45.0303 128.923 44.8011 129.026 44.5284L130.634 44.8182C130.505 45.2917 130.274 45.7064 129.94 46.0625C129.611 46.4148 129.196 46.6894 128.696 46.8864C128.2 47.0795 127.634 47.1761 126.997 47.1761Z" fill="#0F172A"/>
<path d="M349 39L353 43L357 39" stroke="#0F172A" stroke-width="1.33333" stroke-linecap="round" stroke-linejoin="round"/>
</g>
<g filter="url(#filter1_i_523_4543)">
<rect width="342" height="56" transform="translate(19 69)" fill="white"/>
<path d="M20.142 103V94.2727H21.8409V103H20.142ZM21 92.9261C20.7045 92.9261 20.4508 92.8277 20.2386 92.6307C20.0303 92.4299 19.9261 92.1913 19.9261 91.9148C19.9261 91.6345 20.0303 91.3958 20.2386 91.1989C20.4508 90.9981 20.7045 90.8977 21 90.8977C21.2955 90.8977 21.5473 90.9981 21.7557 91.1989C21.9678 91.3958 22.0739 91.6345 22.0739 91.9148C22.0739 92.1913 21.9678 92.4299 21.7557 92.6307C21.5473 92.8277 21.2955 92.9261 21 92.9261ZM30.6662 96.4034L29.1264 96.6761C29.062 96.4792 28.9598 96.2917 28.8196 96.1136C28.6832 95.9356 28.4976 95.7898 28.2628 95.6761C28.0279 95.5625 27.7344 95.5057 27.3821 95.5057C26.901 95.5057 26.4995 95.6136 26.1776 95.8295C25.8556 96.0417 25.6946 96.3163 25.6946 96.6534C25.6946 96.9451 25.8026 97.1799 26.0185 97.358C26.2344 97.536 26.5829 97.6818 27.0639 97.7955L28.4503 98.1136C29.2533 98.2992 29.8518 98.5852 30.2457 98.9716C30.6397 99.358 30.8366 99.8598 30.8366 100.477C30.8366 101 30.6851 101.466 30.3821 101.875C30.0829 102.28 29.6643 102.598 29.1264 102.83C28.5923 103.061 27.973 103.176 27.2685 103.176C26.2912 103.176 25.4938 102.968 24.8764 102.551C24.259 102.131 23.8802 101.534 23.7401 100.761L25.3821 100.511C25.4844 100.939 25.6946 101.263 26.0128 101.483C26.331 101.699 26.7457 101.807 27.2571 101.807C27.8139 101.807 28.259 101.691 28.5923 101.46C28.9257 101.225 29.0923 100.939 29.0923 100.602C29.0923 100.33 28.9901 100.1 28.7855 99.9148C28.5848 99.7292 28.276 99.589 27.8594 99.4943L26.3821 99.1705C25.5677 98.9848 24.9654 98.6894 24.5753 98.2841C24.1889 97.8788 23.9957 97.3655 23.9957 96.7443C23.9957 96.2292 24.1397 95.7784 24.4276 95.392C24.7154 95.0057 25.1132 94.7045 25.6207 94.4886C26.1283 94.2689 26.7098 94.1591 27.3651 94.1591C28.3082 94.1591 29.0507 94.3636 29.5923 94.7727C30.134 95.178 30.492 95.7216 30.6662 96.4034ZM36.9389 103V94.2727H38.6378V103H36.9389ZM37.7969 92.9261C37.5014 92.9261 37.2476 92.8277 37.0355 92.6307C36.8272 92.4299 36.723 92.1913 36.723 91.9148C36.723 91.6345 36.8272 91.3958 37.0355 91.1989C37.2476 90.9981 37.5014 90.8977 37.7969 90.8977C38.0923 90.8977 38.3442 90.9981 38.5526 91.1989C38.7647 91.3958 38.8707 91.6345 38.8707 91.9148C38.8707 92.1913 38.7647 92.4299 38.5526 92.6307C38.3442 92.8277 38.0923 92.9261 37.7969 92.9261ZM44.9972 94.2727V95.6364H40.2301V94.2727H44.9972ZM41.5085 92.1818H43.2074V100.438C43.2074 100.767 43.2566 101.015 43.3551 101.182C43.4536 101.345 43.5805 101.456 43.7358 101.517C43.8949 101.574 44.0672 101.602 44.2528 101.602C44.3892 101.602 44.5085 101.593 44.6108 101.574C44.7131 101.555 44.7926 101.54 44.8494 101.528L45.1562 102.932C45.0578 102.97 44.9176 103.008 44.7358 103.045C44.554 103.087 44.3267 103.11 44.054 103.114C43.607 103.121 43.1903 103.042 42.804 102.875C42.4176 102.708 42.1051 102.451 41.8665 102.102C41.6278 101.754 41.5085 101.316 41.5085 100.79V92.1818ZM57.6506 96.4034L56.1108 96.6761C56.0464 96.4792 55.9441 96.2917 55.804 96.1136C55.6676 95.9356 55.482 95.7898 55.2472 95.6761C55.0123 95.5625 54.7188 95.5057 54.3665 95.5057C53.8854 95.5057 53.4839 95.6136 53.1619 95.8295C52.84 96.0417 52.679 96.3163 52.679 96.6534C52.679 96.9451 52.7869 97.1799 53.0028 97.358C53.2188 97.536 53.5672 97.6818 54.0483 97.7955L55.4347 98.1136C56.2377 98.2992 56.8362 98.5852 57.2301 98.9716C57.6241 99.358 57.821 99.8598 57.821 100.477C57.821 101 57.6695 101.466 57.3665 101.875C57.0672 102.28 56.6487 102.598 56.1108 102.83C55.5767 103.061 54.9574 103.176 54.2528 103.176C53.2756 103.176 52.4782 102.968 51.8608 102.551C51.2434 102.131 50.8646 101.534 50.7244 100.761L52.3665 100.511C52.4688 100.939 52.679 101.263 52.9972 101.483C53.3153 101.699 53.7301 101.807 54.2415 101.807C54.7983 101.807 55.2434 101.691 55.5767 101.46C55.91 101.225 56.0767 100.939 56.0767 100.602C56.0767 100.33 55.9744 100.1 55.7699 99.9148C55.5691 99.7292 55.2604 99.589 54.8438 99.4943L53.3665 99.1705C52.5521 98.9848 51.9498 98.6894 51.5597 98.2841C51.1733 97.8788 50.9801 97.3655 50.9801 96.7443C50.9801 96.2292 51.1241 95.7784 51.4119 95.392C51.6998 95.0057 52.0975 94.7045 52.6051 94.4886C53.1127 94.2689 53.6941 94.1591 54.3494 94.1591C55.2926 94.1591 56.035 94.3636 56.5767 94.7727C57.1184 95.178 57.4763 95.7216 57.6506 96.4034ZM63.7628 94.2727V95.6364H58.9957V94.2727H63.7628ZM60.2741 92.1818H61.973V100.438C61.973 100.767 62.0223 101.015 62.1207 101.182C62.2192 101.345 62.3461 101.456 62.5014 101.517C62.6605 101.574 62.8329 101.602 63.0185 101.602C63.1548 101.602 63.2741 101.593 63.3764 101.574C63.4787 101.555 63.5582 101.54 63.6151 101.528L63.9219 102.932C63.8234 102.97 63.6832 103.008 63.5014 103.045C63.3196 103.087 63.0923 103.11 62.8196 103.114C62.3726 103.121 61.956 103.042 61.5696 102.875C61.1832 102.708 60.8707 102.451 60.6321 102.102C60.3935 101.754 60.2741 101.316 60.2741 100.79V92.1818ZM66.7159 106.273C66.4621 106.273 66.2311 106.252 66.0227 106.21C65.8144 106.172 65.6591 106.131 65.5568 106.085L65.9659 104.693C66.2765 104.777 66.553 104.813 66.7955 104.801C67.0379 104.79 67.2519 104.699 67.4375 104.528C67.6269 104.358 67.7936 104.08 67.9375 103.693L68.1477 103.114L64.9545 94.2727H66.7727L68.983 101.045H69.0739L71.2841 94.2727H73.108L69.5114 104.165C69.3447 104.619 69.1326 105.004 68.875 105.318C68.6174 105.636 68.3106 105.875 67.9545 106.034C67.5985 106.193 67.1856 106.273 66.7159 106.273ZM76.4034 91.3636V103H74.7045V91.3636H76.4034ZM82.4503 103.176C81.5904 103.176 80.8499 102.992 80.2287 102.625C79.6113 102.254 79.134 101.733 78.7969 101.062C78.4635 100.388 78.2969 99.5985 78.2969 98.6932C78.2969 97.7992 78.4635 97.0114 78.7969 96.3295C79.134 95.6477 79.6037 95.1155 80.206 94.733C80.812 94.3504 81.5204 94.1591 82.331 94.1591C82.8234 94.1591 83.3007 94.2405 83.7628 94.4034C84.2249 94.5663 84.6397 94.822 85.0071 95.1705C85.3745 95.5189 85.6643 95.9716 85.8764 96.5284C86.0885 97.0814 86.1946 97.7538 86.1946 98.5455V99.1477H79.2571V97.875H84.5298C84.5298 97.428 84.4389 97.0322 84.2571 96.6875C84.0753 96.339 83.8196 96.0644 83.4901 95.8636C83.1643 95.6629 82.7817 95.5625 82.3423 95.5625C81.8651 95.5625 81.4484 95.6799 81.0923 95.9148C80.7401 96.1458 80.4673 96.4489 80.2741 96.8239C80.0848 97.1951 79.9901 97.5985 79.9901 98.0341V99.0284C79.9901 99.6117 80.0923 100.108 80.2969 100.517C80.5052 100.926 80.795 101.239 81.1662 101.455C81.5374 101.667 81.9711 101.773 82.4673 101.773C82.7893 101.773 83.0829 101.727 83.348 101.636C83.6132 101.542 83.8423 101.402 84.0355 101.216C84.2287 101.03 84.3764 100.801 84.4787 100.528L86.0866 100.818C85.9579 101.292 85.7268 101.706 85.3935 102.062C85.0639 102.415 84.6491 102.689 84.1491 102.886C83.6529 103.08 83.0866 103.176 82.4503 103.176ZM91.3466 103.17C90.642 103.17 90.0133 102.991 89.4602 102.631C88.911 102.267 88.4792 101.75 88.1648 101.08C87.8542 100.405 87.6989 99.5966 87.6989 98.6534C87.6989 97.7102 87.8561 96.9034 88.1705 96.233C88.4886 95.5625 88.9242 95.0492 89.4773 94.6932C90.0303 94.3371 90.6572 94.1591 91.358 94.1591C91.8996 94.1591 92.3352 94.25 92.6648 94.4318C92.9981 94.6098 93.2557 94.8182 93.4375 95.0568C93.6231 95.2955 93.767 95.5057 93.8693 95.6875H93.9716V91.3636H95.6705V103H94.0114V101.642H93.8693C93.767 101.828 93.6193 102.04 93.4261 102.278C93.2367 102.517 92.9754 102.725 92.642 102.903C92.3087 103.081 91.8769 103.17 91.3466 103.17ZM91.7216 101.722C92.2102 101.722 92.6231 101.593 92.9602 101.335C93.3011 101.074 93.5587 100.712 93.733 100.25C93.911 99.7879 94 99.25 94 98.6364C94 98.0303 93.9129 97.5 93.7386 97.0455C93.5644 96.5909 93.3087 96.2367 92.9716 95.983C92.6345 95.7292 92.2178 95.6023 91.7216 95.6023C91.2102 95.6023 90.7841 95.7348 90.4432 96C90.1023 96.2652 89.8447 96.6269 89.6705 97.0852C89.5 97.5436 89.4148 98.0606 89.4148 98.6364C89.4148 99.2197 89.5019 99.7443 89.6761 100.21C89.8504 100.676 90.108 101.045 90.4489 101.318C90.7936 101.587 91.2178 101.722 91.7216 101.722Z" fill="#0F172A"/>
<path d="M349 95L353 99L357 95" stroke="#0F172A" stroke-width="1.33333" stroke-linecap="round" stroke-linejoin="round"/>
</g>
<g filter="url(#filter2_i_523_4543)">
<rect width="342" height="112" transform="translate(19 125)" fill="white"/>
<rect width="342" height="56" transform="translate(19 125)" fill="white"/>
<path d="M22.0341 147.364V159H20.2784V147.364H22.0341ZM30.9943 152.403L29.4545 152.676C29.3902 152.479 29.2879 152.292 29.1477 152.114C29.0114 151.936 28.8258 151.79 28.5909 151.676C28.3561 151.562 28.0625 151.506 27.7102 151.506C27.2292 151.506 26.8277 151.614 26.5057 151.83C26.1837 152.042 26.0227 152.316 26.0227 152.653C26.0227 152.945 26.1307 153.18 26.3466 153.358C26.5625 153.536 26.911 153.682 27.392 153.795L28.7784 154.114C29.5814 154.299 30.1799 154.585 30.5739 154.972C30.9678 155.358 31.1648 155.86 31.1648 156.477C31.1648 157 31.0133 157.466 30.7102 157.875C30.411 158.28 29.9924 158.598 29.4545 158.83C28.9205 159.061 28.3011 159.176 27.5966 159.176C26.6193 159.176 25.822 158.968 25.2045 158.551C24.5871 158.131 24.2083 157.534 24.0682 156.761L25.7102 156.511C25.8125 156.939 26.0227 157.263 26.3409 157.483C26.6591 157.699 27.0739 157.807 27.5852 157.807C28.142 157.807 28.5871 157.691 28.9205 157.46C29.2538 157.225 29.4205 156.939 29.4205 156.602C29.4205 156.33 29.3182 156.1 29.1136 155.915C28.9129 155.729 28.6042 155.589 28.1875 155.494L26.7102 155.17C25.8958 154.985 25.2936 154.689 24.9034 154.284C24.517 153.879 24.3239 153.366 24.3239 152.744C24.3239 152.229 24.4678 151.778 24.7557 151.392C25.0436 151.006 25.4413 150.705 25.9489 150.489C26.4564 150.269 27.0379 150.159 27.6932 150.159C28.6364 150.159 29.3788 150.364 29.9205 150.773C30.4621 151.178 30.8201 151.722 30.9943 152.403ZM37.267 159V150.273H38.9659V159H37.267ZM38.125 148.926C37.8295 148.926 37.5758 148.828 37.3636 148.631C37.1553 148.43 37.0511 148.191 37.0511 147.915C37.0511 147.634 37.1553 147.396 37.3636 147.199C37.5758 146.998 37.8295 146.898 38.125 146.898C38.4205 146.898 38.6723 146.998 38.8807 147.199C39.0928 147.396 39.1989 147.634 39.1989 147.915C39.1989 148.191 39.0928 148.43 38.8807 148.631C38.6723 148.828 38.4205 148.926 38.125 148.926ZM45.3253 150.273V151.636H40.5582V150.273H45.3253ZM41.8366 148.182H43.5355V156.438C43.5355 156.767 43.5848 157.015 43.6832 157.182C43.7817 157.345 43.9086 157.456 44.0639 157.517C44.223 157.574 44.3954 157.602 44.581 157.602C44.7173 157.602 44.8366 157.593 44.9389 157.574C45.0412 157.555 45.1207 157.54 45.1776 157.528L45.4844 158.932C45.3859 158.97 45.2457 159.008 45.0639 159.045C44.8821 159.087 44.6548 159.11 44.3821 159.114C43.9351 159.121 43.5185 159.042 43.1321 158.875C42.7457 158.708 42.4332 158.451 42.1946 158.102C41.956 157.754 41.8366 157.316 41.8366 156.79V148.182ZM53.9787 159.193C53.4257 159.193 52.9257 159.091 52.4787 158.886C52.0317 158.678 51.6776 158.377 51.4162 157.983C51.1586 157.589 51.0298 157.106 51.0298 156.534C51.0298 156.042 51.1245 155.636 51.3139 155.318C51.5033 155 51.759 154.748 52.081 154.562C52.4029 154.377 52.7628 154.237 53.1605 154.142C53.5582 154.047 53.9635 153.975 54.3764 153.926C54.8991 153.866 55.3234 153.816 55.6491 153.778C55.9749 153.737 56.2116 153.67 56.3594 153.58C56.5071 153.489 56.581 153.341 56.581 153.136V153.097C56.581 152.6 56.4408 152.216 56.1605 151.943C55.884 151.67 55.4711 151.534 54.9219 151.534C54.3499 151.534 53.8991 151.661 53.5696 151.915C53.2438 152.165 53.0185 152.443 52.8935 152.75L51.2969 152.386C51.4863 151.856 51.7628 151.428 52.1264 151.102C52.4938 150.773 52.9162 150.534 53.3935 150.386C53.8707 150.235 54.3726 150.159 54.8991 150.159C55.2476 150.159 55.617 150.201 56.0071 150.284C56.401 150.364 56.7685 150.511 57.1094 150.727C57.4541 150.943 57.7363 151.252 57.956 151.653C58.1757 152.051 58.2855 152.568 58.2855 153.205V159H56.6264V157.807H56.5582C56.4484 158.027 56.2836 158.242 56.0639 158.455C55.8442 158.667 55.562 158.843 55.2173 158.983C54.8726 159.123 54.4598 159.193 53.9787 159.193ZM54.348 157.83C54.8177 157.83 55.2192 157.737 55.5526 157.551C55.8897 157.366 56.1454 157.123 56.3196 156.824C56.4976 156.521 56.5866 156.197 56.5866 155.852V154.727C56.526 154.788 56.4086 154.845 56.2344 154.898C56.0639 154.947 55.8688 154.991 55.6491 155.028C55.4295 155.062 55.2154 155.095 55.0071 155.125C54.7988 155.152 54.6245 155.174 54.4844 155.193C54.1548 155.235 53.8537 155.305 53.581 155.403C53.312 155.502 53.0961 155.644 52.9332 155.83C52.7741 156.011 52.6946 156.254 52.6946 156.557C52.6946 156.977 52.8499 157.295 53.1605 157.511C53.4711 157.723 53.867 157.83 54.348 157.83ZM62.2472 153.818V159H60.5483V150.273H62.179V151.693H62.2869C62.4877 151.231 62.8021 150.86 63.2301 150.58C63.6619 150.299 64.2055 150.159 64.8608 150.159C65.4555 150.159 65.9763 150.284 66.4233 150.534C66.8703 150.78 67.2169 151.148 67.4631 151.636C67.7093 152.125 67.8324 152.729 67.8324 153.449V159H66.1335V153.653C66.1335 153.021 65.9688 152.527 65.6392 152.17C65.3097 151.811 64.857 151.631 64.2812 151.631C63.8873 151.631 63.5369 151.716 63.2301 151.886C62.9271 152.057 62.6866 152.307 62.5085 152.636C62.3343 152.962 62.2472 153.356 62.2472 153.818ZM70.8722 162.273C70.6184 162.273 70.3873 162.252 70.179 162.21C69.9706 162.172 69.8153 162.131 69.7131 162.085L70.1222 160.693C70.4328 160.777 70.7093 160.813 70.9517 160.801C71.1941 160.79 71.4081 160.699 71.5938 160.528C71.7831 160.358 71.9498 160.08 72.0938 159.693L72.304 159.114L69.1108 150.273H70.929L73.1392 157.045H73.2301L75.4403 150.273H77.2642L73.6676 160.165C73.5009 160.619 73.2888 161.004 73.0312 161.318C72.7737 161.636 72.4669 161.875 72.1108 162.034C71.7547 162.193 71.3419 162.273 70.8722 162.273ZM78.8608 159V150.273H80.4915V151.693H80.5994C80.7813 151.212 81.0786 150.837 81.4915 150.568C81.9044 150.295 82.3987 150.159 82.9744 150.159C83.5578 150.159 84.0464 150.295 84.4403 150.568C84.8381 150.841 85.1316 151.216 85.321 151.693H85.4119C85.6203 151.227 85.9517 150.856 86.4062 150.58C86.8608 150.299 87.4025 150.159 88.0312 150.159C88.8229 150.159 89.4688 150.407 89.9688 150.903C90.4725 151.4 90.7244 152.148 90.7244 153.148V159H89.0256V153.307C89.0256 152.716 88.8646 152.288 88.5426 152.023C88.2206 151.758 87.8362 151.625 87.3892 151.625C86.8362 151.625 86.4062 151.795 86.0994 152.136C85.7926 152.473 85.6392 152.907 85.6392 153.438V159H83.946V153.199C83.946 152.725 83.7983 152.345 83.5028 152.057C83.2074 151.769 82.8229 151.625 82.3494 151.625C82.0275 151.625 81.7301 151.71 81.4574 151.881C81.1884 152.047 80.9706 152.28 80.804 152.58C80.6411 152.879 80.5597 153.225 80.5597 153.619V159H78.8608ZM95.5412 159.193C94.9882 159.193 94.4882 159.091 94.0412 158.886C93.5942 158.678 93.2401 158.377 92.9787 157.983C92.7211 157.589 92.5923 157.106 92.5923 156.534C92.5923 156.042 92.687 155.636 92.8764 155.318C93.0658 155 93.3215 154.748 93.6435 154.562C93.9654 154.377 94.3253 154.237 94.723 154.142C95.1207 154.047 95.526 153.975 95.9389 153.926C96.4616 153.866 96.8859 153.816 97.2116 153.778C97.5374 153.737 97.7741 153.67 97.9219 153.58C98.0696 153.489 98.1435 153.341 98.1435 153.136V153.097C98.1435 152.6 98.0033 152.216 97.723 151.943C97.4465 151.67 97.0336 151.534 96.4844 151.534C95.9124 151.534 95.4616 151.661 95.1321 151.915C94.8063 152.165 94.581 152.443 94.456 152.75L92.8594 152.386C93.0488 151.856 93.3253 151.428 93.6889 151.102C94.0563 150.773 94.4787 150.534 94.956 150.386C95.4332 150.235 95.9351 150.159 96.4616 150.159C96.8101 150.159 97.1795 150.201 97.5696 150.284C97.9635 150.364 98.331 150.511 98.6719 150.727C99.0166 150.943 99.2988 151.252 99.5185 151.653C99.7382 152.051 99.848 152.568 99.848 153.205V159H98.1889V157.807H98.1207C98.0109 158.027 97.8461 158.242 97.6264 158.455C97.4067 158.667 97.1245 158.843 96.7798 158.983C96.4351 159.123 96.0223 159.193 95.5412 159.193ZM95.9105 157.83C96.3802 157.83 96.7817 157.737 97.1151 157.551C97.4522 157.366 97.7079 157.123 97.8821 156.824C98.0601 156.521 98.1491 156.197 98.1491 155.852V154.727C98.0885 154.788 97.9711 154.845 97.7969 154.898C97.6264 154.947 97.4313 154.991 97.2116 155.028C96.992 155.062 96.7779 155.095 96.5696 155.125C96.3613 155.152 96.187 155.174 96.0469 155.193C95.7173 155.235 95.4162 155.305 95.1435 155.403C94.8745 155.502 94.6586 155.644 94.4957 155.83C94.3366 156.011 94.2571 156.254 94.2571 156.557C94.2571 156.977 94.4124 157.295 94.723 157.511C95.0336 157.723 95.4295 157.83 95.9105 157.83ZM106.185 150.273V151.636H101.418V150.273H106.185ZM102.696 148.182H104.395V156.438C104.395 156.767 104.444 157.015 104.543 157.182C104.641 157.345 104.768 157.456 104.923 157.517C105.082 157.574 105.255 157.602 105.44 157.602C105.577 157.602 105.696 157.593 105.798 157.574C105.901 157.555 105.98 157.54 106.037 157.528L106.344 158.932C106.245 158.97 106.105 159.008 105.923 159.045C105.741 159.087 105.514 159.11 105.241 159.114C104.795 159.121 104.378 159.042 103.991 158.875C103.605 158.708 103.293 158.451 103.054 158.102C102.815 157.754 102.696 157.316 102.696 156.79V148.182ZM111.732 159.176C110.872 159.176 110.131 158.992 109.51 158.625C108.893 158.254 108.415 157.733 108.078 157.062C107.745 156.388 107.578 155.598 107.578 154.693C107.578 153.799 107.745 153.011 108.078 152.33C108.415 151.648 108.885 151.116 109.487 150.733C110.093 150.35 110.802 150.159 111.612 150.159C112.105 150.159 112.582 150.241 113.044 150.403C113.506 150.566 113.921 150.822 114.288 151.17C114.656 151.519 114.946 151.972 115.158 152.528C115.37 153.081 115.476 153.754 115.476 154.545V155.148H108.538V153.875H113.811C113.811 153.428 113.72 153.032 113.538 152.688C113.357 152.339 113.101 152.064 112.771 151.864C112.446 151.663 112.063 151.562 111.624 151.562C111.146 151.562 110.73 151.68 110.374 151.915C110.021 152.146 109.749 152.449 109.555 152.824C109.366 153.195 109.271 153.598 109.271 154.034V155.028C109.271 155.612 109.374 156.108 109.578 156.517C109.786 156.926 110.076 157.239 110.447 157.455C110.819 157.667 111.252 157.773 111.749 157.773C112.071 157.773 112.364 157.727 112.629 157.636C112.894 157.542 113.124 157.402 113.317 157.216C113.51 157.03 113.658 156.801 113.76 156.528L115.368 156.818C115.239 157.292 115.008 157.706 114.675 158.062C114.345 158.415 113.93 158.689 113.43 158.886C112.934 159.08 112.368 159.176 111.732 159.176ZM120.628 159.17C119.923 159.17 119.295 158.991 118.741 158.631C118.192 158.267 117.76 157.75 117.446 157.08C117.135 156.405 116.98 155.597 116.98 154.653C116.98 153.71 117.137 152.903 117.452 152.233C117.77 151.562 118.205 151.049 118.759 150.693C119.312 150.337 119.938 150.159 120.639 150.159C121.181 150.159 121.616 150.25 121.946 150.432C122.279 150.61 122.537 150.818 122.719 151.057C122.904 151.295 123.048 151.506 123.151 151.688H123.253V147.364H124.952V159H123.293V157.642H123.151C123.048 157.828 122.901 158.04 122.707 158.278C122.518 158.517 122.257 158.725 121.923 158.903C121.59 159.081 121.158 159.17 120.628 159.17ZM121.003 157.722C121.491 157.722 121.904 157.593 122.241 157.335C122.582 157.074 122.84 156.712 123.014 156.25C123.192 155.788 123.281 155.25 123.281 154.636C123.281 154.03 123.194 153.5 123.02 153.045C122.846 152.591 122.59 152.237 122.253 151.983C121.916 151.729 121.499 151.602 121.003 151.602C120.491 151.602 120.065 151.735 119.724 152C119.384 152.265 119.126 152.627 118.952 153.085C118.781 153.544 118.696 154.061 118.696 154.636C118.696 155.22 118.783 155.744 118.957 156.21C119.132 156.676 119.389 157.045 119.73 157.318C120.075 157.587 120.499 157.722 121.003 157.722Z" fill="#0F172A"/>
<path d="M357 155L353 151L349 155" stroke="#0F172A" stroke-width="1.33333" stroke-linecap="round" stroke-linejoin="round"/>
<path d="M19.358 185.818H20.7699L23.5938 190.571H23.7131L26.5369 185.818H27.9489L24.2699 191.804V196H23.0369V191.804L19.358 185.818ZM31.506 196.159C30.7702 196.159 30.1355 195.997 29.6019 195.672C29.0716 195.344 28.6623 194.886 28.3739 194.3C28.0889 193.71 27.9464 193.024 27.9464 192.241C27.9464 191.459 28.0889 190.77 28.3739 190.173C28.6623 189.573 29.0633 189.106 29.5771 188.771C30.0941 188.433 30.6973 188.264 31.3867 188.264C31.7844 188.264 32.1772 188.33 32.565 188.463C32.9528 188.596 33.3058 188.811 33.6239 189.109C33.9421 189.404 34.1957 189.795 34.3846 190.283C34.5735 190.77 34.668 191.37 34.668 192.082V192.58H28.7816V191.565H33.4748C33.4748 191.134 33.3886 190.75 33.2163 190.412C33.0472 190.074 32.8053 189.807 32.4904 189.612C32.1789 189.416 31.811 189.318 31.3867 189.318C30.9194 189.318 30.515 189.434 30.1737 189.666C29.8356 189.895 29.5754 190.193 29.3931 190.561C29.2108 190.929 29.1197 191.323 29.1197 191.744V192.42C29.1197 192.997 29.2191 193.486 29.418 193.887C29.6201 194.285 29.9002 194.588 30.2582 194.797C30.6161 195.002 31.0321 195.105 31.506 195.105C31.8143 195.105 32.0927 195.062 32.3413 194.976C32.5932 194.886 32.8103 194.754 32.9925 194.578C33.1748 194.399 33.3157 194.177 33.4151 193.912L34.5487 194.23C34.4293 194.615 34.2288 194.953 33.9471 195.244C33.6654 195.533 33.3174 195.758 32.9031 195.92C32.4888 196.08 32.0231 196.159 31.506 196.159ZM41.8619 190.074L40.8079 190.372C40.7416 190.196 40.6438 190.026 40.5146 189.86C40.3886 189.691 40.2163 189.552 39.9975 189.442C39.7788 189.333 39.4987 189.278 39.1573 189.278C38.69 189.278 38.3005 189.386 37.989 189.602C37.6808 189.814 37.5266 190.084 37.5266 190.412C37.5266 190.704 37.6327 190.934 37.8448 191.103C38.0569 191.272 38.3884 191.413 38.8391 191.526L39.9727 191.804C40.6554 191.97 41.1642 192.223 41.4989 192.565C41.8337 192.903 42.0011 193.339 42.0011 193.872C42.0011 194.31 41.8751 194.701 41.6232 195.045C41.3746 195.39 41.0266 195.662 40.5792 195.861C40.1317 196.06 39.6114 196.159 39.0181 196.159C38.2392 196.159 37.5946 195.99 37.0842 195.652C36.5737 195.314 36.2506 194.82 36.1147 194.17L37.2283 193.892C37.3344 194.303 37.5349 194.611 37.8299 194.817C38.1282 195.022 38.5176 195.125 38.9982 195.125C39.5451 195.125 39.9793 195.009 40.3008 194.777C40.6256 194.542 40.788 194.26 40.788 193.932C40.788 193.667 40.6952 193.445 40.5096 193.266C40.324 193.083 40.0389 192.947 39.6545 192.858L38.3817 192.56C37.6824 192.394 37.1687 192.137 36.8406 191.789C36.5157 191.438 36.3533 190.999 36.3533 190.472C36.3533 190.041 36.4743 189.66 36.7163 189.328C36.9615 188.997 37.2946 188.737 37.7156 188.548C38.1398 188.359 38.6204 188.264 39.1573 188.264C39.913 188.264 40.5063 188.43 40.9371 188.761C41.3713 189.093 41.6796 189.53 41.8619 190.074ZM44.6223 196.08C44.3771 196.08 44.1666 195.992 43.9909 195.816C43.8153 195.64 43.7275 195.43 43.7275 195.185C43.7275 194.939 43.8153 194.729 43.9909 194.553C44.1666 194.378 44.3771 194.29 44.6223 194.29C44.8676 194.29 45.0781 194.378 45.2537 194.553C45.4294 194.729 45.5172 194.939 45.5172 195.185C45.5172 195.347 45.4758 195.496 45.3929 195.632C45.3134 195.768 45.2057 195.877 45.0698 195.96C44.9372 196.04 44.7881 196.08 44.6223 196.08ZM52.9522 185.818V196H51.7193V185.818H52.9522ZM58.5863 188.364V189.358H54.6289V188.364H58.5863ZM55.7823 186.534H56.9556V193.812C56.9556 194.144 57.0037 194.393 57.0998 194.558C57.1992 194.721 57.3252 194.83 57.4776 194.886C57.6334 194.939 57.7975 194.966 57.9698 194.966C58.0991 194.966 58.2051 194.959 58.288 194.946C58.3709 194.929 58.4371 194.916 58.4869 194.906L58.7255 195.96C58.646 195.99 58.5349 196.02 58.3924 196.05C58.2499 196.083 58.0692 196.099 57.8505 196.099C57.5191 196.099 57.1942 196.028 56.8761 195.886C56.5612 195.743 56.2994 195.526 56.0906 195.234C55.8851 194.943 55.7823 194.575 55.7823 194.131V186.534ZM61.3654 185.818V189.318H60.2717V185.818H61.3654ZM68.8638 190.074L67.8098 190.372C67.7435 190.196 67.6458 190.026 67.5165 189.86C67.3906 189.691 67.2182 189.552 66.9995 189.442C66.7807 189.333 66.5007 189.278 66.1593 189.278C65.6919 189.278 65.3025 189.386 64.9909 189.602C64.6827 189.814 64.5286 190.084 64.5286 190.412C64.5286 190.704 64.6346 190.934 64.8468 191.103C65.0589 191.272 65.3903 191.413 65.8411 191.526L66.9746 191.804C67.6574 191.97 68.1661 192.223 68.5009 192.565C68.8356 192.903 69.003 193.339 69.003 193.872C69.003 194.31 68.8771 194.701 68.6252 195.045C68.3766 195.39 68.0286 195.662 67.5811 195.861C67.1337 196.06 66.6133 196.159 66.0201 196.159C65.2412 196.159 64.5965 195.99 64.0861 195.652C63.5757 195.314 63.2525 194.82 63.1167 194.17L64.2303 193.892C64.3364 194.303 64.5369 194.611 64.8319 194.817C65.1301 195.022 65.5196 195.125 66.0002 195.125C66.5471 195.125 66.9812 195.009 67.3027 194.777C67.6275 194.542 67.79 194.26 67.79 193.932C67.79 193.667 67.6971 193.445 67.5115 193.266C67.3259 193.083 67.0409 192.947 66.6564 192.858L65.3837 192.56C64.6844 192.394 64.1706 192.137 63.8425 191.789C63.5177 191.438 63.3553 190.999 63.3553 190.472C63.3553 190.041 63.4763 189.66 63.7182 189.328C63.9635 188.997 64.2966 188.737 64.7175 188.548C65.1417 188.359 65.6223 188.264 66.1593 188.264C66.915 188.264 67.5082 188.43 67.9391 188.761C68.3733 189.093 68.6815 189.53 68.8638 190.074ZM76.9538 196.179C76.4699 196.179 76.0308 196.088 75.6364 195.906C75.242 195.72 74.9287 195.453 74.6967 195.105C74.4647 194.754 74.3487 194.33 74.3487 193.832C74.3487 193.395 74.4349 193.04 74.6072 192.768C74.7796 192.493 75.0099 192.278 75.2983 192.122C75.5866 191.966 75.9048 191.85 76.2528 191.774C76.6042 191.695 76.9571 191.632 77.3118 191.585C77.7758 191.526 78.152 191.481 78.4403 191.451C78.732 191.418 78.9441 191.363 79.0767 191.287C79.2126 191.211 79.2805 191.078 79.2805 190.889V190.849C79.2805 190.359 79.1463 189.978 78.8778 189.706C78.6127 189.434 78.21 189.298 77.6697 189.298C77.1096 189.298 76.6705 189.421 76.3523 189.666C76.0341 189.911 75.8104 190.173 75.6811 190.452L74.5675 190.054C74.7663 189.59 75.0315 189.229 75.3629 188.97C75.6977 188.708 76.0623 188.526 76.4567 188.423C76.8544 188.317 77.2455 188.264 77.63 188.264C77.8752 188.264 78.157 188.294 78.4751 188.354C78.7966 188.41 79.1065 188.528 79.4048 188.707C79.7064 188.886 79.9567 189.156 80.1555 189.517C80.3544 189.878 80.4538 190.362 80.4538 190.969V196H79.2805V194.966H79.2209C79.1413 195.132 79.0088 195.309 78.8232 195.498C78.6375 195.687 78.3906 195.848 78.0824 195.98C77.7741 196.113 77.398 196.179 76.9538 196.179ZM77.1328 195.125C77.5968 195.125 77.9879 195.034 78.3061 194.852C78.6276 194.669 78.8696 194.434 79.032 194.146C79.1977 193.857 79.2805 193.554 79.2805 193.236V192.162C79.2308 192.222 79.1214 192.276 78.9524 192.326C78.7867 192.372 78.5945 192.414 78.3757 192.45C78.1603 192.483 77.9498 192.513 77.7443 192.54C77.5421 192.563 77.3781 192.583 77.2521 192.599C76.9472 192.639 76.6622 192.704 76.397 192.793C76.1352 192.879 75.9231 193.01 75.7607 193.186C75.6016 193.358 75.522 193.594 75.522 193.892C75.522 194.3 75.6728 194.608 75.9744 194.817C76.2794 195.022 76.6655 195.125 77.1328 195.125ZM83.7686 191.406V196H82.5953V188.364H83.7289V189.557H83.8283C84.0073 189.169 84.2791 188.857 84.6436 188.622C85.0082 188.384 85.4789 188.264 86.0556 188.264C86.5726 188.264 87.025 188.37 87.4128 188.582C87.8006 188.791 88.1022 189.109 88.3176 189.537C88.5331 189.961 88.6408 190.498 88.6408 191.148V196H87.4675V191.227C87.4675 190.627 87.3117 190.16 87.0002 189.825C86.6886 189.487 86.2611 189.318 85.7175 189.318C85.343 189.318 85.0082 189.399 84.7132 189.562C84.4216 189.724 84.1912 189.961 84.0222 190.273C83.8532 190.584 83.7686 190.962 83.7686 191.406ZM90.7848 196V188.364H91.9581V196H90.7848ZM91.3814 187.091C91.1527 187.091 90.9555 187.013 90.7898 186.857C90.6274 186.701 90.5462 186.514 90.5462 186.295C90.5462 186.077 90.6274 185.889 90.7898 185.734C90.9555 185.578 91.1527 185.5 91.3814 185.5C91.6101 185.5 91.8056 185.578 91.968 185.734C92.1338 185.889 92.2166 186.077 92.2166 186.295C92.2166 186.514 92.1338 186.701 91.968 186.857C91.8056 187.013 91.6101 187.091 91.3814 187.091ZM94.1071 196V188.364H95.2406V189.557H95.34C95.4991 189.149 95.756 188.833 96.1106 188.607C96.4653 188.379 96.8912 188.264 97.3883 188.264C97.8921 188.264 98.3114 188.379 98.6461 188.607C98.9842 188.833 99.2477 189.149 99.4366 189.557H99.5162C99.7117 189.162 100.005 188.849 100.396 188.617C100.787 188.382 101.256 188.264 101.803 188.264C102.486 188.264 103.044 188.478 103.479 188.906C103.913 189.33 104.13 189.991 104.13 190.889V196H102.956V190.889C102.956 190.326 102.802 189.923 102.494 189.681C102.186 189.439 101.823 189.318 101.405 189.318C100.868 189.318 100.452 189.481 100.157 189.805C99.8625 190.127 99.715 190.535 99.715 191.028V196H98.5218V190.77C98.5218 190.336 98.381 189.986 98.0993 189.721C97.8175 189.452 97.4546 189.318 97.0105 189.318C96.7056 189.318 96.4205 189.399 96.1554 189.562C95.8935 189.724 95.6814 189.95 95.519 190.238C95.3599 190.523 95.2804 190.853 95.2804 191.227V196H94.1071ZM108.522 196.179C108.038 196.179 107.599 196.088 107.205 195.906C106.81 195.72 106.497 195.453 106.265 195.105C106.033 194.754 105.917 194.33 105.917 193.832C105.917 193.395 106.003 193.04 106.176 192.768C106.348 192.493 106.578 192.278 106.867 192.122C107.155 191.966 107.473 191.85 107.821 191.774C108.173 191.695 108.526 191.632 108.88 191.585C109.344 191.526 109.72 191.481 110.009 191.451C110.3 191.418 110.512 191.363 110.645 191.287C110.781 191.211 110.849 191.078 110.849 190.889V190.849C110.849 190.359 110.715 189.978 110.446 189.706C110.181 189.434 109.778 189.298 109.238 189.298C108.678 189.298 108.239 189.421 107.921 189.666C107.602 189.911 107.379 190.173 107.249 190.452L106.136 190.054C106.335 189.59 106.6 189.229 106.931 188.97C107.266 188.708 107.631 188.526 108.025 188.423C108.423 188.317 108.814 188.264 109.198 188.264C109.444 188.264 109.725 188.294 110.044 188.354C110.365 188.41 110.675 188.528 110.973 188.707C111.275 188.886 111.525 189.156 111.724 189.517C111.923 189.878 112.022 190.362 112.022 190.969V196H110.849V194.966H110.789C110.71 195.132 110.577 195.309 110.392 195.498C110.206 195.687 109.959 195.848 109.651 195.98C109.343 196.113 108.966 196.179 108.522 196.179ZM108.701 195.125C109.165 195.125 109.556 195.034 109.874 194.852C110.196 194.669 110.438 194.434 110.6 194.146C110.766 193.857 110.849 193.554 110.849 193.236V192.162C110.799 192.222 110.69 192.276 110.521 192.326C110.355 192.372 110.163 192.414 109.944 192.45C109.729 192.483 109.518 192.513 109.313 192.54C109.11 192.563 108.946 192.583 108.82 192.599C108.516 192.639 108.231 192.704 107.965 192.793C107.704 192.879 107.491 193.01 107.329 193.186C107.17 193.358 107.09 193.594 107.09 193.892C107.09 194.3 107.241 194.608 107.543 194.817C107.848 195.022 108.234 195.125 108.701 195.125ZM117.485 188.364V189.358H113.527V188.364H117.485ZM114.681 186.534H115.854V193.812C115.854 194.144 115.902 194.393 115.998 194.558C116.098 194.721 116.224 194.83 116.376 194.886C116.532 194.939 116.696 194.966 116.868 194.966C116.998 194.966 117.104 194.959 117.186 194.946C117.269 194.929 117.336 194.916 117.385 194.906L117.624 195.96C117.544 195.99 117.433 196.02 117.291 196.05C117.148 196.083 116.968 196.099 116.749 196.099C116.417 196.099 116.093 196.028 115.775 195.886C115.46 195.743 115.198 195.526 114.989 195.234C114.783 194.943 114.681 194.575 114.681 194.131V186.534ZM122.369 196.159C121.634 196.159 120.999 195.997 120.465 195.672C119.935 195.344 119.526 194.886 119.237 194.3C118.952 193.71 118.81 193.024 118.81 192.241C118.81 191.459 118.952 190.77 119.237 190.173C119.526 189.573 119.927 189.106 120.44 188.771C120.957 188.433 121.561 188.264 122.25 188.264C122.648 188.264 123.04 188.33 123.428 188.463C123.816 188.596 124.169 188.811 124.487 189.109C124.805 189.404 125.059 189.795 125.248 190.283C125.437 190.77 125.531 191.37 125.531 192.082V192.58H119.645V191.565H124.338C124.338 191.134 124.252 190.75 124.08 190.412C123.911 190.074 123.669 189.807 123.354 189.612C123.042 189.416 122.674 189.318 122.25 189.318C121.783 189.318 121.378 189.434 121.037 189.666C120.699 189.895 120.439 190.193 120.256 190.561C120.074 190.929 119.983 191.323 119.983 191.744V192.42C119.983 192.997 120.082 193.486 120.281 193.887C120.483 194.285 120.763 194.588 121.121 194.797C121.479 195.002 121.895 195.105 122.369 195.105C122.678 195.105 122.956 195.062 123.205 194.976C123.456 194.886 123.674 194.754 123.856 194.578C124.038 194.399 124.179 194.177 124.278 193.912L125.412 194.23C125.293 194.615 125.092 194.953 124.81 195.244C124.529 195.533 124.181 195.758 123.766 195.92C123.352 196.08 122.886 196.159 122.369 196.159ZM130.2 196.159C129.563 196.159 129.001 195.998 128.514 195.677C128.027 195.352 127.646 194.895 127.371 194.305C127.096 193.711 126.958 193.01 126.958 192.202C126.958 191.4 127.096 190.704 127.371 190.114C127.646 189.524 128.029 189.068 128.519 188.746C129.01 188.425 129.576 188.264 130.219 188.264C130.717 188.264 131.109 188.347 131.398 188.513C131.689 188.675 131.911 188.861 132.064 189.07C132.22 189.275 132.341 189.444 132.427 189.577H132.526V185.818H133.7V196H132.566V194.827H132.427C132.341 194.966 132.218 195.142 132.059 195.354C131.9 195.562 131.673 195.75 131.378 195.915C131.083 196.078 130.69 196.159 130.2 196.159ZM130.359 195.105C130.829 195.105 131.227 194.982 131.552 194.737C131.877 194.489 132.124 194.146 132.293 193.708C132.462 193.267 132.546 192.759 132.546 192.182C132.546 191.612 132.463 191.113 132.298 190.685C132.132 190.254 131.887 189.92 131.562 189.681C131.237 189.439 130.836 189.318 130.359 189.318C129.862 189.318 129.447 189.446 129.116 189.701C128.788 189.953 128.541 190.296 128.375 190.73C128.213 191.161 128.131 191.645 128.131 192.182C128.131 192.725 128.214 193.219 128.38 193.663C128.549 194.104 128.798 194.455 129.126 194.717C129.457 194.976 129.868 195.105 130.359 195.105ZM140.108 196V185.818H141.281V189.577H141.381C141.467 189.444 141.586 189.275 141.739 189.07C141.894 188.861 142.116 188.675 142.405 188.513C142.696 188.347 143.091 188.264 143.588 188.264C144.231 188.264 144.798 188.425 145.288 188.746C145.779 189.068 146.162 189.524 146.437 190.114C146.712 190.704 146.849 191.4 146.849 192.202C146.849 193.01 146.712 193.711 146.437 194.305C146.162 194.895 145.781 195.352 145.293 195.677C144.806 195.998 144.244 196.159 143.608 196.159C143.117 196.159 142.725 196.078 142.43 195.915C142.135 195.75 141.908 195.562 141.749 195.354C141.589 195.142 141.467 194.966 141.381 194.827H141.241V196H140.108ZM141.261 192.182C141.261 192.759 141.346 193.267 141.515 193.708C141.684 194.146 141.931 194.489 142.256 194.737C142.58 194.982 142.978 195.105 143.449 195.105C143.939 195.105 144.349 194.976 144.677 194.717C145.008 194.455 145.257 194.104 145.423 193.663C145.592 193.219 145.676 192.725 145.676 192.182C145.676 191.645 145.593 191.161 145.428 190.73C145.265 190.296 145.018 189.953 144.687 189.701C144.359 189.446 143.946 189.318 143.449 189.318C142.972 189.318 142.571 189.439 142.246 189.681C141.921 189.92 141.676 190.254 141.51 190.685C141.344 191.113 141.261 191.612 141.261 192.182ZM149.126 198.864C148.928 198.864 148.75 198.847 148.594 198.814C148.439 198.784 148.331 198.754 148.271 198.724L148.57 197.69C148.855 197.763 149.107 197.79 149.325 197.77C149.544 197.75 149.738 197.652 149.907 197.477C150.079 197.304 150.237 197.024 150.379 196.636L150.598 196.04L147.774 188.364H149.047L151.155 194.449H151.234L153.342 188.364H154.615L151.374 197.114C151.228 197.508 151.047 197.835 150.832 198.093C150.616 198.355 150.366 198.549 150.081 198.675C149.799 198.801 149.481 198.864 149.126 198.864ZM162.985 196.159C162.348 196.159 161.787 195.998 161.299 195.677C160.812 195.352 160.431 194.895 160.156 194.305C159.881 193.711 159.743 193.01 159.743 192.202C159.743 191.4 159.881 190.704 160.156 190.114C160.431 189.524 160.814 189.068 161.304 188.746C161.795 188.425 162.362 188.264 163.005 188.264C163.502 188.264 163.895 188.347 164.183 188.513C164.475 188.675 164.697 188.861 164.849 189.07C165.005 189.275 165.126 189.444 165.212 189.577H165.311V185.818H166.485V196H165.351V194.827H165.212C165.126 194.966 165.003 195.142 164.844 195.354C164.685 195.562 164.458 195.75 164.163 195.915C163.868 196.078 163.475 196.159 162.985 196.159ZM163.144 195.105C163.614 195.105 164.012 194.982 164.337 194.737C164.662 194.489 164.909 194.146 165.078 193.708C165.247 193.267 165.331 192.759 165.331 192.182C165.331 191.612 165.248 191.113 165.083 190.685C164.917 190.254 164.672 189.92 164.347 189.681C164.022 189.439 163.621 189.318 163.144 189.318C162.647 189.318 162.232 189.446 161.901 189.701C161.573 189.953 161.326 190.296 161.16 190.73C160.998 191.161 160.917 191.645 160.917 192.182C160.917 192.725 160.999 193.219 161.165 193.663C161.334 194.104 161.583 194.455 161.911 194.717C162.242 194.976 162.653 195.105 163.144 195.105ZM171.998 196.159C171.262 196.159 170.628 195.997 170.094 195.672C169.564 195.344 169.154 194.886 168.866 194.3C168.581 193.71 168.439 193.024 168.439 192.241C168.439 191.459 168.581 190.77 168.866 190.173C169.154 189.573 169.556 189.106 170.069 188.771C170.586 188.433 171.19 188.264 171.879 188.264C172.277 188.264 172.669 188.33 173.057 188.463C173.445 188.596 173.798 188.811 174.116 189.109C174.434 189.404 174.688 189.795 174.877 190.283C175.066 190.77 175.16 191.37 175.16 192.082V192.58H169.274V191.565H173.967C173.967 191.134 173.881 190.75 173.708 190.412C173.539 190.074 173.297 189.807 172.983 189.612C172.671 189.416 172.303 189.318 171.879 189.318C171.412 189.318 171.007 189.434 170.666 189.666C170.328 189.895 170.068 190.193 169.885 190.561C169.703 190.929 169.612 191.323 169.612 191.744V192.42C169.612 192.997 169.711 193.486 169.91 193.887C170.112 194.285 170.392 194.588 170.75 194.797C171.108 195.002 171.524 195.105 171.998 195.105C172.306 195.105 172.585 195.062 172.833 194.976C173.085 194.886 173.302 194.754 173.485 194.578C173.667 194.399 173.808 194.177 173.907 193.912L175.041 194.23C174.922 194.615 174.721 194.953 174.439 195.244C174.158 195.533 173.81 195.758 173.395 195.92C172.981 196.08 172.515 196.159 171.998 196.159ZM180.346 188.364V189.358H176.229V188.364H180.346ZM177.462 196V187.31C177.462 186.872 177.565 186.508 177.77 186.216C177.976 185.924 178.243 185.705 178.571 185.56C178.899 185.414 179.245 185.341 179.61 185.341C179.898 185.341 180.133 185.364 180.316 185.411C180.498 185.457 180.634 185.5 180.723 185.54L180.385 186.554C180.326 186.534 180.243 186.509 180.137 186.479C180.034 186.45 179.898 186.435 179.729 186.435C179.341 186.435 179.061 186.532 178.889 186.728C178.72 186.924 178.635 187.21 178.635 187.588V196H177.462ZM184.018 196.179C183.534 196.179 183.095 196.088 182.701 195.906C182.306 195.72 181.993 195.453 181.761 195.105C181.529 194.754 181.413 194.33 181.413 193.832C181.413 193.395 181.499 193.04 181.672 192.768C181.844 192.493 182.074 192.278 182.363 192.122C182.651 191.966 182.969 191.85 183.317 191.774C183.669 191.695 184.022 191.632 184.376 191.585C184.84 191.526 185.216 191.481 185.505 191.451C185.796 191.418 186.009 191.363 186.141 191.287C186.277 191.211 186.345 191.078 186.345 190.889V190.849C186.345 190.359 186.211 189.978 185.942 189.706C185.677 189.434 185.274 189.298 184.734 189.298C184.174 189.298 183.735 189.421 183.417 189.666C183.099 189.911 182.875 190.173 182.746 190.452L181.632 190.054C181.831 189.59 182.096 189.229 182.427 188.97C182.762 188.708 183.127 188.526 183.521 188.423C183.919 188.317 184.31 188.264 184.694 188.264C184.94 188.264 185.221 188.294 185.54 188.354C185.861 188.41 186.171 188.528 186.469 188.707C186.771 188.886 187.021 189.156 187.22 189.517C187.419 189.878 187.518 190.362 187.518 190.969V196H186.345V194.966H186.285C186.206 195.132 186.073 195.309 185.888 195.498C185.702 195.687 185.455 195.848 185.147 195.98C184.839 196.113 184.462 196.179 184.018 196.179ZM184.197 195.125C184.661 195.125 185.052 195.034 185.371 194.852C185.692 194.669 185.934 194.434 186.096 194.146C186.262 193.857 186.345 193.554 186.345 193.236V192.162C186.295 192.222 186.186 192.276 186.017 192.326C185.851 192.372 185.659 192.414 185.44 192.45C185.225 192.483 185.014 192.513 184.809 192.54C184.607 192.563 184.443 192.583 184.317 192.599C184.012 192.639 183.727 192.704 183.461 192.793C183.2 192.879 182.988 193.01 182.825 193.186C182.666 193.358 182.586 193.594 182.586 193.892C182.586 194.3 182.737 194.608 183.039 194.817C183.344 195.022 183.73 195.125 184.197 195.125ZM194.472 192.878V188.364H195.646V196H194.472V194.707H194.393C194.214 195.095 193.935 195.425 193.558 195.697C193.18 195.965 192.702 196.099 192.126 196.099C191.648 196.099 191.224 195.995 190.853 195.786C190.482 195.574 190.19 195.256 189.978 194.832C189.766 194.404 189.66 193.866 189.66 193.216V188.364H190.833V193.136C190.833 193.693 190.989 194.137 191.3 194.469C191.615 194.8 192.016 194.966 192.504 194.966C192.795 194.966 193.092 194.891 193.393 194.742C193.698 194.593 193.954 194.364 194.159 194.056C194.368 193.748 194.472 193.355 194.472 192.878ZM198.968 185.818V196H197.795V185.818H198.968ZM204.438 188.364V189.358H200.48V188.364H204.438ZM201.634 186.534H202.807V193.812C202.807 194.144 202.855 194.393 202.951 194.558C203.051 194.721 203.177 194.83 203.329 194.886C203.485 194.939 203.649 194.966 203.821 194.966C203.951 194.966 204.057 194.959 204.14 194.946C204.222 194.929 204.289 194.916 204.338 194.906L204.577 195.96C204.498 195.99 204.386 196.02 204.244 196.05C204.101 196.083 203.921 196.099 203.702 196.099C203.371 196.099 203.046 196.028 202.728 195.886C202.413 195.743 202.151 195.526 201.942 195.234C201.737 194.943 201.634 194.575 201.634 194.131V186.534ZM207.953 194.608L207.873 195.145C207.817 195.523 207.731 195.927 207.615 196.358C207.502 196.789 207.384 197.195 207.262 197.576C207.139 197.957 207.038 198.26 206.958 198.486H206.064C206.107 198.274 206.163 197.994 206.233 197.646C206.302 197.298 206.372 196.908 206.441 196.477C206.514 196.05 206.574 195.612 206.62 195.165L206.68 194.608H207.953ZM214.223 196V185.818H215.396V189.577H215.496C215.582 189.444 215.701 189.275 215.854 189.07C216.01 188.861 216.232 188.675 216.52 188.513C216.812 188.347 217.206 188.264 217.703 188.264C218.346 188.264 218.913 188.425 219.404 188.746C219.894 189.068 220.277 189.524 220.552 190.114C220.827 190.704 220.965 191.4 220.965 192.202C220.965 193.01 220.827 193.711 220.552 194.305C220.277 194.895 219.896 195.352 219.409 195.677C218.921 195.998 218.36 196.159 217.723 196.159C217.233 196.159 216.84 196.078 216.545 195.915C216.25 195.75 216.023 195.562 215.864 195.354C215.705 195.142 215.582 194.966 215.496 194.827H215.357V196H214.223ZM215.377 192.182C215.377 192.759 215.461 193.267 215.63 193.708C215.799 194.146 216.046 194.489 216.371 194.737C216.696 194.982 217.093 195.105 217.564 195.105C218.055 195.105 218.464 194.976 218.792 194.717C219.124 194.455 219.372 194.104 219.538 193.663C219.707 193.219 219.791 192.725 219.791 192.182C219.791 191.645 219.709 191.161 219.543 190.73C219.38 190.296 219.133 189.953 218.802 189.701C218.474 189.446 218.061 189.318 217.564 189.318C217.087 189.318 216.686 189.439 216.361 189.681C216.036 189.92 215.791 190.254 215.625 190.685C215.459 191.113 215.377 191.612 215.377 192.182ZM227.572 192.878V188.364H228.745V196H227.572V194.707H227.492C227.313 195.095 227.035 195.425 226.657 195.697C226.279 195.965 225.802 196.099 225.225 196.099C224.748 196.099 224.324 195.995 223.953 195.786C223.581 195.574 223.29 195.256 223.078 194.832C222.865 194.404 222.759 193.866 222.759 193.216V188.364H223.933V193.136C223.933 193.693 224.088 194.137 224.4 194.469C224.715 194.8 225.116 194.966 225.603 194.966C225.895 194.966 226.191 194.891 226.493 194.742C226.798 194.593 227.053 194.364 227.259 194.056C227.468 193.748 227.572 193.355 227.572 192.878ZM234.215 188.364V189.358H230.258V188.364H234.215ZM231.411 186.534H232.585V193.812C232.585 194.144 232.633 194.393 232.729 194.558C232.828 194.721 232.954 194.83 233.107 194.886C233.262 194.939 233.426 194.966 233.599 194.966C233.728 194.966 233.834 194.959 233.917 194.946C234 194.929 234.066 194.916 234.116 194.906L234.354 195.96C234.275 195.99 234.164 196.02 234.021 196.05C233.879 196.083 233.698 196.099 233.479 196.099C233.148 196.099 232.823 196.028 232.505 195.886C232.19 195.743 231.928 195.526 231.719 195.234C231.514 194.943 231.411 194.575 231.411 194.131V186.534ZM240.673 198.864C240.474 198.864 240.297 198.847 240.141 198.814C239.986 198.784 239.878 198.754 239.818 198.724L240.116 197.69C240.402 197.763 240.653 197.79 240.872 197.77C241.091 197.75 241.285 197.652 241.454 197.477C241.626 197.304 241.784 197.024 241.926 196.636L242.145 196.04L239.321 188.364H240.594L242.702 194.449H242.781L244.889 188.364H246.162L242.92 197.114C242.775 197.508 242.594 197.835 242.379 198.093C242.163 198.355 241.913 198.549 241.628 198.675C241.346 198.801 241.028 198.864 240.673 198.864ZM250.539 196.159C249.85 196.159 249.245 195.995 248.725 195.667C248.208 195.339 247.803 194.88 247.512 194.29C247.223 193.7 247.079 193.01 247.079 192.222C247.079 191.426 247.223 190.732 247.512 190.138C247.803 189.545 248.208 189.085 248.725 188.756C249.245 188.428 249.85 188.264 250.539 188.264C251.229 188.264 251.832 188.428 252.349 188.756C252.869 189.085 253.274 189.545 253.562 190.138C253.854 190.732 254 191.426 254 192.222C254 193.01 253.854 193.7 253.562 194.29C253.274 194.88 252.869 195.339 252.349 195.667C251.832 195.995 251.229 196.159 250.539 196.159ZM250.539 195.105C251.063 195.105 251.494 194.971 251.832 194.702C252.17 194.434 252.42 194.081 252.583 193.643C252.745 193.206 252.826 192.732 252.826 192.222C252.826 191.711 252.745 191.236 252.583 190.795C252.42 190.354 252.17 189.998 251.832 189.726C251.494 189.454 251.063 189.318 250.539 189.318C250.016 189.318 249.585 189.454 249.247 189.726C248.909 189.998 248.658 190.354 248.496 190.795C248.334 191.236 248.252 191.711 248.252 192.222C248.252 192.732 248.334 193.206 248.496 193.643C248.658 194.081 248.909 194.434 249.247 194.702C249.585 194.971 250.016 195.105 250.539 195.105ZM260.603 192.878V188.364H261.776V196H260.603V194.707H260.524C260.345 195.095 260.066 195.425 259.688 195.697C259.311 195.965 258.833 196.099 258.257 196.099C257.779 196.099 257.355 195.995 256.984 195.786C256.613 195.574 256.321 195.256 256.109 194.832C255.897 194.404 255.791 193.866 255.791 193.216V188.364H256.964V193.136C256.964 193.693 257.12 194.137 257.431 194.469C257.746 194.8 258.147 194.966 258.634 194.966C258.926 194.966 259.223 194.891 259.524 194.742C259.829 194.593 260.084 194.364 260.29 194.056C260.499 193.748 260.603 193.355 260.603 192.878ZM270.965 196.159C270.249 196.159 269.633 195.99 269.116 195.652C268.599 195.314 268.201 194.848 267.923 194.255C267.644 193.662 267.505 192.984 267.505 192.222C267.505 191.446 267.647 190.762 267.933 190.168C268.221 189.572 268.622 189.106 269.136 188.771C269.653 188.433 270.256 188.264 270.945 188.264C271.482 188.264 271.966 188.364 272.397 188.562C272.828 188.761 273.181 189.04 273.456 189.398C273.731 189.756 273.902 190.173 273.968 190.651H272.795C272.705 190.303 272.506 189.994 272.198 189.726C271.893 189.454 271.482 189.318 270.965 189.318C270.508 189.318 270.107 189.437 269.762 189.676C269.421 189.911 269.154 190.245 268.962 190.675C268.773 191.103 268.678 191.605 268.678 192.182C268.678 192.772 268.771 193.286 268.957 193.723C269.146 194.161 269.411 194.5 269.752 194.742C270.097 194.984 270.501 195.105 270.965 195.105C271.27 195.105 271.547 195.052 271.795 194.946C272.044 194.84 272.254 194.688 272.427 194.489C272.599 194.29 272.722 194.051 272.795 193.773H273.968C273.902 194.223 273.738 194.629 273.476 194.991C273.217 195.349 272.874 195.634 272.447 195.846C272.022 196.055 271.529 196.159 270.965 196.159ZM277.93 196.179C277.446 196.179 277.007 196.088 276.613 195.906C276.219 195.72 275.905 195.453 275.673 195.105C275.441 194.754 275.325 194.33 275.325 193.832C275.325 193.395 275.411 193.04 275.584 192.768C275.756 192.493 275.987 192.278 276.275 192.122C276.563 191.966 276.881 191.85 277.229 191.774C277.581 191.695 277.934 191.632 278.288 191.585C278.752 191.526 279.129 191.481 279.417 191.451C279.709 191.418 279.921 191.363 280.053 191.287C280.189 191.211 280.257 191.078 280.257 190.889V190.849C280.257 190.359 280.123 189.978 279.854 189.706C279.589 189.434 279.187 189.298 278.646 189.298C278.086 189.298 277.647 189.421 277.329 189.666C277.011 189.911 276.787 190.173 276.658 190.452L275.544 190.054C275.743 189.59 276.008 189.229 276.339 188.97C276.674 188.708 277.039 188.526 277.433 188.423C277.831 188.317 278.222 188.264 278.607 188.264C278.852 188.264 279.134 188.294 279.452 188.354C279.773 188.41 280.083 188.528 280.381 188.707C280.683 188.886 280.933 189.156 281.132 189.517C281.331 189.878 281.43 190.362 281.43 190.969V196H280.257V194.966H280.197C280.118 195.132 279.985 195.309 279.8 195.498C279.614 195.687 279.367 195.848 279.059 195.98C278.751 196.113 278.375 196.179 277.93 196.179ZM278.109 195.125C278.573 195.125 278.964 195.034 279.283 194.852C279.604 194.669 279.846 194.434 280.009 194.146C280.174 193.857 280.257 193.554 280.257 193.236V192.162C280.207 192.222 280.098 192.276 279.929 192.326C279.763 192.372 279.571 192.414 279.352 192.45C279.137 192.483 278.926 192.513 278.721 192.54C278.519 192.563 278.355 192.583 278.229 192.599C277.924 192.639 277.639 192.704 277.374 192.793C277.112 192.879 276.9 193.01 276.737 193.186C276.578 193.358 276.499 193.594 276.499 193.892C276.499 194.3 276.649 194.608 276.951 194.817C277.256 195.022 277.642 195.125 278.109 195.125ZM284.745 191.406V196H283.572V188.364H284.705V189.557H284.805C284.984 189.169 285.256 188.857 285.62 188.622C285.985 188.384 286.455 188.264 287.032 188.264C287.549 188.264 288.002 188.37 288.389 188.582C288.777 188.791 289.079 189.109 289.294 189.537C289.51 189.961 289.617 190.498 289.617 191.148V196H288.444V191.227C288.444 190.627 288.288 190.16 287.977 189.825C287.665 189.487 287.238 189.318 286.694 189.318C286.32 189.318 285.985 189.399 285.69 189.562C285.398 189.724 285.168 189.961 284.999 190.273C284.83 190.584 284.745 190.962 284.745 191.406ZM298.582 196.159C297.946 196.159 297.384 195.998 296.897 195.677C296.41 195.352 296.029 194.895 295.754 194.305C295.478 193.711 295.341 193.01 295.341 192.202C295.341 191.4 295.478 190.704 295.754 190.114C296.029 189.524 296.411 189.068 296.902 188.746C297.393 188.425 297.959 188.264 298.602 188.264C299.099 188.264 299.492 188.347 299.781 188.513C300.072 188.675 300.294 188.861 300.447 189.07C300.603 189.275 300.723 189.444 300.81 189.577H300.909V185.818H302.082V196H300.949V194.827H300.81C300.723 194.966 300.601 195.142 300.442 195.354C300.283 195.562 300.056 195.75 299.761 195.915C299.466 196.078 299.073 196.159 298.582 196.159ZM298.741 195.105C299.212 195.105 299.61 194.982 299.935 194.737C300.259 194.489 300.506 194.146 300.675 193.708C300.844 193.267 300.929 192.759 300.929 192.182C300.929 191.612 300.846 191.113 300.68 190.685C300.515 190.254 300.269 189.92 299.945 189.681C299.62 189.439 299.219 189.318 298.741 189.318C298.244 189.318 297.83 189.446 297.499 189.701C297.17 189.953 296.924 190.296 296.758 190.73C296.595 191.161 296.514 191.645 296.514 192.182C296.514 192.725 296.597 193.219 296.763 193.663C296.932 194.104 297.18 194.455 297.509 194.717C297.84 194.976 298.251 195.105 298.741 195.105ZM304.394 196V188.364H305.567V196H304.394ZM304.991 187.091C304.762 187.091 304.565 187.013 304.399 186.857C304.237 186.701 304.156 186.514 304.156 186.295C304.156 186.077 304.237 185.889 304.399 185.734C304.565 185.578 304.762 185.5 304.991 185.5C305.219 185.5 305.415 185.578 305.577 185.734C305.743 185.889 305.826 186.077 305.826 186.295C305.826 186.514 305.743 186.701 305.577 186.857C305.415 187.013 305.219 187.091 304.991 187.091ZM313.126 190.074L312.072 190.372C312.005 190.196 311.907 190.026 311.778 189.86C311.652 189.691 311.48 189.552 311.261 189.442C311.042 189.333 310.762 189.278 310.421 189.278C309.954 189.278 309.564 189.386 309.253 189.602C308.944 189.814 308.79 190.084 308.79 190.412C308.79 190.704 308.896 190.934 309.108 191.103C309.321 191.272 309.652 191.413 310.103 191.526L311.236 191.804C311.919 191.97 312.428 192.223 312.763 192.565C313.097 192.903 313.265 193.339 313.265 193.872C313.265 194.31 313.139 194.701 312.887 195.045C312.638 195.39 312.29 195.662 311.843 195.861C311.395 196.06 310.875 196.159 310.282 196.159C309.503 196.159 308.858 195.99 308.348 195.652C307.837 195.314 307.514 194.82 307.378 194.17L308.492 193.892C308.598 194.303 308.799 194.611 309.094 194.817C309.392 195.022 309.781 195.125 310.262 195.125C310.809 195.125 311.243 195.009 311.564 194.777C311.889 194.542 312.052 194.26 312.052 193.932C312.052 193.667 311.959 193.445 311.773 193.266C311.588 193.083 311.303 192.947 310.918 192.858L309.645 192.56C308.946 192.394 308.432 192.137 308.104 191.789C307.779 191.438 307.617 190.999 307.617 190.472C307.617 190.041 307.738 189.66 307.98 189.328C308.225 188.997 308.558 188.737 308.979 188.548C309.403 188.359 309.884 188.264 310.421 188.264C311.177 188.264 311.77 188.43 312.201 188.761C312.635 189.093 312.943 189.53 313.126 190.074ZM317.278 196.179C316.794 196.179 316.355 196.088 315.961 195.906C315.566 195.72 315.253 195.453 315.021 195.105C314.789 194.754 314.673 194.33 314.673 193.832C314.673 193.395 314.759 193.04 314.931 192.768C315.104 192.493 315.334 192.278 315.623 192.122C315.911 191.966 316.229 191.85 316.577 191.774C316.928 191.695 317.281 191.632 317.636 191.585C318.1 191.526 318.476 191.481 318.765 191.451C319.056 191.418 319.268 191.363 319.401 191.287C319.537 191.211 319.605 191.078 319.605 190.889V190.849C319.605 190.359 319.471 189.978 319.202 189.706C318.937 189.434 318.534 189.298 317.994 189.298C317.434 189.298 316.995 189.421 316.676 189.666C316.358 189.911 316.135 190.173 316.005 190.452L314.892 190.054C315.091 189.59 315.356 189.229 315.687 188.97C316.022 188.708 316.386 188.526 316.781 188.423C317.179 188.317 317.57 188.264 317.954 188.264C318.199 188.264 318.481 188.294 318.799 188.354C319.121 188.41 319.431 188.528 319.729 188.707C320.031 188.886 320.281 189.156 320.48 189.517C320.679 189.878 320.778 190.362 320.778 190.969V196H319.605V194.966H319.545C319.466 195.132 319.333 195.309 319.147 195.498C318.962 195.687 318.715 195.848 318.407 195.98C318.098 196.113 317.722 196.179 317.278 196.179ZM317.457 195.125C317.921 195.125 318.312 195.034 318.63 194.852C318.952 194.669 319.194 194.434 319.356 194.146C319.522 193.857 319.605 193.554 319.605 193.236V192.162C319.555 192.222 319.446 192.276 319.277 192.326C319.111 192.372 318.919 192.414 318.7 192.45C318.484 192.483 318.274 192.513 318.069 192.54C317.866 192.563 317.702 192.583 317.576 192.599C317.271 192.639 316.986 192.704 316.721 192.793C316.459 192.879 316.247 193.01 316.085 193.186C315.926 193.358 315.846 193.594 315.846 193.892C315.846 194.3 315.997 194.608 316.299 194.817C316.604 195.022 316.99 195.125 317.457 195.125ZM323.079 196V185.818H324.252V189.577H324.351C324.438 189.444 324.557 189.275 324.709 189.07C324.865 188.861 325.087 188.675 325.376 188.513C325.667 188.347 326.062 188.264 326.559 188.264C327.202 188.264 327.769 188.425 328.259 188.746C328.75 189.068 329.132 189.524 329.407 190.114C329.683 190.704 329.82 191.4 329.82 192.202C329.82 193.01 329.683 193.711 329.407 194.305C329.132 194.895 328.751 195.352 328.264 195.677C327.777 195.998 327.215 196.159 326.579 196.159C326.088 196.159 325.695 196.078 325.4 195.915C325.105 195.75 324.878 195.562 324.719 195.354C324.56 195.142 324.438 194.966 324.351 194.827H324.212V196H323.079ZM324.232 192.182C324.232 192.759 324.317 193.267 324.486 193.708C324.655 194.146 324.902 194.489 325.226 194.737C325.551 194.982 325.949 195.105 326.42 195.105C326.91 195.105 327.319 194.976 327.648 194.717C327.979 194.455 328.228 194.104 328.393 193.663C328.562 193.219 328.647 192.725 328.647 192.182C328.647 191.645 328.564 191.161 328.398 190.73C328.236 190.296 327.989 189.953 327.657 189.701C327.329 189.446 326.917 189.318 326.42 189.318C325.942 189.318 325.541 189.439 325.216 189.681C324.892 189.92 324.646 190.254 324.481 190.685C324.315 191.113 324.232 191.612 324.232 192.182ZM332.788 185.818V196H331.615V185.818H332.788ZM338.139 196.159C337.403 196.159 336.768 195.997 336.235 195.672C335.704 195.344 335.295 194.886 335.007 194.3C334.722 193.71 334.579 193.024 334.579 192.241C334.579 191.459 334.722 190.77 335.007 190.173C335.295 189.573 335.696 189.106 336.21 188.771C336.727 188.433 337.33 188.264 338.02 188.264C338.417 188.264 338.81 188.33 339.198 188.463C339.586 188.596 339.939 188.811 340.257 189.109C340.575 189.404 340.828 189.795 341.017 190.283C341.206 190.77 341.301 191.37 341.301 192.082V192.58H335.414V191.565H340.108C340.108 191.134 340.021 190.75 339.849 190.412C339.68 190.074 339.438 189.807 339.123 189.612C338.812 189.416 338.444 189.318 338.02 189.318C337.552 189.318 337.148 189.434 336.806 189.666C336.468 189.895 336.208 190.193 336.026 190.561C335.844 190.929 335.752 191.323 335.752 191.744V192.42C335.752 192.997 335.852 193.486 336.051 193.887C336.253 194.285 336.533 194.588 336.891 194.797C337.249 195.002 337.665 195.105 338.139 195.105C338.447 195.105 338.725 195.062 338.974 194.976C339.226 194.886 339.443 194.754 339.625 194.578C339.808 194.399 339.949 194.177 340.048 193.912L341.181 194.23C341.062 194.615 340.862 194.953 340.58 195.244C340.298 195.533 339.95 195.758 339.536 195.92C339.122 196.08 338.656 196.159 338.139 196.159ZM347.023 196V188.364H348.196V196H347.023ZM347.62 187.091C347.391 187.091 347.194 187.013 347.028 186.857C346.866 186.701 346.784 186.514 346.784 186.295C346.784 186.077 346.866 185.889 347.028 185.734C347.194 185.578 347.391 185.5 347.62 185.5C347.848 185.5 348.044 185.578 348.206 185.734C348.372 185.889 348.455 186.077 348.455 186.295C348.455 186.514 348.372 186.701 348.206 186.857C348.044 187.013 347.848 187.091 347.62 187.091ZM353.666 188.364V189.358H349.709V188.364H353.666ZM350.862 186.534H352.036V193.812C352.036 194.144 352.084 194.393 352.18 194.558C352.279 194.721 352.405 194.83 352.558 194.886C352.713 194.939 352.878 194.966 353.05 194.966C353.179 194.966 353.285 194.959 353.368 194.946C353.451 194.929 353.517 194.916 353.567 194.906L353.806 195.96C353.726 195.99 353.615 196.02 353.472 196.05C353.33 196.083 353.149 196.099 352.931 196.099C352.599 196.099 352.274 196.028 351.956 195.886C351.641 195.743 351.379 195.526 351.171 195.234C350.965 194.943 350.862 194.575 350.862 194.131V186.534ZM20.0739 216V208.364H21.2472V216H20.0739ZM20.6705 207.091C20.4418 207.091 20.2446 207.013 20.0788 206.857C19.9164 206.701 19.8352 206.514 19.8352 206.295C19.8352 206.077 19.9164 205.889 20.0788 205.734C20.2446 205.578 20.4418 205.5 20.6705 205.5C20.8991 205.5 21.0947 205.578 21.2571 205.734C21.4228 205.889 21.5057 206.077 21.5057 206.295C21.5057 206.514 21.4228 206.701 21.2571 206.857C21.0947 207.013 20.8991 207.091 20.6705 207.091ZM26.7967 208.364V209.358H22.6802V208.364H26.7967ZM23.9132 216V207.31C23.9132 206.872 24.0159 206.508 24.2214 206.216C24.4269 205.924 24.6937 205.705 25.0218 205.56C25.35 205.414 25.6963 205.341 26.0609 205.341C26.3493 205.341 26.5846 205.364 26.7669 205.411C26.9492 205.457 27.085 205.5 27.1745 205.54L26.8365 206.554C26.7768 206.534 26.694 206.509 26.5879 206.479C26.4851 206.45 26.3493 206.435 26.1802 206.435C25.7924 206.435 25.5124 206.532 25.34 206.728C25.171 206.924 25.0865 207.21 25.0865 207.588V216H23.9132ZM33.1342 218.864C32.9354 218.864 32.758 218.847 32.6023 218.814C32.4465 218.784 32.3388 218.754 32.2791 218.724L32.5774 217.69C32.8625 217.763 33.1143 217.79 33.3331 217.77C33.5518 217.75 33.7457 217.652 33.9148 217.477C34.0871 217.304 34.2446 217.024 34.3871 216.636L34.6058 216.04L31.782 208.364H33.0547L35.1626 214.449H35.2422L37.3501 208.364H38.6229L35.3814 217.114C35.2356 217.508 35.0549 217.835 34.8395 218.093C34.6241 218.355 34.3738 218.549 34.0888 218.675C33.8071 218.801 33.4889 218.864 33.1342 218.864ZM43.0004 216.159C42.311 216.159 41.7061 215.995 41.1857 215.667C40.6687 215.339 40.2643 214.88 39.9727 214.29C39.6843 213.7 39.5401 213.01 39.5401 212.222C39.5401 211.426 39.6843 210.732 39.9727 210.138C40.2643 209.545 40.6687 209.085 41.1857 208.756C41.7061 208.428 42.311 208.264 43.0004 208.264C43.6897 208.264 44.293 208.428 44.81 208.756C45.3304 209.085 45.7347 209.545 46.0231 210.138C46.3147 210.732 46.4606 211.426 46.4606 212.222C46.4606 213.01 46.3147 213.7 46.0231 214.29C45.7347 214.88 45.3304 215.339 44.81 215.667C44.293 215.995 43.6897 216.159 43.0004 216.159ZM43.0004 215.105C43.524 215.105 43.9549 214.971 44.293 214.702C44.631 214.434 44.8813 214.081 45.0437 213.643C45.2061 213.206 45.2873 212.732 45.2873 212.222C45.2873 211.711 45.2061 211.236 45.0437 210.795C44.8813 210.354 44.631 209.998 44.293 209.726C43.9549 209.454 43.524 209.318 43.0004 209.318C42.4767 209.318 42.0458 209.454 41.7077 209.726C41.3697 209.998 41.1194 210.354 40.957 210.795C40.7946 211.236 40.7134 211.711 40.7134 212.222C40.7134 212.732 40.7946 213.206 40.957 213.643C41.1194 214.081 41.3697 214.434 41.7077 214.702C42.0458 214.971 42.4767 215.105 43.0004 215.105ZM53.0641 212.878V208.364H54.2374V216H53.0641V214.707H52.9846C52.8056 215.095 52.5272 215.425 52.1493 215.697C51.7715 215.965 51.2942 216.099 50.7175 216.099C50.2402 216.099 49.816 215.995 49.4448 215.786C49.0736 215.574 48.7819 215.256 48.5698 214.832C48.3577 214.404 48.2516 213.866 48.2516 213.216V208.364H49.4249V213.136C49.4249 213.693 49.5807 214.137 49.8922 214.469C50.2071 214.8 50.6081 214.966 51.0953 214.966C51.387 214.966 51.6837 214.891 51.9853 214.742C52.2902 214.593 52.5454 214.364 52.7509 214.056C52.9597 213.748 53.0641 213.355 53.0641 212.878ZM60.3239 218.864V208.364H61.4574V209.577H61.5966C61.6828 209.444 61.8021 209.275 61.9545 209.07C62.1103 208.861 62.3324 208.675 62.6207 208.513C62.9124 208.347 63.3068 208.264 63.804 208.264C64.447 208.264 65.0137 208.425 65.5043 208.746C65.9948 209.068 66.3776 209.524 66.6527 210.114C66.9278 210.704 67.0653 211.4 67.0653 212.202C67.0653 213.01 66.9278 213.711 66.6527 214.305C66.3776 214.895 65.9964 215.352 65.5092 215.677C65.022 215.998 64.4602 216.159 63.8239 216.159C63.3333 216.159 62.9406 216.078 62.6456 215.915C62.3506 215.75 62.1236 215.562 61.9645 215.354C61.8054 215.142 61.6828 214.966 61.5966 214.827H61.4972V218.864H60.3239ZM61.4773 212.182C61.4773 212.759 61.5618 213.267 61.7308 213.708C61.8999 214.146 62.1468 214.489 62.4716 214.737C62.7964 214.982 63.1941 215.105 63.6648 215.105C64.1553 215.105 64.5646 214.976 64.8928 214.717C65.2242 214.455 65.4728 214.104 65.6385 213.663C65.8075 213.219 65.892 212.725 65.892 212.182C65.892 211.645 65.8092 211.161 65.6435 210.73C65.4811 210.296 65.2341 209.953 64.9027 209.701C64.5746 209.446 64.1619 209.318 63.6648 209.318C63.1875 209.318 62.7865 209.439 62.4616 209.681C62.1368 209.92 61.8916 210.254 61.7259 210.685C61.5601 211.113 61.4773 211.612 61.4773 212.182ZM68.8551 216V208.364H69.9886V209.517H70.0682C70.2074 209.139 70.4593 208.833 70.8239 208.597C71.1884 208.362 71.5994 208.244 72.0568 208.244C72.143 208.244 72.2507 208.246 72.38 208.249C72.5092 208.253 72.607 208.258 72.6733 208.264V209.457C72.6335 209.447 72.5424 209.433 72.3999 209.413C72.2607 209.389 72.1132 209.378 71.9574 209.378C71.5862 209.378 71.2547 209.456 70.9631 209.612C70.6747 209.764 70.446 209.976 70.277 210.248C70.1113 210.516 70.0284 210.823 70.0284 211.168V216H68.8551ZM77.0334 216.159C76.2976 216.159 75.6629 215.997 75.1293 215.672C74.599 215.344 74.1896 214.886 73.9013 214.3C73.6162 213.71 73.4737 213.024 73.4737 212.241C73.4737 211.459 73.6162 210.77 73.9013 210.173C74.1896 209.573 74.5907 209.106 75.1044 208.771C75.6214 208.433 76.2247 208.264 76.9141 208.264C77.3118 208.264 77.7045 208.33 78.0923 208.463C78.4801 208.596 78.8331 208.811 79.1513 209.109C79.4695 209.404 79.723 209.795 79.9119 210.283C80.1009 210.77 80.1953 211.37 80.1953 212.082V212.58H74.3089V211.565H79.0021C79.0021 211.134 78.916 210.75 78.7436 210.412C78.5746 210.074 78.3326 209.807 78.0178 209.612C77.7062 209.416 77.3383 209.318 76.9141 209.318C76.4467 209.318 76.0424 209.434 75.701 209.666C75.3629 209.895 75.1027 210.193 74.9205 210.561C74.7382 210.929 74.647 211.323 74.647 211.744V212.42C74.647 212.997 74.7464 213.486 74.9453 213.887C75.1475 214.285 75.4276 214.588 75.7855 214.797C76.1435 215.002 76.5594 215.105 77.0334 215.105C77.3416 215.105 77.62 215.062 77.8686 214.976C78.1205 214.886 78.3376 214.754 78.5199 214.578C78.7022 214.399 78.843 214.177 78.9425 213.912L80.076 214.23C79.9567 214.615 79.7562 214.953 79.4744 215.244C79.1927 215.533 78.8447 215.758 78.4304 215.92C78.0161 216.08 77.5504 216.159 77.0334 216.159ZM85.3807 208.364V209.358H81.2642V208.364H85.3807ZM82.4972 216V207.31C82.4972 206.872 82.5999 206.508 82.8054 206.216C83.0109 205.924 83.2777 205.705 83.6058 205.56C83.9339 205.414 84.2803 205.341 84.6449 205.341C84.9332 205.341 85.1686 205.364 85.3509 205.411C85.5331 205.457 85.669 205.5 85.7585 205.54L85.4205 206.554C85.3608 206.534 85.2779 206.509 85.1719 206.479C85.0691 206.45 84.9332 206.435 84.7642 206.435C84.3764 206.435 84.0964 206.532 83.924 206.728C83.755 206.924 83.6705 207.21 83.6705 207.588V216H82.4972ZM89.9123 216.159C89.1765 216.159 88.5418 215.997 88.0082 215.672C87.4779 215.344 87.0685 214.886 86.7802 214.3C86.4951 213.71 86.3526 213.024 86.3526 212.241C86.3526 211.459 86.4951 210.77 86.7802 210.173C87.0685 209.573 87.4696 209.106 87.9833 208.771C88.5004 208.433 89.1036 208.264 89.793 208.264C90.1907 208.264 90.5835 208.33 90.9712 208.463C91.359 208.596 91.712 208.811 92.0302 209.109C92.3484 209.404 92.6019 209.795 92.7908 210.283C92.9798 210.77 93.0742 211.37 93.0742 212.082V212.58H87.1879V211.565H91.881C91.881 211.134 91.7949 210.75 91.6225 210.412C91.4535 210.074 91.2115 209.807 90.8967 209.612C90.5851 209.416 90.2172 209.318 89.793 209.318C89.3256 209.318 88.9213 209.434 88.5799 209.666C88.2418 209.895 87.9817 210.193 87.7994 210.561C87.6171 210.929 87.5259 211.323 87.5259 211.744V212.42C87.5259 212.997 87.6254 213.486 87.8242 213.887C88.0264 214.285 88.3065 214.588 88.6644 214.797C89.0224 215.002 89.4383 215.105 89.9123 215.105C90.2205 215.105 90.4989 215.062 90.7475 214.976C90.9994 214.886 91.2165 214.754 91.3988 214.578C91.5811 214.399 91.7219 214.177 91.8214 213.912L92.9549 214.23C92.8356 214.615 92.6351 214.953 92.3533 215.244C92.0716 215.533 91.7236 215.758 91.3093 215.92C90.895 216.08 90.4293 216.159 89.9123 216.159ZM94.859 216V208.364H95.9925V209.517H96.0721C96.2113 209.139 96.4632 208.833 96.8278 208.597C97.1924 208.362 97.6033 208.244 98.0607 208.244C98.1469 208.244 98.2546 208.246 98.3839 208.249C98.5131 208.253 98.6109 208.258 98.6772 208.264V209.457C98.6374 209.447 98.5463 209.433 98.4038 209.413C98.2646 209.389 98.1171 209.378 97.9613 209.378C97.5901 209.378 97.2586 209.456 96.967 209.612C96.6786 209.764 96.4499 209.976 96.2809 210.248C96.1152 210.516 96.0323 210.823 96.0323 211.168V216H94.859ZM100.048 216.08C99.8029 216.08 99.5924 215.992 99.4167 215.816C99.2411 215.64 99.1532 215.43 99.1532 215.185C99.1532 214.939 99.2411 214.729 99.4167 214.553C99.5924 214.378 99.8029 214.29 100.048 214.29C100.293 214.29 100.504 214.378 100.68 214.553C100.855 214.729 100.943 214.939 100.943 215.185C100.943 215.347 100.902 215.496 100.819 215.632C100.739 215.768 100.631 215.877 100.496 215.96C100.363 216.04 100.214 216.08 100.048 216.08Z" fill="#0F172A"/>
</g>
<defs>
<filter id="filter0_i_523_4543" x="19" y="13" width="342" height="56" filterUnits="userSpaceOnUse" color-interpolation-filters="sRGB">
<feFlood flood-opacity="0" result="BackgroundImageFix"/>
<feBlend mode="normal" in="SourceGraphic" in2="BackgroundImageFix" result="shape"/>
<feColorMatrix in="SourceAlpha" type="matrix" values="0 0 0 0 0 0 0 0 0 0 0 0 0 0 0 0 0 0 127 0" result="hardAlpha"/>
<feOffset dy="-1"/>
<feComposite in2="hardAlpha" operator="arithmetic" k2="-1" k3="1"/>
<feColorMatrix type="matrix" values="0 0 0 0 0.886275 0 0 0 0 0.909804 0 0 0 0 0.941176 0 0 0 1 0"/>
<feBlend mode="normal" in2="shape" result="effect1_innerShadow_523_4543"/>
</filter>
<filter id="filter1_i_523_4543" x="19" y="69" width="342" height="56" filterUnits="userSpaceOnUse" color-interpolation-filters="sRGB">
<feFlood flood-opacity="0" result="BackgroundImageFix"/>
<feBlend mode="normal" in="SourceGraphic" in2="BackgroundImageFix" result="shape"/>
<feColorMatrix in="SourceAlpha" type="matrix" values="0 0 0 0 0 0 0 0 0 0 0 0 0 0 0 0 0 0 127 0" result="hardAlpha"/>
<feOffset dy="-1"/>
<feComposite in2="hardAlpha" operator="arithmetic" k2="-1" k3="1"/>
<feColorMatrix type="matrix" values="0 0 0 0 0.886275 0 0 0 0 0.909804 0 0 0 0 0.941176 0 0 0 1 0"/>
<feBlend mode="normal" in2="shape" result="effect1_innerShadow_523_4543"/>
</filter>
<filter id="filter2_i_523_4543" x="19" y="125" width="342" height="112" filterUnits="userSpaceOnUse" color-interpolation-filters="sRGB">
<feFlood flood-opacity="0" result="BackgroundImageFix"/>
<feBlend mode="normal" in="SourceGraphic" in2="BackgroundImageFix" result="shape"/>
<feColorMatrix in="SourceAlpha" type="matrix" values="0 0 0 0 0 0 0 0 0 0 0 0 0 0 0 0 0 0 127 0" result="hardAlpha"/>
<feOffset dy="-1"/>
<feComposite in2="hardAlpha" operator="arithmetic" k2="-1" k3="1"/>
<feColorMatrix type="matrix" values="0 0 0 0 0.886275 0 0 0 0 0.909804 0 0 0 0 0.941176 0 0 0 1 0"/>
<feBlend mode="normal" in2="shape" result="effect1_innerShadow_523_4543"/>
</filter>
</defs>
</svg>
