<svg width="380" height="250" viewBox="0 0 380 250" fill="none" xmlns="http://www.w3.org/2000/svg">
<rect width="380" height="250" fill="white"/>
<path d="M41.5 72.5H338.5C343.747 72.5 348 76.7533 348 82V168C348 173.247 343.747 177.5 338.5 177.5H41.5C36.2533 177.5 32 173.247 32 168V82C32 76.7533 36.2533 72.5 41.5 72.5Z" fill="white" stroke="#D0D0D0"/>
<path d="M83 115H74.5C73.9696 115 73.4609 115.211 73.0858 115.586C72.7107 115.961 72.5 116.47 72.5 117V133C72.5 133.53 72.7107 134.039 73.0858 134.414C73.4609 134.789 73.9696 135 74.5 135H86.5C87.0304 135 87.5391 134.789 87.9142 134.414C88.2893 134.039 88.5 133.53 88.5 133V120.5L83 115Z" stroke="#FF4D4D" stroke-width="2" stroke-linecap="round" stroke-linejoin="round"/>
<path d="M80.5 122V126" stroke="#FF4D4D" stroke-width="2" stroke-linecap="round" stroke-linejoin="round"/>
<path d="M80.5 130H80.51" stroke="#FF4D4D" stroke-width="2" stroke-linecap="round" stroke-linejoin="round"/>
<path d="M110.032 122.68H114.048V123.768H110.032V122.68ZM106.528 119.016H107.616V121.608C107.616 122.408 107.515 123.197 107.312 123.976C107.12 124.755 106.843 125.48 106.48 126.152C106.117 126.824 105.691 127.421 105.2 127.944C104.72 128.467 104.192 128.883 103.616 129.192L102.784 128.12C103.317 127.864 103.808 127.507 104.256 127.048C104.715 126.589 105.115 126.067 105.456 125.48C105.797 124.883 106.059 124.259 106.24 123.608C106.432 122.947 106.528 122.28 106.528 121.608V119.016ZM106.8 119.016H107.872V121.608C107.872 122.259 107.963 122.904 108.144 123.544C108.336 124.184 108.603 124.787 108.944 125.352C109.285 125.907 109.68 126.403 110.128 126.84C110.587 127.277 111.077 127.619 111.6 127.864L110.8 128.936C110.224 128.637 109.691 128.237 109.2 127.736C108.709 127.235 108.283 126.659 107.92 126.008C107.568 125.357 107.291 124.659 107.088 123.912C106.896 123.165 106.8 122.397 106.8 121.608V119.016ZM113.392 117.768H114.704V132.264H113.392V117.768ZM128.111 117.768H129.423V132.264H128.111V117.768ZM124.303 123.144H128.495V124.232H124.303V123.144ZM118.095 118.904H119.423V122.664H123.439V118.904H124.735V128.616H118.095V118.904ZM119.423 123.72V127.528H123.439V123.72H119.423ZM138.11 123.4H140.83V124.488H138.11V123.4ZM143.262 117.768H144.542V132.248H143.262V117.768ZM140.382 118.072H141.646V131.512H140.382V118.072ZM135.486 118.984C136.115 118.984 136.659 119.187 137.118 119.592C137.587 119.997 137.95 120.579 138.206 121.336C138.462 122.093 138.59 122.984 138.59 124.008C138.59 125.043 138.462 125.939 138.206 126.696C137.95 127.453 137.587 128.04 137.118 128.456C136.659 128.861 136.115 129.064 135.486 129.064C134.878 129.064 134.339 128.861 133.87 128.456C133.411 128.04 133.054 127.453 132.798 126.696C132.542 125.939 132.414 125.043 132.414 124.008C132.414 122.984 132.542 122.093 132.798 121.336C133.054 120.579 133.411 119.997 133.87 119.592C134.339 119.187 134.878 118.984 135.486 118.984ZM135.486 120.216C135.112 120.216 134.787 120.371 134.51 120.68C134.232 120.989 134.019 121.427 133.87 121.992C133.72 122.557 133.646 123.229 133.646 124.008C133.646 124.787 133.72 125.464 133.87 126.04C134.019 126.605 134.232 127.043 134.51 127.352C134.787 127.661 135.112 127.816 135.486 127.816C135.87 127.816 136.2 127.661 136.478 127.352C136.766 127.043 136.984 126.605 137.134 126.04C137.283 125.464 137.358 124.787 137.358 124.008C137.358 123.229 137.283 122.557 137.134 121.992C136.984 121.427 136.766 120.989 136.478 120.68C136.2 120.371 135.87 120.216 135.486 120.216ZM158.144 120.04H162.496V121.128H158.144V120.04ZM158.144 123.496H162.496V124.584H158.144V123.496ZM162.032 117.784H163.36V128.472H162.032V117.784ZM154.128 130.84H163.76V131.928H154.128V130.84ZM154.128 127.368H155.44V131.304H154.128V127.368ZM155.408 118.696C156.112 118.696 156.742 118.851 157.296 119.16C157.862 119.469 158.304 119.896 158.624 120.44C158.955 120.984 159.12 121.608 159.12 122.312C159.12 123.027 158.955 123.656 158.624 124.2C158.304 124.744 157.862 125.171 157.296 125.48C156.742 125.789 156.112 125.944 155.408 125.944C154.694 125.944 154.054 125.789 153.488 125.48C152.934 125.171 152.491 124.744 152.16 124.2C151.84 123.656 151.68 123.027 151.68 122.312C151.68 121.608 151.84 120.984 152.16 120.44C152.491 119.896 152.934 119.469 153.488 119.16C154.054 118.851 154.694 118.696 155.408 118.696ZM155.408 119.88C154.939 119.88 154.518 119.987 154.144 120.2C153.771 120.403 153.478 120.691 153.264 121.064C153.051 121.427 152.944 121.848 152.944 122.328C152.944 122.797 153.051 123.219 153.264 123.592C153.478 123.965 153.771 124.259 154.144 124.472C154.518 124.675 154.939 124.776 155.408 124.776C155.867 124.776 156.283 124.675 156.656 124.472C157.03 124.259 157.323 123.965 157.536 123.592C157.75 123.219 157.856 122.797 157.856 122.328C157.856 121.848 157.75 121.427 157.536 121.064C157.323 120.691 157.03 120.403 156.656 120.2C156.283 119.987 155.867 119.88 155.408 119.88ZM176.751 117.768H178.079V125.16H176.751V117.768ZM172.175 118.488H173.615C173.615 119.693 173.343 120.76 172.799 121.688C172.266 122.616 171.498 123.4 170.495 124.04C169.492 124.669 168.287 125.149 166.879 125.48L166.415 124.392C167.663 124.104 168.714 123.709 169.567 123.208C170.42 122.696 171.066 122.099 171.503 121.416C171.951 120.723 172.175 119.96 172.175 119.128V118.488ZM167.151 118.488H172.767V119.576H167.151V118.488ZM173.087 119.864H176.959V120.904H173.087V119.864ZM172.959 122.632H176.879V123.672H172.959V122.632ZM168.767 125.816H178.079V129.368H170.111V131.672H168.799V128.36H176.751V126.888H168.767V125.816ZM168.799 131.032H178.559V132.104H168.799V131.032ZM190.798 117.72H192.126V125.72H190.798V117.72ZM191.55 121.208H194.27V122.312H191.55V121.208ZM182.926 126.456H192.126V129.688H184.27V131.432H182.974V128.728H190.814V127.448H182.926V126.456ZM182.974 131.064H192.638V132.088H182.974V131.064ZM180.926 119.08H189.47V120.12H180.926V119.08ZM185.198 120.76C186.243 120.76 187.08 120.973 187.71 121.4C188.339 121.816 188.654 122.392 188.654 123.128C188.654 123.853 188.339 124.429 187.71 124.856C187.08 125.283 186.243 125.496 185.198 125.496C184.142 125.496 183.299 125.283 182.67 124.856C182.04 124.429 181.726 123.853 181.726 123.128C181.726 122.392 182.04 121.816 182.67 121.4C183.299 120.973 184.142 120.76 185.198 120.76ZM185.198 121.736C184.536 121.736 184.003 121.864 183.598 122.12C183.203 122.365 183.006 122.701 183.006 123.128C183.006 123.555 183.203 123.896 183.598 124.152C184.003 124.397 184.536 124.52 185.198 124.52C185.87 124.52 186.403 124.397 186.798 124.152C187.192 123.896 187.39 123.555 187.39 123.128C187.39 122.701 187.192 122.365 186.798 122.12C186.403 121.864 185.87 121.736 185.198 121.736ZM184.542 117.624H185.87V119.8H184.542V117.624ZM205.969 118.28H207.137V119.096C207.137 119.651 207.03 120.173 206.817 120.664C206.603 121.144 206.31 121.587 205.937 121.992C205.574 122.397 205.147 122.76 204.657 123.08C204.166 123.4 203.633 123.667 203.057 123.88C202.491 124.093 201.91 124.248 201.312 124.344L200.769 123.272C201.302 123.197 201.819 123.069 202.321 122.888C202.833 122.707 203.307 122.488 203.745 122.232C204.182 121.965 204.566 121.667 204.897 121.336C205.238 121.005 205.499 120.653 205.681 120.28C205.873 119.896 205.969 119.501 205.969 119.096V118.28ZM206.193 118.28H207.345V119.096C207.345 119.501 207.441 119.891 207.633 120.264C207.825 120.637 208.086 120.989 208.417 121.32C208.758 121.651 209.147 121.949 209.585 122.216C210.022 122.483 210.491 122.707 210.993 122.888C211.505 123.069 212.022 123.197 212.545 123.272L212.017 124.344C211.419 124.248 210.838 124.093 210.273 123.88C209.707 123.656 209.174 123.384 208.673 123.064C208.182 122.744 207.75 122.381 207.377 121.976C207.014 121.571 206.726 121.128 206.513 120.648C206.299 120.157 206.193 119.64 206.193 119.096V118.28ZM205.969 126.744H207.281V132.248H205.969V126.744ZM200.113 125.912H213.185V127.016H200.113V125.912ZM220.979 126.264H222.227V128.056H224.755V126.264H225.987V132.056H220.979V126.264ZM222.227 129.064V131.016H224.755V129.064H222.227ZM228.787 126.168H229.827V127.384C229.827 128.035 229.715 128.675 229.491 129.304C229.267 129.923 228.931 130.483 228.483 130.984C228.046 131.485 227.497 131.88 226.835 132.168L226.163 131.16C226.739 130.915 227.225 130.589 227.619 130.184C228.014 129.779 228.307 129.331 228.499 128.84C228.691 128.349 228.787 127.864 228.787 127.384V126.168ZM229.075 126.168H230.099V127.384C230.099 127.896 230.195 128.403 230.387 128.904C230.59 129.395 230.889 129.837 231.283 130.232C231.678 130.627 232.163 130.936 232.739 131.16L232.051 132.168C231.379 131.891 230.825 131.507 230.387 131.016C229.95 130.525 229.619 129.965 229.395 129.336C229.182 128.707 229.075 128.056 229.075 127.384V126.168ZM226.595 121.16H230.483V122.264H226.595V121.16ZM223.283 118.408C223.998 118.408 224.633 118.552 225.187 118.84C225.753 119.117 226.195 119.507 226.515 120.008C226.835 120.499 226.995 121.075 226.995 121.736C226.995 122.387 226.835 122.968 226.515 123.48C226.195 123.981 225.753 124.376 225.187 124.664C224.633 124.941 223.998 125.08 223.283 125.08C222.558 125.08 221.913 124.941 221.347 124.664C220.793 124.376 220.355 123.981 220.035 123.48C219.715 122.968 219.555 122.387 219.555 121.736C219.555 121.075 219.715 120.499 220.035 120.008C220.355 119.507 220.793 119.117 221.347 118.84C221.913 118.552 222.558 118.408 223.283 118.408ZM223.283 119.512C222.803 119.512 222.377 119.608 222.003 119.8C221.641 119.981 221.353 120.243 221.139 120.584C220.926 120.915 220.819 121.299 220.819 121.736C220.819 122.173 220.926 122.563 221.139 122.904C221.353 123.235 221.641 123.496 222.003 123.688C222.377 123.88 222.803 123.976 223.283 123.976C223.753 123.976 224.169 123.88 224.531 123.688C224.905 123.496 225.198 123.235 225.411 122.904C225.625 122.563 225.731 122.173 225.731 121.736C225.731 121.299 225.625 120.915 225.411 120.584C225.198 120.243 224.905 119.981 224.531 119.8C224.169 119.608 223.753 119.512 223.283 119.512ZM229.907 117.768H231.235V125.432H229.907V117.768ZM235.698 126.456H237.01V128.12H244.098V126.456H245.41V132.056H235.698V126.456ZM237.01 129.16V130.984H244.098V129.16H237.01ZM234.05 124.36H247.122V125.448H234.05V124.36ZM239.906 117.928H241.058V118.584C241.058 119.085 240.951 119.56 240.738 120.008C240.525 120.445 240.231 120.851 239.858 121.224C239.495 121.587 239.069 121.912 238.578 122.2C238.098 122.488 237.575 122.728 237.01 122.92C236.455 123.112 235.879 123.256 235.282 123.352L234.786 122.296C235.309 122.221 235.815 122.104 236.306 121.944C236.807 121.784 237.277 121.592 237.714 121.368C238.151 121.133 238.535 120.872 238.866 120.584C239.197 120.285 239.453 119.971 239.634 119.64C239.815 119.299 239.906 118.947 239.906 118.584V117.928ZM240.13 117.928H241.266V118.584C241.266 118.936 241.357 119.283 241.538 119.624C241.73 119.955 241.991 120.269 242.322 120.568C242.653 120.856 243.031 121.117 243.458 121.352C243.895 121.587 244.359 121.789 244.85 121.96C245.351 122.12 245.858 122.232 246.37 122.296L245.89 123.352C245.293 123.256 244.711 123.112 244.146 122.92C243.591 122.728 243.069 122.488 242.578 122.2C242.098 121.901 241.671 121.565 241.298 121.192C240.935 120.819 240.647 120.413 240.434 119.976C240.231 119.539 240.13 119.075 240.13 118.584V117.928ZM259.297 117.768H260.609V132.248H259.297V117.768ZM249.681 119.192H250.993V128.152H249.681V119.192ZM249.681 127.368H250.865C251.974 127.368 253.099 127.32 254.241 127.224C255.393 127.117 256.577 126.941 257.793 126.696L257.969 127.816C256.71 128.083 255.499 128.269 254.337 128.376C253.174 128.472 252.017 128.52 250.865 128.52H249.681V127.368ZM273.28 117.768H274.608V132.264H273.28V117.768ZM274.304 123.48H276.976V124.584H274.304V123.48ZM264.112 127.528H265.248C266.133 127.528 266.944 127.517 267.68 127.496C268.426 127.464 269.141 127.411 269.824 127.336C270.517 127.261 271.221 127.16 271.936 127.032L272.095 128.168C271.349 128.296 270.624 128.397 269.92 128.472C269.226 128.547 268.501 128.595 267.744 128.616C266.986 128.637 266.154 128.648 265.248 128.648H264.112V127.528ZM264.112 119.176H270.816V120.264H265.424V128.04H264.112V119.176ZM279.611 131.091C279.33 131.091 279.09 130.991 278.889 130.79C278.688 130.589 278.588 130.348 278.588 130.068C278.588 129.788 278.688 129.547 278.889 129.347C279.09 129.146 279.33 129.045 279.611 129.045C279.891 129.045 280.132 129.146 280.332 129.347C280.533 129.547 280.634 129.788 280.634 130.068C280.634 130.254 280.586 130.424 280.491 130.58C280.401 130.735 280.277 130.86 280.122 130.955C279.971 131.045 279.8 131.091 279.611 131.091Z" fill="#FF4D4D"/>
</svg>
