<svg width="380" height="250" viewBox="0 0 380 250" fill="none" xmlns="http://www.w3.org/2000/svg">
<rect width="380" height="250" fill="white"/>
<path d="M74.7191 128V121.455H75.7067V124.299H78.9698V121.455H79.9606V128H78.9698V125.146H75.7067V128H74.7191ZM87.0845 124.727C87.0845 125.426 86.9567 126.027 86.701 126.53C86.4453 127.031 86.0948 127.416 85.6495 127.687C85.2063 127.955 84.7024 128.089 84.1378 128.089C83.571 128.089 83.065 127.955 82.6197 127.687C82.1765 127.416 81.8271 127.029 81.5714 126.527C81.3157 126.024 81.1879 125.424 81.1879 124.727C81.1879 124.028 81.3157 123.429 81.5714 122.928C81.8271 122.425 82.1765 122.039 82.6197 121.771C83.065 121.5 83.571 121.365 84.1378 121.365C84.7024 121.365 85.2063 121.5 85.6495 121.771C86.0948 122.039 86.4453 122.425 86.701 122.928C86.9567 123.429 87.0845 124.028 87.0845 124.727ZM86.1065 124.727C86.1065 124.195 86.0202 123.746 85.8477 123.382C85.6772 123.015 85.4428 122.738 85.1445 122.551C84.8484 122.361 84.5128 122.266 84.1378 122.266C83.7607 122.266 83.424 122.361 83.1278 122.551C82.8317 122.738 82.5973 123.015 82.4247 123.382C82.2543 123.746 82.169 124.195 82.169 124.727C82.169 125.26 82.2543 125.71 82.4247 126.076C82.5973 126.44 82.8317 126.717 83.1278 126.907C83.424 127.094 83.7607 127.188 84.1378 127.188C84.5128 127.188 84.8484 127.094 85.1445 126.907C85.4428 126.717 85.6772 126.44 85.8477 126.076C86.0202 125.71 86.1065 125.26 86.1065 124.727ZM88.3158 121.455H89.5143L91.5981 126.543H91.6748L93.7586 121.455H94.9571V128H94.0175V123.263H93.9568L92.0264 127.99H91.2465L89.3161 123.26H89.2554V128H88.3158V121.455ZM96.3929 128V121.455H100.497V122.305H97.3805V124.299H100.282V125.146H97.3805V127.15H100.535V128H96.3929ZM122.059 123.174C122.025 122.871 121.884 122.637 121.637 122.471C121.39 122.303 121.078 122.218 120.703 122.218C120.435 122.218 120.203 122.261 120.007 122.346C119.811 122.429 119.658 122.544 119.55 122.691C119.443 122.836 119.39 123.001 119.39 123.187C119.39 123.342 119.426 123.477 119.499 123.589C119.573 123.702 119.67 123.797 119.789 123.874C119.911 123.949 120.041 124.011 120.179 124.062C120.318 124.112 120.451 124.152 120.579 124.184L121.218 124.35C121.427 124.401 121.641 124.471 121.86 124.558C122.08 124.645 122.283 124.76 122.471 124.903C122.658 125.046 122.81 125.223 122.925 125.434C123.042 125.645 123.1 125.897 123.1 126.191C123.1 126.562 123.005 126.891 122.813 127.179C122.623 127.466 122.347 127.693 121.985 127.859C121.625 128.026 121.189 128.109 120.678 128.109C120.188 128.109 119.764 128.031 119.406 127.875C119.048 127.72 118.768 127.499 118.565 127.214C118.363 126.926 118.251 126.585 118.23 126.191H119.221C119.24 126.428 119.316 126.625 119.451 126.782C119.587 126.938 119.761 127.054 119.972 127.131C120.185 127.205 120.418 127.243 120.672 127.243C120.951 127.243 121.199 127.199 121.416 127.112C121.636 127.022 121.808 126.898 121.934 126.741C122.06 126.581 122.123 126.395 122.123 126.181C122.123 125.988 122.067 125.829 121.956 125.705C121.848 125.582 121.7 125.479 121.512 125.398C121.327 125.317 121.117 125.246 120.882 125.184L120.109 124.973C119.585 124.831 119.169 124.621 118.863 124.344C118.558 124.067 118.406 123.7 118.406 123.244C118.406 122.867 118.508 122.538 118.712 122.257C118.917 121.975 119.194 121.757 119.543 121.602C119.893 121.444 120.287 121.365 120.726 121.365C121.169 121.365 121.56 121.443 121.899 121.598C122.24 121.754 122.508 121.968 122.704 122.241C122.9 122.511 123.002 122.822 123.011 123.174H122.059ZM126.495 123.091V123.858H123.814V123.091H126.495ZM124.533 121.915H125.489V126.559C125.489 126.744 125.516 126.884 125.572 126.977C125.627 127.069 125.699 127.132 125.786 127.166C125.875 127.198 125.972 127.214 126.077 127.214C126.153 127.214 126.221 127.208 126.278 127.198C126.336 127.187 126.38 127.179 126.412 127.172L126.585 127.962C126.53 127.983 126.451 128.004 126.348 128.026C126.246 128.049 126.118 128.062 125.965 128.064C125.714 128.068 125.479 128.023 125.262 127.93C125.044 127.836 124.869 127.691 124.734 127.495C124.6 127.299 124.533 127.053 124.533 126.757V121.915ZM128.157 129.841C128.014 129.841 127.884 129.829 127.767 129.806C127.65 129.784 127.562 129.761 127.505 129.735L127.735 128.952C127.909 128.999 128.065 129.02 128.201 129.013C128.338 129.007 128.458 128.956 128.562 128.86C128.669 128.764 128.763 128.607 128.844 128.39L128.962 128.064L127.166 123.091H128.189L129.432 126.901H129.483L130.726 123.091H131.752L129.729 128.655C129.635 128.911 129.516 129.127 129.371 129.304C129.226 129.483 129.054 129.617 128.853 129.707C128.653 129.796 128.421 129.841 128.157 129.841ZM133.606 121.455V128H132.65V121.455H133.606ZM137.007 128.099C136.524 128.099 136.107 127.996 135.758 127.789C135.41 127.58 135.142 127.287 134.952 126.91C134.765 126.531 134.671 126.087 134.671 125.577C134.671 125.075 134.765 124.631 134.952 124.248C135.142 123.864 135.406 123.565 135.745 123.35C136.086 123.135 136.484 123.027 136.94 123.027C137.217 123.027 137.486 123.073 137.745 123.164C138.005 123.256 138.239 123.4 138.445 123.596C138.652 123.792 138.815 124.047 138.934 124.36C139.054 124.671 139.113 125.049 139.113 125.494V125.833H135.211V125.117H138.177C138.177 124.866 138.126 124.643 138.024 124.449C137.921 124.253 137.777 124.099 137.592 123.986C137.409 123.873 137.194 123.816 136.946 123.816C136.678 123.816 136.444 123.882 136.243 124.015C136.045 124.145 135.892 124.315 135.783 124.526C135.677 124.735 135.623 124.962 135.623 125.207V125.766C135.623 126.094 135.681 126.373 135.796 126.603C135.913 126.833 136.076 127.009 136.285 127.131C136.494 127.25 136.738 127.31 137.017 127.31C137.198 127.31 137.363 127.284 137.512 127.233C137.661 127.18 137.79 127.101 137.899 126.996C138.008 126.892 138.091 126.763 138.148 126.61L139.053 126.773C138.98 127.039 138.85 127.272 138.663 127.473C138.477 127.671 138.244 127.825 137.963 127.936C137.684 128.045 137.365 128.099 137.007 128.099ZM144.68 123.522C144.618 123.328 144.535 123.155 144.431 123.001C144.328 122.846 144.206 122.714 144.063 122.605C143.92 122.494 143.757 122.41 143.574 122.353C143.393 122.295 143.194 122.266 142.977 122.266C142.608 122.266 142.276 122.361 141.979 122.551C141.683 122.74 141.449 123.018 141.276 123.385C141.106 123.749 141.021 124.196 141.021 124.724C141.021 125.255 141.107 125.703 141.279 126.07C141.452 126.436 141.689 126.714 141.989 126.904C142.289 127.093 142.631 127.188 143.015 127.188C143.371 127.188 143.681 127.116 143.945 126.971C144.211 126.826 144.417 126.621 144.562 126.357C144.709 126.091 144.782 125.778 144.782 125.418L145.038 125.466H143.165V124.651H145.738V125.395C145.738 125.945 145.621 126.422 145.386 126.827C145.154 127.23 144.832 127.541 144.421 127.76C144.012 127.98 143.543 128.089 143.015 128.089C142.423 128.089 141.903 127.953 141.455 127.68C141.01 127.408 140.663 127.021 140.413 126.52C140.164 126.017 140.039 125.421 140.039 124.73C140.039 124.208 140.112 123.74 140.257 123.324C140.402 122.909 140.605 122.556 140.867 122.266C141.131 121.974 141.441 121.752 141.797 121.598C142.155 121.443 142.546 121.365 142.97 121.365C143.324 121.365 143.653 121.417 143.958 121.522C144.265 121.626 144.537 121.774 144.776 121.966C145.017 122.158 145.216 122.386 145.374 122.65C145.531 122.912 145.638 123.203 145.693 123.522H144.68ZM150.025 125.964V123.091H150.983V128H150.044V127.15H149.993C149.88 127.412 149.699 127.63 149.449 127.805C149.202 127.978 148.894 128.064 148.526 128.064C148.21 128.064 147.931 127.995 147.688 127.856C147.448 127.716 147.258 127.508 147.119 127.233C146.983 126.958 146.915 126.618 146.915 126.213V123.091H147.87V126.098C147.87 126.433 147.963 126.699 148.149 126.897C148.334 127.096 148.575 127.195 148.871 127.195C149.05 127.195 149.228 127.15 149.405 127.06C149.584 126.971 149.732 126.836 149.849 126.654C149.968 126.473 150.027 126.243 150.025 125.964ZM152.267 128V123.091H153.223V128H152.267ZM152.75 122.333C152.584 122.333 152.441 122.278 152.322 122.167C152.205 122.054 152.146 121.92 152.146 121.765C152.146 121.607 152.205 121.473 152.322 121.362C152.441 121.249 152.584 121.192 152.75 121.192C152.916 121.192 153.058 121.249 153.175 121.362C153.294 121.473 153.354 121.607 153.354 121.765C153.354 121.92 153.294 122.054 153.175 122.167C153.058 122.278 152.916 122.333 152.75 122.333ZM156.346 128.096C155.95 128.096 155.596 127.995 155.285 127.792C154.976 127.588 154.733 127.297 154.557 126.92C154.382 126.54 154.294 126.086 154.294 125.555C154.294 125.025 154.383 124.571 154.56 124.194C154.739 123.816 154.984 123.528 155.295 123.327C155.606 123.127 155.959 123.027 156.353 123.027C156.657 123.027 156.902 123.078 157.088 123.18C157.275 123.281 157.42 123.398 157.522 123.532C157.627 123.666 157.708 123.784 157.765 123.887H157.823V121.455H158.778V128H157.845V127.236H157.765C157.708 127.341 157.625 127.46 157.516 127.594C157.41 127.728 157.263 127.846 157.075 127.946C156.888 128.046 156.645 128.096 156.346 128.096ZM156.557 127.281C156.832 127.281 157.064 127.208 157.254 127.064C157.446 126.917 157.591 126.713 157.689 126.453C157.789 126.193 157.839 125.891 157.839 125.545C157.839 125.205 157.79 124.906 157.692 124.651C157.594 124.395 157.45 124.196 157.26 124.053C157.071 123.91 156.836 123.839 156.557 123.839C156.27 123.839 156.03 123.913 155.838 124.062C155.646 124.212 155.502 124.415 155.403 124.673C155.308 124.931 155.26 125.222 155.26 125.545C155.26 125.874 155.309 126.169 155.407 126.431C155.505 126.693 155.65 126.901 155.841 127.054C156.035 127.205 156.274 127.281 156.557 127.281ZM162.258 128.099C161.775 128.099 161.358 127.996 161.009 127.789C160.661 127.58 160.393 127.287 160.203 126.91C160.016 126.531 159.922 126.087 159.922 125.577C159.922 125.075 160.016 124.631 160.203 124.248C160.393 123.864 160.657 123.565 160.996 123.35C161.337 123.135 161.735 123.027 162.191 123.027C162.468 123.027 162.737 123.073 162.996 123.164C163.256 123.256 163.49 123.4 163.696 123.596C163.903 123.792 164.066 124.047 164.185 124.36C164.305 124.671 164.364 125.049 164.364 125.494V125.833H160.462V125.117H163.428C163.428 124.866 163.377 124.643 163.275 124.449C163.172 124.253 163.028 124.099 162.843 123.986C162.66 123.873 162.445 123.816 162.197 123.816C161.929 123.816 161.695 123.882 161.494 124.015C161.296 124.145 161.143 124.315 161.034 124.526C160.928 124.735 160.874 124.962 160.874 125.207V125.766C160.874 126.094 160.932 126.373 161.047 126.603C161.164 126.833 161.327 127.009 161.536 127.131C161.745 127.25 161.989 127.31 162.268 127.31C162.449 127.31 162.614 127.284 162.763 127.233C162.912 127.18 163.041 127.101 163.15 126.996C163.259 126.892 163.342 126.763 163.399 126.61L164.304 126.773C164.231 127.039 164.101 127.272 163.914 127.473C163.728 127.671 163.495 127.825 163.214 127.936C162.935 128.045 162.616 128.099 162.258 128.099ZM187.611 123.583H186.613C186.575 123.37 186.504 123.183 186.399 123.021C186.295 122.859 186.167 122.721 186.016 122.608C185.865 122.495 185.695 122.41 185.508 122.353C185.322 122.295 185.125 122.266 184.916 122.266C184.539 122.266 184.202 122.361 183.903 122.551C183.607 122.74 183.373 123.018 183.2 123.385C183.03 123.751 182.944 124.199 182.944 124.727C182.944 125.26 183.03 125.71 183.2 126.076C183.373 126.442 183.608 126.719 183.906 126.907C184.205 127.094 184.54 127.188 184.913 127.188C185.12 127.188 185.316 127.161 185.501 127.105C185.689 127.048 185.858 126.963 186.009 126.853C186.161 126.742 186.289 126.607 186.393 126.447C186.499 126.285 186.573 126.099 186.613 125.891L187.611 125.894C187.557 126.216 187.454 126.512 187.301 126.782C187.149 127.051 186.954 127.283 186.716 127.479C186.479 127.673 186.209 127.823 185.904 127.93C185.599 128.036 185.267 128.089 184.907 128.089C184.34 128.089 183.835 127.955 183.392 127.687C182.949 127.416 182.599 127.029 182.344 126.527C182.09 126.024 181.963 125.424 181.963 124.727C181.963 124.028 182.091 123.429 182.347 122.928C182.602 122.425 182.952 122.039 183.395 121.771C183.838 121.5 184.342 121.365 184.907 121.365C185.254 121.365 185.578 121.415 185.878 121.515C186.181 121.613 186.453 121.758 186.693 121.95C186.934 122.14 187.133 122.372 187.291 122.647C187.449 122.919 187.555 123.232 187.611 123.583ZM190.783 128.099C190.323 128.099 189.922 127.994 189.579 127.783C189.236 127.572 188.969 127.277 188.78 126.897C188.59 126.518 188.495 126.075 188.495 125.568C188.495 125.059 188.59 124.613 188.78 124.232C188.969 123.85 189.236 123.554 189.579 123.343C189.922 123.132 190.323 123.027 190.783 123.027C191.244 123.027 191.645 123.132 191.988 123.343C192.331 123.554 192.598 123.85 192.787 124.232C192.977 124.613 193.072 125.059 193.072 125.568C193.072 126.075 192.977 126.518 192.787 126.897C192.598 127.277 192.331 127.572 191.988 127.783C191.645 127.994 191.244 128.099 190.783 128.099ZM190.787 127.297C191.085 127.297 191.332 127.218 191.528 127.06C191.724 126.903 191.869 126.693 191.963 126.431C192.059 126.169 192.107 125.88 192.107 125.565C192.107 125.251 192.059 124.964 191.963 124.702C191.869 124.437 191.724 124.225 191.528 124.066C191.332 123.906 191.085 123.826 190.787 123.826C190.486 123.826 190.237 123.906 190.039 124.066C189.843 124.225 189.697 124.437 189.601 124.702C189.507 124.964 189.46 125.251 189.46 125.565C189.46 125.88 189.507 126.169 189.601 126.431C189.697 126.693 189.843 126.903 190.039 127.06C190.237 127.218 190.486 127.297 190.787 127.297ZM194.138 128V123.091H195.056V123.89H195.116C195.219 123.619 195.386 123.408 195.618 123.257C195.85 123.104 196.129 123.027 196.452 123.027C196.781 123.027 197.055 123.104 197.277 123.257C197.501 123.411 197.666 123.621 197.772 123.89H197.824C197.941 123.628 198.127 123.419 198.383 123.263C198.638 123.106 198.943 123.027 199.297 123.027C199.742 123.027 200.105 123.167 200.387 123.446C200.67 123.725 200.812 124.146 200.812 124.708V128H199.856V124.798C199.856 124.465 199.766 124.224 199.585 124.075C199.403 123.926 199.187 123.852 198.936 123.852C198.625 123.852 198.383 123.947 198.21 124.139C198.038 124.329 197.951 124.573 197.951 124.871V128H196.999V124.737C196.999 124.471 196.916 124.256 196.75 124.094C196.583 123.933 196.367 123.852 196.101 123.852C195.92 123.852 195.752 123.9 195.599 123.995C195.448 124.089 195.325 124.22 195.232 124.388C195.14 124.557 195.094 124.752 195.094 124.973V128H194.138ZM202.093 129.841V123.091H203.026V123.887H203.106C203.161 123.784 203.241 123.666 203.345 123.532C203.45 123.398 203.595 123.281 203.78 123.18C203.965 123.078 204.21 123.027 204.515 123.027C204.911 123.027 205.265 123.127 205.576 123.327C205.887 123.528 206.131 123.816 206.308 124.194C206.487 124.571 206.577 125.025 206.577 125.555C206.577 126.086 206.488 126.54 206.311 126.92C206.134 127.297 205.892 127.588 205.583 127.792C205.274 127.995 204.921 128.096 204.525 128.096C204.226 128.096 203.983 128.046 203.793 127.946C203.605 127.846 203.458 127.728 203.352 127.594C203.245 127.46 203.163 127.341 203.106 127.236H203.048V129.841H202.093ZM203.029 125.545C203.029 125.891 203.079 126.193 203.179 126.453C203.279 126.713 203.424 126.917 203.614 127.064C203.804 127.208 204.036 127.281 204.311 127.281C204.596 127.281 204.835 127.205 205.027 127.054C205.218 126.901 205.363 126.693 205.461 126.431C205.561 126.169 205.611 125.874 205.611 125.545C205.611 125.222 205.562 124.931 205.464 124.673C205.369 124.415 205.224 124.212 205.03 124.062C204.838 123.913 204.598 123.839 204.311 123.839C204.034 123.839 203.799 123.91 203.608 124.053C203.418 124.196 203.274 124.395 203.176 124.651C203.078 124.906 203.029 125.205 203.029 125.545ZM209.715 128.099C209.255 128.099 208.853 127.994 208.51 127.783C208.167 127.572 207.901 127.277 207.711 126.897C207.522 126.518 207.427 126.075 207.427 125.568C207.427 125.059 207.522 124.613 207.711 124.232C207.901 123.85 208.167 123.554 208.51 123.343C208.853 123.132 209.255 123.027 209.715 123.027C210.175 123.027 210.577 123.132 210.92 123.343C211.263 123.554 211.529 123.85 211.719 124.232C211.909 124.613 212.003 125.059 212.003 125.568C212.003 126.075 211.909 126.518 211.719 126.897C211.529 127.277 211.263 127.572 210.92 127.783C210.577 127.994 210.175 128.099 209.715 128.099ZM209.718 127.297C210.017 127.297 210.264 127.218 210.46 127.06C210.656 126.903 210.801 126.693 210.894 126.431C210.99 126.169 211.038 125.88 211.038 125.565C211.038 125.251 210.99 124.964 210.894 124.702C210.801 124.437 210.656 124.225 210.46 124.066C210.264 123.906 210.017 123.826 209.718 123.826C209.418 123.826 209.169 123.906 208.97 124.066C208.774 124.225 208.628 124.437 208.533 124.702C208.439 124.964 208.392 125.251 208.392 125.565C208.392 125.88 208.439 126.169 208.533 126.431C208.628 126.693 208.774 126.903 208.97 127.06C209.169 127.218 209.418 127.297 209.718 127.297ZM214.026 125.085V128H213.07V123.091H213.987V123.89H214.048C214.161 123.63 214.338 123.421 214.579 123.263C214.822 123.106 215.127 123.027 215.496 123.027C215.83 123.027 216.123 123.097 216.375 123.238C216.626 123.376 216.821 123.583 216.96 123.858C217.098 124.133 217.167 124.473 217.167 124.877V128H216.212V124.993C216.212 124.637 216.119 124.359 215.934 124.158C215.748 123.956 215.494 123.855 215.17 123.855C214.948 123.855 214.751 123.903 214.579 123.999C214.408 124.094 214.273 124.235 214.173 124.42C214.075 124.604 214.026 124.825 214.026 125.085ZM220.565 128.099C220.081 128.099 219.665 127.996 219.315 127.789C218.968 127.58 218.699 127.287 218.51 126.91C218.322 126.531 218.229 126.087 218.229 125.577C218.229 125.075 218.322 124.631 218.51 124.248C218.699 123.864 218.964 123.565 219.302 123.35C219.643 123.135 220.042 123.027 220.498 123.027C220.775 123.027 221.043 123.073 221.303 123.164C221.563 123.256 221.796 123.4 222.003 123.596C222.21 123.792 222.373 124.047 222.492 124.36C222.611 124.671 222.671 125.049 222.671 125.494V125.833H218.769V125.117H221.735C221.735 124.866 221.683 124.643 221.581 124.449C221.479 124.253 221.335 124.099 221.15 123.986C220.966 123.873 220.751 123.816 220.504 123.816C220.236 123.816 220.001 123.882 219.801 124.015C219.603 124.145 219.449 124.315 219.341 124.526C219.234 124.735 219.181 124.962 219.181 125.207V125.766C219.181 126.094 219.238 126.373 219.354 126.603C219.471 126.833 219.634 127.009 219.843 127.131C220.051 127.25 220.295 127.31 220.574 127.31C220.756 127.31 220.921 127.284 221.07 127.233C221.219 127.18 221.348 127.101 221.456 126.996C221.565 126.892 221.648 126.763 221.706 126.61L222.61 126.773C222.538 127.039 222.408 127.272 222.22 127.473C222.035 127.671 221.802 127.825 221.52 127.936C221.241 128.045 220.923 128.099 220.565 128.099ZM224.687 125.085V128H223.731V123.091H224.649V123.89H224.709C224.822 123.63 224.999 123.421 225.24 123.263C225.483 123.106 225.788 123.027 226.157 123.027C226.492 123.027 226.785 123.097 227.036 123.238C227.287 123.376 227.482 123.583 227.621 123.858C227.759 124.133 227.829 124.473 227.829 124.877V128H226.873V124.993C226.873 124.637 226.78 124.359 226.595 124.158C226.41 123.956 226.155 123.855 225.831 123.855C225.609 123.855 225.412 123.903 225.24 123.999C225.069 124.094 224.934 124.235 224.834 124.42C224.736 124.604 224.687 124.825 224.687 125.085ZM231.402 123.091V123.858H228.72V123.091H231.402ZM229.439 121.915H230.395V126.559C230.395 126.744 230.423 126.884 230.478 126.977C230.533 127.069 230.605 127.132 230.692 127.166C230.782 127.198 230.879 127.214 230.983 127.214C231.06 127.214 231.127 127.208 231.184 127.198C231.242 127.187 231.287 127.179 231.319 127.172L231.491 127.962C231.436 127.983 231.357 128.004 231.255 128.026C231.152 128.049 231.025 128.062 230.871 128.064C230.62 128.068 230.385 128.023 230.168 127.93C229.951 127.836 229.775 127.691 229.641 127.495C229.506 127.299 229.439 127.053 229.439 126.757V121.915ZM236.058 124.289L235.192 124.443C235.156 124.332 235.098 124.227 235.02 124.126C234.943 124.026 234.839 123.944 234.706 123.88C234.574 123.816 234.409 123.784 234.211 123.784C233.94 123.784 233.715 123.845 233.533 123.967C233.352 124.086 233.262 124.24 233.262 124.43C233.262 124.594 233.323 124.726 233.444 124.826C233.565 124.926 233.761 125.009 234.032 125.072L234.812 125.251C235.264 125.356 235.6 125.517 235.822 125.734C236.043 125.951 236.154 126.234 236.154 126.581C236.154 126.875 236.069 127.137 235.899 127.367C235.73 127.595 235.495 127.774 235.192 127.904C234.892 128.034 234.543 128.099 234.147 128.099C233.597 128.099 233.149 127.982 232.802 127.748C232.454 127.511 232.241 127.175 232.162 126.741L233.086 126.6C233.144 126.841 233.262 127.023 233.441 127.147C233.62 127.268 233.853 127.329 234.141 127.329C234.454 127.329 234.704 127.264 234.892 127.134C235.079 127.002 235.173 126.841 235.173 126.651C235.173 126.498 235.116 126.369 235 126.265C234.888 126.16 234.714 126.081 234.479 126.028L233.649 125.846C233.19 125.741 232.852 125.575 232.632 125.347C232.415 125.119 232.306 124.831 232.306 124.481C232.306 124.191 232.387 123.938 232.549 123.721C232.711 123.503 232.935 123.334 233.22 123.212C233.506 123.089 233.833 123.027 234.201 123.027C234.732 123.027 235.15 123.142 235.454 123.372C235.759 123.6 235.96 123.906 236.058 124.289Z" fill="#D0D0D0"/>
<path d="M253.954 128V121.455H256.351C256.816 121.455 257.201 121.531 257.505 121.685C257.81 121.836 258.038 122.042 258.189 122.301C258.34 122.559 258.416 122.85 258.416 123.174C258.416 123.447 258.366 123.677 258.266 123.864C258.166 124.05 258.032 124.199 257.863 124.312C257.697 124.423 257.514 124.504 257.313 124.555V124.619C257.531 124.629 257.743 124.7 257.949 124.83C258.158 124.957 258.331 125.14 258.467 125.376C258.604 125.613 258.672 125.9 258.672 126.239C258.672 126.574 258.593 126.874 258.435 127.14C258.28 127.404 258.039 127.614 257.713 127.77C257.387 127.923 256.97 128 256.463 128H253.954ZM254.942 127.153H256.367C256.84 127.153 257.179 127.061 257.384 126.878C257.588 126.695 257.691 126.466 257.691 126.191C257.691 125.984 257.638 125.795 257.534 125.622C257.43 125.45 257.28 125.312 257.087 125.21C256.895 125.108 256.667 125.056 256.403 125.056H254.942V127.153ZM254.942 124.286H256.265C256.487 124.286 256.686 124.244 256.863 124.158C257.042 124.073 257.184 123.954 257.288 123.8C257.394 123.645 257.448 123.462 257.448 123.251C257.448 122.98 257.353 122.753 257.163 122.57C256.974 122.387 256.683 122.295 256.291 122.295H254.942V124.286ZM259.766 128V123.091H260.69V123.871H260.741C260.831 123.607 260.988 123.399 261.214 123.248C261.442 123.094 261.7 123.017 261.988 123.017C262.047 123.017 262.118 123.02 262.199 123.024C262.282 123.028 262.347 123.033 262.394 123.04V123.954C262.355 123.943 262.287 123.931 262.189 123.919C262.091 123.904 261.993 123.896 261.895 123.896C261.669 123.896 261.468 123.944 261.291 124.04C261.116 124.134 260.978 124.265 260.875 124.433C260.773 124.599 260.722 124.789 260.722 125.002V128H259.766ZM265.161 128.099C264.677 128.099 264.26 127.996 263.911 127.789C263.564 127.58 263.295 127.287 263.105 126.91C262.918 126.531 262.824 126.087 262.824 125.577C262.824 125.075 262.918 124.631 263.105 124.248C263.295 123.864 263.559 123.565 263.898 123.35C264.239 123.135 264.637 123.027 265.093 123.027C265.37 123.027 265.639 123.073 265.899 123.164C266.159 123.256 266.392 123.4 266.599 123.596C266.805 123.792 266.968 124.047 267.088 124.36C267.207 124.671 267.267 125.049 267.267 125.494V125.833H263.364V125.117H266.33C266.33 124.866 266.279 124.643 266.177 124.449C266.075 124.253 265.931 124.099 265.745 123.986C265.562 123.873 265.347 123.816 265.1 123.816C264.831 123.816 264.597 123.882 264.397 124.015C264.199 124.145 264.045 124.315 263.936 124.526C263.83 124.735 263.777 124.962 263.777 125.207V125.766C263.777 126.094 263.834 126.373 263.949 126.603C264.066 126.833 264.229 127.009 264.438 127.131C264.647 127.25 264.891 127.31 265.17 127.31C265.351 127.31 265.516 127.284 265.665 127.233C265.815 127.18 265.944 127.101 266.052 126.996C266.161 126.892 266.244 126.763 266.301 126.61L267.206 126.773C267.134 127.039 267.004 127.272 266.816 127.473C266.631 127.671 266.397 127.825 266.116 127.936C265.837 128.045 265.518 128.099 265.161 128.099ZM269.756 128.109C269.445 128.109 269.163 128.051 268.912 127.936C268.66 127.819 268.461 127.65 268.314 127.428C268.169 127.206 268.097 126.935 268.097 126.613C268.097 126.336 268.15 126.108 268.257 125.929C268.363 125.75 268.507 125.608 268.688 125.504C268.869 125.4 269.072 125.321 269.295 125.267C269.519 125.214 269.747 125.174 269.979 125.146C270.273 125.112 270.512 125.084 270.695 125.063C270.878 125.039 271.012 125.002 271.095 124.951C271.178 124.9 271.219 124.817 271.219 124.702V124.679C271.219 124.4 271.141 124.184 270.983 124.031C270.827 123.877 270.595 123.8 270.286 123.8C269.964 123.8 269.711 123.872 269.525 124.015C269.342 124.155 269.215 124.312 269.145 124.484L268.247 124.28C268.354 123.982 268.509 123.741 268.714 123.558C268.92 123.372 269.158 123.238 269.426 123.155C269.695 123.07 269.977 123.027 270.273 123.027C270.469 123.027 270.677 123.05 270.897 123.097C271.118 123.142 271.325 123.225 271.517 123.347C271.71 123.468 271.869 123.642 271.993 123.868C272.116 124.091 272.178 124.382 272.178 124.74V128H271.245V127.329H271.207C271.145 127.452 271.052 127.574 270.929 127.693C270.805 127.812 270.646 127.912 270.452 127.99C270.258 128.069 270.026 128.109 269.756 128.109ZM269.963 127.342C270.228 127.342 270.453 127.289 270.641 127.185C270.831 127.081 270.974 126.944 271.072 126.776C271.172 126.605 271.223 126.423 271.223 126.229V125.597C271.188 125.631 271.122 125.663 271.024 125.692C270.929 125.72 270.819 125.745 270.695 125.766C270.572 125.785 270.451 125.803 270.334 125.82C270.217 125.835 270.119 125.848 270.04 125.859C269.855 125.882 269.685 125.922 269.532 125.977C269.381 126.032 269.259 126.112 269.168 126.217C269.078 126.319 269.033 126.455 269.033 126.626C269.033 126.862 269.121 127.041 269.295 127.163C269.47 127.282 269.693 127.342 269.963 127.342ZM275.289 128.096C274.892 128.096 274.539 127.995 274.228 127.792C273.919 127.588 273.676 127.297 273.499 126.92C273.324 126.54 273.237 126.086 273.237 125.555C273.237 125.025 273.325 124.571 273.502 124.194C273.681 123.816 273.926 123.528 274.237 123.327C274.548 123.127 274.901 123.027 275.295 123.027C275.6 123.027 275.845 123.078 276.03 123.18C276.218 123.281 276.363 123.398 276.465 123.532C276.569 123.666 276.65 123.784 276.708 123.887H276.765V121.455H277.721V128H276.788V127.236H276.708C276.65 127.341 276.567 127.46 276.458 127.594C276.352 127.728 276.205 127.846 276.017 127.946C275.83 128.046 275.587 128.096 275.289 128.096ZM275.5 127.281C275.775 127.281 276.007 127.208 276.196 127.064C276.388 126.917 276.533 126.713 276.631 126.453C276.731 126.193 276.781 125.891 276.781 125.545C276.781 125.205 276.732 124.906 276.634 124.651C276.536 124.395 276.392 124.196 276.203 124.053C276.013 123.91 275.779 123.839 275.5 123.839C275.212 123.839 274.972 123.913 274.781 124.062C274.589 124.212 274.444 124.415 274.346 124.673C274.25 124.931 274.202 125.222 274.202 125.545C274.202 125.874 274.251 126.169 274.349 126.431C274.447 126.693 274.592 126.901 274.784 127.054C274.978 127.205 275.216 127.281 275.5 127.281ZM281.153 128.099C280.677 128.099 280.268 127.991 279.925 127.776C279.584 127.559 279.322 127.26 279.139 126.878C278.956 126.497 278.864 126.06 278.864 125.568C278.864 125.069 278.958 124.629 279.146 124.248C279.333 123.864 279.597 123.565 279.938 123.35C280.279 123.135 280.681 123.027 281.143 123.027C281.516 123.027 281.848 123.096 282.14 123.235C282.432 123.371 282.668 123.563 282.847 123.81C283.028 124.057 283.135 124.346 283.169 124.676H282.239C282.188 124.446 282.071 124.248 281.888 124.082C281.707 123.915 281.464 123.832 281.159 123.832C280.893 123.832 280.659 123.903 280.459 124.043C280.261 124.182 280.106 124.38 279.996 124.638C279.885 124.893 279.829 125.196 279.829 125.545C279.829 125.903 279.884 126.212 279.992 126.472C280.101 126.732 280.255 126.934 280.453 127.076C280.653 127.219 280.888 127.29 281.159 127.29C281.34 127.29 281.504 127.257 281.651 127.191C281.8 127.123 281.925 127.026 282.025 126.901C282.127 126.775 282.199 126.624 282.239 126.447H283.169C283.135 126.764 283.032 127.048 282.859 127.297C282.687 127.546 282.456 127.742 282.166 127.885C281.878 128.028 281.54 128.099 281.153 128.099ZM284.191 128V123.091H285.115V123.871H285.166C285.256 123.607 285.413 123.399 285.639 123.248C285.867 123.094 286.125 123.017 286.412 123.017C286.472 123.017 286.542 123.02 286.623 123.024C286.706 123.028 286.771 123.033 286.818 123.04V123.954C286.78 123.943 286.712 123.931 286.614 123.919C286.516 123.904 286.418 123.896 286.32 123.896C286.094 123.896 285.893 123.944 285.716 124.04C285.541 124.134 285.403 124.265 285.3 124.433C285.198 124.599 285.147 124.789 285.147 125.002V128H284.191ZM290.755 125.964V123.091H291.714V128H290.774V127.15H290.723C290.61 127.412 290.429 127.63 290.18 127.805C289.933 127.978 289.625 128.064 289.256 128.064C288.941 128.064 288.662 127.995 288.419 127.856C288.178 127.716 287.988 127.508 287.85 127.233C287.714 126.958 287.645 126.618 287.645 126.213V123.091H288.601V126.098C288.601 126.433 288.694 126.699 288.879 126.897C289.064 127.096 289.305 127.195 289.601 127.195C289.78 127.195 289.958 127.15 290.135 127.06C290.314 126.971 290.462 126.836 290.579 126.654C290.699 126.473 290.757 126.243 290.755 125.964ZM292.998 128V123.091H293.915V123.89H293.976C294.078 123.619 294.245 123.408 294.478 123.257C294.71 123.104 294.988 123.027 295.312 123.027C295.64 123.027 295.915 123.104 296.136 123.257C296.36 123.411 296.525 123.621 296.632 123.89H296.683C296.8 123.628 296.987 123.419 297.242 123.263C297.498 123.106 297.803 123.027 298.156 123.027C298.602 123.027 298.965 123.167 299.246 123.446C299.529 123.725 299.671 124.146 299.671 124.708V128H298.716V124.798C298.716 124.465 298.625 124.224 298.444 124.075C298.263 123.926 298.047 123.852 297.795 123.852C297.484 123.852 297.242 123.947 297.07 124.139C296.897 124.329 296.811 124.573 296.811 124.871V128H295.858V124.737C295.858 124.471 295.775 124.256 295.609 124.094C295.443 123.933 295.227 123.852 294.96 123.852C294.779 123.852 294.612 123.9 294.458 123.995C294.307 124.089 294.185 124.22 294.091 124.388C293.999 124.557 293.953 124.752 293.953 124.973V128H292.998ZM301.029 128V121.455H301.984V123.887H302.042C302.097 123.784 302.177 123.666 302.282 123.532C302.386 123.398 302.531 123.281 302.716 123.18C302.902 123.078 303.147 123.027 303.451 123.027C303.848 123.027 304.201 123.127 304.512 123.327C304.823 123.528 305.067 123.816 305.244 124.194C305.423 124.571 305.513 125.025 305.513 125.555C305.513 126.086 305.424 126.54 305.247 126.92C305.071 127.297 304.828 127.588 304.519 127.792C304.21 127.995 303.857 128.096 303.461 128.096C303.163 128.096 302.919 128.046 302.729 127.946C302.541 127.846 302.394 127.728 302.288 127.594C302.181 127.46 302.099 127.341 302.042 127.236H301.962V128H301.029ZM301.965 125.545C301.965 125.891 302.015 126.193 302.115 126.453C302.215 126.713 302.36 126.917 302.55 127.064C302.74 127.208 302.972 127.281 303.247 127.281C303.532 127.281 303.771 127.205 303.963 127.054C304.154 126.901 304.299 126.693 304.397 126.431C304.497 126.169 304.547 125.874 304.547 125.545C304.547 125.222 304.498 124.931 304.4 124.673C304.305 124.415 304.16 124.212 303.966 124.062C303.774 123.913 303.534 123.839 303.247 123.839C302.97 123.839 302.735 123.91 302.544 124.053C302.354 124.196 302.21 124.395 302.112 124.651C302.014 124.906 301.965 125.205 301.965 125.545Z" fill="black"/>
<path d="M108.75 122.083L111.667 125L108.75 127.917" stroke="#D0D0D0" stroke-linecap="round" stroke-linejoin="round"/>
<path d="M242.75 122.083L245.667 125L242.75 127.917" stroke="#D0D0D0" stroke-linecap="round" stroke-linejoin="round"/>
<path d="M171.75 122.083L174.667 125L171.75 127.917" stroke="#D0D0D0" stroke-linecap="round" stroke-linejoin="round"/>
</svg>
