<svg width="380" height="250" viewBox="0 0 380 250" fill="none" xmlns="http://www.w3.org/2000/svg">
<rect width="380" height="250" fill="white"/>
<rect x="151.5" y="105" width="77" height="40" rx="6" fill="#121F48"/>
<path d="M168.619 130V119.818H172.347C173.07 119.818 173.668 119.937 174.142 120.176C174.616 120.411 174.971 120.731 175.206 121.136C175.441 121.537 175.559 121.989 175.559 122.493C175.559 122.917 175.481 123.275 175.325 123.567C175.17 123.855 174.961 124.087 174.699 124.263C174.44 124.435 174.155 124.561 173.844 124.641V124.74C174.182 124.757 174.512 124.866 174.833 125.068C175.158 125.267 175.426 125.55 175.638 125.918C175.851 126.286 175.957 126.734 175.957 127.261C175.957 127.781 175.834 128.248 175.589 128.663C175.347 129.074 174.972 129.4 174.465 129.642C173.958 129.881 173.31 130 172.521 130H168.619ZM170.155 128.683H172.372C173.108 128.683 173.635 128.54 173.953 128.255C174.271 127.97 174.43 127.614 174.43 127.186C174.43 126.865 174.349 126.57 174.187 126.301C174.024 126.033 173.792 125.819 173.491 125.66C173.192 125.501 172.838 125.421 172.427 125.421H170.155V128.683ZM170.155 124.223H172.213C172.558 124.223 172.868 124.157 173.143 124.024C173.421 123.892 173.642 123.706 173.804 123.467C173.97 123.225 174.053 122.94 174.053 122.612C174.053 122.191 173.905 121.838 173.61 121.553C173.315 121.268 172.863 121.126 172.253 121.126H170.155V124.223ZM182.497 126.833V122.364H183.988V130H182.527V128.678H182.447C182.271 129.085 181.99 129.425 181.602 129.697C181.217 129.965 180.739 130.099 180.165 130.099C179.675 130.099 179.24 129.992 178.863 129.776C178.488 129.558 178.193 129.234 177.978 128.807C177.766 128.379 177.659 127.851 177.659 127.221V122.364H179.146V127.042C179.146 127.562 179.29 127.977 179.578 128.285C179.867 128.593 180.241 128.747 180.702 128.747C180.98 128.747 181.257 128.678 181.532 128.538C181.811 128.399 182.041 128.189 182.223 127.907C182.409 127.625 182.5 127.267 182.497 126.833ZM189.55 122.364V123.557H185.379V122.364H189.55ZM186.498 120.534H187.984V127.758C187.984 128.046 188.027 128.263 188.113 128.409C188.2 128.552 188.311 128.649 188.447 128.702C188.586 128.752 188.737 128.777 188.899 128.777C189.018 128.777 189.123 128.769 189.212 128.752C189.302 128.736 189.371 128.722 189.421 128.712L189.689 129.94C189.603 129.973 189.481 130.007 189.322 130.04C189.162 130.076 188.964 130.096 188.725 130.099C188.334 130.106 187.969 130.036 187.631 129.891C187.293 129.745 187.02 129.519 186.811 129.214C186.602 128.91 186.498 128.527 186.498 128.066V120.534ZM194.759 122.364V123.557H190.588V122.364H194.759ZM191.707 120.534H193.193V127.758C193.193 128.046 193.236 128.263 193.322 128.409C193.409 128.552 193.52 128.649 193.656 128.702C193.795 128.752 193.946 128.777 194.108 128.777C194.227 128.777 194.332 128.769 194.421 128.752C194.511 128.736 194.58 128.722 194.63 128.712L194.898 129.94C194.812 129.973 194.69 130.007 194.531 130.04C194.371 130.076 194.173 130.096 193.934 130.099C193.543 130.106 193.178 130.036 192.84 129.891C192.502 129.745 192.229 129.519 192.02 129.214C191.811 128.91 191.707 128.527 191.707 128.066V120.534ZM199.538 130.154C198.822 130.154 198.198 129.99 197.664 129.662C197.13 129.334 196.716 128.875 196.421 128.285C196.126 127.695 195.979 127.005 195.979 126.217C195.979 125.424 196.126 124.732 196.421 124.138C196.716 123.545 197.13 123.085 197.664 122.756C198.198 122.428 198.822 122.264 199.538 122.264C200.254 122.264 200.879 122.428 201.412 122.756C201.946 123.085 202.36 123.545 202.655 124.138C202.95 124.732 203.098 125.424 203.098 126.217C203.098 127.005 202.95 127.695 202.655 128.285C202.36 128.875 201.946 129.334 201.412 129.662C200.879 129.99 200.254 130.154 199.538 130.154ZM199.543 128.906C200.007 128.906 200.392 128.784 200.697 128.538C201.001 128.293 201.227 127.967 201.373 127.559C201.522 127.151 201.596 126.702 201.596 126.212C201.596 125.724 201.522 125.277 201.373 124.869C201.227 124.458 201.001 124.129 200.697 123.88C200.392 123.631 200.007 123.507 199.543 123.507C199.076 123.507 198.688 123.631 198.38 123.88C198.075 124.129 197.848 124.458 197.699 124.869C197.553 125.277 197.48 125.724 197.48 126.212C197.48 126.702 197.553 127.151 197.699 127.559C197.848 127.967 198.075 128.293 198.38 128.538C198.688 128.784 199.076 128.906 199.543 128.906ZM206.244 125.466V130H204.757V122.364H206.184V123.607H206.278C206.454 123.202 206.729 122.877 207.104 122.632C207.482 122.387 207.957 122.264 208.531 122.264C209.051 122.264 209.507 122.374 209.898 122.592C210.289 122.808 210.592 123.129 210.808 123.557C211.023 123.984 211.131 124.513 211.131 125.143V130H209.644V125.322C209.644 124.768 209.5 124.336 209.212 124.024C208.923 123.709 208.527 123.552 208.023 123.552C207.679 123.552 207.372 123.626 207.104 123.776C206.839 123.925 206.628 124.143 206.472 124.432C206.32 124.717 206.244 125.062 206.244 125.466Z" fill="white"/>
</svg>
