<svg width="380" height="250" viewBox="0 0 380 250" fill="none" xmlns="http://www.w3.org/2000/svg">
<rect width="380" height="250" fill="white"/>
<g clip-path="url(#clip0_550_4221)">
<path d="M26 168.125V166.875C26 166.212 25.7366 165.576 25.2678 165.107C24.7989 164.638 24.163 164.375 23.5 164.375H19.75C19.087 164.375 18.4511 164.638 17.9822 165.107C17.5134 165.576 17.25 166.212 17.25 166.875V168.125" stroke="white" stroke-width="2" stroke-linecap="round" stroke-linejoin="round"/>
<path d="M21.625 161.875C23.0057 161.875 24.125 160.756 24.125 159.375C24.125 157.994 23.0057 156.875 21.625 156.875C20.2443 156.875 19.125 157.994 19.125 159.375C19.125 160.756 20.2443 161.875 21.625 161.875Z" stroke="white" stroke-width="2" stroke-linecap="round" stroke-linejoin="round"/>
<path d="M26 161.875L27.25 163.125L29.75 160.625" stroke="white" stroke-width="2" stroke-linecap="round" stroke-linejoin="round"/>
</g>
<line x1="36.5" y1="25" x2="36.5" y2="209" stroke="#94A3B8"/>
<line x1="33" y1="204.5" x2="369" y2="204.5" stroke="#94A3B8"/>
<line x1="36" y1="25.5" x2="369" y2="25.5" stroke="#D7D7D7" stroke-dasharray="2 2"/>
<line x1="74.5" y1="205" x2="74.5" y2="26" stroke="#D7D7D7" stroke-dasharray="2 2"/>
<line x1="140.5" y1="205" x2="140.5" y2="26" stroke="#D7D7D7" stroke-dasharray="2 2"/>
<line x1="206.5" y1="205" x2="206.5" y2="26" stroke="#D7D7D7" stroke-dasharray="2 2"/>
<line x1="272.5" y1="205" x2="272.5" y2="26" stroke="#D7D7D7" stroke-dasharray="2 2"/>
<line x1="338.5" y1="205" x2="338.5" y2="26" stroke="#D7D7D7" stroke-dasharray="2 2"/>
<line x1="36" y1="61.5" x2="369" y2="61.5" stroke="#D7D7D7" stroke-dasharray="2 2"/>
<line x1="36" y1="96.5" x2="369" y2="96.5" stroke="#D7D7D7" stroke-dasharray="2 2"/>
<line x1="36" y1="132.5" x2="369" y2="132.5" stroke="#D7D7D7" stroke-dasharray="2 2"/>
<line x1="36" y1="168.5" x2="369" y2="168.5" stroke="#D7D7D7" stroke-dasharray="2 2"/>
<rect x="57" y="124" width="16" height="80" fill="#8EC5FF"/>
<rect x="76" y="86" width="16" height="118" fill="#FFB366"/>
<rect x="123" y="43" width="16" height="161" fill="#8EC5FF"/>
<rect x="142" y="73" width="16" height="131" fill="#FFB366"/>
<rect x="189" y="126" width="16" height="78" fill="#8EC5FF"/>
<rect x="208" y="111" width="16" height="93" fill="#FFB366"/>
<rect x="321" y="33" width="16" height="171" fill="#8EC5FF"/>
<rect x="340" y="26" width="16" height="178" fill="#FFB366"/>
<line x1="74.5" y1="209" x2="74.5" y2="205" stroke="#94A3B8"/>
<line x1="33" y1="25.5" x2="37" y2="25.5" stroke="#94A3B8"/>
<line x1="33" y1="61.5" x2="37" y2="61.5" stroke="#94A3B8"/>
<line x1="33" y1="97.5" x2="37" y2="97.5" stroke="#94A3B8"/>
<line x1="33" y1="132.5" x2="37" y2="132.5" stroke="#94A3B8"/>
<line x1="33" y1="168.5" x2="37" y2="168.5" stroke="#94A3B8"/>
<line x1="33" y1="204.5" x2="37" y2="204.5" stroke="#94A3B8"/>
<line x1="140.5" y1="209" x2="140.5" y2="205" stroke="#94A3B8"/>
<line x1="206.5" y1="209" x2="206.5" y2="205" stroke="#94A3B8"/>
<line x1="272.5" y1="209" x2="272.5" y2="205" stroke="#94A3B8"/>
<line x1="338.5" y1="209" x2="338.5" y2="205" stroke="#94A3B8"/>
<path d="M72.0611 218H71.2301L73.6335 211.455H74.4517L76.8551 218H76.0241L74.0682 212.49H74.017L72.0611 218ZM72.3679 215.443H75.7173V216.146H72.3679V215.443Z" fill="#7D7D7D"/>
<path d="M28.8125 208.089C28.331 208.089 27.9208 207.958 27.582 207.696C27.2433 207.432 26.9844 207.05 26.8054 206.549C26.6264 206.046 26.5369 205.439 26.5369 204.727C26.5369 204.02 26.6264 203.416 26.8054 202.915C26.9865 202.412 27.2464 202.029 27.5852 201.765C27.9261 201.498 28.3352 201.365 28.8125 201.365C29.2898 201.365 29.6978 201.498 30.0366 201.765C30.3775 202.029 30.6374 202.412 30.8164 202.915C30.9975 203.416 31.0881 204.02 31.0881 204.727C31.0881 205.439 30.9986 206.046 30.8196 206.549C30.6406 207.05 30.3817 207.432 30.043 207.696C29.7042 207.958 29.294 208.089 28.8125 208.089ZM28.8125 207.386C29.2898 207.386 29.6605 207.156 29.9247 206.696C30.1889 206.236 30.321 205.58 30.321 204.727C30.321 204.161 30.2603 203.678 30.1388 203.279C30.0195 202.881 29.8469 202.577 29.6211 202.369C29.3974 202.16 29.1278 202.055 28.8125 202.055C28.3395 202.055 27.9698 202.289 27.7035 202.755C27.4371 203.22 27.304 203.877 27.304 204.727C27.304 205.294 27.3636 205.776 27.483 206.172C27.6023 206.568 27.7738 206.87 27.9975 207.076C28.2234 207.283 28.495 207.386 28.8125 207.386Z" fill="#7D7D7D"/>
<path d="M16.6776 172V171.425L18.8381 169.06C19.0916 168.783 19.3004 168.542 19.4645 168.337C19.6286 168.131 19.75 167.937 19.8288 167.756C19.9098 167.572 19.9503 167.381 19.9503 167.18C19.9503 166.95 19.8949 166.751 19.7841 166.583C19.6754 166.414 19.5263 166.284 19.3366 166.193C19.147 166.101 18.9339 166.055 18.6974 166.055C18.446 166.055 18.2266 166.108 18.0391 166.212C17.8537 166.314 17.7099 166.458 17.6076 166.643C17.5075 166.829 17.4574 167.046 17.4574 167.295H16.7031C16.7031 166.912 16.7915 166.575 16.9684 166.286C17.1452 165.996 17.386 165.77 17.6907 165.608C17.9975 165.446 18.3416 165.365 18.723 165.365C19.1065 165.365 19.4464 165.446 19.7425 165.608C20.0387 165.77 20.271 165.988 20.4393 166.263C20.6076 166.538 20.6918 166.844 20.6918 167.18C20.6918 167.421 20.6481 167.657 20.5607 167.887C20.4755 168.115 20.3263 168.369 20.1133 168.651C19.9023 168.93 19.6094 169.271 19.2344 169.673L17.7642 171.246V171.297H20.8068V172H16.6776ZM24.1722 172.089C23.7972 172.089 23.4595 172.015 23.1591 171.866C22.8587 171.717 22.6179 171.512 22.4368 171.252C22.2557 170.992 22.1566 170.696 22.1396 170.364H22.9066C22.9364 170.66 23.0707 170.905 23.3093 171.099C23.5501 171.29 23.8377 171.386 24.1722 171.386C24.4407 171.386 24.6793 171.324 24.8881 171.198C25.0991 171.072 25.2642 170.9 25.3835 170.68C25.505 170.458 25.5657 170.208 25.5657 169.929C25.5657 169.643 25.5028 169.389 25.3771 169.165C25.2536 168.939 25.0831 168.761 24.8658 168.631C24.6484 168.501 24.4002 168.435 24.1211 168.433C23.9208 168.431 23.7152 168.462 23.5043 168.526C23.2933 168.588 23.1197 168.668 22.9833 168.766L22.2418 168.676L22.6381 165.455H26.0387V166.158H23.3029L23.0728 168.088H23.1112C23.2454 167.982 23.4137 167.893 23.6161 167.823C23.8185 167.752 24.0295 167.717 24.2489 167.717C24.6495 167.717 25.0064 167.813 25.3196 168.005C25.6349 168.195 25.8821 168.455 26.0611 168.785C26.2422 169.115 26.3327 169.492 26.3327 169.916C26.3327 170.334 26.239 170.707 26.0515 171.035C25.8661 171.361 25.6104 171.619 25.2844 171.808C24.9585 171.996 24.5877 172.089 24.1722 172.089ZM29.7373 172.089C29.2558 172.089 28.8456 171.958 28.5068 171.696C28.1681 171.432 27.9092 171.05 27.7302 170.549C27.5512 170.046 27.4617 169.439 27.4617 168.727C27.4617 168.02 27.5512 167.416 27.7302 166.915C27.9113 166.412 28.1713 166.029 28.51 165.765C28.8509 165.498 29.26 165.365 29.7373 165.365C30.2146 165.365 30.6226 165.498 30.9614 165.765C31.3023 166.029 31.5622 166.412 31.7412 166.915C31.9223 167.416 32.0129 168.02 32.0129 168.727C32.0129 169.439 31.9234 170.046 31.7444 170.549C31.5654 171.05 31.3066 171.432 30.9678 171.696C30.629 171.958 30.2188 172.089 29.7373 172.089ZM29.7373 171.386C30.2146 171.386 30.5853 171.156 30.8495 170.696C31.1137 170.236 31.2458 169.58 31.2458 168.727C31.2458 168.161 31.1851 167.678 31.0637 167.279C30.9443 166.881 30.7718 166.577 30.5459 166.369C30.3222 166.16 30.0526 166.055 29.7373 166.055C29.2643 166.055 28.8946 166.289 28.6283 166.755C28.3619 167.22 28.2288 167.877 28.2288 168.727C28.2288 169.294 28.2884 169.776 28.4078 170.172C28.5271 170.568 28.6986 170.87 28.9223 171.076C29.1482 171.283 29.4198 171.386 29.7373 171.386Z" fill="#7D7D7D"/>
<path d="M17.723 137.089C17.348 137.089 17.0103 137.015 16.7099 136.866C16.4094 136.717 16.1687 136.512 15.9876 136.252C15.8065 135.992 15.7074 135.696 15.6903 135.364H16.4574C16.4872 135.66 16.6214 135.905 16.8601 136.099C17.1009 136.29 17.3885 136.386 17.723 136.386C17.9915 136.386 18.2301 136.324 18.4389 136.198C18.6499 136.072 18.815 135.9 18.9343 135.68C19.0558 135.458 19.1165 135.208 19.1165 134.929C19.1165 134.643 19.0536 134.389 18.9279 134.165C18.8043 133.939 18.6339 133.761 18.4165 133.631C18.1992 133.501 17.951 133.435 17.6719 133.433C17.4716 133.431 17.266 133.462 17.055 133.526C16.8441 133.588 16.6705 133.668 16.5341 133.766L15.7926 133.676L16.1889 130.455H19.5895V131.158H16.8537L16.6236 133.088H16.6619C16.7962 132.982 16.9645 132.893 17.1669 132.823C17.3693 132.752 17.5803 132.717 17.7997 132.717C18.2003 132.717 18.5572 132.813 18.8704 133.005C19.1857 133.195 19.4329 133.455 19.6119 133.785C19.793 134.115 19.8835 134.492 19.8835 134.916C19.8835 135.334 19.7898 135.707 19.6023 136.035C19.4169 136.361 19.1612 136.619 18.8352 136.808C18.5092 136.996 18.1385 137.089 17.723 137.089ZM23.2881 137.089C22.8066 137.089 22.3964 136.958 22.0576 136.696C21.7188 136.432 21.46 136.05 21.281 135.549C21.102 135.046 21.0125 134.439 21.0125 133.727C21.0125 133.02 21.102 132.416 21.281 131.915C21.4621 131.412 21.722 131.029 22.0608 130.765C22.4017 130.498 22.8108 130.365 23.2881 130.365C23.7654 130.365 24.1734 130.498 24.5122 130.765C24.8531 131.029 25.113 131.412 25.292 131.915C25.4731 132.416 25.5637 133.02 25.5637 133.727C25.5637 134.439 25.4742 135.046 25.2952 135.549C25.1162 136.05 24.8573 136.432 24.5186 136.696C24.1798 136.958 23.7696 137.089 23.2881 137.089ZM23.2881 136.386C23.7654 136.386 24.1361 136.156 24.4003 135.696C24.6645 135.236 24.7966 134.58 24.7966 133.727C24.7966 133.161 24.7359 132.678 24.6144 132.279C24.4951 131.881 24.3225 131.577 24.0967 131.369C23.873 131.16 23.6034 131.055 23.2881 131.055C22.8151 131.055 22.4454 131.289 22.1791 131.755C21.9127 132.22 21.7796 132.877 21.7796 133.727C21.7796 134.294 21.8392 134.776 21.9585 135.172C22.0779 135.568 22.2494 135.87 22.4731 136.076C22.699 136.283 22.9706 136.386 23.2881 136.386ZM28.9131 137.089C28.4316 137.089 28.0214 136.958 27.6826 136.696C27.3438 136.432 27.085 136.05 26.906 135.549C26.727 135.046 26.6375 134.439 26.6375 133.727C26.6375 133.02 26.727 132.416 26.906 131.915C27.0871 131.412 27.347 131.029 27.6858 130.765C28.0267 130.498 28.4358 130.365 28.9131 130.365C29.3904 130.365 29.7984 130.498 30.1372 130.765C30.4781 131.029 30.738 131.412 30.917 131.915C31.0981 132.416 31.1887 133.02 31.1887 133.727C31.1887 134.439 31.0992 135.046 30.9202 135.549C30.7412 136.05 30.4823 136.432 30.1436 136.696C29.8048 136.958 29.3946 137.089 28.9131 137.089ZM28.9131 136.386C29.3904 136.386 29.7611 136.156 30.0253 135.696C30.2895 135.236 30.4216 134.58 30.4216 133.727C30.4216 133.161 30.3609 132.678 30.2394 132.279C30.1201 131.881 29.9475 131.577 29.7217 131.369C29.498 131.16 29.2284 131.055 28.9131 131.055C28.4401 131.055 28.0704 131.289 27.8041 131.755C27.5377 132.22 27.4046 132.877 27.4046 133.727C27.4046 134.294 27.4642 134.776 27.5835 135.172C27.7029 135.568 27.8744 135.87 28.0981 136.076C28.324 136.283 28.5956 136.386 28.9131 136.386Z" fill="#7D7D7D"/>
<path d="M16.8821 101L19.8097 95.2088V95.1577H16.4347V94.4545H20.6278V95.196L17.7131 101H16.8821ZM23.7767 101.089C23.4017 101.089 23.064 101.015 22.7636 100.866C22.4632 100.717 22.2224 100.512 22.0413 100.252C21.8602 99.9922 21.7611 99.696 21.7441 99.3636H22.5111C22.5409 99.6598 22.6752 99.9048 22.9138 100.099C23.1546 100.29 23.4422 100.386 23.7767 100.386C24.0452 100.386 24.2838 100.324 24.4926 100.198C24.7036 100.072 24.8687 99.8995 24.988 99.68C25.1095 99.4585 25.1702 99.2081 25.1702 98.929C25.1702 98.6435 25.1073 98.3888 24.9816 98.1651C24.858 97.9393 24.6876 97.7614 24.4703 97.6314C24.2529 97.5014 24.0047 97.4354 23.7256 97.4332C23.5253 97.4311 23.3197 97.462 23.1088 97.5259C22.8978 97.5877 22.7242 97.6676 22.5878 97.7656L21.8463 97.6761L22.2426 94.4545H25.6432V95.1577H22.9074L22.6773 97.0881H22.7156C22.8499 96.9815 23.0182 96.8931 23.2206 96.8228C23.423 96.7525 23.634 96.7173 23.8534 96.7173C24.254 96.7173 24.6109 96.8132 24.9241 97.005C25.2394 97.1946 25.4866 97.4545 25.6656 97.7848C25.8467 98.1151 25.9372 98.4922 25.9372 98.9162C25.9372 99.3338 25.8435 99.7067 25.656 100.035C25.4706 100.361 25.2149 100.619 24.8889 100.808C24.5629 100.996 24.1922 101.089 23.7767 101.089ZM29.3418 101.089C28.8603 101.089 28.4501 100.958 28.1113 100.696C27.7725 100.432 27.5137 100.05 27.3347 99.549C27.1557 99.0462 27.0662 98.4389 27.0662 97.7273C27.0662 97.0199 27.1557 96.4158 27.3347 95.9151C27.5158 95.4123 27.7757 95.0288 28.1145 94.7646C28.4554 94.4982 28.8645 94.3651 29.3418 94.3651C29.8191 94.3651 30.2271 94.4982 30.5659 94.7646C30.9068 95.0288 31.1667 95.4123 31.3457 95.9151C31.5268 96.4158 31.6174 97.0199 31.6174 97.7273C31.6174 98.4389 31.5279 99.0462 31.3489 99.549C31.1699 100.05 30.911 100.432 30.5723 100.696C30.2335 100.958 29.8233 101.089 29.3418 101.089ZM29.3418 100.386C29.8191 100.386 30.1898 100.156 30.454 99.696C30.7182 99.2358 30.8503 98.5795 30.8503 97.7273C30.8503 97.1605 30.7896 96.6779 30.6681 96.2795C30.5488 95.881 30.3762 95.5774 30.1504 95.3686C29.9267 95.1598 29.6571 95.0554 29.3418 95.0554C28.8688 95.0554 28.4991 95.2887 28.2328 95.7553C27.9664 96.2198 27.8333 96.8771 27.8333 97.7273C27.8333 98.294 27.8929 98.7756 28.0123 99.1719C28.1316 99.5682 28.3031 99.8697 28.5268 100.076C28.7527 100.283 29.0243 100.386 29.3418 100.386Z" fill="#7D7D7D"/>
<path d="M13.9787 58.4545V65H13.1861V59.2855H13.1477L11.5497 60.3466V59.5412L13.1861 58.4545H13.9787ZM17.9961 65.0895C17.5146 65.0895 17.1044 64.9585 16.7656 64.6964C16.4268 64.4322 16.168 64.0497 15.989 63.549C15.81 63.0462 15.7205 62.4389 15.7205 61.7273C15.7205 61.0199 15.81 60.4158 15.989 59.9151C16.1701 59.4123 16.43 59.0288 16.7688 58.7646C17.1097 58.4982 17.5188 58.3651 17.9961 58.3651C18.4734 58.3651 18.8814 58.4982 19.2202 58.7646C19.5611 59.0288 19.821 59.4123 20 59.9151C20.1811 60.4158 20.2717 61.0199 20.2717 61.7273C20.2717 62.4389 20.1822 63.0462 20.0032 63.549C19.8242 64.0497 19.5653 64.4322 19.2266 64.6964C18.8878 64.9585 18.4776 65.0895 17.9961 65.0895ZM17.9961 64.3864C18.4734 64.3864 18.8441 64.1562 19.1083 63.696C19.3725 63.2358 19.5046 62.5795 19.5046 61.7273C19.5046 61.1605 19.4439 60.6779 19.3224 60.2795C19.2031 59.881 19.0305 59.5774 18.8047 59.3686C18.581 59.1598 18.3114 59.0554 17.9961 59.0554C17.5231 59.0554 17.1534 59.2887 16.8871 59.7553C16.6207 60.2198 16.4876 60.8771 16.4876 61.7273C16.4876 62.294 16.5472 62.7756 16.6665 63.1719C16.7859 63.5682 16.9574 63.8697 17.1811 64.0763C17.407 64.283 17.6786 64.3864 17.9961 64.3864ZM23.6211 65.0895C23.1396 65.0895 22.7294 64.9585 22.3906 64.6964C22.0518 64.4322 21.793 64.0497 21.614 63.549C21.435 63.0462 21.3455 62.4389 21.3455 61.7273C21.3455 61.0199 21.435 60.4158 21.614 59.9151C21.7951 59.4123 22.055 59.0288 22.3938 58.7646C22.7347 58.4982 23.1438 58.3651 23.6211 58.3651C24.0984 58.3651 24.5064 58.4982 24.8452 58.7646C25.1861 59.0288 25.446 59.4123 25.625 59.9151C25.8061 60.4158 25.8967 61.0199 25.8967 61.7273C25.8967 62.4389 25.8072 63.0462 25.6282 63.549C25.4492 64.0497 25.1903 64.4322 24.8516 64.6964C24.5128 64.9585 24.1026 65.0895 23.6211 65.0895ZM23.6211 64.3864C24.0984 64.3864 24.4691 64.1562 24.7333 63.696C24.9975 63.2358 25.1296 62.5795 25.1296 61.7273C25.1296 61.1605 25.0689 60.6779 24.9474 60.2795C24.8281 59.881 24.6555 59.5774 24.4297 59.3686C24.206 59.1598 23.9364 59.0554 23.6211 59.0554C23.1481 59.0554 22.7784 59.2887 22.5121 59.7553C22.2457 60.2198 22.1126 60.8771 22.1126 61.7273C22.1126 62.294 22.1722 62.7756 22.2915 63.1719C22.4109 63.5682 22.5824 63.8697 22.8061 64.0763C23.032 64.283 23.3036 64.3864 23.6211 64.3864ZM29.2461 65.0895C28.7646 65.0895 28.3544 64.9585 28.0156 64.6964C27.6768 64.4322 27.418 64.0497 27.239 63.549C27.06 63.0462 26.9705 62.4389 26.9705 61.7273C26.9705 61.0199 27.06 60.4158 27.239 59.9151C27.4201 59.4123 27.68 59.0288 28.0188 58.7646C28.3597 58.4982 28.7688 58.3651 29.2461 58.3651C29.7234 58.3651 30.1314 58.4982 30.4702 58.7646C30.8111 59.0288 31.071 59.4123 31.25 59.9151C31.4311 60.4158 31.5217 61.0199 31.5217 61.7273C31.5217 62.4389 31.4322 63.0462 31.2532 63.549C31.0742 64.0497 30.8153 64.4322 30.4766 64.6964C30.1378 64.9585 29.7276 65.0895 29.2461 65.0895ZM29.2461 64.3864C29.7234 64.3864 30.0941 64.1562 30.3583 63.696C30.6225 63.2358 30.7546 62.5795 30.7546 61.7273C30.7546 61.1605 30.6939 60.6779 30.5724 60.2795C30.4531 59.881 30.2805 59.5774 30.0547 59.3686C29.831 59.1598 29.5614 59.0554 29.2461 59.0554C28.7731 59.0554 28.4034 59.2887 28.1371 59.7553C27.8707 60.2198 27.7376 60.8771 27.7376 61.7273C27.7376 62.294 27.7972 62.7756 27.9165 63.1719C28.0359 63.5682 28.2074 63.8697 28.4311 64.0763C28.657 64.283 28.9286 64.3864 29.2461 64.3864Z" fill="#7D7D7D"/>
<path d="M14.9787 22.4545V29H14.1861V23.2855H14.1477L12.5497 24.3466V23.5412L14.1861 22.4545H14.9787ZM16.8612 29V28.4247L19.0217 26.0597C19.2752 25.7827 19.484 25.5419 19.6481 25.3374C19.8121 25.1307 19.9336 24.9368 20.0124 24.7557C20.0934 24.5724 20.1339 24.3807 20.1339 24.1804C20.1339 23.9503 20.0785 23.7511 19.9677 23.5827C19.859 23.4144 19.7099 23.2844 19.5202 23.1928C19.3306 23.1012 19.1175 23.0554 18.881 23.0554C18.6296 23.0554 18.4102 23.1076 18.2227 23.212C18.0373 23.3143 17.8935 23.4581 17.7912 23.6435C17.6911 23.8288 17.641 24.0462 17.641 24.2955H16.8867C16.8867 23.9119 16.9751 23.5753 17.152 23.2855C17.3288 22.9957 17.5696 22.7699 17.8743 22.608C18.1811 22.446 18.5252 22.3651 18.9066 22.3651C19.2901 22.3651 19.63 22.446 19.9261 22.608C20.2223 22.7699 20.4545 22.9883 20.6229 23.2631C20.7912 23.538 20.8754 23.8438 20.8754 24.1804C20.8754 24.4212 20.8317 24.6566 20.7443 24.8867C20.6591 25.1147 20.5099 25.3693 20.2969 25.6506C20.0859 25.9297 19.793 26.2706 19.418 26.6733L17.9478 28.2457V28.2969H20.9904V29H16.8612ZM24.3558 29.0895C23.9808 29.0895 23.6431 29.0149 23.3427 28.8658C23.0423 28.7166 22.8015 28.5121 22.6204 28.2521C22.4393 27.9922 22.3402 27.696 22.3232 27.3636H23.0902C23.12 27.6598 23.2543 27.9048 23.4929 28.0987C23.7337 28.2905 24.0213 28.3864 24.3558 28.3864C24.6243 28.3864 24.8629 28.3235 25.0717 28.1978C25.2827 28.0721 25.4478 27.8995 25.5671 27.68C25.6886 27.4585 25.7493 27.2081 25.7493 26.929C25.7493 26.6435 25.6864 26.3888 25.5607 26.1651C25.4371 25.9393 25.2667 25.7614 25.0494 25.6314C24.832 25.5014 24.5838 25.4354 24.3047 25.4332C24.1044 25.4311 23.8988 25.462 23.6879 25.5259C23.4769 25.5877 23.3033 25.6676 23.1669 25.7656L22.4254 25.6761L22.8217 22.4545H26.2223V23.1577H23.4865L23.2564 25.0881H23.2947C23.429 24.9815 23.5973 24.8931 23.7997 24.8228C24.0021 24.7525 24.2131 24.7173 24.4325 24.7173C24.8331 24.7173 25.19 24.8132 25.5032 25.005C25.8185 25.1946 26.0657 25.4545 26.2447 25.7848C26.4258 26.1151 26.5163 26.4922 26.5163 26.9162C26.5163 27.3338 26.4226 27.7067 26.2351 28.0348C26.0497 28.3608 25.794 28.6186 25.468 28.8082C25.142 28.9957 24.7713 29.0895 24.3558 29.0895ZM29.9209 29.0895C29.4394 29.0895 29.0292 28.9585 28.6904 28.6964C28.3517 28.4322 28.0928 28.0497 27.9138 27.549C27.7348 27.0462 27.6453 26.4389 27.6453 25.7273C27.6453 25.0199 27.7348 24.4158 27.9138 23.9151C28.0949 23.4123 28.3548 23.0288 28.6936 22.7646C29.0345 22.4982 29.4436 22.3651 29.9209 22.3651C30.3982 22.3651 30.8062 22.4982 31.145 22.7646C31.4859 23.0288 31.7458 23.4123 31.9248 23.9151C32.1059 24.4158 32.1965 25.0199 32.1965 25.7273C32.1965 26.4389 32.107 27.0462 31.928 27.549C31.749 28.0497 31.4901 28.4322 31.1514 28.6964C30.8126 28.9585 30.4024 29.0895 29.9209 29.0895ZM29.9209 28.3864C30.3982 28.3864 30.7689 28.1562 31.0331 27.696C31.2973 27.2358 31.4294 26.5795 31.4294 25.7273C31.4294 25.1605 31.3687 24.6779 31.2472 24.2795C31.1279 23.881 30.9553 23.5774 30.7295 23.3686C30.5058 23.1598 30.2362 23.0554 29.9209 23.0554C29.4479 23.0554 29.0782 23.2887 28.8119 23.7553C28.5455 24.2198 28.4124 24.8771 28.4124 25.7273C28.4124 26.294 28.472 26.7756 28.5914 27.1719C28.7107 27.5682 28.8822 27.8697 29.1059 28.0763C29.3318 28.283 29.6034 28.3864 29.9209 28.3864Z" fill="#7D7D7D"/>
<path d="M138.793 218V211.455H141.081C141.537 211.455 141.913 211.533 142.209 211.691C142.505 211.847 142.726 212.056 142.871 212.321C143.016 212.583 143.088 212.874 143.088 213.193C143.088 213.474 143.038 213.707 142.938 213.89C142.84 214.073 142.71 214.218 142.548 214.325C142.388 214.431 142.214 214.51 142.027 214.561V214.625C142.227 214.638 142.429 214.708 142.631 214.836C142.833 214.964 143.003 215.147 143.139 215.386C143.276 215.624 143.344 215.916 143.344 216.261C143.344 216.589 143.269 216.885 143.12 217.147C142.971 217.409 142.735 217.616 142.414 217.77C142.092 217.923 141.673 218 141.158 218H138.793ZM139.585 217.297H141.158C141.675 217.297 142.043 217.197 142.26 216.996C142.48 216.794 142.589 216.549 142.589 216.261C142.589 216.04 142.533 215.835 142.42 215.648C142.307 215.458 142.146 215.307 141.938 215.194C141.729 215.079 141.482 215.021 141.196 215.021H139.585V217.297ZM139.585 214.331H141.055C141.294 214.331 141.509 214.284 141.701 214.19C141.895 214.097 142.048 213.964 142.161 213.794C142.276 213.624 142.334 213.423 142.334 213.193C142.334 212.906 142.234 212.662 142.033 212.461C141.833 212.259 141.516 212.158 141.081 212.158H139.585V214.331Z" fill="#7D7D7D"/>
<path d="M180.69 230.841V224.091H181.419V224.871H181.509C181.564 224.786 181.641 224.677 181.739 224.545C181.839 224.411 181.982 224.291 182.167 224.187C182.354 224.08 182.608 224.027 182.928 224.027C183.341 224.027 183.705 224.13 184.021 224.337C184.336 224.544 184.582 224.837 184.759 225.216C184.936 225.595 185.024 226.043 185.024 226.558C185.024 227.078 184.936 227.529 184.759 227.91C184.582 228.289 184.337 228.583 184.024 228.792C183.711 228.999 183.349 229.102 182.94 229.102C182.625 229.102 182.373 229.05 182.183 228.946C181.993 228.839 181.847 228.719 181.745 228.585C181.643 228.448 181.564 228.335 181.509 228.246H181.445V230.841H180.69ZM181.432 226.545C181.432 226.916 181.486 227.243 181.595 227.527C181.703 227.808 181.862 228.028 182.071 228.188C182.28 228.346 182.536 228.425 182.838 228.425C183.153 228.425 183.417 228.342 183.627 228.175C183.841 228.007 184 227.781 184.107 227.498C184.216 227.212 184.27 226.895 184.27 226.545C184.27 226.2 184.217 225.889 184.11 225.612C184.006 225.333 183.847 225.113 183.634 224.951C183.423 224.787 183.158 224.705 182.838 224.705C182.531 224.705 182.273 224.782 182.065 224.938C181.856 225.091 181.698 225.306 181.592 225.583C181.485 225.858 181.432 226.179 181.432 226.545ZM190.013 224.091L188.198 229H187.431L185.615 224.091H186.434L187.789 228.003H187.84L189.195 224.091H190.013Z" fill="#8EC5FF"/>
<path d="M212.784 227.993V225.091H213.538V230H212.784V229.169H212.733C212.618 229.418 212.439 229.63 212.196 229.805C211.953 229.978 211.646 230.064 211.276 230.064C210.969 230.064 210.696 229.997 210.457 229.863C210.219 229.726 210.031 229.522 209.895 229.249C209.759 228.974 209.69 228.628 209.69 228.21V225.091H210.445V228.159C210.445 228.517 210.545 228.803 210.745 229.016C210.947 229.229 211.205 229.335 211.518 229.335C211.706 229.335 211.897 229.287 212.091 229.191C212.287 229.096 212.451 228.949 212.583 228.75C212.717 228.552 212.784 228.3 212.784 227.993ZM218.934 225.091L217.119 230H216.352L214.536 225.091H215.354L216.71 229.003H216.761L218.116 225.091H218.934Z" fill="#FFB266"/>
<path d="M209.06 213.5H208.267C208.22 213.272 208.138 213.072 208.021 212.899C207.906 212.727 207.765 212.582 207.599 212.464C207.435 212.345 207.253 212.256 207.053 212.196C206.852 212.136 206.643 212.107 206.426 212.107C206.03 212.107 205.671 212.207 205.349 212.407C205.029 212.607 204.775 212.902 204.585 213.292C204.398 213.682 204.304 214.161 204.304 214.727C204.304 215.294 204.398 215.772 204.585 216.162C204.775 216.552 205.029 216.847 205.349 217.048C205.671 217.248 206.03 217.348 206.426 217.348C206.643 217.348 206.852 217.318 207.053 217.259C207.253 217.199 207.435 217.11 207.599 216.993C207.765 216.874 207.906 216.728 208.021 216.555C208.138 216.381 208.22 216.18 208.267 215.955H209.06C209 216.289 208.891 216.588 208.734 216.853C208.576 217.117 208.38 217.342 208.146 217.527C207.911 217.71 207.648 217.85 207.356 217.946C207.066 218.042 206.756 218.089 206.426 218.089C205.868 218.089 205.371 217.953 204.937 217.68C204.502 217.408 204.16 217.02 203.911 216.517C203.662 216.014 203.537 215.418 203.537 214.727C203.537 214.037 203.662 213.44 203.911 212.938C204.16 212.435 204.502 212.047 204.937 211.774C205.371 211.501 205.868 211.365 206.426 211.365C206.756 211.365 207.066 211.413 207.356 211.509C207.648 211.605 207.911 211.745 208.146 211.931C208.38 212.114 208.576 212.338 208.734 212.602C208.891 212.864 209 213.163 209.06 213.5Z" fill="#7D7D7D"/>
<path d="M271.812 218H269.793V211.455H271.902C272.537 211.455 273.08 211.586 273.532 211.848C273.984 212.108 274.33 212.482 274.571 212.969C274.811 213.455 274.932 214.037 274.932 214.714C274.932 215.396 274.81 215.983 274.567 216.475C274.325 216.966 273.971 217.343 273.506 217.607C273.042 217.869 272.477 218 271.812 218ZM270.585 217.297H271.761C272.303 217.297 272.751 217.192 273.107 216.984C273.463 216.775 273.728 216.478 273.903 216.092C274.077 215.706 274.165 215.247 274.165 214.714C274.165 214.186 274.078 213.731 273.906 213.35C273.733 212.966 273.475 212.672 273.132 212.468C272.789 212.261 272.362 212.158 271.851 212.158H270.585V217.297Z" fill="#7D7D7D"/>
<path d="M336.793 218V211.455H340.743V212.158H337.585V214.369H340.538V215.072H337.585V217.297H340.794V218H336.793Z" fill="#7D7D7D"/>
<rect x="169" y="225" width="8" height="5" fill="#8EC5FF"/>
<rect x="198" y="225" width="8" height="5" fill="#FFB266"/>
<rect x="249" y="26" width="47" height="178" fill="#E9E9EA" fill-opacity="0.8"/>
<rect x="255" y="68" width="16" height="136" fill="#8EC5FF"/>
<rect x="274" y="75" width="16" height="129" fill="#FFB366"/>
<rect x="224.5" y="33.5" width="41" height="44" fill="white" stroke="#D7D7D7"/>
<path d="M232.784 69.9929V67.0909H233.538V72H232.784V71.169H232.733C232.618 71.4183 232.439 71.6303 232.196 71.805C231.953 71.9776 231.646 72.0639 231.276 72.0639C230.969 72.0639 230.696 71.9968 230.457 71.8626C230.219 71.7262 230.031 71.5217 229.895 71.2489C229.759 70.9741 229.69 70.6278 229.69 70.2102V67.0909H230.445V70.1591C230.445 70.517 230.545 70.8026 230.745 71.0156C230.947 71.2287 231.205 71.3352 231.518 71.3352C231.706 71.3352 231.897 71.2873 232.091 71.1914C232.287 71.0955 232.451 70.9485 232.583 70.7504C232.717 70.5522 232.784 70.2997 232.784 69.9929ZM238.934 67.0909L237.119 72H236.352L234.536 67.0909H235.354L236.71 71.0028H236.761L238.116 67.0909H238.934ZM240.479 72.0511C240.322 72.0511 240.186 71.9947 240.073 71.8817C239.96 71.7688 239.904 71.6335 239.904 71.4759C239.904 71.3182 239.96 71.1829 240.073 71.07C240.186 70.957 240.322 70.9006 240.479 70.9006C240.637 70.9006 240.772 70.957 240.885 71.07C240.998 71.1829 241.055 71.3182 241.055 71.4759C241.055 71.5803 241.028 71.6761 240.975 71.7635C240.924 71.8509 240.854 71.9212 240.767 71.9744C240.682 72.0256 240.586 72.0511 240.479 72.0511ZM240.479 68.4077C240.322 68.4077 240.186 68.3512 240.073 68.2383C239.96 68.1254 239.904 67.9901 239.904 67.8324C239.904 67.6747 239.96 67.5394 240.073 67.4265C240.186 67.3136 240.322 67.2571 240.479 67.2571C240.637 67.2571 240.772 67.3136 240.885 67.4265C240.998 67.5394 241.055 67.6747 241.055 67.8324C241.055 67.9368 241.028 68.0327 240.975 68.12C240.924 68.2074 240.854 68.2777 240.767 68.331C240.682 68.3821 240.586 68.4077 240.479 68.4077ZM247.023 72.0895C246.584 72.0895 246.196 72.0117 245.86 71.8562C245.525 71.6985 245.264 71.4822 245.077 71.2074C244.889 70.9304 244.797 70.6151 244.799 70.2614C244.797 69.9844 244.851 69.7287 244.962 69.4943C245.073 69.2578 245.224 69.0607 245.416 68.9031C245.609 68.7433 245.826 68.642 246.064 68.5994V68.5611C245.751 68.4801 245.502 68.3043 245.316 68.0337C245.131 67.761 245.04 67.451 245.042 67.1037C245.04 66.7713 245.124 66.4741 245.294 66.212C245.465 65.9499 245.699 65.7433 245.997 65.592C246.298 65.4407 246.64 65.3651 247.023 65.3651C247.402 65.3651 247.741 65.4407 248.04 65.592C248.338 65.7433 248.572 65.9499 248.743 66.212C248.915 66.4741 249.003 66.7713 249.005 67.1037C249.003 67.451 248.908 67.761 248.72 68.0337C248.535 68.3043 248.289 68.4801 247.982 68.5611V68.5994C248.218 68.642 248.432 68.7433 248.621 68.9031C248.811 69.0607 248.962 69.2578 249.075 69.4943C249.188 69.7287 249.245 69.9844 249.248 70.2614C249.245 70.6151 249.15 70.9304 248.96 71.2074C248.772 71.4822 248.511 71.6985 248.177 71.8562C247.845 72.0117 247.46 72.0895 247.023 72.0895ZM247.023 71.3864C247.319 71.3864 247.575 71.3384 247.79 71.2425C248.005 71.1467 248.172 71.0114 248.289 70.8366C248.406 70.6619 248.466 70.4574 248.468 70.223C248.466 69.9759 248.402 69.7575 248.276 69.5678C248.15 69.3782 247.979 69.229 247.761 69.1204C247.546 69.0117 247.3 68.9574 247.023 68.9574C246.744 68.9574 246.495 69.0117 246.275 69.1204C246.058 69.229 245.886 69.3782 245.761 69.5678C245.637 69.7575 245.576 69.9759 245.579 70.223C245.576 70.4574 245.633 70.6619 245.748 70.8366C245.865 71.0114 246.032 71.1467 246.25 71.2425C246.467 71.3384 246.725 71.3864 247.023 71.3864ZM247.023 68.2798C247.258 68.2798 247.465 68.233 247.646 68.1392C247.83 68.0455 247.973 67.9144 248.078 67.7461C248.182 67.5778 248.236 67.3807 248.238 67.1548C248.236 66.9332 248.183 66.7404 248.081 66.5763C247.979 66.4102 247.837 66.2823 247.656 66.1928C247.475 66.1012 247.264 66.0554 247.023 66.0554C246.778 66.0554 246.564 66.1012 246.381 66.1928C246.198 66.2823 246.056 66.4102 245.956 66.5763C245.856 66.7404 245.807 66.9332 245.809 67.1548C245.807 67.3807 245.857 67.5778 245.959 67.7461C246.063 67.9144 246.207 68.0455 246.39 68.1392C246.574 68.233 246.785 68.2798 247.023 68.2798ZM252.556 65.3651C252.825 65.3672 253.093 65.4183 253.362 65.5185C253.63 65.6186 253.875 65.7848 254.097 66.017C254.318 66.2472 254.496 66.5614 254.631 66.9599C254.765 67.3583 254.832 67.858 254.832 68.4588C254.832 69.0405 254.776 69.5572 254.666 70.0089C254.557 70.4585 254.399 70.8377 254.193 71.1467C253.988 71.4556 253.739 71.69 253.445 71.8498C253.153 72.0096 252.823 72.0895 252.454 72.0895C252.088 72.0895 251.76 72.017 251.473 71.8722C251.187 71.7251 250.953 71.5217 250.77 71.2617C250.589 70.9996 250.472 70.696 250.421 70.3509H251.201C251.271 70.6513 251.411 70.8995 251.62 71.0955C251.831 71.2894 252.109 71.3864 252.454 71.3864C252.959 71.3864 253.357 71.1658 253.649 70.7248C253.943 70.2837 254.09 69.6605 254.09 68.8551H254.039C253.92 69.0341 253.778 69.1886 253.614 69.3185C253.45 69.4485 253.268 69.5487 253.068 69.619C252.867 69.6893 252.654 69.7244 252.428 69.7244C252.053 69.7244 251.709 69.6317 251.396 69.4464C251.085 69.2589 250.836 69.0021 250.648 68.6761C250.463 68.348 250.37 67.973 250.37 67.5511C250.37 67.1506 250.46 66.7841 250.639 66.4517C250.82 66.1172 251.073 65.8509 251.399 65.6527C251.727 65.4545 252.113 65.3587 252.556 65.3651ZM252.556 66.0682C252.288 66.0682 252.046 66.1353 251.831 66.2695C251.618 66.4016 251.448 66.5806 251.323 66.8065C251.199 67.0302 251.137 67.2784 251.137 67.5511C251.137 67.8239 251.197 68.0721 251.316 68.2958C251.438 68.5174 251.603 68.6942 251.812 68.8263C252.023 68.9563 252.262 69.0213 252.531 69.0213C252.733 69.0213 252.922 68.9819 253.096 68.9031C253.271 68.8221 253.423 68.7124 253.553 68.5739C253.686 68.4332 253.789 68.2745 253.863 68.0977C253.938 67.9187 253.975 67.7322 253.975 67.5384C253.975 67.2827 253.914 67.043 253.79 66.8192C253.669 66.5955 253.5 66.4144 253.285 66.2759C253.072 66.1374 252.829 66.0682 252.556 66.0682ZM258.224 72.0895C257.742 72.0895 257.332 71.9585 256.993 71.6964C256.654 71.4322 256.396 71.0497 256.217 70.549C256.038 70.0462 255.948 69.4389 255.948 68.7273C255.948 68.0199 256.038 67.4158 256.217 66.9151C256.398 66.4123 256.658 66.0288 256.996 65.7646C257.337 65.4982 257.746 65.3651 258.224 65.3651C258.701 65.3651 259.109 65.4982 259.448 65.7646C259.789 66.0288 260.049 66.4123 260.228 66.9151C260.409 67.4158 260.499 68.0199 260.499 68.7273C260.499 69.4389 260.41 70.0462 260.231 70.549C260.052 71.0497 259.793 71.4322 259.454 71.6964C259.115 71.9585 258.705 72.0895 258.224 72.0895ZM258.224 71.3864C258.701 71.3864 259.072 71.1562 259.336 70.696C259.6 70.2358 259.732 69.5795 259.732 68.7273C259.732 68.1605 259.671 67.6779 259.55 67.2795C259.431 66.881 259.258 66.5774 259.032 66.3686C258.809 66.1598 258.539 66.0554 258.224 66.0554C257.751 66.0554 257.381 66.2887 257.115 66.7553C256.848 67.2198 256.715 67.8771 256.715 68.7273C256.715 69.294 256.775 69.7756 256.894 70.1719C257.013 70.5682 257.185 70.8697 257.409 71.0763C257.634 71.283 257.906 71.3864 258.224 71.3864Z" fill="#FFB266"/>
<path d="M231.812 45H229.793V38.4545H231.902C232.537 38.4545 233.08 38.5856 233.532 38.8477C233.984 39.1076 234.33 39.4815 234.571 39.9695C234.811 40.4553 234.932 41.0369 234.932 41.7145C234.932 42.3963 234.81 42.9833 234.567 43.4755C234.325 43.9656 233.971 44.3427 233.506 44.6069C233.042 44.869 232.477 45 231.812 45ZM230.585 44.2969H231.761C232.303 44.2969 232.751 44.1925 233.107 43.9837C233.463 43.7749 233.728 43.4776 233.903 43.092C234.077 42.7063 234.165 42.2472 234.165 41.7145C234.165 41.1861 234.078 40.7312 233.906 40.3498C233.733 39.9663 233.475 39.6722 233.132 39.4677C232.789 39.261 232.362 39.1577 231.851 39.1577H230.585V44.2969Z" fill="#4C4C4C"/>
<path d="M229.69 59.8409V53.0909H230.419V53.8707H230.509C230.564 53.7855 230.641 53.6768 230.739 53.5447C230.839 53.4105 230.982 53.2912 231.167 53.1868C231.354 53.0803 231.608 53.027 231.928 53.027C232.341 53.027 232.705 53.1303 233.021 53.337C233.336 53.5437 233.582 53.8366 233.759 54.2159C233.936 54.5952 234.024 55.0426 234.024 55.5582C234.024 56.0781 233.936 56.5288 233.759 56.9102C233.582 57.2894 233.337 57.5835 233.024 57.7923C232.711 57.9989 232.349 58.1023 231.94 58.1023C231.625 58.1023 231.373 58.0501 231.183 57.9457C230.993 57.8391 230.847 57.7187 230.745 57.5845C230.643 57.4482 230.564 57.3352 230.509 57.2457H230.445V59.8409H229.69ZM230.432 55.5455C230.432 55.9162 230.486 56.2433 230.595 56.5266C230.703 56.8079 230.862 57.0284 231.071 57.1882C231.28 57.3459 231.536 57.4247 231.838 57.4247C232.153 57.4247 232.417 57.3416 232.627 57.1754C232.841 57.0071 233 56.7812 233.107 56.4979C233.216 56.2124 233.27 55.8949 233.27 55.5455C233.27 55.2003 233.217 54.8892 233.11 54.6122C233.006 54.3331 232.847 54.1126 232.634 53.9506C232.423 53.7866 232.158 53.7045 231.838 53.7045C231.531 53.7045 231.273 53.7823 231.065 53.9379C230.856 54.0913 230.698 54.3065 230.592 54.5835C230.485 54.8583 230.432 55.179 230.432 55.5455ZM239.013 53.0909L237.198 58H236.431L234.615 53.0909H235.434L236.789 57.0028H236.84L238.195 53.0909H239.013ZM240.558 58.0511C240.401 58.0511 240.265 57.9947 240.153 57.8817C240.04 57.7688 239.983 57.6335 239.983 57.4759C239.983 57.3182 240.04 57.1829 240.153 57.07C240.265 56.957 240.401 56.9006 240.558 56.9006C240.716 56.9006 240.851 56.957 240.964 57.07C241.077 57.1829 241.134 57.3182 241.134 57.4759C241.134 57.5803 241.107 57.6761 241.054 57.7635C241.003 57.8509 240.933 57.9212 240.846 57.9744C240.761 58.0256 240.665 58.0511 240.558 58.0511ZM240.558 54.4077C240.401 54.4077 240.265 54.3512 240.153 54.2383C240.04 54.1254 239.983 53.9901 239.983 53.8324C239.983 53.6747 240.04 53.5394 240.153 53.4265C240.265 53.3136 240.401 53.2571 240.558 53.2571C240.716 53.2571 240.851 53.3136 240.964 53.4265C241.077 53.5394 241.134 53.6747 241.134 53.8324C241.134 53.9368 241.107 54.0327 241.054 54.12C241.003 54.2074 240.933 54.2777 240.846 54.331C240.761 54.3821 240.665 54.4077 240.558 54.4077ZM247.089 51.3651C247.358 51.3672 247.626 51.4183 247.895 51.5185C248.163 51.6186 248.408 51.7848 248.63 52.017C248.852 52.2472 249.029 52.5614 249.164 52.9599C249.298 53.3583 249.365 53.858 249.365 54.4588C249.365 55.0405 249.31 55.5572 249.199 56.0089C249.09 56.4585 248.933 56.8377 248.726 57.1467C248.521 57.4556 248.272 57.69 247.978 57.8498C247.686 58.0096 247.356 58.0895 246.987 58.0895C246.621 58.0895 246.294 58.017 246.006 57.8722C245.721 57.7251 245.486 57.5217 245.303 57.2617C245.122 56.9996 245.006 56.696 244.955 56.3509H245.734C245.805 56.6513 245.944 56.8995 246.153 57.0955C246.364 57.2894 246.642 57.3864 246.987 57.3864C247.492 57.3864 247.891 57.1658 248.183 56.7248C248.477 56.2837 248.624 55.6605 248.624 54.8551H248.572C248.453 55.0341 248.311 55.1886 248.147 55.3185C247.983 55.4485 247.801 55.5487 247.601 55.619C247.401 55.6893 247.188 55.7244 246.962 55.7244C246.587 55.7244 246.243 55.6317 245.929 55.4464C245.618 55.2589 245.369 55.0021 245.181 54.6761C244.996 54.348 244.903 53.973 244.903 53.5511C244.903 53.1506 244.993 52.7841 245.172 52.4517C245.353 52.1172 245.607 51.8509 245.933 51.6527C246.261 51.4545 246.646 51.3587 247.089 51.3651ZM247.089 52.0682C246.821 52.0682 246.579 52.1353 246.364 52.2695C246.151 52.4016 245.982 52.5806 245.856 52.8065C245.732 53.0302 245.67 53.2784 245.67 53.5511C245.67 53.8239 245.73 54.0721 245.849 54.2958C245.971 54.5174 246.136 54.6942 246.345 54.8263C246.556 54.9563 246.795 55.0213 247.064 55.0213C247.266 55.0213 247.455 54.9819 247.63 54.9031C247.804 54.8221 247.957 54.7124 248.087 54.5739C248.219 54.4332 248.322 54.2745 248.397 54.0977C248.471 53.9187 248.509 53.7322 248.509 53.5384C248.509 53.2827 248.447 53.043 248.323 52.8192C248.202 52.5955 248.033 52.4144 247.818 52.2759C247.605 52.1374 247.362 52.0682 247.089 52.0682ZM252.923 51.4545V58H252.13V52.2855H252.092L250.494 53.3466V52.5412L252.13 51.4545H252.923ZM256.94 58.0895C256.459 58.0895 256.049 57.9585 255.71 57.6964C255.371 57.4322 255.112 57.0497 254.933 56.549C254.754 56.0462 254.665 55.4389 254.665 54.7273C254.665 54.0199 254.754 53.4158 254.933 52.9151C255.114 52.4123 255.374 52.0288 255.713 51.7646C256.054 51.4982 256.463 51.3651 256.94 51.3651C257.418 51.3651 257.826 51.4982 258.165 51.7646C258.505 52.0288 258.765 52.4123 258.944 52.9151C259.125 53.4158 259.216 54.0199 259.216 54.7273C259.216 55.4389 259.127 56.0462 258.948 56.549C258.769 57.0497 258.51 57.4322 258.171 57.6964C257.832 57.9585 257.422 58.0895 256.94 58.0895ZM256.94 57.3864C257.418 57.3864 257.788 57.1562 258.053 56.696C258.317 56.2358 258.449 55.5795 258.449 54.7273C258.449 54.1605 258.388 53.6779 258.267 53.2795C258.147 52.881 257.975 52.5774 257.749 52.3686C257.525 52.1598 257.256 52.0554 256.94 52.0554C256.467 52.0554 256.098 52.2887 255.831 52.7553C255.565 53.2198 255.432 53.8771 255.432 54.7273C255.432 55.294 255.492 55.7756 255.611 56.1719C255.73 56.5682 255.902 56.8697 256.125 57.0763C256.351 57.283 256.623 57.3864 256.94 57.3864Z" fill="#8EC5FF"/>
<defs>
<clipPath id="clip0_550_4221">
<rect width="15" height="15" fill="white" transform="translate(16 155)"/>
</clipPath>
</defs>
</svg>
