<svg width="380" height="250" viewBox="0 0 380 250" fill="none" xmlns="http://www.w3.org/2000/svg">
<rect width="380" height="250" fill="white"/>
<rect x="89.5" y="106.5" width="201" height="37" rx="6.5" fill="white"/>
<rect x="89.5" y="106.5" width="201" height="37" rx="6.5" stroke="#CBD5E1"/>
<path d="M104.875 130V128.906L108.307 125.447C109.387 124.312 109.934 123.684 109.934 122.822C109.934 121.852 109.141 121.223 108.102 121.223C107.008 121.223 106.297 121.92 106.297 122.973H104.875C104.861 121.168 106.242 119.965 108.129 119.965C110.043 119.965 111.355 121.168 111.369 122.781C111.355 123.889 110.836 124.764 108.977 126.596L106.967 128.633V128.715H111.533V130H104.875ZM116.646 130.137C114.35 130.137 113.01 128.291 113.01 125.051C113.01 121.838 114.377 119.965 116.646 119.965C118.916 119.965 120.283 121.838 120.283 125.051C120.283 128.291 118.93 130.137 116.646 130.137ZM116.646 128.838C117.986 128.838 118.779 127.525 118.779 125.051C118.779 122.59 117.973 121.236 116.646 121.236C115.32 121.236 114.514 122.59 114.514 125.051C114.514 127.525 115.307 128.838 116.646 128.838ZM121.842 130V128.906L125.273 125.447C126.354 124.312 126.9 123.684 126.9 122.822C126.9 121.852 126.107 121.223 125.068 121.223C123.975 121.223 123.264 121.92 123.264 122.973H121.842C121.828 121.168 123.209 119.965 125.096 119.965C127.01 119.965 128.322 121.168 128.336 122.781C128.322 123.889 127.803 124.764 125.943 126.596L123.934 128.633V128.715H128.5V130H121.842ZM133.531 130.137C131.658 130.137 130.25 128.988 130.182 127.416H131.645C131.727 128.264 132.533 128.879 133.531 128.879C134.734 128.879 135.596 128.004 135.596 126.828C135.596 125.625 134.707 124.75 133.463 124.736C132.67 124.736 132.068 124.996 131.727 125.611H130.305L130.947 120.102H136.553V121.387H132.191L131.863 124.162H131.959C132.369 123.766 133.066 123.492 133.818 123.492C135.678 123.492 137.059 124.873 137.059 126.787C137.059 128.742 135.596 130.137 133.531 130.137ZM142.445 119.637L139.26 131.49H137.961L141.146 119.637H142.445ZM146.957 130.137C144.66 130.137 143.32 128.291 143.32 125.051C143.32 121.838 144.688 119.965 146.957 119.965C149.227 119.965 150.594 121.838 150.594 125.051C150.594 128.291 149.24 130.137 146.957 130.137ZM146.957 128.838C148.297 128.838 149.09 127.525 149.09 125.051C149.09 122.59 148.283 121.236 146.957 121.236C145.631 121.236 144.824 122.59 144.824 125.051C144.824 127.525 145.617 128.838 146.957 128.838ZM155.516 130.137C153.643 130.137 152.234 128.988 152.166 127.416H153.629C153.711 128.264 154.518 128.879 155.516 128.879C156.719 128.879 157.58 128.004 157.58 126.828C157.58 125.625 156.691 124.75 155.447 124.736C154.654 124.736 154.053 124.996 153.711 125.611H152.289L152.932 120.102H158.537V121.387H154.176L153.848 124.162H153.943C154.354 123.766 155.051 123.492 155.803 123.492C157.662 123.492 159.043 124.873 159.043 126.787C159.043 128.742 157.58 130.137 155.516 130.137ZM164.43 119.637L161.244 131.49H159.945L163.131 119.637H164.43ZM165.496 130V128.906L168.928 125.447C170.008 124.312 170.555 123.684 170.555 122.822C170.555 121.852 169.762 121.223 168.723 121.223C167.629 121.223 166.918 121.92 166.918 122.973H165.496C165.482 121.168 166.863 119.965 168.75 119.965C170.664 119.965 171.977 121.168 171.99 122.781C171.977 123.889 171.457 124.764 169.598 126.596L167.588 128.633V128.715H172.154V130H165.496ZM177.336 130.137C175.285 130.137 173.822 129.029 173.768 127.416H175.299C175.354 128.291 176.215 128.838 177.322 128.838C178.512 128.838 179.387 128.182 179.387 127.225C179.387 126.254 178.566 125.543 177.158 125.543H176.311V124.312H177.158C178.279 124.312 179.072 123.684 179.072 122.74C179.072 121.838 178.402 121.223 177.35 121.223C176.352 121.223 175.477 121.77 175.436 122.672H173.986C174.027 121.059 175.518 119.965 177.363 119.965C179.305 119.965 180.535 121.195 180.521 122.658C180.535 123.779 179.838 124.6 178.771 124.859V124.928C180.125 125.119 180.904 126.021 180.904 127.279C180.904 128.934 179.387 130.137 177.336 130.137Z" fill="black"/>
<path d="M278 117H264C262.895 117 262 117.895 262 119V133C262 134.105 262.895 135 264 135H278C279.105 135 280 134.105 280 133V119C280 117.895 279.105 117 278 117Z" stroke="#A6B0BC" stroke-width="2" stroke-linecap="round" stroke-linejoin="round"/>
<path d="M275 115V119" stroke="#A6B0BC" stroke-width="2" stroke-linecap="round" stroke-linejoin="round"/>
<path d="M267 115V119" stroke="#A6B0BC" stroke-width="2" stroke-linecap="round" stroke-linejoin="round"/>
<path d="M262 123H280" stroke="#A6B0BC" stroke-width="2" stroke-linecap="round" stroke-linejoin="round"/>
</svg>
