<svg width="380" height="250" viewBox="0 0 380 250" fill="none" xmlns="http://www.w3.org/2000/svg">
<rect width="380" height="250" fill="white"/>
<rect x="8" y="45.5" width="364" height="159" rx="5.5" fill="white"/>
<rect x="8" y="45.5" width="364" height="159" rx="5.5" stroke="#CBD5E1"/>
<path d="M35.964 75.78H37.926V77.292C37.926 78.36 37.758 79.368 37.422 80.316C37.086 81.252 36.576 82.074 35.892 82.782C35.208 83.49 34.326 84.018 33.246 84.366L32.058 82.458C32.982 82.158 33.726 81.744 34.29 81.216C34.866 80.676 35.286 80.07 35.55 79.398C35.826 78.714 35.964 78.012 35.964 77.292V75.78ZM36.468 75.78H38.394V77.526C38.394 78.018 38.466 78.504 38.61 78.984C38.754 79.464 38.976 79.92 39.276 80.352C39.576 80.772 39.96 81.15 40.428 81.486C40.908 81.81 41.472 82.074 42.12 82.278L40.95 84.168C39.93 83.832 39.084 83.334 38.412 82.674C37.752 82.014 37.26 81.24 36.936 80.352C36.624 79.464 36.468 78.522 36.468 77.526V75.78ZM42.948 74.934H45.342V84.996H42.948V74.934ZM44.694 78.984H47.556V80.946H44.694V78.984ZM34.218 85.698H45.342V91.602H42.948V87.606H34.218V85.698ZM60.8206 74.916H63.1066V91.584H60.8206V74.916ZM55.3306 80.622H58.1026V82.566H55.3306V80.622ZM57.4546 75.186H59.6866V90.828H57.4546V75.186ZM51.7486 77.634H53.5486V79.344C53.5486 80.28 53.4766 81.204 53.3326 82.116C53.2006 83.028 52.9906 83.892 52.7026 84.708C52.4146 85.512 52.0366 86.238 51.5686 86.886C51.1006 87.534 50.5366 88.068 49.8766 88.488L48.4546 86.724C49.2706 86.208 49.9186 85.56 50.3986 84.78C50.8786 83.988 51.2206 83.124 51.4246 82.188C51.6406 81.24 51.7486 80.292 51.7486 79.344V77.634ZM52.2886 77.634H54.0706V79.344C54.0706 80.268 54.1726 81.18 54.3766 82.08C54.5806 82.98 54.9166 83.802 55.3846 84.546C55.8526 85.278 56.4886 85.878 57.2926 86.346L55.9066 88.074C55.0186 87.546 54.3106 86.832 53.7826 85.932C53.2546 85.032 52.8706 84.018 52.6306 82.89C52.4026 81.75 52.2886 80.568 52.2886 79.344V77.634ZM49.0666 76.59H56.5006V78.516H49.0666V76.59ZM76.0292 74.934H78.4232V91.602H76.0292V74.934ZM77.8832 81.432H80.8172V83.412H77.8832V81.432ZM65.2652 77.382H74.9852V79.29H65.2652V77.382ZM70.1612 80.244C70.9652 80.244 71.6852 80.418 72.3212 80.766C72.9572 81.102 73.4552 81.564 73.8152 82.152C74.1872 82.74 74.3732 83.424 74.3732 84.204C74.3732 84.984 74.1872 85.674 73.8152 86.274C73.4552 86.862 72.9572 87.33 72.3212 87.678C71.6972 88.014 70.9772 88.182 70.1612 88.182C69.3572 88.182 68.6312 88.014 67.9832 87.678C67.3472 87.33 66.8432 86.862 66.4712 86.274C66.1112 85.674 65.9312 84.984 65.9312 84.204C65.9312 83.424 66.1112 82.74 66.4712 82.152C66.8432 81.564 67.3472 81.102 67.9832 80.766C68.6312 80.418 69.3572 80.244 70.1612 80.244ZM70.1612 82.188C69.7772 82.188 69.4412 82.266 69.1532 82.422C68.8652 82.578 68.6372 82.806 68.4692 83.106C68.3012 83.406 68.2172 83.772 68.2172 84.204C68.2172 84.624 68.3012 84.99 68.4692 85.302C68.6372 85.602 68.8652 85.836 69.1532 86.004C69.4412 86.16 69.7772 86.238 70.1612 86.238C70.5332 86.238 70.8632 86.16 71.1512 86.004C71.4392 85.836 71.6672 85.602 71.8352 85.302C72.0032 84.99 72.0872 84.624 72.0872 84.204C72.0872 83.772 72.0032 83.406 71.8352 83.106C71.6672 82.806 71.4392 82.578 71.1512 82.422C70.8632 82.266 70.5332 82.188 70.1612 82.188ZM68.9372 75.204H71.3492V78.12H68.9372V75.204ZM85.9638 76.212H87.9258V78.624C87.9258 79.704 87.8298 80.742 87.6378 81.738C87.4458 82.722 87.1518 83.646 86.7558 84.51C86.3718 85.362 85.8738 86.118 85.2618 86.778C84.6618 87.426 83.9478 87.942 83.1198 88.326L81.6978 86.346C82.4298 86.022 83.0598 85.596 83.5878 85.068C84.1278 84.528 84.5718 83.916 84.9198 83.232C85.2678 82.536 85.5258 81.798 85.6938 81.018C85.8738 80.238 85.9638 79.44 85.9638 78.624V76.212ZM86.4318 76.212H88.3758V78.624C88.3758 79.404 88.4598 80.166 88.6278 80.91C88.7958 81.654 89.0478 82.356 89.3838 83.016C89.7318 83.676 90.1638 84.264 90.6798 84.78C91.2078 85.284 91.8258 85.686 92.5338 85.986L91.1478 87.93C90.3438 87.558 89.6418 87.06 89.0418 86.436C88.4538 85.812 87.9678 85.092 87.5838 84.276C87.1998 83.448 86.9118 82.56 86.7198 81.612C86.5278 80.652 86.4318 79.656 86.4318 78.624V76.212ZM93.3438 74.898H95.7378V91.62H93.3438V74.898ZM103.35 76.068H105.762C105.762 77.472 105.546 78.732 105.114 79.848C104.682 80.952 104.016 81.918 103.116 82.746C102.216 83.574 101.052 84.288 99.6244 84.888L98.4544 83.142C99.6184 82.674 100.56 82.14 101.28 81.54C102 80.94 102.522 80.256 102.846 79.488C103.182 78.72 103.35 77.862 103.35 76.914V76.068ZM99.3364 76.068H104.304V77.976H99.3364V76.068ZM110.388 74.916H112.674V84.384H110.388V74.916ZM103.836 79.254H107.364V81.162H103.836V79.254ZM107.004 75.24H109.236V84.186H107.004V75.24ZM102.306 84.906H104.106V85.644C104.106 86.496 103.974 87.306 103.71 88.074C103.458 88.842 103.056 89.52 102.504 90.108C101.952 90.696 101.238 91.146 100.362 91.458L99.2104 89.712C99.9424 89.46 100.536 89.124 100.992 88.704C101.448 88.272 101.778 87.792 101.982 87.264C102.198 86.736 102.306 86.196 102.306 85.644V84.906ZM102.918 84.906H104.628V85.644C104.628 86.196 104.724 86.742 104.916 87.282C105.108 87.81 105.414 88.302 105.834 88.758C106.254 89.202 106.8 89.574 107.472 89.874L106.5 91.62C105.624 91.284 104.922 90.804 104.394 90.18C103.866 89.556 103.488 88.854 103.26 88.074C103.032 87.282 102.918 86.472 102.918 85.644V84.906ZM108.372 84.906H110.082V85.644C110.082 86.412 109.962 87.192 109.722 87.984C109.482 88.776 109.104 89.49 108.588 90.126C108.072 90.762 107.376 91.26 106.5 91.62L105.51 89.874C106.194 89.55 106.746 89.154 107.166 88.686C107.586 88.218 107.892 87.72 108.084 87.192C108.276 86.652 108.372 86.136 108.372 85.644V84.906ZM108.93 84.906H110.73V85.644C110.73 86.232 110.832 86.79 111.036 87.318C111.252 87.846 111.588 88.32 112.044 88.74C112.5 89.16 113.094 89.484 113.826 89.712L112.656 91.458C111.78 91.158 111.066 90.72 110.514 90.144C109.974 89.568 109.572 88.896 109.308 88.128C109.056 87.348 108.93 86.52 108.93 85.644V84.906ZM116.777 84.906H119.153V86.31H125.831V84.906H128.189V91.422H116.777V84.906ZM119.153 88.11V89.55H125.831V88.11H119.153ZM115.013 82.206H130.097V84.078H115.013V82.206ZM121.331 75.096H123.383V75.6C123.383 76.188 123.281 76.746 123.077 77.274C122.885 77.802 122.603 78.294 122.231 78.75C121.859 79.206 121.397 79.62 120.845 79.992C120.305 80.352 119.681 80.658 118.973 80.91C118.265 81.15 117.479 81.33 116.615 81.45L115.751 79.596C116.507 79.512 117.185 79.374 117.785 79.182C118.385 78.99 118.907 78.762 119.351 78.498C119.795 78.222 120.161 77.928 120.449 77.616C120.749 77.292 120.971 76.962 121.115 76.626C121.259 76.278 121.331 75.936 121.331 75.6V75.096ZM121.727 75.096H123.779V75.6C123.779 75.936 123.851 76.278 123.995 76.626C124.139 76.962 124.355 77.292 124.643 77.616C124.943 77.928 125.315 78.222 125.759 78.498C126.203 78.762 126.725 78.99 127.325 79.182C127.937 79.374 128.615 79.512 129.359 79.596L128.495 81.45C127.631 81.33 126.845 81.15 126.137 80.91C125.441 80.658 124.817 80.352 124.265 79.992C123.713 79.62 123.251 79.206 122.879 78.75C122.507 78.294 122.219 77.802 122.015 77.274C121.823 76.734 121.727 76.176 121.727 75.6V75.096ZM143.128 74.916H145.504V91.584H143.128V74.916ZM132.454 76.5H134.848V86.868H132.454V76.5ZM132.454 85.446H133.93C135.154 85.446 136.432 85.398 137.764 85.302C139.096 85.194 140.452 85.002 141.832 84.726L142.084 86.724C140.668 87.024 139.27 87.228 137.89 87.336C136.522 87.432 135.202 87.48 133.93 87.48H132.454V85.446ZM159.002 74.916H161.396V91.584H159.002V74.916ZM160.658 81.432H163.556V83.412H160.658V81.432ZM150.812 76.626H153.044C153.044 77.778 153.002 78.87 152.918 79.902C152.846 80.934 152.696 81.918 152.468 82.854C152.24 83.79 151.898 84.696 151.442 85.572C150.998 86.436 150.41 87.282 149.678 88.11L147.806 86.742C148.442 86.034 148.958 85.32 149.354 84.6C149.75 83.88 150.056 83.13 150.272 82.35C150.488 81.57 150.632 80.736 150.704 79.848C150.776 78.948 150.812 77.964 150.812 76.896V76.626ZM148.544 76.626H151.748V78.552H148.544V76.626ZM155.402 76.626H157.652C157.652 77.826 157.61 78.99 157.526 80.118C157.454 81.234 157.304 82.314 157.076 83.358C156.848 84.39 156.518 85.392 156.086 86.364C155.654 87.324 155.072 88.254 154.34 89.154L152.468 87.84C153.104 87.036 153.614 86.226 153.998 85.41C154.382 84.594 154.676 83.748 154.88 82.872C155.084 81.996 155.222 81.066 155.294 80.082C155.366 79.098 155.402 78.03 155.402 76.878V76.626ZM153.62 76.626H156.392V78.552H153.62V76.626ZM167.369 86.152V85.9858C167.374 85.2145 167.446 84.6009 167.587 84.1449C167.732 83.6889 167.936 83.3224 168.2 83.0455C168.464 82.7642 168.786 82.5064 169.165 82.272C169.425 82.1101 169.658 81.9332 169.862 81.7415C170.071 81.5455 170.235 81.3281 170.354 81.0895C170.474 80.8466 170.533 80.576 170.533 80.2777C170.533 79.9411 170.455 79.6491 170.297 79.402C170.139 79.1548 169.926 78.9631 169.658 78.8267C169.393 78.6903 169.097 78.6222 168.769 78.6222C168.467 78.6222 168.179 78.6882 167.906 78.8203C167.638 78.9482 167.414 79.1442 167.235 79.4084C167.06 79.6683 166.962 79.9986 166.941 80.3991H164.665C164.687 79.5895 164.883 78.9119 165.254 78.3665C165.629 77.821 166.123 77.4119 166.737 77.1392C167.354 76.8665 168.036 76.7301 168.782 76.7301C169.596 76.7301 170.312 76.8729 170.93 77.1584C171.552 77.4439 172.036 77.8509 172.381 78.3793C172.73 78.9034 172.905 79.5256 172.905 80.2457C172.905 80.7315 172.826 81.1662 172.668 81.5497C172.515 81.9332 172.295 82.2741 172.01 82.5724C171.724 82.8707 171.386 83.1371 170.994 83.3714C170.648 83.5845 170.365 83.8061 170.143 84.0362C169.926 84.2663 169.764 84.5369 169.658 84.848C169.555 85.1548 169.502 85.5341 169.498 85.9858V86.152H167.369ZM168.482 90.1406C168.098 90.1406 167.768 90.0043 167.491 89.7315C167.214 89.4588 167.075 89.1264 167.075 88.7344C167.075 88.3509 167.214 88.0227 167.491 87.75C167.768 87.4773 168.098 87.3409 168.482 87.3409C168.861 87.3409 169.189 87.4773 169.466 87.75C169.747 88.0227 169.888 88.3509 169.888 88.7344C169.888 88.9943 169.822 89.2308 169.69 89.4439C169.562 89.657 169.391 89.8274 169.178 89.9553C168.969 90.0788 168.737 90.1406 168.482 90.1406Z" fill="#0F172A"/>
<path d="M35.8949 112.364V113.358H31.9375V112.364H35.8949ZM33.0909 110.534H34.2642V117.812C34.2642 118.144 34.3123 118.393 34.4084 118.558C34.5078 118.721 34.6338 118.83 34.7862 118.886C34.942 118.939 35.1061 118.966 35.2784 118.966C35.4077 118.966 35.5137 118.959 35.5966 118.946C35.6795 118.929 35.7457 118.916 35.7955 118.906L36.0341 119.96C35.9545 119.99 35.8435 120.02 35.701 120.05C35.5585 120.083 35.3778 120.099 35.1591 120.099C34.8277 120.099 34.5028 120.028 34.1847 119.886C33.8698 119.743 33.608 119.526 33.3991 119.234C33.1937 118.943 33.0909 118.575 33.0909 118.131V110.534ZM40.7795 120.159C40.0437 120.159 39.409 119.997 38.8754 119.672C38.3451 119.344 37.9357 118.886 37.6474 118.3C37.3623 117.71 37.2198 117.024 37.2198 116.241C37.2198 115.459 37.3623 114.77 37.6474 114.173C37.9357 113.573 38.3368 113.106 38.8505 112.771C39.3675 112.433 39.9708 112.264 40.6602 112.264C41.0579 112.264 41.4506 112.33 41.8384 112.463C42.2262 112.596 42.5792 112.811 42.8974 113.109C43.2156 113.404 43.4691 113.795 43.658 114.283C43.8469 114.77 43.9414 115.37 43.9414 116.082V116.58H38.055V115.565H42.7482C42.7482 115.134 42.6621 114.75 42.4897 114.412C42.3207 114.074 42.0787 113.807 41.7638 113.612C41.4523 113.416 41.0844 113.318 40.6602 113.318C40.1928 113.318 39.7885 113.434 39.4471 113.666C39.109 113.895 38.8488 114.193 38.6665 114.561C38.4843 114.929 38.3931 115.323 38.3931 115.744V116.42C38.3931 116.997 38.4925 117.486 38.6914 117.887C38.8936 118.285 39.1737 118.588 39.5316 118.797C39.8896 119.002 40.3055 119.105 40.7795 119.105C41.0877 119.105 41.3661 119.062 41.6147 118.976C41.8666 118.886 42.0837 118.754 42.266 118.578C42.4483 118.399 42.5891 118.177 42.6886 117.912L43.8221 118.23C43.7028 118.615 43.5022 118.953 43.2205 119.244C42.9388 119.533 42.5908 119.758 42.1765 119.92C41.7622 120.08 41.2965 120.159 40.7795 120.159ZM46.3961 112.364L48.2257 115.486L50.0552 112.364H51.4075L48.9416 116.182L51.4075 120H50.0552L48.2257 117.037L46.3961 120H45.0439L47.47 116.182L45.0439 112.364H46.3961ZM56.4027 112.364V113.358H52.4453V112.364H56.4027ZM53.5987 110.534H54.772V117.812C54.772 118.144 54.8201 118.393 54.9162 118.558C55.0156 118.721 55.1416 118.83 55.294 118.886C55.4498 118.939 55.6139 118.966 55.7862 118.966C55.9155 118.966 56.0215 118.959 56.1044 118.946C56.1873 118.929 56.2536 118.916 56.3033 118.906L56.5419 119.96C56.4624 119.99 56.3513 120.02 56.2088 120.05C56.0663 120.083 55.8857 120.099 55.6669 120.099C55.3355 120.099 55.0107 120.028 54.6925 119.886C54.3776 119.743 54.1158 119.526 53.907 119.234C53.7015 118.943 53.5987 118.575 53.5987 118.131V110.534Z" fill="#64748B"/>
<rect x="225" y="141.5" width="57" height="39" rx="5.5" fill="white"/>
<rect x="225" y="141.5" width="57" height="39" rx="5.5" stroke="#E2E8F0"/>
<path d="M244.798 156.634H245.75V156.816C245.75 157.432 245.605 158.001 245.316 158.524C245.027 159.037 244.621 159.476 244.098 159.84C243.575 160.204 242.959 160.475 242.25 160.652L241.76 159.742C242.367 159.593 242.899 159.378 243.356 159.098C243.813 158.809 244.168 158.468 244.42 158.076C244.672 157.684 244.798 157.264 244.798 156.816V156.634ZM245.008 156.634H245.96V156.816C245.96 157.236 246.086 157.633 246.338 158.006C246.59 158.37 246.94 158.687 247.388 158.958C247.845 159.229 248.373 159.434 248.97 159.574L248.494 160.484C247.794 160.307 247.183 160.045 246.66 159.7C246.137 159.345 245.731 158.925 245.442 158.44C245.153 157.945 245.008 157.404 245.008 156.816V156.634ZM242.026 155.864H248.732V156.774H242.026V155.864ZM244.798 154.45H245.96V156.48H244.798V154.45ZM244.826 161.674H245.988V166.714H244.826V161.674ZM250.426 154.436H251.574V167.092H250.426V154.436ZM241.326 162.514L241.172 161.534C241.975 161.534 242.847 161.529 243.79 161.52C244.733 161.501 245.694 161.464 246.674 161.408C247.654 161.352 248.601 161.263 249.516 161.142L249.6 161.996C248.657 162.155 247.696 162.271 246.716 162.346C245.745 162.421 244.798 162.467 243.874 162.486C242.959 162.505 242.11 162.514 241.326 162.514ZM254.079 164.474H265.559V165.454H254.079V164.474ZM259.189 161.408H260.337V164.796H259.189V161.408ZM259.147 155.262H260.169V156.242C260.169 156.793 260.071 157.311 259.875 157.796C259.688 158.272 259.427 158.72 259.091 159.14C258.755 159.551 258.368 159.919 257.929 160.246C257.5 160.573 257.038 160.848 256.543 161.072C256.048 161.296 255.544 161.459 255.031 161.562L254.527 160.596C254.975 160.521 255.418 160.391 255.857 160.204C256.305 160.008 256.725 159.775 257.117 159.504C257.509 159.224 257.859 158.916 258.167 158.58C258.475 158.235 258.713 157.866 258.881 157.474C259.058 157.073 259.147 156.662 259.147 156.242V155.262ZM259.357 155.262H260.365V156.242C260.365 156.671 260.454 157.082 260.631 157.474C260.808 157.866 261.051 158.235 261.359 158.58C261.667 158.916 262.017 159.224 262.409 159.504C262.81 159.784 263.23 160.017 263.669 160.204C264.117 160.391 264.565 160.521 265.013 160.596L264.509 161.562C263.996 161.459 263.492 161.296 262.997 161.072C262.502 160.848 262.036 160.573 261.597 160.246C261.158 159.919 260.771 159.551 260.435 159.14C260.099 158.72 259.833 158.267 259.637 157.782C259.45 157.297 259.357 156.783 259.357 156.242V155.262Z" fill="#0F172A"/>
<rect x="290.5" y="141" width="58" height="40" rx="6" fill="#CD5353"/>
<path d="M310.308 155.066H311.26V156.368C311.26 157.171 311.115 157.917 310.826 158.608C310.546 159.289 310.14 159.882 309.608 160.386C309.085 160.89 308.469 161.277 307.76 161.548L307.172 160.61C307.807 160.386 308.357 160.064 308.824 159.644C309.3 159.215 309.664 158.72 309.916 158.16C310.177 157.6 310.308 157.003 310.308 156.368V155.066ZM310.518 155.066H311.456V156.452C311.456 156.881 311.531 157.297 311.68 157.698C311.839 158.099 312.053 158.473 312.324 158.818C312.595 159.163 312.917 159.471 313.29 159.742C313.673 160.013 314.093 160.227 314.55 160.386L313.962 161.296C313.271 161.053 312.665 160.694 312.142 160.218C311.629 159.733 311.227 159.168 310.938 158.524C310.658 157.871 310.518 157.18 310.518 156.452V155.066ZM315.866 154.422H317.028V162.094H315.866V154.422ZM316.706 157.768H318.89V158.748H316.706V157.768ZM308.796 162.724H317.028V167.092H315.866V163.676H308.796V162.724ZM329.711 154.422H330.817V167.092H329.711V154.422ZM325.091 158.972H327.527V159.924H325.091V158.972ZM327.177 154.716H328.269V166.434H327.177V154.716ZM322.669 156.396H323.565V158.006C323.565 158.697 323.5 159.373 323.369 160.036C323.238 160.689 323.047 161.305 322.795 161.884C322.543 162.453 322.235 162.971 321.871 163.438C321.507 163.895 321.096 164.269 320.639 164.558L319.925 163.69C320.513 163.335 321.008 162.859 321.409 162.262C321.82 161.665 322.132 160.997 322.347 160.26C322.562 159.523 322.669 158.771 322.669 158.006V156.396ZM322.907 156.396H323.789V158.006C323.789 158.734 323.892 159.448 324.097 160.148C324.312 160.848 324.615 161.483 325.007 162.052C325.408 162.612 325.898 163.06 326.477 163.396L325.777 164.264C325.161 163.881 324.638 163.373 324.209 162.738C323.789 162.094 323.467 161.366 323.243 160.554C323.019 159.733 322.907 158.883 322.907 158.006V156.396ZM320.275 155.906H326.057V156.858H320.275V155.906Z" fill="white"/>
</svg>
