<svg width="380" height="250" viewBox="0 0 380 250" fill="none" xmlns="http://www.w3.org/2000/svg">
<rect width="380" height="250" fill="white"/>
<rect x="17.5" y="45.5" width="344" height="111" rx="7.5" stroke="#CBD5E1" stroke-dasharray="2 2"/>
<rect x="291" y="170" width="71" height="40" rx="6" fill="#121F48"/>
<path d="M314.056 186.446H317.458V187.398H314.056V186.446ZM311.158 184.01C311.783 184.01 312.339 184.136 312.824 184.388C313.319 184.631 313.706 184.971 313.986 185.41C314.266 185.849 314.406 186.357 314.406 186.936C314.406 187.515 314.266 188.028 313.986 188.476C313.706 188.915 313.319 189.26 312.824 189.512C312.339 189.755 311.783 189.876 311.158 189.876C310.523 189.876 309.959 189.755 309.464 189.512C308.979 189.26 308.596 188.915 308.316 188.476C308.036 188.028 307.896 187.515 307.896 186.936C307.896 186.357 308.036 185.849 308.316 185.41C308.596 184.971 308.979 184.631 309.464 184.388C309.959 184.136 310.523 184.01 311.158 184.01ZM311.158 184.99C310.738 184.99 310.365 185.074 310.038 185.242C309.721 185.401 309.469 185.629 309.282 185.928C309.095 186.217 309.002 186.553 309.002 186.936C309.002 187.319 309.095 187.659 309.282 187.958C309.469 188.247 309.721 188.476 310.038 188.644C310.365 188.812 310.738 188.896 311.158 188.896C311.569 188.896 311.933 188.812 312.25 188.644C312.577 188.476 312.833 188.247 313.02 187.958C313.207 187.659 313.3 187.319 313.3 186.936C313.3 186.553 313.207 186.217 313.02 185.928C312.833 185.629 312.577 185.401 312.25 185.242C311.933 185.074 311.569 184.99 311.158 184.99ZM316.954 183.422H318.116V190.226H316.954V183.422ZM310.01 190.856H311.158V192.438H316.954V190.856H318.116V195.924H310.01V190.856ZM311.158 193.362V194.972H316.954V193.362H311.158ZM320.579 193.558H332.059V194.524H320.579V193.558ZM325.717 190.856H326.865V193.964H325.717V190.856ZM321.979 184.36H330.631V188.196H323.155V190.73H322.007V187.272H329.483V185.312H321.979V184.36ZM322.007 190.24H330.925V191.192H322.007V190.24ZM334.914 189.498H343.608V190.45H334.914V189.498ZM333.458 193.404H344.938V194.37H333.458V193.404ZM334.914 184.598H343.482V185.55H336.062V189.918H334.914V184.598Z" fill="white"/>
<circle cx="189.5" cy="84.5" r="20" stroke="#CBD5E1"/>
<path d="M182 88V89C182 89.7956 182.316 90.5587 182.879 91.1213C183.441 91.6839 184.204 92 185 92H195C195.796 92 196.559 91.6839 197.121 91.1213C197.684 90.5587 198 89.7956 198 89V88M194 80L190 76M190 76L186 80M190 76V88" stroke="#9AABBE" stroke-width="2" stroke-linecap="round" stroke-linejoin="round"/>
<path d="M67.732 121.24H73.78V122.056H67.732V121.24ZM67.588 128.248L67.468 127.408C68.116 127.408 68.824 127.404 69.592 127.396C70.36 127.38 71.148 127.352 71.956 127.312C72.764 127.264 73.536 127.196 74.272 127.108L74.332 127.852C73.58 127.972 72.804 128.06 72.004 128.116C71.204 128.172 70.424 128.208 69.664 128.224C68.912 128.24 68.22 128.248 67.588 128.248ZM68.896 121.864H69.868V127.636H68.896V121.864ZM71.644 121.864H72.604V127.636H71.644V121.864ZM74.944 120.076H75.94V130.936H74.944V120.076ZM75.712 124.42H77.716V125.248H75.712V124.42ZM81.6871 120.472C82.2311 120.472 82.7111 120.576 83.1271 120.784C83.5511 120.984 83.8831 121.264 84.1231 121.624C84.3631 121.984 84.4831 122.404 84.4831 122.884C84.4831 123.356 84.3631 123.776 84.1231 124.144C83.8831 124.504 83.5511 124.784 83.1271 124.984C82.7111 125.184 82.2311 125.284 81.6871 125.284C81.1511 125.284 80.6711 125.184 80.2471 124.984C79.8231 124.784 79.4871 124.504 79.2391 124.144C78.9991 123.776 78.8791 123.356 78.8791 122.884C78.8791 122.404 78.9991 121.984 79.2391 121.624C79.4871 121.264 79.8231 120.984 80.2471 120.784C80.6711 120.576 81.1511 120.472 81.6871 120.472ZM81.6871 121.3C81.3351 121.3 81.0191 121.368 80.7391 121.504C80.4671 121.632 80.2511 121.816 80.0911 122.056C79.9311 122.296 79.8511 122.572 79.8511 122.884C79.8511 123.196 79.9311 123.472 80.0911 123.712C80.2511 123.944 80.4671 124.128 80.7391 124.264C81.0191 124.4 81.3351 124.468 81.6871 124.468C82.0391 124.468 82.3511 124.4 82.6231 124.264C82.9031 124.128 83.1231 123.944 83.2831 123.712C83.4431 123.472 83.5231 123.196 83.5231 122.884C83.5231 122.572 83.4431 122.296 83.2831 122.056C83.1231 121.816 82.9031 121.632 82.6231 121.504C82.3511 121.368 82.0391 121.3 81.6871 121.3ZM86.5351 120.076H87.5311V125.632H86.5351V120.076ZM80.5111 126.172H87.5311V128.8H81.5071V130.432H80.5471V128.056H86.5471V126.964H80.5111V126.172ZM80.5471 129.988H87.9031V130.792H80.5471V129.988ZM94.5741 120.268C95.7741 120.268 96.7101 120.432 97.3821 120.76C98.0541 121.08 98.3901 121.54 98.3901 122.14C98.3901 122.748 98.0541 123.216 97.3821 123.544C96.7101 123.864 95.7741 124.024 94.5741 124.024C93.3821 124.024 92.4461 123.864 91.7661 123.544C91.0941 123.216 90.7581 122.748 90.7581 122.14C90.7581 121.54 91.0941 121.08 91.7661 120.76C92.4461 120.432 93.3821 120.268 94.5741 120.268ZM94.5741 121.012C93.9901 121.012 93.4901 121.056 93.0741 121.144C92.6581 121.232 92.3381 121.36 92.1141 121.528C91.8981 121.696 91.7901 121.9 91.7901 122.14C91.7901 122.38 91.8981 122.588 92.1141 122.764C92.3381 122.932 92.6581 123.06 93.0741 123.148C93.4901 123.228 93.9901 123.268 94.5741 123.268C95.1661 123.268 95.6701 123.228 96.0861 123.148C96.5021 123.06 96.8181 122.932 97.0341 122.764C97.2581 122.588 97.3701 122.38 97.3701 122.14C97.3701 121.9 97.2581 121.696 97.0341 121.528C96.8181 121.36 96.5021 121.232 96.0861 121.144C95.6701 121.056 95.1661 121.012 94.5741 121.012ZM89.6781 124.756H99.4821V125.56H89.6781V124.756ZM90.8661 126.484H98.2221V128.932H91.8621V130.24H90.8901V128.2H97.2501V127.252H90.8661V126.484ZM90.8901 130.036H98.5461V130.816H90.8901V130.036ZM111.976 120.076H112.972V130.948H111.976V120.076ZM107.248 120.916C107.784 120.916 108.256 121.072 108.664 121.384C109.08 121.688 109.404 122.124 109.636 122.692C109.876 123.26 109.996 123.928 109.996 124.696C109.996 125.464 109.876 126.132 109.636 126.7C109.404 127.268 109.08 127.708 108.664 128.02C108.256 128.332 107.784 128.488 107.248 128.488C106.712 128.488 106.236 128.332 105.82 128.02C105.404 127.708 105.076 127.268 104.836 126.7C104.604 126.132 104.488 125.464 104.488 124.696C104.488 123.928 104.604 123.26 104.836 122.692C105.076 122.124 105.404 121.688 105.82 121.384C106.236 121.072 106.712 120.916 107.248 120.916ZM107.248 121.804C106.888 121.804 106.572 121.924 106.3 122.164C106.036 122.396 105.828 122.732 105.676 123.172C105.524 123.604 105.448 124.112 105.448 124.696C105.448 125.28 105.524 125.792 105.676 126.232C105.828 126.664 106.036 127 106.3 127.24C106.572 127.48 106.888 127.6 107.248 127.6C107.6 127.6 107.908 127.48 108.172 127.24C108.444 127 108.656 126.664 108.808 126.232C108.96 125.792 109.036 125.28 109.036 124.696C109.036 124.112 108.96 123.604 108.808 123.172C108.656 122.732 108.444 122.396 108.172 122.164C107.908 121.924 107.6 121.804 107.248 121.804ZM116.295 120.604H123.279V121.396H116.295V120.604ZM115.143 125.164H124.923V125.968H115.143V125.164ZM119.163 122.98H120.147V125.296H119.163V122.98ZM122.703 120.604H123.687V121.372C123.687 121.78 123.675 122.232 123.651 122.728C123.627 123.216 123.547 123.78 123.411 124.42L122.427 124.312C122.571 123.68 122.651 123.132 122.667 122.668C122.691 122.196 122.703 121.764 122.703 121.372V120.604ZM119.487 126.832H120.351V127.312C120.351 127.792 120.239 128.232 120.015 128.632C119.799 129.024 119.499 129.376 119.115 129.688C118.731 129.992 118.291 130.244 117.795 130.444C117.299 130.652 116.771 130.8 116.211 130.888L115.839 130.108C116.335 130.036 116.803 129.92 117.243 129.76C117.683 129.592 118.071 129.384 118.407 129.136C118.743 128.888 119.007 128.612 119.199 128.308C119.391 127.996 119.487 127.664 119.487 127.312V126.832ZM119.631 126.832H120.495V127.312C120.495 127.664 120.591 127.996 120.783 128.308C120.975 128.612 121.239 128.888 121.575 129.136C121.919 129.384 122.311 129.592 122.751 129.76C123.191 129.92 123.659 130.036 124.155 130.108L123.771 130.888C123.211 130.8 122.683 130.652 122.187 130.444C121.691 130.244 121.251 129.992 120.867 129.688C120.483 129.376 120.179 129.024 119.955 128.632C119.739 128.232 119.631 127.792 119.631 127.312V126.832ZM130.574 124.3H132.614V125.116H130.574V124.3ZM134.438 120.076H135.398V130.936H134.438V120.076ZM132.278 120.304H133.226V130.384H132.278V120.304ZM128.606 120.988C129.078 120.988 129.486 121.14 129.83 121.444C130.182 121.748 130.454 122.184 130.646 122.752C130.838 123.32 130.934 123.988 130.934 124.756C130.934 125.532 130.838 126.204 130.646 126.772C130.454 127.34 130.182 127.78 129.83 128.092C129.486 128.396 129.078 128.548 128.606 128.548C128.15 128.548 127.746 128.396 127.394 128.092C127.05 127.78 126.782 127.34 126.59 126.772C126.398 126.204 126.302 125.532 126.302 124.756C126.302 123.988 126.398 123.32 126.59 122.752C126.782 122.184 127.05 121.748 127.394 121.444C127.746 121.14 128.15 120.988 128.606 120.988ZM128.606 121.912C128.326 121.912 128.082 122.028 127.874 122.26C127.666 122.492 127.506 122.82 127.394 123.244C127.282 123.668 127.226 124.172 127.226 124.756C127.226 125.34 127.282 125.848 127.394 126.28C127.506 126.704 127.666 127.032 127.874 127.264C128.082 127.496 128.326 127.612 128.606 127.612C128.894 127.612 129.142 127.496 129.35 127.264C129.566 127.032 129.73 126.704 129.842 126.28C129.954 125.848 130.01 125.34 130.01 124.756C130.01 124.172 129.954 123.668 129.842 123.244C129.73 122.82 129.566 122.492 129.35 122.26C129.142 122.028 128.894 121.912 128.606 121.912ZM141.832 125.284H149.284V126.1H141.832V125.284ZM140.584 128.632H150.424V129.46H140.584V128.632ZM141.832 121.084H149.176V121.9H142.816V125.644H141.832V121.084ZM151.983 127.504H152.691C153.355 127.504 154.003 127.488 154.635 127.456C155.267 127.416 155.947 127.336 156.675 127.216L156.771 128.032C156.019 128.168 155.319 128.256 154.671 128.296C154.031 128.328 153.371 128.344 152.691 128.344H151.983V127.504ZM151.959 121.252H156.015V125.068H152.943V127.816H151.983V124.252H155.055V122.08H151.959V121.252ZM159.879 120.076H160.827V130.936H159.879V120.076ZM158.043 124.36H160.131V125.176H158.043V124.36ZM157.419 120.316H158.343V130.372H157.419V120.316ZM163.731 121.228H170.715V122.044H163.731V121.228ZM162.663 128.524H172.467V129.352H162.663V128.524ZM170.175 121.228H171.159V122.32C171.159 122.776 171.151 123.264 171.135 123.784C171.127 124.296 171.095 124.864 171.039 125.488C170.983 126.112 170.887 126.816 170.751 127.6L169.743 127.492C169.887 126.756 169.987 126.08 170.043 125.464C170.107 124.848 170.143 124.28 170.151 123.76C170.167 123.24 170.175 122.76 170.175 122.32V121.228ZM181.058 120.076H182.042V130.936H181.058V120.076ZM181.814 124.54H183.818V125.38H181.814V124.54ZM173.642 121.816H180.038V122.632H173.642V121.816ZM176.894 123.52C177.406 123.52 177.858 123.628 178.25 123.844C178.65 124.06 178.962 124.356 179.186 124.732C179.418 125.1 179.534 125.528 179.534 126.016C179.534 126.504 179.418 126.936 179.186 127.312C178.962 127.688 178.65 127.984 178.25 128.2C177.858 128.408 177.406 128.512 176.894 128.512C176.382 128.512 175.926 128.408 175.526 128.2C175.134 127.984 174.822 127.688 174.59 127.312C174.358 126.936 174.242 126.504 174.242 126.016C174.242 125.528 174.358 125.1 174.59 124.732C174.822 124.356 175.134 124.06 175.526 123.844C175.926 123.628 176.382 123.52 176.894 123.52ZM176.894 124.348C176.566 124.348 176.274 124.42 176.018 124.564C175.762 124.708 175.558 124.904 175.406 125.152C175.262 125.4 175.19 125.688 175.19 126.016C175.19 126.344 175.262 126.636 175.406 126.892C175.558 127.14 175.762 127.336 176.018 127.48C176.274 127.616 176.566 127.684 176.894 127.684C177.214 127.684 177.502 127.616 177.758 127.48C178.014 127.336 178.214 127.14 178.358 126.892C178.51 126.636 178.586 126.344 178.586 126.016C178.586 125.688 178.51 125.4 178.358 125.152C178.214 124.904 178.014 124.708 177.758 124.564C177.502 124.42 177.214 124.348 176.894 124.348ZM176.378 120.208H177.374V122.176H176.378V120.208ZM192.673 120.076H193.657V130.936H192.673V120.076ZM190.141 124.432H193.117V125.26H190.141V124.432ZM189.193 121.252H190.165C190.165 122.02 190.077 122.768 189.901 123.496C189.733 124.216 189.457 124.9 189.073 125.548C188.697 126.196 188.197 126.8 187.573 127.36C186.949 127.92 186.185 128.424 185.281 128.872L184.729 128.092C185.521 127.708 186.197 127.276 186.757 126.796C187.325 126.316 187.789 125.796 188.149 125.236C188.509 124.668 188.773 124.068 188.941 123.436C189.109 122.796 189.193 122.12 189.193 121.408V121.252ZM185.209 121.252H189.709V122.056H185.209V121.252ZM203.856 124.408H205.848V125.236H203.856V124.408ZM203.124 120.076H204.12V130.924H203.124V120.076ZM196.212 121.144H197.196V127.864H196.212V121.144ZM196.212 127.348H197.076C197.868 127.348 198.68 127.312 199.512 127.24C200.352 127.168 201.22 127.04 202.116 126.856L202.236 127.696C201.308 127.88 200.42 128.008 199.572 128.08C198.732 128.144 197.9 128.176 197.076 128.176H196.212V127.348ZM211.442 120.592H218.426V121.396H211.442V120.592ZM217.778 120.592H218.762V121.42C218.762 121.876 218.746 122.38 218.714 122.932C218.69 123.476 218.598 124.108 218.438 124.828L217.466 124.72C217.626 124.016 217.718 123.404 217.742 122.884C217.766 122.356 217.778 121.868 217.778 121.42V120.592ZM218.066 122.416V123.124L211.31 123.424L211.178 122.632L218.066 122.416ZM210.206 124.516H219.986V125.32H210.206V124.516ZM211.346 126.34H218.834V128.872H212.354V130.336H211.37V128.128H217.85V127.12H211.346V126.34ZM211.37 130H219.218V130.792H211.37V130ZM229.129 120.088H230.125V126.712H229.129V120.088ZM222.877 127.3H230.125V130.936H229.129V128.128H222.877V127.3ZM221.797 125.284H222.673C223.329 125.284 223.937 125.276 224.497 125.26C225.065 125.244 225.617 125.212 226.153 125.164C226.689 125.108 227.245 125.036 227.821 124.948L227.941 125.764C227.341 125.86 226.765 125.932 226.213 125.98C225.669 126.028 225.109 126.064 224.533 126.088C223.965 126.104 223.345 126.112 222.673 126.112H221.797V125.284ZM221.773 120.724H226.693V123.736H222.769V125.692H221.797V122.956H225.721V121.54H221.773V120.724ZM239.628 120.076H240.612V130.936H239.628V120.076ZM240.384 124.54H242.388V125.38H240.384V124.54ZM232.212 121.816H238.608V122.632H232.212V121.816ZM235.464 123.52C235.976 123.52 236.428 123.628 236.82 123.844C237.22 124.06 237.532 124.356 237.756 124.732C237.988 125.1 238.104 125.528 238.104 126.016C238.104 126.504 237.988 126.936 237.756 127.312C237.532 127.688 237.22 127.984 236.82 128.2C236.428 128.408 235.976 128.512 235.464 128.512C234.952 128.512 234.496 128.408 234.096 128.2C233.704 127.984 233.392 127.688 233.16 127.312C232.928 126.936 232.812 126.504 232.812 126.016C232.812 125.528 232.928 125.1 233.16 124.732C233.392 124.356 233.704 124.06 234.096 123.844C234.496 123.628 234.952 123.52 235.464 123.52ZM235.464 124.348C235.136 124.348 234.844 124.42 234.588 124.564C234.332 124.708 234.128 124.904 233.976 125.152C233.832 125.4 233.76 125.688 233.76 126.016C233.76 126.344 233.832 126.636 233.976 126.892C234.128 127.14 234.332 127.336 234.588 127.48C234.844 127.616 235.136 127.684 235.464 127.684C235.784 127.684 236.072 127.616 236.328 127.48C236.584 127.336 236.784 127.14 236.928 126.892C237.08 126.636 237.156 126.344 237.156 126.016C237.156 125.688 237.08 125.4 236.928 125.152C236.784 124.904 236.584 124.708 236.328 124.564C236.072 124.42 235.784 124.348 235.464 124.348ZM234.948 120.208H235.944V122.176H234.948V120.208ZM248.195 122.5H251.483V123.316H248.195V122.5ZM248.195 125.932H251.483V126.748H248.195V125.932ZM246.203 120.916C246.731 120.916 247.199 121.072 247.607 121.384C248.015 121.688 248.331 122.124 248.555 122.692C248.787 123.26 248.903 123.928 248.903 124.696C248.903 125.464 248.787 126.132 248.555 126.7C248.331 127.268 248.015 127.708 247.607 128.02C247.199 128.332 246.731 128.488 246.203 128.488C245.683 128.488 245.215 128.332 244.799 128.02C244.391 127.708 244.071 127.268 243.839 126.7C243.615 126.132 243.503 125.464 243.503 124.696C243.503 123.928 243.615 123.26 243.839 122.692C244.071 122.124 244.391 121.688 244.799 121.384C245.215 121.072 245.683 120.916 246.203 120.916ZM246.203 121.804C245.859 121.804 245.555 121.924 245.291 122.164C245.027 122.396 244.819 122.732 244.667 123.172C244.523 123.604 244.451 124.112 244.451 124.696C244.451 125.28 244.523 125.792 244.667 126.232C244.819 126.664 245.027 127 245.291 127.24C245.555 127.48 245.859 127.6 246.203 127.6C246.555 127.6 246.863 127.48 247.127 127.24C247.391 127 247.595 126.664 247.739 126.232C247.891 125.792 247.967 125.28 247.967 124.696C247.967 124.112 247.891 123.604 247.739 123.172C247.595 122.732 247.391 122.396 247.127 122.164C246.863 121.924 246.555 121.804 246.203 121.804ZM251.255 120.076H252.239V130.948H251.255V120.076ZM263.293 122.632H266.017V123.46H263.293V122.632ZM260.449 120.736H261.253V122.068C261.253 122.764 261.129 123.416 260.881 124.024C260.633 124.632 260.285 125.164 259.837 125.62C259.389 126.068 258.865 126.412 258.265 126.652L257.737 125.86C258.145 125.708 258.513 125.504 258.841 125.248C259.177 124.992 259.461 124.696 259.693 124.36C259.933 124.024 260.117 123.664 260.245 123.28C260.381 122.888 260.449 122.484 260.449 122.068V120.736ZM260.629 120.736H261.433V122.104C261.433 122.48 261.497 122.848 261.625 123.208C261.753 123.568 261.933 123.904 262.165 124.216C262.397 124.528 262.673 124.804 262.993 125.044C263.321 125.284 263.681 125.476 264.073 125.62L263.533 126.4C262.957 126.168 262.449 125.84 262.009 125.416C261.577 124.992 261.237 124.496 260.989 123.928C260.749 123.36 260.629 122.752 260.629 122.104V120.736ZM265.657 120.088H266.653V128.2H265.657V120.088ZM259.681 129.88H266.905V130.696H259.681V129.88ZM259.681 127.3H260.677V130.252H259.681V127.3ZM269.232 125.272H269.916C270.492 125.272 270.996 125.268 271.428 125.26C271.868 125.244 272.28 125.216 272.664 125.176C273.048 125.128 273.44 125.064 273.84 124.984L273.948 125.8C273.532 125.88 273.124 125.944 272.724 125.992C272.332 126.032 271.912 126.06 271.464 126.076C271.016 126.092 270.5 126.1 269.916 126.1H269.232V125.272ZM269.232 120.868H273.42V121.684H270.192V125.716H269.232V120.868ZM269.892 123.028H273.3V123.808H269.892V123.028ZM276.96 120.088H277.908V126.664H276.96V120.088ZM275.208 122.908H277.248V123.724H275.208V122.908ZM274.56 120.292H275.496V126.592H274.56V120.292ZM270.636 127.228H277.908V130.936H276.924V128.044H270.636V127.228ZM287.159 120.076H288.143V130.936H287.159V120.076ZM287.915 124.54H289.919V125.38H287.915V124.54ZM279.743 121.816H286.139V122.632H279.743V121.816ZM282.995 123.52C283.507 123.52 283.959 123.628 284.351 123.844C284.751 124.06 285.063 124.356 285.287 124.732C285.519 125.1 285.635 125.528 285.635 126.016C285.635 126.504 285.519 126.936 285.287 127.312C285.063 127.688 284.751 127.984 284.351 128.2C283.959 128.408 283.507 128.512 282.995 128.512C282.483 128.512 282.027 128.408 281.627 128.2C281.235 127.984 280.923 127.688 280.691 127.312C280.459 126.936 280.343 126.504 280.343 126.016C280.343 125.528 280.459 125.1 280.691 124.732C280.923 124.356 281.235 124.06 281.627 123.844C282.027 123.628 282.483 123.52 282.995 123.52ZM282.995 124.348C282.667 124.348 282.375 124.42 282.119 124.564C281.863 124.708 281.659 124.904 281.507 125.152C281.363 125.4 281.291 125.688 281.291 126.016C281.291 126.344 281.363 126.636 281.507 126.892C281.659 127.14 281.863 127.336 282.119 127.48C282.375 127.616 282.667 127.684 282.995 127.684C283.315 127.684 283.603 127.616 283.859 127.48C284.115 127.336 284.315 127.14 284.459 126.892C284.611 126.636 284.687 126.344 284.687 126.016C284.687 125.688 284.611 125.4 284.459 125.152C284.315 124.904 284.115 124.708 283.859 124.564C283.603 124.42 283.315 124.348 282.995 124.348ZM282.479 120.208H283.475V122.176H282.479V120.208ZM295.114 123.964H297.202V124.792H295.114V123.964ZM293.098 121.096H293.878V123.172C293.878 123.732 293.818 124.284 293.698 124.828C293.586 125.372 293.418 125.884 293.194 126.364C292.978 126.844 292.714 127.276 292.402 127.66C292.09 128.044 291.738 128.356 291.346 128.596L290.722 127.852C291.09 127.628 291.422 127.348 291.718 127.012C292.014 126.676 292.262 126.3 292.462 125.884C292.67 125.46 292.826 125.02 292.93 124.564C293.042 124.1 293.098 123.636 293.098 123.172V121.096ZM293.29 121.096H294.058V123.136C294.058 123.568 294.106 124.004 294.202 124.444C294.306 124.876 294.45 125.292 294.634 125.692C294.826 126.084 295.062 126.444 295.342 126.772C295.622 127.1 295.938 127.372 296.29 127.588L295.726 128.356C295.334 128.116 294.986 127.812 294.682 127.444C294.378 127.068 294.122 126.648 293.914 126.184C293.706 125.712 293.55 125.216 293.446 124.696C293.342 124.176 293.29 123.656 293.29 123.136V121.096ZM299.11 120.076H300.07V130.936H299.11V120.076ZM296.902 120.304H297.838V130.384H296.902V120.304ZM304.293 125.668H305.277V128.908H304.293V125.668ZM308.301 125.668H309.297V128.908H308.301V125.668ZM301.881 128.716H311.721V129.544H301.881V128.716ZM306.777 120.76C307.545 120.76 308.225 120.876 308.817 121.108C309.409 121.34 309.873 121.664 310.209 122.08C310.553 122.496 310.725 122.988 310.725 123.556C310.725 124.116 310.553 124.608 310.209 125.032C309.873 125.448 309.409 125.772 308.817 126.004C308.225 126.228 307.545 126.34 306.777 126.34C306.017 126.34 305.337 126.228 304.737 126.004C304.145 125.772 303.681 125.448 303.345 125.032C303.009 124.608 302.841 124.116 302.841 123.556C302.841 122.988 303.009 122.496 303.345 122.08C303.681 121.664 304.145 121.34 304.737 121.108C305.337 120.876 306.017 120.76 306.777 120.76ZM306.777 121.552C306.201 121.552 305.689 121.636 305.241 121.804C304.793 121.972 304.441 122.208 304.185 122.512C303.929 122.808 303.801 123.156 303.801 123.556C303.801 123.956 303.929 124.308 304.185 124.612C304.441 124.908 304.793 125.14 305.241 125.308C305.689 125.476 306.201 125.56 306.777 125.56C307.361 125.56 307.877 125.476 308.325 125.308C308.773 125.14 309.125 124.908 309.381 124.612C309.637 124.308 309.765 123.956 309.765 123.556C309.765 123.156 309.637 122.808 309.381 122.512C309.125 122.208 308.773 121.972 308.325 121.804C307.877 121.636 307.361 121.552 306.777 121.552Z" fill="#9AABBE"/>
<path d="M209.594 131.8H231.672V132.4H209.594V131.8Z" fill="#9AABBE"/>
</svg>
