<svg width="380" height="250" viewBox="0 0 380 250" fill="none" xmlns="http://www.w3.org/2000/svg">
<rect width="380" height="250" fill="white"/>
<path d="M232.063 100.674C231.394 102.257 230.346 103.653 229.013 104.738C227.679 105.824 226.1 106.566 224.413 106.9C222.727 107.234 220.984 107.15 219.337 106.654C217.691 106.159 216.19 105.268 214.968 104.06C213.745 102.851 212.837 101.361 212.323 99.7199C211.809 98.0791 211.705 96.3373 212.02 94.6469C212.334 92.9566 213.059 91.369 214.129 90.0231C215.199 88.6772 216.582 87.614 218.158 86.9263" stroke="#121F48" stroke-width="1.5" stroke-linecap="round" stroke-linejoin="round"/>
<path d="M232.894 96.5788C232.894 95.1965 232.621 93.8277 232.092 92.5506C231.563 91.2734 230.788 90.113 229.81 89.1356C228.833 88.1581 227.673 87.3828 226.395 86.8538C225.118 86.3248 223.75 86.0525 222.367 86.0525V96.5788H232.894Z" stroke="#121F48" stroke-width="1.5" stroke-linecap="round" stroke-linejoin="round"/>
<path d="M161.842 106.053V103.947C161.842 102.831 161.399 101.76 160.609 100.97C159.819 100.18 158.748 99.7368 157.632 99.7368H151.316C150.199 99.7368 149.128 100.18 148.339 100.97C147.549 101.76 147.105 102.831 147.105 103.947V106.053" stroke="#121F48" stroke-width="1.5" stroke-linecap="round" stroke-linejoin="round"/>
<path d="M154.474 95.5263C156.8 95.5263 158.685 93.6412 158.685 91.3158C158.685 88.9903 156.8 87.1052 154.474 87.1052C152.149 87.1052 150.264 88.9903 150.264 91.3158C150.264 93.6412 152.149 95.5263 154.474 95.5263Z" stroke="#121F48" stroke-width="1.5" stroke-linecap="round" stroke-linejoin="round"/>
<path d="M161.842 95.5262L163.947 97.6314L168.158 93.4209" stroke="#121F48" stroke-width="1.5" stroke-linecap="round" stroke-linejoin="round"/>
<path d="M149.736 158.158C148.157 159.484 147.631 163.421 147.631 163.421C147.631 163.421 151.568 162.895 152.894 161.316C153.641 160.432 153.631 159.074 152.799 158.253C152.39 157.862 151.851 157.637 151.286 157.619C150.721 157.602 150.169 157.793 149.736 158.158Z" stroke="#121F48" stroke-width="1.5" stroke-linecap="round" stroke-linejoin="round"/>
<path d="M157.633 156.579L154.475 153.421C155.035 151.968 155.74 150.575 156.58 149.263C157.806 147.302 159.514 145.687 161.541 144.573C163.568 143.458 165.846 142.88 168.159 142.895C168.159 145.758 167.338 150.79 161.843 154.474C160.513 155.315 159.103 156.02 157.633 156.579Z" stroke="#121F48" stroke-width="1.5" stroke-linecap="round" stroke-linejoin="round"/>
<path d="M154.474 153.421H149.211C149.211 153.421 149.79 150.232 151.316 149.211C153.021 148.074 156.579 149.211 156.579 149.211" stroke="#121F48" stroke-width="1.5" stroke-linecap="round" stroke-linejoin="round"/>
<path d="M157.631 156.579V161.842C157.631 161.842 160.82 161.263 161.841 159.737C162.978 158.032 161.841 154.474 161.841 154.474" stroke="#121F48" stroke-width="1.5" stroke-linecap="round" stroke-linejoin="round"/>
<path d="M217.105 151.316V163.947" stroke="#121F48" stroke-width="1.5" stroke-linecap="round" stroke-linejoin="round"/>
<path d="M225.526 146.979L224.473 151.316H230.61C230.937 151.316 231.259 151.392 231.552 151.538C231.844 151.684 232.098 151.896 232.294 152.158C232.491 152.419 232.623 152.723 232.682 153.044C232.74 153.366 232.723 153.697 232.631 154.011L230.179 162.432C230.051 162.869 229.785 163.253 229.421 163.526C229.056 163.8 228.613 163.947 228.158 163.947H213.947C213.389 163.947 212.853 163.726 212.458 163.331C212.064 162.936 211.842 162.4 211.842 161.842V153.421C211.842 152.863 212.064 152.327 212.458 151.932C212.853 151.538 213.389 151.316 213.947 151.316H216.852C217.244 151.316 217.628 151.206 217.961 151C218.294 150.793 218.562 150.498 218.737 150.147L222.368 142.895C222.865 142.901 223.353 143.019 223.797 143.241C224.242 143.462 224.63 143.781 224.934 144.174C225.237 144.567 225.448 145.023 225.551 145.509C225.654 145.994 225.645 146.497 225.526 146.979Z" stroke="#121F48" stroke-width="1.5" stroke-linecap="round" stroke-linejoin="round"/>
</svg>
