<svg width="380" height="250" viewBox="0 0 380 250" fill="none" xmlns="http://www.w3.org/2000/svg">
<rect width="380" height="250" fill="white"/>
<path d="M128.135 121.102V131H126.617V122.605H126.562L124.197 124.15V122.715L126.658 121.102H128.135Z" fill="#121F48"/>
<path fill-rule="evenodd" clip-rule="evenodd" d="M72.2068 121.293C72.3943 121.48 72.4996 121.735 72.4996 122C72.4996 122.265 72.3943 122.519 72.2068 122.707L68.9138 126L72.2068 129.293C72.3889 129.481 72.4897 129.734 72.4875 129.996C72.4852 130.258 72.38 130.509 72.1946 130.695C72.0092 130.88 71.7584 130.985 71.4962 130.987C71.234 130.99 70.9814 130.889 70.7928 130.707L66.7928 126.707C66.6053 126.519 66.5 126.265 66.5 126C66.5 125.735 66.6053 125.48 66.7928 125.293L70.7928 121.293C70.9803 121.105 71.2346 121 71.4998 121C71.765 121 72.0193 121.105 72.2068 121.293Z" fill="#121F48"/>
<path d="M91.0957 119.912V132.189H89.7969V119.912H91.0957ZM84.5469 120.828C86.3652 120.828 87.7051 122.496 87.7051 125.121C87.7051 127.76 86.3652 129.428 84.5469 129.428C82.7012 129.428 81.375 127.76 81.375 125.121C81.375 122.496 82.7012 120.828 84.5469 120.828ZM84.5469 121.99C83.4121 121.99 82.6328 123.193 82.6328 125.121C82.6328 127.062 83.4121 128.266 84.5469 128.266C85.668 128.266 86.4473 127.062 86.4473 125.121C86.4473 123.193 85.668 121.99 84.5469 121.99ZM103.264 119.926V128.895H101.965V124.287H99.627V123.234H101.965V119.926H103.264ZM103.592 130.85V131.902H95.3066V128.088H96.6055V130.85H103.592ZM97.4395 122.4C97.4395 123.932 98.5469 125.463 100.393 126.078L99.7227 127.117C98.3486 126.632 97.3301 125.647 96.7969 124.438C96.2637 125.784 95.1904 126.871 93.7344 127.391L93.0645 126.338C94.9512 125.695 96.1133 124.082 96.1133 122.4V121.922H93.4609V120.855H100.064V121.922H97.4395V122.4Z" fill="#121F48"/>
<path d="M202.889 131.137C200.838 131.137 199.375 130.029 199.32 128.416H200.852C200.906 129.291 201.768 129.838 202.875 129.838C204.064 129.838 204.939 129.182 204.939 128.225C204.939 127.254 204.119 126.543 202.711 126.543H201.863V125.312H202.711C203.832 125.312 204.625 124.684 204.625 123.74C204.625 122.838 203.955 122.223 202.902 122.223C201.904 122.223 201.029 122.77 200.988 123.672H199.539C199.58 122.059 201.07 120.965 202.916 120.965C204.857 120.965 206.088 122.195 206.074 123.658C206.088 124.779 205.391 125.6 204.324 125.859V125.928C205.678 126.119 206.457 127.021 206.457 128.279C206.457 129.934 204.939 131.137 202.889 131.137Z" fill="#121F48"/>
<path d="M224.156 129.072V127.855L228.531 121.102H230.391V127.801H231.744V129.072H230.391V131H228.969V129.072H224.156ZM225.742 127.801H228.969V122.893H228.859L225.742 127.719V127.801Z" fill="#121F48"/>
<path d="M250.214 126.089C249.719 126.089 249.3 125.683 249.312 125.188C249.3 124.692 249.719 124.286 250.214 124.286C250.696 124.286 251.115 124.692 251.115 125.188C251.115 125.683 250.696 126.089 250.214 126.089ZM253.642 126.089C253.146 126.089 252.728 125.683 252.74 125.188C252.728 124.692 253.146 124.286 253.642 124.286C254.124 124.286 254.543 124.692 254.543 125.188C254.543 125.683 254.124 126.089 253.642 126.089ZM257.069 126.089C256.574 126.089 256.155 125.683 256.168 125.188C256.155 124.692 256.574 124.286 257.069 124.286C257.552 124.286 257.971 124.692 257.971 125.188C257.971 125.683 257.552 126.089 257.069 126.089Z" fill="#121F48"/>
<rect x="146.5" y="108" width="36" height="36" rx="6" fill="#121F48"/>
<path d="M160.375 131V129.906L163.807 126.447C164.887 125.312 165.434 124.684 165.434 123.822C165.434 122.852 164.641 122.223 163.602 122.223C162.508 122.223 161.797 122.92 161.797 123.973H160.375C160.361 122.168 161.742 120.965 163.629 120.965C165.543 120.965 166.855 122.168 166.869 123.781C166.855 124.889 166.336 125.764 164.477 127.596L162.467 129.633V129.715H167.033V131H160.375Z" fill="white"/>
<path d="M285.494 119.912V124.656H287.463V125.723H285.494V132.189H284.195V119.912H285.494ZM282.199 121.088V122.141H277.77V128.061C279.827 128.054 281.372 127.965 283.115 127.65L283.279 128.744C281.365 129.086 279.738 129.154 277.455 129.141H276.471V121.088H282.199ZM293.629 120.172C296.322 120.172 298.004 121.047 298.004 122.523C298.004 123.973 296.322 124.834 293.629 124.834C290.949 124.834 289.254 123.973 289.254 122.523C289.254 121.047 290.949 120.172 293.629 120.172ZM293.629 121.197C291.742 121.197 290.58 121.676 290.594 122.523C290.58 123.344 291.742 123.809 293.629 123.822C295.502 123.809 296.664 123.344 296.664 122.523C296.664 121.676 295.502 121.197 293.629 121.197ZM297.854 127.924V132.012H289.391V127.924H297.854ZM290.676 128.963V130.959H296.596V128.963H290.676ZM299.221 125.777V126.83H288.051V125.777H299.221Z" fill="#121F48"/>
<path fill-rule="evenodd" clip-rule="evenodd" d="M307.793 130.707C307.605 130.519 307.5 130.265 307.5 130C307.5 129.735 307.605 129.48 307.793 129.293L311.086 126L307.793 122.707C307.611 122.518 307.51 122.266 307.512 122.004C307.514 121.741 307.62 121.491 307.805 121.305C307.99 121.12 308.241 121.015 308.503 121.012C308.766 121.01 309.018 121.111 309.207 121.293L313.207 125.293C313.394 125.48 313.5 125.735 313.5 126C313.5 126.265 313.394 126.519 313.207 126.707L309.207 130.707C309.019 130.894 308.765 131 308.5 131C308.235 131 307.98 130.894 307.793 130.707Z" fill="#121F48"/>
</svg>
