<svg width="380" height="250" viewBox="0 0 380 250" fill="none" xmlns="http://www.w3.org/2000/svg">
<rect width="380" height="250" fill="white"/>
<rect x="161" y="79" width="58" height="40" rx="6" fill="#121F48"/>
<path d="M179.156 93.024H187.304V93.962H179.156V93.024ZM186.548 93.024H187.696V93.99C187.696 94.522 187.677 95.11 187.64 95.754C187.612 96.3887 187.505 97.126 187.318 97.966L186.184 97.84C186.371 97.0187 186.478 96.3047 186.506 95.698C186.534 95.082 186.548 94.5127 186.548 93.99V93.024ZM186.884 95.152V95.978L179.002 96.328L178.848 95.404L186.884 95.152ZM177.714 97.602H189.124V98.54H177.714V97.602ZM179.044 99.73H187.78V102.684H180.22V104.392H179.072V101.816H186.632V100.64H179.044V99.73ZM179.072 104H188.228V104.924H179.072V104ZM199.791 92.436H200.953V100.164H199.791V92.436ZM192.497 100.85H200.953V105.092H199.791V101.816H192.497V100.85ZM191.237 98.498H192.259C193.024 98.498 193.734 98.4887 194.387 98.47C195.05 98.4513 195.694 98.414 196.319 98.358C196.944 98.2927 197.593 98.2087 198.265 98.106L198.405 99.058C197.705 99.17 197.033 99.254 196.389 99.31C195.754 99.366 195.101 99.408 194.429 99.436C193.766 99.4547 193.043 99.464 192.259 99.464H191.237V98.498ZM191.209 93.178H196.949V96.692H192.371V98.974H191.237V95.782H195.815V94.13H191.209V93.178Z" fill="white"/>
<g filter="url(#filter0_d_535_4286)">
<rect x="54" y="123" width="272" height="49" rx="6" fill="white" shape-rendering="crispEdges"/>
<rect x="54.5" y="123.5" width="271" height="48" rx="5.5" stroke="#E2E8F0" shape-rendering="crispEdges"/>
</g>
<path d="M71.1186 152V141.818H74.7479C75.54 141.818 76.1963 141.962 76.7166 142.251C77.237 142.539 77.6264 142.933 77.8849 143.434C78.1435 143.931 78.2727 144.491 78.2727 145.114C78.2727 145.741 78.1418 146.304 77.88 146.805C77.6214 147.302 77.2304 147.696 76.7067 147.988C76.1863 148.276 75.5317 148.42 74.7429 148.42H72.2472V147.118H74.6037C75.1042 147.118 75.5102 147.032 75.8217 146.859C76.1333 146.684 76.362 146.445 76.5078 146.143C76.6536 145.842 76.7266 145.499 76.7266 145.114C76.7266 144.73 76.6536 144.388 76.5078 144.09C76.362 143.792 76.1316 143.558 75.8168 143.389C75.5052 143.22 75.0942 143.136 74.5838 143.136H72.6548V152H71.1186ZM81.4409 141.818V152H79.9544V141.818H81.4409ZM85.663 152.169C85.1791 152.169 84.7416 152.08 84.3505 151.901C83.9594 151.718 83.6495 151.455 83.4208 151.11C83.1954 150.765 83.0827 150.343 83.0827 149.842C83.0827 149.411 83.1656 149.057 83.3313 148.778C83.497 148.5 83.7208 148.28 84.0025 148.117C84.2842 147.955 84.5991 147.832 84.9471 147.749C85.2951 147.666 85.6497 147.603 86.011 147.56C86.4684 147.507 86.8396 147.464 87.1246 147.431C87.4097 147.395 87.6168 147.337 87.7461 147.257C87.8754 147.178 87.94 147.048 87.94 146.869V146.835C87.94 146.4 87.8174 146.064 87.5721 145.825C87.3301 145.587 86.9689 145.467 86.4883 145.467C85.9878 145.467 85.5934 145.578 85.305 145.8C85.02 146.019 84.8228 146.263 84.7134 146.531L83.3164 146.213C83.4821 145.749 83.7241 145.375 84.0423 145.089C84.3638 144.801 84.7333 144.592 85.1509 144.463C85.5685 144.33 86.0077 144.264 86.4684 144.264C86.7733 144.264 87.0965 144.301 87.4379 144.374C87.7826 144.443 88.104 144.572 88.4023 144.761C88.704 144.95 88.9509 145.22 89.1431 145.572C89.3353 145.92 89.4315 146.372 89.4315 146.929V152H87.9798V150.956H87.9201C87.824 151.148 87.6798 151.337 87.4876 151.523C87.2953 151.708 87.0484 151.862 86.7468 151.985C86.4452 152.108 86.0839 152.169 85.663 152.169ZM85.9862 150.976C86.3971 150.976 86.7485 150.895 87.0401 150.732C87.3351 150.57 87.5588 150.358 87.7113 150.096C87.8671 149.831 87.945 149.547 87.945 149.246V148.261C87.8919 148.314 87.7892 148.364 87.6367 148.411C87.4876 148.454 87.3169 148.492 87.1246 148.525C86.9324 148.555 86.7451 148.583 86.5629 148.609C86.3806 148.633 86.2281 148.652 86.1055 148.669C85.8171 148.705 85.5536 148.767 85.315 148.853C85.0797 148.939 84.8907 149.063 84.7482 149.226C84.609 149.385 84.5394 149.597 84.5394 149.862C84.5394 150.23 84.6753 150.509 84.9471 150.697C85.2189 150.883 85.5652 150.976 85.9862 150.976ZM94.628 152.154C93.8889 152.154 93.2525 151.987 92.7189 151.652C92.1886 151.314 91.781 150.848 91.4959 150.255C91.2109 149.662 91.0684 148.982 91.0684 148.217C91.0684 147.441 91.2142 146.757 91.5059 146.163C91.7975 145.567 92.2085 145.101 92.7388 144.766C93.2691 144.432 93.8939 144.264 94.6131 144.264C95.1931 144.264 95.7102 144.372 96.1642 144.587C96.6183 144.799 96.9846 145.098 97.263 145.482C97.5447 145.867 97.7121 146.316 97.7651 146.83H96.3184C96.2388 146.472 96.0565 146.163 95.7715 145.905C95.4898 145.646 95.1119 145.517 94.638 145.517C94.2237 145.517 93.8607 145.626 93.5492 145.845C93.2409 146.061 93.0007 146.369 92.8283 146.77C92.656 147.168 92.5698 147.638 92.5698 148.182C92.5698 148.739 92.6543 149.219 92.8233 149.624C92.9924 150.028 93.231 150.341 93.5392 150.563C93.8508 150.785 94.217 150.896 94.638 150.896C94.9197 150.896 95.1749 150.845 95.4036 150.742C95.6356 150.636 95.8295 150.485 95.9853 150.29C96.1444 150.094 96.2554 149.859 96.3184 149.584H97.7651C97.7121 150.078 97.5513 150.518 97.2828 150.906C97.0144 151.294 96.6548 151.599 96.204 151.821C95.7566 152.043 95.2312 152.154 94.628 152.154ZM102.646 152.154C101.894 152.154 101.246 151.993 100.702 151.672C100.162 151.347 99.7442 150.891 99.4492 150.305C99.1576 149.715 99.0117 149.024 99.0117 148.232C99.0117 147.449 99.1576 146.76 99.4492 146.163C99.7442 145.567 100.155 145.101 100.682 144.766C101.212 144.432 101.832 144.264 102.542 144.264C102.972 144.264 103.39 144.335 103.794 144.478C104.199 144.621 104.562 144.844 104.883 145.149C105.205 145.454 105.458 145.85 105.644 146.337C105.829 146.821 105.922 147.41 105.922 148.102V148.629H99.8519V147.516H104.466C104.466 147.125 104.386 146.778 104.227 146.477C104.068 146.172 103.844 145.931 103.556 145.756C103.271 145.58 102.936 145.492 102.551 145.492C102.134 145.492 101.769 145.595 101.458 145.8C101.15 146.003 100.911 146.268 100.742 146.596C100.576 146.921 100.493 147.274 100.493 147.655V148.525C100.493 149.035 100.583 149.469 100.762 149.827C100.944 150.185 101.198 150.459 101.522 150.648C101.847 150.833 102.227 150.926 102.661 150.926C102.943 150.926 103.199 150.886 103.431 150.807C103.663 150.724 103.864 150.601 104.033 150.439C104.202 150.277 104.331 150.076 104.421 149.837L105.828 150.091C105.715 150.505 105.513 150.868 105.221 151.18C104.933 151.488 104.57 151.728 104.132 151.901C103.698 152.07 103.203 152.154 102.646 152.154ZM114.493 152.154C113.754 152.154 113.118 151.987 112.584 151.652C112.054 151.314 111.646 150.848 111.361 150.255C111.076 149.662 110.934 148.982 110.934 148.217C110.934 147.441 111.079 146.757 111.371 146.163C111.663 145.567 112.074 145.101 112.604 144.766C113.134 144.432 113.759 144.264 114.478 144.264C115.058 144.264 115.575 144.372 116.029 144.587C116.484 144.799 116.85 145.098 117.128 145.482C117.41 145.867 117.577 146.316 117.63 146.83H116.184C116.104 146.472 115.922 146.163 115.637 145.905C115.355 145.646 114.977 145.517 114.503 145.517C114.089 145.517 113.726 145.626 113.414 145.845C113.106 146.061 112.866 146.369 112.694 146.77C112.521 147.168 112.435 147.638 112.435 148.182C112.435 148.739 112.52 149.219 112.689 149.624C112.858 150.028 113.096 150.341 113.404 150.563C113.716 150.785 114.082 150.896 114.503 150.896C114.785 150.896 115.04 150.845 115.269 150.742C115.501 150.636 115.695 150.485 115.85 150.29C116.01 150.094 116.121 149.859 116.184 149.584H117.63C117.577 150.078 117.417 150.518 117.148 150.906C116.88 151.294 116.52 151.599 116.069 151.821C115.622 152.043 115.096 152.154 114.493 152.154ZM122.437 152.154C121.721 152.154 121.096 151.99 120.562 151.662C120.029 151.334 119.614 150.875 119.319 150.285C119.024 149.695 118.877 149.005 118.877 148.217C118.877 147.424 119.024 146.732 119.319 146.138C119.614 145.545 120.029 145.085 120.562 144.756C121.096 144.428 121.721 144.264 122.437 144.264C123.153 144.264 123.777 144.428 124.311 144.756C124.845 145.085 125.259 145.545 125.554 146.138C125.849 146.732 125.996 147.424 125.996 148.217C125.996 149.005 125.849 149.695 125.554 150.285C125.259 150.875 124.845 151.334 124.311 151.662C123.777 151.99 123.153 152.154 122.437 152.154ZM122.442 150.906C122.906 150.906 123.29 150.784 123.595 150.538C123.9 150.293 124.125 149.967 124.271 149.559C124.42 149.151 124.495 148.702 124.495 148.212C124.495 147.724 124.42 147.277 124.271 146.869C124.125 146.458 123.9 146.129 123.595 145.88C123.29 145.631 122.906 145.507 122.442 145.507C121.974 145.507 121.586 145.631 121.278 145.88C120.973 146.129 120.746 146.458 120.597 146.869C120.451 147.277 120.378 147.724 120.378 148.212C120.378 148.702 120.451 149.151 120.597 149.559C120.746 149.967 120.973 150.293 121.278 150.538C121.586 150.784 121.974 150.906 122.442 150.906ZM129.142 147.466V152H127.656V144.364H129.082V145.607H129.177C129.353 145.202 129.628 144.877 130.002 144.632C130.38 144.387 130.856 144.264 131.429 144.264C131.949 144.264 132.405 144.374 132.796 144.592C133.187 144.808 133.491 145.129 133.706 145.557C133.921 145.984 134.029 146.513 134.029 147.143V152H132.543V147.322C132.543 146.768 132.398 146.336 132.11 146.024C131.822 145.709 131.426 145.552 130.922 145.552C130.577 145.552 130.271 145.626 130.002 145.776C129.737 145.925 129.527 146.143 129.371 146.432C129.218 146.717 129.142 147.062 129.142 147.466ZM139.587 144.364V145.557H135.416V144.364H139.587ZM136.535 142.534H138.021V149.758C138.021 150.046 138.064 150.263 138.151 150.409C138.237 150.552 138.348 150.649 138.484 150.702C138.623 150.752 138.774 150.777 138.936 150.777C139.055 150.777 139.16 150.769 139.249 150.752C139.339 150.736 139.408 150.722 139.458 150.712L139.727 151.94C139.64 151.973 139.518 152.007 139.359 152.04C139.2 152.076 139.001 152.096 138.762 152.099C138.371 152.106 138.006 152.036 137.668 151.891C137.33 151.745 137.057 151.519 136.848 151.214C136.639 150.91 136.535 150.527 136.535 150.066V142.534ZM144.441 152.154C143.689 152.154 143.041 151.993 142.497 151.672C141.957 151.347 141.539 150.891 141.244 150.305C140.952 149.715 140.807 149.024 140.807 148.232C140.807 147.449 140.952 146.76 141.244 146.163C141.539 145.567 141.95 145.101 142.477 144.766C143.007 144.432 143.627 144.264 144.336 144.264C144.767 144.264 145.185 144.335 145.589 144.478C145.994 144.621 146.357 144.844 146.678 145.149C147 145.454 147.253 145.85 147.439 146.337C147.624 146.821 147.717 147.41 147.717 148.102V148.629H141.647V147.516H146.26C146.26 147.125 146.181 146.778 146.022 146.477C145.863 146.172 145.639 145.931 145.351 145.756C145.066 145.58 144.731 145.492 144.346 145.492C143.929 145.492 143.564 145.595 143.253 145.8C142.944 146.003 142.706 146.268 142.537 146.596C142.371 146.921 142.288 147.274 142.288 147.655V148.525C142.288 149.035 142.378 149.469 142.557 149.827C142.739 150.185 142.992 150.459 143.317 150.648C143.642 150.833 144.022 150.926 144.456 150.926C144.738 150.926 144.994 150.886 145.226 150.807C145.458 150.724 145.659 150.601 145.828 150.439C145.997 150.277 146.126 150.076 146.216 149.837L147.623 150.091C147.51 150.505 147.308 150.868 147.016 151.18C146.728 151.488 146.365 151.728 145.927 151.901C145.493 152.07 144.998 152.154 144.441 152.154ZM150.853 147.466V152H149.366V144.364H150.793V145.607H150.888C151.063 145.202 151.339 144.877 151.713 144.632C152.091 144.387 152.567 144.264 153.14 144.264C153.66 144.264 154.116 144.374 154.507 144.592C154.898 144.808 155.201 145.129 155.417 145.557C155.632 145.984 155.74 146.513 155.74 147.143V152H154.254V147.322C154.254 146.768 154.109 146.336 153.821 146.024C153.533 145.709 153.137 145.552 152.633 145.552C152.288 145.552 151.982 145.626 151.713 145.776C151.448 145.925 151.237 146.143 151.082 146.432C150.929 146.717 150.853 147.062 150.853 147.466ZM161.298 144.364V145.557H157.127V144.364H161.298ZM158.246 142.534H159.732V149.758C159.732 150.046 159.775 150.263 159.862 150.409C159.948 150.552 160.059 150.649 160.195 150.702C160.334 150.752 160.485 150.777 160.647 150.777C160.766 150.777 160.871 150.769 160.96 150.752C161.05 150.736 161.119 150.722 161.169 150.712L161.438 151.94C161.351 151.973 161.229 152.007 161.07 152.04C160.911 152.076 160.712 152.096 160.473 152.099C160.082 152.106 159.717 152.036 159.379 151.891C159.041 151.745 158.768 151.519 158.559 151.214C158.35 150.91 158.246 150.527 158.246 150.066V142.534ZM168.542 146.228L167.195 146.467C167.138 146.294 167.049 146.13 166.926 145.974C166.807 145.819 166.644 145.691 166.439 145.592C166.233 145.492 165.977 145.442 165.668 145.442C165.247 145.442 164.896 145.537 164.614 145.726C164.333 145.911 164.192 146.152 164.192 146.447C164.192 146.702 164.286 146.907 164.475 147.063C164.664 147.219 164.969 147.347 165.39 147.446L166.603 147.724C167.306 147.887 167.829 148.137 168.174 148.475C168.519 148.813 168.691 149.252 168.691 149.793C168.691 150.25 168.558 150.658 168.293 151.016C168.031 151.37 167.665 151.649 167.195 151.851C166.727 152.053 166.185 152.154 165.569 152.154C164.714 152.154 164.016 151.972 163.476 151.607C162.936 151.239 162.604 150.717 162.482 150.041L163.918 149.822C164.008 150.197 164.192 150.48 164.47 150.673C164.749 150.862 165.112 150.956 165.559 150.956C166.046 150.956 166.436 150.855 166.727 150.653C167.019 150.447 167.165 150.197 167.165 149.902C167.165 149.663 167.075 149.463 166.896 149.3C166.721 149.138 166.451 149.015 166.086 148.933L164.793 148.649C164.081 148.487 163.554 148.228 163.212 147.874C162.874 147.519 162.705 147.07 162.705 146.526C162.705 146.076 162.831 145.681 163.083 145.343C163.335 145.005 163.683 144.741 164.127 144.553C164.571 144.36 165.08 144.264 165.653 144.264C166.479 144.264 167.128 144.443 167.602 144.801C168.076 145.156 168.389 145.631 168.542 146.228ZM177.665 144.364V145.557H173.349V144.364H177.665ZM174.533 152V143.479C174.533 143.001 174.637 142.605 174.846 142.29C175.055 141.972 175.331 141.735 175.676 141.58C176.021 141.42 176.395 141.341 176.8 141.341C177.098 141.341 177.353 141.366 177.565 141.415C177.777 141.462 177.935 141.505 178.038 141.545L177.69 142.748C177.62 142.728 177.531 142.705 177.421 142.678C177.312 142.648 177.179 142.634 177.023 142.634C176.662 142.634 176.404 142.723 176.248 142.902C176.095 143.081 176.019 143.339 176.019 143.678V152H174.533ZM182.114 152.154C181.398 152.154 180.774 151.99 180.24 151.662C179.706 151.334 179.292 150.875 178.997 150.285C178.702 149.695 178.555 149.005 178.555 148.217C178.555 147.424 178.702 146.732 178.997 146.138C179.292 145.545 179.706 145.085 180.24 144.756C180.774 144.428 181.398 144.264 182.114 144.264C182.83 144.264 183.455 144.428 183.989 144.756C184.522 145.085 184.937 145.545 185.232 146.138C185.527 146.732 185.674 147.424 185.674 148.217C185.674 149.005 185.527 149.695 185.232 150.285C184.937 150.875 184.522 151.334 183.989 151.662C183.455 151.99 182.83 152.154 182.114 152.154ZM182.119 150.906C182.583 150.906 182.968 150.784 183.273 150.538C183.578 150.293 183.803 149.967 183.949 149.559C184.098 149.151 184.173 148.702 184.173 148.212C184.173 147.724 184.098 147.277 183.949 146.869C183.803 146.458 183.578 146.129 183.273 145.88C182.968 145.631 182.583 145.507 182.119 145.507C181.652 145.507 181.264 145.631 180.956 145.88C180.651 146.129 180.424 146.458 180.275 146.869C180.129 147.277 180.056 147.724 180.056 148.212C180.056 148.702 180.129 149.151 180.275 149.559C180.424 149.967 180.651 150.293 180.956 150.538C181.264 150.784 181.652 150.906 182.119 150.906ZM187.333 152V144.364H188.77V145.577H188.85C188.989 145.166 189.234 144.843 189.585 144.607C189.94 144.369 190.341 144.249 190.789 144.249C190.881 144.249 190.991 144.253 191.117 144.259C191.246 144.266 191.347 144.274 191.42 144.284V145.706C191.36 145.689 191.254 145.671 191.102 145.651C190.949 145.628 190.797 145.616 190.644 145.616C190.293 145.616 189.98 145.691 189.705 145.84C189.433 145.986 189.218 146.19 189.058 146.452C188.899 146.71 188.82 147.005 188.82 147.337V152H187.333ZM199.976 144.364V145.557H195.805V144.364H199.976ZM196.923 142.534H198.41V149.758C198.41 150.046 198.453 150.263 198.539 150.409C198.625 150.552 198.736 150.649 198.872 150.702C199.012 150.752 199.162 150.777 199.325 150.777C199.444 150.777 199.548 150.769 199.638 150.752C199.727 150.736 199.797 150.722 199.847 150.712L200.115 151.94C200.029 151.973 199.906 152.007 199.747 152.04C199.588 152.076 199.389 152.096 199.151 152.099C198.76 152.106 198.395 152.036 198.057 151.891C197.719 151.745 197.445 151.519 197.237 151.214C197.028 150.91 196.923 150.527 196.923 150.066V142.534ZM203.271 147.466V152H201.784V141.818H203.251V145.607H203.346C203.525 145.196 203.798 144.869 204.166 144.627C204.534 144.385 205.014 144.264 205.608 144.264C206.131 144.264 206.589 144.372 206.98 144.587C207.374 144.803 207.679 145.124 207.895 145.552C208.113 145.976 208.223 146.506 208.223 147.143V152H206.736V147.322C206.736 146.762 206.592 146.327 206.304 146.019C206.015 145.708 205.614 145.552 205.1 145.552C204.749 145.552 204.434 145.626 204.156 145.776C203.881 145.925 203.664 146.143 203.505 146.432C203.349 146.717 203.271 147.062 203.271 147.466ZM213.498 152.154C212.745 152.154 212.097 151.993 211.554 151.672C211.013 151.347 210.596 150.891 210.301 150.305C210.009 149.715 209.863 149.024 209.863 148.232C209.863 147.449 210.009 146.76 210.301 146.163C210.596 145.567 211.007 145.101 211.534 144.766C212.064 144.432 212.684 144.264 213.393 144.264C213.824 144.264 214.242 144.335 214.646 144.478C215.05 144.621 215.413 144.844 215.735 145.149C216.056 145.454 216.31 145.85 216.495 146.337C216.681 146.821 216.774 147.41 216.774 148.102V148.629H210.703V147.516H215.317C215.317 147.125 215.238 146.778 215.078 146.477C214.919 146.172 214.696 145.931 214.407 145.756C214.122 145.58 213.788 145.492 213.403 145.492C212.985 145.492 212.621 145.595 212.309 145.8C212.001 146.003 211.762 146.268 211.593 146.596C211.428 146.921 211.345 147.274 211.345 147.655V148.525C211.345 149.035 211.434 149.469 211.613 149.827C211.796 150.185 212.049 150.459 212.374 150.648C212.699 150.833 213.078 150.926 213.512 150.926C213.794 150.926 214.051 150.886 214.283 150.807C214.515 150.724 214.716 150.601 214.885 150.439C215.054 150.277 215.183 150.076 215.272 149.837L216.679 150.091C216.567 150.505 216.364 150.868 216.073 151.18C215.784 151.488 215.422 151.728 214.984 151.901C214.55 152.07 214.054 152.154 213.498 152.154ZM222.128 154.864V144.364H223.58V145.602H223.704C223.79 145.442 223.915 145.259 224.077 145.05C224.239 144.841 224.465 144.659 224.753 144.503C225.042 144.344 225.423 144.264 225.897 144.264C226.513 144.264 227.063 144.42 227.547 144.732C228.031 145.043 228.411 145.492 228.686 146.079C228.964 146.665 229.103 147.371 229.103 148.197C229.103 149.022 228.966 149.73 228.691 150.32C228.416 150.906 228.038 151.359 227.557 151.677C227.077 151.992 226.528 152.149 225.912 152.149C225.448 152.149 225.068 152.071 224.773 151.915C224.481 151.76 224.253 151.577 224.087 151.369C223.921 151.16 223.794 150.974 223.704 150.812H223.615V154.864H222.128ZM223.585 148.182C223.585 148.719 223.663 149.189 223.819 149.594C223.974 149.998 224.2 150.315 224.495 150.543C224.79 150.769 225.151 150.881 225.578 150.881C226.023 150.881 226.394 150.764 226.692 150.528C226.99 150.29 227.216 149.967 227.368 149.559C227.524 149.151 227.602 148.692 227.602 148.182C227.602 147.678 227.526 147.226 227.373 146.825C227.224 146.424 226.999 146.107 226.697 145.875C226.399 145.643 226.026 145.527 225.578 145.527C225.148 145.527 224.783 145.638 224.485 145.86C224.19 146.082 223.966 146.392 223.814 146.79C223.661 147.187 223.585 147.652 223.585 148.182ZM233.985 152.154C233.27 152.154 232.645 151.99 232.111 151.662C231.578 151.334 231.163 150.875 230.868 150.285C230.573 149.695 230.426 149.005 230.426 148.217C230.426 147.424 230.573 146.732 230.868 146.138C231.163 145.545 231.578 145.085 232.111 144.756C232.645 144.428 233.27 144.264 233.985 144.264C234.701 144.264 235.326 144.428 235.86 144.756C236.393 145.085 236.808 145.545 237.103 146.138C237.398 146.732 237.545 147.424 237.545 148.217C237.545 149.005 237.398 149.695 237.103 150.285C236.808 150.875 236.393 151.334 235.86 151.662C235.326 151.99 234.701 152.154 233.985 152.154ZM233.99 150.906C234.454 150.906 234.839 150.784 235.144 150.538C235.449 150.293 235.674 149.967 235.82 149.559C235.969 149.151 236.044 148.702 236.044 148.212C236.044 147.724 235.969 147.277 235.82 146.869C235.674 146.458 235.449 146.129 235.144 145.88C234.839 145.631 234.454 145.507 233.99 145.507C233.523 145.507 233.135 145.631 232.827 145.88C232.522 146.129 232.295 146.458 232.146 146.869C232 147.277 231.927 147.724 231.927 148.212C231.927 148.702 232 149.151 232.146 149.559C232.295 149.967 232.522 150.293 232.827 150.538C233.135 150.784 233.523 150.906 233.99 150.906ZM239.204 154.864V144.364H240.656V145.602H240.78C240.867 145.442 240.991 145.259 241.153 145.05C241.316 144.841 241.541 144.659 241.829 144.503C242.118 144.344 242.499 144.264 242.973 144.264C243.589 144.264 244.14 144.42 244.623 144.732C245.107 145.043 245.487 145.492 245.762 146.079C246.04 146.665 246.18 147.371 246.18 148.197C246.18 149.022 246.042 149.73 245.767 150.32C245.492 150.906 245.114 151.359 244.633 151.677C244.153 151.992 243.604 152.149 242.988 152.149C242.524 152.149 242.144 152.071 241.849 151.915C241.558 151.76 241.329 151.577 241.163 151.369C240.997 151.16 240.87 150.974 240.78 150.812H240.691V154.864H239.204ZM240.661 148.182C240.661 148.719 240.739 149.189 240.895 149.594C241.05 149.998 241.276 150.315 241.571 150.543C241.866 150.769 242.227 150.881 242.655 150.881C243.099 150.881 243.47 150.764 243.768 150.528C244.067 150.29 244.292 149.967 244.444 149.559C244.6 149.151 244.678 148.692 244.678 148.182C244.678 147.678 244.602 147.226 244.449 146.825C244.3 146.424 244.075 146.107 243.773 145.875C243.475 145.643 243.102 145.527 242.655 145.527C242.224 145.527 241.859 145.638 241.561 145.86C241.266 146.082 241.042 146.392 240.89 146.79C240.737 147.187 240.661 147.652 240.661 148.182ZM251.062 152.154C250.346 152.154 249.721 151.99 249.187 151.662C248.654 151.334 248.239 150.875 247.944 150.285C247.649 149.695 247.502 149.005 247.502 148.217C247.502 147.424 247.649 146.732 247.944 146.138C248.239 145.545 248.654 145.085 249.187 144.756C249.721 144.428 250.346 144.264 251.062 144.264C251.778 144.264 252.402 144.428 252.936 144.756C253.47 145.085 253.884 145.545 254.179 146.138C254.474 146.732 254.621 147.424 254.621 148.217C254.621 149.005 254.474 149.695 254.179 150.285C253.884 150.875 253.47 151.334 252.936 151.662C252.402 151.99 251.778 152.154 251.062 152.154ZM251.067 150.906C251.531 150.906 251.915 150.784 252.22 150.538C252.525 150.293 252.75 149.967 252.896 149.559C253.045 149.151 253.12 148.702 253.12 148.212C253.12 147.724 253.045 147.277 252.896 146.869C252.75 146.458 252.525 146.129 252.22 145.88C251.915 145.631 251.531 145.507 251.067 145.507C250.599 145.507 250.211 145.631 249.903 145.88C249.598 146.129 249.371 146.458 249.222 146.869C249.076 147.277 249.003 147.724 249.003 148.212C249.003 148.702 249.076 149.151 249.222 149.559C249.371 149.967 249.598 150.293 249.903 150.538C250.211 150.784 250.599 150.906 251.067 150.906ZM262.553 144.364L259.784 152H258.193L255.419 144.364H257.015L258.949 150.24H259.029L260.958 144.364H262.553ZM266.982 152.154C266.23 152.154 265.582 151.993 265.038 151.672C264.498 151.347 264.08 150.891 263.785 150.305C263.493 149.715 263.348 149.024 263.348 148.232C263.348 147.449 263.493 146.76 263.785 146.163C264.08 145.567 264.491 145.101 265.018 144.766C265.548 144.432 266.168 144.264 266.877 144.264C267.308 144.264 267.726 144.335 268.13 144.478C268.535 144.621 268.898 144.844 269.219 145.149C269.541 145.454 269.794 145.85 269.98 146.337C270.165 146.821 270.258 147.41 270.258 148.102V148.629H264.188V147.516H268.801C268.801 147.125 268.722 146.778 268.563 146.477C268.404 146.172 268.18 145.931 267.892 145.756C267.607 145.58 267.272 145.492 266.887 145.492C266.47 145.492 266.105 145.595 265.794 145.8C265.485 146.003 265.247 146.268 265.078 146.596C264.912 146.921 264.829 147.274 264.829 147.655V148.525C264.829 149.035 264.919 149.469 265.098 149.827C265.28 150.185 265.533 150.459 265.858 150.648C266.183 150.833 266.563 150.926 266.997 150.926C267.279 150.926 267.535 150.886 267.767 150.807C267.999 150.724 268.2 150.601 268.369 150.439C268.538 150.277 268.667 150.076 268.757 149.837L270.164 150.091C270.051 150.505 269.849 150.868 269.557 151.18C269.269 151.488 268.906 151.728 268.468 151.901C268.034 152.07 267.539 152.154 266.982 152.154ZM271.907 152V144.364H273.344V145.577H273.424C273.563 145.166 273.808 144.843 274.16 144.607C274.514 144.369 274.915 144.249 275.363 144.249C275.456 144.249 275.565 144.253 275.691 144.259C275.82 144.266 275.921 144.274 275.994 144.284V145.706C275.934 145.689 275.828 145.671 275.676 145.651C275.523 145.628 275.371 145.616 275.219 145.616C274.867 145.616 274.554 145.691 274.279 145.84C274.007 145.986 273.792 146.19 273.633 146.452C273.474 146.71 273.394 147.005 273.394 147.337V152H271.907ZM282.472 147.466V152H280.986V141.818H282.452V145.607H282.547C282.726 145.196 282.999 144.869 283.367 144.627C283.735 144.385 284.215 144.264 284.809 144.264C285.332 144.264 285.79 144.372 286.181 144.587C286.575 144.803 286.88 145.124 287.096 145.552C287.314 145.976 287.424 146.506 287.424 147.143V152H285.937V147.322C285.937 146.762 285.793 146.327 285.505 146.019C285.216 145.708 284.815 145.552 284.302 145.552C283.95 145.552 283.635 145.626 283.357 145.776C283.082 145.925 282.865 146.143 282.706 146.432C282.55 146.717 282.472 147.062 282.472 147.466ZM292.699 152.154C291.946 152.154 291.298 151.993 290.755 151.672C290.215 151.347 289.797 150.891 289.502 150.305C289.21 149.715 289.064 149.024 289.064 148.232C289.064 147.449 289.21 146.76 289.502 146.163C289.797 145.567 290.208 145.101 290.735 144.766C291.265 144.432 291.885 144.264 292.594 144.264C293.025 144.264 293.443 144.335 293.847 144.478C294.251 144.621 294.614 144.844 294.936 145.149C295.257 145.454 295.511 145.85 295.697 146.337C295.882 146.821 295.975 147.41 295.975 148.102V148.629H289.905V147.516H294.518C294.518 147.125 294.439 146.778 294.28 146.477C294.121 146.172 293.897 145.931 293.608 145.756C293.323 145.58 292.989 145.492 292.604 145.492C292.187 145.492 291.822 145.595 291.51 145.8C291.202 146.003 290.964 146.268 290.795 146.596C290.629 146.921 290.546 147.274 290.546 147.655V148.525C290.546 149.035 290.635 149.469 290.814 149.827C290.997 150.185 291.25 150.459 291.575 150.648C291.9 150.833 292.279 150.926 292.714 150.926C292.995 150.926 293.252 150.886 293.484 150.807C293.716 150.724 293.917 150.601 294.086 150.439C294.255 150.277 294.384 150.076 294.474 149.837L295.881 150.091C295.768 150.505 295.566 150.868 295.274 151.18C294.986 151.488 294.623 151.728 294.185 151.901C293.751 152.07 293.256 152.154 292.699 152.154ZM297.624 152V144.364H299.061V145.577H299.141C299.28 145.166 299.525 144.843 299.876 144.607C300.231 144.369 300.632 144.249 301.08 144.249C301.172 144.249 301.282 144.253 301.408 144.259C301.537 144.266 301.638 144.274 301.711 144.284V145.706C301.651 145.689 301.545 145.671 301.393 145.651C301.24 145.628 301.088 145.616 300.935 145.616C300.584 145.616 300.271 145.691 299.996 145.84C299.724 145.986 299.509 146.19 299.349 146.452C299.19 146.71 299.111 147.005 299.111 147.337V152H297.624ZM306.015 152.154C305.263 152.154 304.615 151.993 304.071 151.672C303.531 151.347 303.113 150.891 302.818 150.305C302.527 149.715 302.381 149.024 302.381 148.232C302.381 147.449 302.527 146.76 302.818 146.163C303.113 145.567 303.524 145.101 304.051 144.766C304.582 144.432 305.201 144.264 305.911 144.264C306.342 144.264 306.759 144.335 307.164 144.478C307.568 144.621 307.931 144.844 308.252 145.149C308.574 145.454 308.827 145.85 309.013 146.337C309.199 146.821 309.291 147.41 309.291 148.102V148.629H303.221V147.516H307.835C307.835 147.125 307.755 146.778 307.596 146.477C307.437 146.172 307.213 145.931 306.925 145.756C306.64 145.58 306.305 145.492 305.921 145.492C305.503 145.492 305.138 145.595 304.827 145.8C304.519 146.003 304.28 146.268 304.111 146.596C303.945 146.921 303.862 147.274 303.862 147.655V148.525C303.862 149.035 303.952 149.469 304.131 149.827C304.313 150.185 304.567 150.459 304.892 150.648C305.216 150.833 305.596 150.926 306.03 150.926C306.312 150.926 306.569 150.886 306.801 150.807C307.033 150.724 307.233 150.601 307.402 150.439C307.571 150.277 307.7 150.076 307.79 149.837L309.197 150.091C309.084 150.505 308.882 150.868 308.59 151.18C308.302 151.488 307.939 151.728 307.502 151.901C307.067 152.07 306.572 152.154 306.015 152.154Z" fill="black"/>
<defs>
<filter id="filter0_d_535_4286" x="48" y="121" width="284" height="61" filterUnits="userSpaceOnUse" color-interpolation-filters="sRGB">
<feFlood flood-opacity="0" result="BackgroundImageFix"/>
<feColorMatrix in="SourceAlpha" type="matrix" values="0 0 0 0 0 0 0 0 0 0 0 0 0 0 0 0 0 0 127 0" result="hardAlpha"/>
<feOffset dy="4"/>
<feGaussianBlur stdDeviation="3"/>
<feComposite in2="hardAlpha" operator="out"/>
<feColorMatrix type="matrix" values="0 0 0 0 0 0 0 0 0 0 0 0 0 0 0 0 0 0 0.09 0"/>
<feBlend mode="normal" in2="BackgroundImageFix" result="effect1_dropShadow_535_4286"/>
<feBlend mode="normal" in="SourceGraphic" in2="effect1_dropShadow_535_4286" result="shape"/>
</filter>
</defs>
</svg>
