<svg width="380" height="250" viewBox="0 0 380 250" fill="none" xmlns="http://www.w3.org/2000/svg">
<rect width="380" height="250" fill="white"/>
<circle cx="203.5" cy="125" r="7.5" fill="white" stroke="#E2E8F0"/>
<path d="M223.915 130H220.619V119.818H224.019C225.017 119.818 225.874 120.022 226.589 120.43C227.305 120.834 227.854 121.416 228.235 122.175C228.62 122.93 228.812 123.837 228.812 124.894C228.812 125.955 228.618 126.866 228.23 127.629C227.846 128.391 227.289 128.978 226.56 129.388C225.83 129.796 224.949 130 223.915 130ZM222.155 128.658H223.83C224.606 128.658 225.25 128.512 225.764 128.22C226.278 127.925 226.662 127.499 226.918 126.942C227.173 126.382 227.3 125.7 227.3 124.894C227.3 124.095 227.173 123.418 226.918 122.861C226.666 122.304 226.29 121.881 225.789 121.593C225.289 121.305 224.667 121.161 223.925 121.161H222.155V128.658ZM233.894 130.154C233.142 130.154 232.494 129.993 231.95 129.672C231.41 129.347 230.992 128.891 230.697 128.305C230.406 127.715 230.26 127.024 230.26 126.232C230.26 125.449 230.406 124.76 230.697 124.163C230.992 123.567 231.403 123.101 231.93 122.766C232.461 122.432 233.08 122.264 233.79 122.264C234.22 122.264 234.638 122.335 235.042 122.478C235.447 122.621 235.81 122.844 236.131 123.149C236.453 123.454 236.706 123.85 236.892 124.337C237.077 124.821 237.17 125.41 237.17 126.102V126.629H231.1V125.516H235.714C235.714 125.125 235.634 124.778 235.475 124.477C235.316 124.172 235.092 123.931 234.804 123.756C234.519 123.58 234.184 123.492 233.8 123.492C233.382 123.492 233.017 123.595 232.706 123.8C232.398 124.003 232.159 124.268 231.99 124.596C231.824 124.921 231.741 125.274 231.741 125.655V126.525C231.741 127.035 231.831 127.469 232.01 127.827C232.192 128.185 232.446 128.459 232.77 128.648C233.095 128.833 233.475 128.926 233.909 128.926C234.191 128.926 234.448 128.886 234.68 128.807C234.912 128.724 235.112 128.601 235.281 128.439C235.45 128.277 235.579 128.076 235.669 127.837L237.076 128.091C236.963 128.505 236.761 128.868 236.469 129.18C236.181 129.488 235.818 129.728 235.381 129.901C234.946 130.07 234.451 130.154 233.894 130.154ZM242.454 122.364V123.557H238.138V122.364H242.454ZM239.322 130V121.479C239.322 121.001 239.426 120.605 239.635 120.29C239.844 119.972 240.121 119.735 240.465 119.58C240.81 119.42 241.184 119.341 241.589 119.341C241.887 119.341 242.142 119.366 242.354 119.415C242.567 119.462 242.724 119.505 242.827 119.545L242.479 120.748C242.409 120.728 242.32 120.705 242.21 120.678C242.101 120.648 241.968 120.634 241.812 120.634C241.451 120.634 241.193 120.723 241.037 120.902C240.884 121.081 240.808 121.339 240.808 121.678V130H239.322ZM245.977 130.169C245.494 130.169 245.056 130.08 244.665 129.901C244.274 129.718 243.964 129.455 243.735 129.11C243.51 128.765 243.397 128.343 243.397 127.842C243.397 127.411 243.48 127.057 243.646 126.778C243.811 126.5 244.035 126.28 244.317 126.117C244.599 125.955 244.914 125.832 245.262 125.749C245.61 125.666 245.964 125.603 246.325 125.56C246.783 125.507 247.154 125.464 247.439 125.431C247.724 125.395 247.931 125.337 248.061 125.257C248.19 125.178 248.254 125.048 248.254 124.869V124.835C248.254 124.4 248.132 124.064 247.887 123.825C247.645 123.587 247.283 123.467 246.803 123.467C246.302 123.467 245.908 123.578 245.619 123.8C245.334 124.019 245.137 124.263 245.028 124.531L243.631 124.213C243.797 123.749 244.039 123.375 244.357 123.089C244.678 122.801 245.048 122.592 245.465 122.463C245.883 122.33 246.322 122.264 246.783 122.264C247.088 122.264 247.411 122.301 247.752 122.374C248.097 122.443 248.419 122.572 248.717 122.761C249.018 122.95 249.265 123.22 249.458 123.572C249.65 123.92 249.746 124.372 249.746 124.929V130H248.294V128.956H248.235C248.138 129.148 247.994 129.337 247.802 129.523C247.61 129.708 247.363 129.862 247.061 129.985C246.76 130.108 246.398 130.169 245.977 130.169ZM246.301 128.976C246.712 128.976 247.063 128.895 247.355 128.732C247.65 128.57 247.873 128.358 248.026 128.096C248.182 127.831 248.259 127.547 248.259 127.246V126.261C248.206 126.314 248.104 126.364 247.951 126.411C247.802 126.454 247.631 126.492 247.439 126.525C247.247 126.555 247.06 126.583 246.877 126.609C246.695 126.633 246.543 126.652 246.42 126.669C246.132 126.705 245.868 126.767 245.629 126.853C245.394 126.939 245.205 127.063 245.063 127.226C244.923 127.385 244.854 127.597 244.854 127.862C244.854 128.23 244.99 128.509 245.262 128.697C245.533 128.883 245.88 128.976 246.301 128.976ZM256.563 126.833V122.364H258.055V130H256.593V128.678H256.513C256.338 129.085 256.056 129.425 255.668 129.697C255.284 129.965 254.805 130.099 254.232 130.099C253.741 130.099 253.307 129.992 252.929 129.776C252.554 129.558 252.259 129.234 252.044 128.807C251.832 128.379 251.726 127.851 251.726 127.221V122.364H253.212V127.042C253.212 127.562 253.357 127.977 253.645 128.285C253.933 128.593 254.308 128.747 254.768 128.747C255.047 128.747 255.324 128.678 255.599 128.538C255.877 128.399 256.107 128.189 256.29 127.907C256.475 127.625 256.567 127.267 256.563 126.833ZM261.539 119.818V130H260.052V119.818H261.539ZM267.103 122.364V123.557H262.932V122.364H267.103ZM264.05 120.534H265.537V127.758C265.537 128.046 265.58 128.263 265.666 128.409C265.752 128.552 265.863 128.649 265.999 128.702C266.138 128.752 266.289 128.777 266.452 128.777C266.571 128.777 266.675 128.769 266.765 128.752C266.854 128.736 266.924 128.722 266.974 128.712L267.242 129.94C267.156 129.973 267.033 130.007 266.874 130.04C266.715 130.076 266.516 130.096 266.278 130.099C265.887 130.106 265.522 130.036 265.184 129.891C264.846 129.745 264.572 129.519 264.364 129.214C264.155 128.91 264.05 128.527 264.05 128.066V120.534Z" fill="black"/>
<circle cx="119.5" cy="125" r="7.5" fill="white" stroke="#E2E8F0"/>
<circle cx="119.5" cy="125" r="4" fill="#121F48"/>
<path d="M139.915 130H136.619V119.818H140.019C141.017 119.818 141.874 120.022 142.589 120.43C143.305 120.834 143.854 121.416 144.235 122.175C144.62 122.93 144.812 123.837 144.812 124.894C144.812 125.955 144.618 126.866 144.23 127.629C143.846 128.391 143.289 128.978 142.56 129.388C141.83 129.796 140.949 130 139.915 130ZM138.155 128.658H139.83C140.606 128.658 141.25 128.512 141.764 128.22C142.278 127.925 142.662 127.499 142.918 126.942C143.173 126.382 143.3 125.7 143.3 124.894C143.3 124.095 143.173 123.418 142.918 122.861C142.666 122.304 142.29 121.881 141.789 121.593C141.289 121.305 140.667 121.161 139.925 121.161H138.155V128.658ZM149.894 130.154C149.142 130.154 148.494 129.993 147.95 129.672C147.41 129.347 146.992 128.891 146.697 128.305C146.406 127.715 146.26 127.024 146.26 126.232C146.26 125.449 146.406 124.76 146.697 124.163C146.992 123.567 147.403 123.101 147.93 122.766C148.461 122.432 149.08 122.264 149.79 122.264C150.22 122.264 150.638 122.335 151.042 122.478C151.447 122.621 151.81 122.844 152.131 123.149C152.453 123.454 152.706 123.85 152.892 124.337C153.077 124.821 153.17 125.41 153.17 126.102V126.629H147.1V125.516H151.714C151.714 125.125 151.634 124.778 151.475 124.477C151.316 124.172 151.092 123.931 150.804 123.756C150.519 123.58 150.184 123.492 149.8 123.492C149.382 123.492 149.017 123.595 148.706 123.8C148.398 124.003 148.159 124.268 147.99 124.596C147.824 124.921 147.741 125.274 147.741 125.655V126.525C147.741 127.035 147.831 127.469 148.01 127.827C148.192 128.185 148.446 128.459 148.77 128.648C149.095 128.833 149.475 128.926 149.909 128.926C150.191 128.926 150.448 128.886 150.68 128.807C150.912 128.724 151.112 128.601 151.281 128.439C151.45 128.277 151.579 128.076 151.669 127.837L153.076 128.091C152.963 128.505 152.761 128.868 152.469 129.18C152.181 129.488 151.818 129.728 151.381 129.901C150.946 130.07 150.451 130.154 149.894 130.154ZM158.454 122.364V123.557H154.138V122.364H158.454ZM155.322 130V121.479C155.322 121.001 155.426 120.605 155.635 120.29C155.844 119.972 156.121 119.735 156.465 119.58C156.81 119.42 157.184 119.341 157.589 119.341C157.887 119.341 158.142 119.366 158.354 119.415C158.567 119.462 158.724 119.505 158.827 119.545L158.479 120.748C158.409 120.728 158.32 120.705 158.21 120.678C158.101 120.648 157.968 120.634 157.812 120.634C157.451 120.634 157.193 120.723 157.037 120.902C156.884 121.081 156.808 121.339 156.808 121.678V130H155.322ZM161.977 130.169C161.494 130.169 161.056 130.08 160.665 129.901C160.274 129.718 159.964 129.455 159.735 129.11C159.51 128.765 159.397 128.343 159.397 127.842C159.397 127.411 159.48 127.057 159.646 126.778C159.811 126.5 160.035 126.28 160.317 126.117C160.599 125.955 160.914 125.832 161.262 125.749C161.61 125.666 161.964 125.603 162.325 125.56C162.783 125.507 163.154 125.464 163.439 125.431C163.724 125.395 163.931 125.337 164.061 125.257C164.19 125.178 164.254 125.048 164.254 124.869V124.835C164.254 124.4 164.132 124.064 163.887 123.825C163.645 123.587 163.283 123.467 162.803 123.467C162.302 123.467 161.908 123.578 161.619 123.8C161.334 124.019 161.137 124.263 161.028 124.531L159.631 124.213C159.797 123.749 160.039 123.375 160.357 123.089C160.678 122.801 161.048 122.592 161.465 122.463C161.883 122.33 162.322 122.264 162.783 122.264C163.088 122.264 163.411 122.301 163.752 122.374C164.097 122.443 164.419 122.572 164.717 122.761C165.018 122.95 165.265 123.22 165.458 123.572C165.65 123.92 165.746 124.372 165.746 124.929V130H164.294V128.956H164.235C164.138 129.148 163.994 129.337 163.802 129.523C163.61 129.708 163.363 129.862 163.061 129.985C162.76 130.108 162.398 130.169 161.977 130.169ZM162.301 128.976C162.712 128.976 163.063 128.895 163.355 128.732C163.65 128.57 163.873 128.358 164.026 128.096C164.182 127.831 164.259 127.547 164.259 127.246V126.261C164.206 126.314 164.104 126.364 163.951 126.411C163.802 126.454 163.631 126.492 163.439 126.525C163.247 126.555 163.06 126.583 162.877 126.609C162.695 126.633 162.543 126.652 162.42 126.669C162.132 126.705 161.868 126.767 161.629 126.853C161.394 126.939 161.205 127.063 161.063 127.226C160.923 127.385 160.854 127.597 160.854 127.862C160.854 128.23 160.99 128.509 161.262 128.697C161.533 128.883 161.88 128.976 162.301 128.976ZM172.563 126.833V122.364H174.055V130H172.593V128.678H172.513C172.338 129.085 172.056 129.425 171.668 129.697C171.284 129.965 170.805 130.099 170.232 130.099C169.741 130.099 169.307 129.992 168.929 129.776C168.554 129.558 168.259 129.234 168.044 128.807C167.832 128.379 167.726 127.851 167.726 127.221V122.364H169.212V127.042C169.212 127.562 169.357 127.977 169.645 128.285C169.933 128.593 170.308 128.747 170.768 128.747C171.047 128.747 171.324 128.678 171.599 128.538C171.877 128.399 172.107 128.189 172.29 127.907C172.475 127.625 172.567 127.267 172.563 126.833ZM177.539 119.818V130H176.052V119.818H177.539ZM183.103 122.364V123.557H178.932V122.364H183.103ZM180.05 120.534H181.537V127.758C181.537 128.046 181.58 128.263 181.666 128.409C181.752 128.552 181.863 128.649 181.999 128.702C182.138 128.752 182.289 128.777 182.452 128.777C182.571 128.777 182.675 128.769 182.765 128.752C182.854 128.736 182.924 128.722 182.974 128.712L183.242 129.94C183.156 129.973 183.033 130.007 182.874 130.04C182.715 130.076 182.516 130.096 182.278 130.099C181.887 130.106 181.522 130.036 181.184 129.891C180.846 129.745 180.572 129.519 180.364 129.214C180.155 128.91 180.05 128.527 180.05 128.066V120.534Z" fill="black"/>
</svg>
