<svg width="380" height="250" viewBox="0 0 380 250" fill="none" xmlns="http://www.w3.org/2000/svg">
<rect width="380" height="250" fill="white"/>
<rect x="88.5" y="20" width="203" height="39" rx="5.5" fill="white"/>
<rect x="88.5" y="20" width="203" height="39" rx="5.5" stroke="#CBD5E1"/>
<path d="M106.801 36.8636C106.741 36.3598 106.5 35.9688 106.075 35.6903C105.651 35.4119 105.131 35.2727 104.514 35.2727C104.063 35.2727 103.669 35.3456 103.331 35.4915C102.996 35.6373 102.734 35.8378 102.545 36.093C102.36 36.3482 102.267 36.6383 102.267 36.9631C102.267 37.2348 102.332 37.4685 102.461 37.6641C102.594 37.8563 102.763 38.017 102.968 38.1463C103.174 38.2723 103.389 38.3767 103.614 38.4595C103.84 38.5391 104.047 38.6037 104.236 38.6534L105.27 38.9318C105.535 39.0014 105.83 39.0975 106.155 39.2202C106.483 39.3428 106.796 39.5102 107.094 39.7223C107.396 39.9311 107.645 40.1996 107.84 40.5277C108.036 40.8558 108.134 41.2585 108.134 41.7358C108.134 42.286 107.989 42.7831 107.701 43.2273C107.416 43.6714 106.998 44.0244 106.448 44.2862C105.901 44.5481 105.237 44.679 104.455 44.679C103.725 44.679 103.094 44.5613 102.56 44.326C102.03 44.0907 101.612 43.7625 101.308 43.3416C101.006 42.9207 100.835 42.4318 100.795 41.875H102.068C102.101 42.2595 102.231 42.5777 102.456 42.8295C102.685 43.0781 102.973 43.2637 103.321 43.3864C103.672 43.5057 104.05 43.5653 104.455 43.5653C104.925 43.5653 105.348 43.4891 105.722 43.3366C106.097 43.1809 106.393 42.9654 106.612 42.6903C106.831 42.4119 106.94 42.0871 106.94 41.7159C106.94 41.3778 106.846 41.1027 106.657 40.8906C106.468 40.6785 106.219 40.5062 105.911 40.3736C105.603 40.241 105.27 40.125 104.912 40.0256L103.659 39.6676C102.864 39.4389 102.234 39.1125 101.77 38.6882C101.306 38.264 101.074 37.7088 101.074 37.0227C101.074 36.4527 101.228 35.9555 101.536 35.5312C101.848 35.1037 102.265 34.7723 102.789 34.5369C103.316 34.2983 103.904 34.179 104.554 34.179C105.21 34.179 105.794 34.2966 106.304 34.532C106.814 34.764 107.219 35.0821 107.517 35.4865C107.819 35.8909 107.978 36.3499 107.994 36.8636H106.801ZM113.203 44.6591C112.468 44.6591 111.833 44.4967 111.299 44.1719C110.769 43.8438 110.36 43.3864 110.071 42.7997C109.786 42.2098 109.644 41.5237 109.644 40.7415C109.644 39.9593 109.786 39.2699 110.071 38.6733C110.36 38.0734 110.761 37.6061 111.274 37.2713C111.791 36.9332 112.395 36.7642 113.084 36.7642C113.482 36.7642 113.874 36.8305 114.262 36.9631C114.65 37.0956 115.003 37.3111 115.321 37.6094C115.639 37.9044 115.893 38.2955 116.082 38.7827C116.271 39.2699 116.365 39.8698 116.365 40.5824V41.0795H110.479V40.0653H115.172C115.172 39.6345 115.086 39.25 114.914 38.9119C114.744 38.5739 114.503 38.3071 114.188 38.1115C113.876 37.916 113.508 37.8182 113.084 37.8182C112.617 37.8182 112.212 37.9342 111.871 38.1662C111.533 38.3949 111.273 38.6932 111.09 39.0611C110.908 39.429 110.817 39.8234 110.817 40.2443V40.9205C110.817 41.4972 110.916 41.986 111.115 42.3871C111.317 42.7848 111.597 43.0881 111.955 43.2969C112.313 43.5024 112.729 43.6051 113.203 43.6051C113.512 43.6051 113.79 43.562 114.039 43.4759C114.29 43.3864 114.508 43.2538 114.69 43.0781C114.872 42.8991 115.013 42.6771 115.112 42.4119L116.246 42.7301C116.127 43.1146 115.926 43.4527 115.644 43.7443C115.363 44.0327 115.015 44.258 114.6 44.4205C114.186 44.5795 113.72 44.6591 113.203 44.6591ZM119.323 34.3182V44.5H118.15V34.3182H119.323ZM124.674 44.6591C123.938 44.6591 123.304 44.4967 122.77 44.1719C122.24 43.8438 121.83 43.3864 121.542 42.7997C121.257 42.2098 121.114 41.5237 121.114 40.7415C121.114 39.9593 121.257 39.2699 121.542 38.6733C121.83 38.0734 122.231 37.6061 122.745 37.2713C123.262 36.9332 123.865 36.7642 124.555 36.7642C124.952 36.7642 125.345 36.8305 125.733 36.9631C126.121 37.0956 126.474 37.3111 126.792 37.6094C127.11 37.9044 127.364 38.2955 127.553 38.7827C127.741 39.2699 127.836 39.8698 127.836 40.5824V41.0795H121.95V40.0653H126.643C126.643 39.6345 126.557 39.25 126.384 38.9119C126.215 38.5739 125.973 38.3071 125.658 38.1115C125.347 37.916 124.979 37.8182 124.555 37.8182C124.087 37.8182 123.683 37.9342 123.342 38.1662C123.004 38.3949 122.743 38.6932 122.561 39.0611C122.379 39.429 122.288 39.8234 122.288 40.2443V40.9205C122.288 41.4972 122.387 41.986 122.586 42.3871C122.788 42.7848 123.068 43.0881 123.426 43.2969C123.784 43.5024 124.2 43.6051 124.674 43.6051C124.982 43.6051 125.261 43.562 125.509 43.4759C125.761 43.3864 125.978 43.2538 126.161 43.0781C126.343 42.8991 126.484 42.6771 126.583 42.4119L127.717 42.7301C127.597 43.1146 127.397 43.4527 127.115 43.7443C126.833 44.0327 126.485 44.258 126.071 44.4205C125.657 44.5795 125.191 44.6591 124.674 44.6591ZM132.723 44.6591C132.007 44.6591 131.391 44.4901 130.874 44.152C130.357 43.8139 129.959 43.3482 129.68 42.755C129.402 42.1617 129.263 41.4839 129.263 40.7216C129.263 39.946 129.405 39.2616 129.69 38.6683C129.979 38.0717 130.38 37.6061 130.893 37.2713C131.411 36.9332 132.014 36.7642 132.703 36.7642C133.24 36.7642 133.724 36.8636 134.155 37.0625C134.586 37.2614 134.939 37.5398 135.214 37.8977C135.489 38.2557 135.66 38.6733 135.726 39.1506H134.553C134.463 38.8026 134.264 38.4943 133.956 38.2259C133.651 37.9541 133.24 37.8182 132.723 37.8182C132.266 37.8182 131.865 37.9375 131.52 38.1761C131.179 38.4115 130.912 38.7446 130.719 39.1754C130.531 39.603 130.436 40.1051 130.436 40.6818C130.436 41.2718 130.529 41.7855 130.714 42.223C130.903 42.6605 131.169 43.0002 131.51 43.2422C131.855 43.4841 132.259 43.6051 132.723 43.6051C133.028 43.6051 133.305 43.5521 133.553 43.446C133.802 43.34 134.012 43.1875 134.185 42.9886C134.357 42.7898 134.48 42.5511 134.553 42.2727H135.726C135.66 42.7235 135.496 43.1295 135.234 43.4908C134.975 43.8487 134.632 44.1338 134.205 44.3459C133.78 44.5547 133.286 44.6591 132.723 44.6591ZM140.762 36.8636V37.858H136.805V36.8636H140.762ZM137.958 35.0341H139.131V42.3125C139.131 42.6439 139.179 42.8925 139.276 43.0582C139.375 43.2206 139.501 43.33 139.653 43.3864C139.809 43.4394 139.973 43.4659 140.146 43.4659C140.275 43.4659 140.381 43.4593 140.464 43.446C140.547 43.4295 140.613 43.4162 140.663 43.4062L140.901 44.4602C140.822 44.4901 140.711 44.5199 140.568 44.5497C140.426 44.5829 140.245 44.5994 140.026 44.5994C139.695 44.5994 139.37 44.5282 139.052 44.3857C138.737 44.2431 138.475 44.026 138.266 43.7344C138.061 43.4427 137.958 43.0748 137.958 42.6307V35.0341ZM148.712 44.679C148.228 44.679 147.789 44.5878 147.394 44.4055C147 44.2199 146.687 43.9531 146.455 43.6051C146.223 43.2538 146.107 42.8295 146.107 42.3324C146.107 41.8949 146.193 41.5402 146.365 41.2685C146.537 40.9934 146.768 40.7779 147.056 40.6222C147.344 40.4664 147.663 40.3504 148.011 40.2741C148.362 40.1946 148.715 40.1316 149.07 40.0852C149.534 40.0256 149.91 39.9808 150.198 39.951C150.49 39.9179 150.702 39.8632 150.835 39.7869C150.97 39.7107 151.038 39.5781 151.038 39.3892V39.3494C151.038 38.8589 150.904 38.4777 150.636 38.206C150.371 37.9342 149.968 37.7983 149.428 37.7983C148.867 37.7983 148.428 37.9209 148.11 38.1662C147.792 38.4115 147.568 38.6733 147.439 38.9517L146.325 38.554C146.524 38.09 146.789 37.7287 147.121 37.4702C147.455 37.2083 147.82 37.026 148.214 36.9233C148.612 36.8172 149.003 36.7642 149.388 36.7642C149.633 36.7642 149.915 36.794 150.233 36.8537C150.554 36.91 150.864 37.0277 151.163 37.2067C151.464 37.3857 151.714 37.6558 151.913 38.017C152.112 38.3783 152.212 38.8622 152.212 39.4688V44.5H151.038V43.4659H150.979C150.899 43.6316 150.767 43.8089 150.581 43.9979C150.395 44.1868 150.148 44.3475 149.84 44.4801C149.532 44.6127 149.156 44.679 148.712 44.679ZM148.891 43.625C149.355 43.625 149.746 43.5339 150.064 43.3516C150.385 43.1693 150.627 42.9339 150.79 42.6456C150.955 42.3572 151.038 42.054 151.038 41.7358V40.6619C150.989 40.7216 150.879 40.7763 150.71 40.826C150.545 40.8724 150.352 40.9138 150.134 40.9503C149.918 40.9834 149.708 41.0133 149.502 41.0398C149.3 41.063 149.136 41.0829 149.01 41.0994C148.705 41.1392 148.42 41.2038 148.155 41.2933C147.893 41.3795 147.681 41.5104 147.518 41.6861C147.359 41.8584 147.28 42.0937 147.28 42.392C147.28 42.7997 147.431 43.108 147.732 43.3168C148.037 43.5223 148.423 43.625 148.891 43.625ZM155.526 39.9062V44.5H154.353V36.8636H155.487V38.0568H155.586C155.765 37.669 156.037 37.3575 156.401 37.1222C156.766 36.8835 157.237 36.7642 157.813 36.7642C158.33 36.7642 158.783 36.8703 159.171 37.0824C159.558 37.2912 159.86 37.6094 160.075 38.0369C160.291 38.4612 160.399 38.9981 160.399 39.6477V44.5H159.225V39.7273C159.225 39.1274 159.07 38.66 158.758 38.3253C158.446 37.9872 158.019 37.8182 157.475 37.8182C157.101 37.8182 156.766 37.8994 156.471 38.0618C156.179 38.2242 155.949 38.4612 155.78 38.7727C155.611 39.0843 155.526 39.4621 155.526 39.9062ZM169.582 44.6591C168.893 44.6591 168.288 44.495 167.768 44.1669C167.251 43.8388 166.846 43.3797 166.555 42.7898C166.266 42.1998 166.122 41.5104 166.122 40.7216C166.122 39.9261 166.266 39.2318 166.555 38.6385C166.846 38.0452 167.251 37.5845 167.768 37.2564C168.288 36.9283 168.893 36.7642 169.582 36.7642C170.272 36.7642 170.875 36.9283 171.392 37.2564C171.912 37.5845 172.317 38.0452 172.605 38.6385C172.897 39.2318 173.043 39.9261 173.043 40.7216C173.043 41.5104 172.897 42.1998 172.605 42.7898C172.317 43.3797 171.912 43.8388 171.392 44.1669C170.875 44.495 170.272 44.6591 169.582 44.6591ZM169.582 43.6051C170.106 43.6051 170.537 43.4709 170.875 43.2024C171.213 42.9339 171.463 42.581 171.626 42.1435C171.788 41.706 171.869 41.232 171.869 40.7216C171.869 40.2112 171.788 39.7356 171.626 39.2947C171.463 38.8539 171.213 38.4976 170.875 38.2259C170.537 37.9541 170.106 37.8182 169.582 37.8182C169.059 37.8182 168.628 37.9541 168.29 38.2259C167.952 38.4976 167.701 38.8539 167.539 39.2947C167.377 39.7356 167.295 40.2112 167.295 40.7216C167.295 41.232 167.377 41.706 167.539 42.1435C167.701 42.581 167.952 42.9339 168.29 43.2024C168.628 43.4709 169.059 43.6051 169.582 43.6051ZM174.834 47.3636V36.8636H175.967V38.0767H176.106C176.193 37.9441 176.312 37.7751 176.464 37.5696C176.62 37.3608 176.842 37.1752 177.131 37.0128C177.422 36.8471 177.817 36.7642 178.314 36.7642C178.957 36.7642 179.523 36.925 180.014 37.2464C180.505 37.5679 180.887 38.0237 181.162 38.6136C181.438 39.2036 181.575 39.8996 181.575 40.7017C181.575 41.5104 181.438 42.2114 181.162 42.8047C180.887 43.3946 180.506 43.852 180.019 44.1768C179.532 44.4983 178.97 44.6591 178.334 44.6591C177.843 44.6591 177.45 44.5779 177.155 44.4155C176.86 44.2498 176.633 44.0625 176.474 43.8537C176.315 43.6416 176.193 43.4659 176.106 43.3267H176.007V47.3636H174.834ZM175.987 40.6818C175.987 41.2585 176.072 41.7673 176.241 42.2081C176.41 42.6456 176.657 42.9886 176.981 43.2372C177.306 43.4825 177.704 43.6051 178.175 43.6051C178.665 43.6051 179.074 43.4759 179.403 43.2173C179.734 42.9555 179.983 42.6042 180.148 42.1634C180.317 41.7192 180.402 41.2254 180.402 40.6818C180.402 40.1449 180.319 39.661 180.153 39.2301C179.991 38.7959 179.744 38.4529 179.412 38.201C179.084 37.9458 178.672 37.8182 178.175 37.8182C177.697 37.8182 177.296 37.9392 176.971 38.1811C176.647 38.4197 176.401 38.7545 176.236 39.1854C176.07 39.6129 175.987 40.1117 175.987 40.6818ZM186.686 36.8636V37.858H182.729V36.8636H186.686ZM183.882 35.0341H185.055V42.3125C185.055 42.6439 185.103 42.8925 185.199 43.0582C185.299 43.2206 185.425 43.33 185.577 43.3864C185.733 43.4394 185.897 43.4659 186.069 43.4659C186.199 43.4659 186.305 43.4593 186.388 43.446C186.47 43.4295 186.537 43.4162 186.586 43.4062L186.825 44.4602C186.746 44.4901 186.635 44.5199 186.492 44.5497C186.349 44.5829 186.169 44.5994 185.95 44.5994C185.619 44.5994 185.294 44.5282 184.976 44.3857C184.661 44.2431 184.399 44.026 184.19 43.7344C183.985 43.4427 183.882 43.0748 183.882 42.6307V35.0341ZM188.451 44.5V36.8636H189.624V44.5H188.451ZM189.047 35.5909C188.819 35.5909 188.622 35.513 188.456 35.3572C188.293 35.2015 188.212 35.0142 188.212 34.7955C188.212 34.5767 188.293 34.3894 188.456 34.2337C188.622 34.0779 188.819 34 189.047 34C189.276 34 189.472 34.0779 189.634 34.2337C189.8 34.3894 189.883 34.5767 189.883 34.7955C189.883 35.0142 189.8 35.2015 189.634 35.3572C189.472 35.513 189.276 35.5909 189.047 35.5909ZM194.875 44.6591C194.186 44.6591 193.581 44.495 193.061 44.1669C192.544 43.8388 192.139 43.3797 191.848 42.7898C191.559 42.1998 191.415 41.5104 191.415 40.7216C191.415 39.9261 191.559 39.2318 191.848 38.6385C192.139 38.0452 192.544 37.5845 193.061 37.2564C193.581 36.9283 194.186 36.7642 194.875 36.7642C195.565 36.7642 196.168 36.9283 196.685 37.2564C197.205 37.5845 197.61 38.0452 197.898 38.6385C198.19 39.2318 198.336 39.9261 198.336 40.7216C198.336 41.5104 198.19 42.1998 197.898 42.7898C197.61 43.3797 197.205 43.8388 196.685 44.1669C196.168 44.495 195.565 44.6591 194.875 44.6591ZM194.875 43.6051C195.399 43.6051 195.83 43.4709 196.168 43.2024C196.506 42.9339 196.756 42.581 196.919 42.1435C197.081 41.706 197.162 41.232 197.162 40.7216C197.162 40.2112 197.081 39.7356 196.919 39.2947C196.756 38.8539 196.506 38.4976 196.168 38.2259C195.83 37.9541 195.399 37.8182 194.875 37.8182C194.352 37.8182 193.921 37.9541 193.583 38.2259C193.245 38.4976 192.994 38.8539 192.832 39.2947C192.67 39.7356 192.588 40.2112 192.588 40.7216C192.588 41.232 192.67 41.706 192.832 42.1435C192.994 42.581 193.245 42.9339 193.583 43.2024C193.921 43.4709 194.352 43.6051 194.875 43.6051ZM201.3 39.9062V44.5H200.127V36.8636H201.26V38.0568H201.36C201.539 37.669 201.81 37.3575 202.175 37.1222C202.539 36.8835 203.01 36.7642 203.587 36.7642C204.104 36.7642 204.556 36.8703 204.944 37.0824C205.332 37.2912 205.633 37.6094 205.849 38.0369C206.064 38.4612 206.172 38.9981 206.172 39.6477V44.5H204.999V39.7273C204.999 39.1274 204.843 38.66 204.531 38.3253C204.22 37.9872 203.792 37.8182 203.249 37.8182C202.874 37.8182 202.539 37.8994 202.244 38.0618C201.953 38.2242 201.722 38.4612 201.553 38.7727C201.384 39.0843 201.3 39.4621 201.3 39.9062Z" fill="#0F172A"/>
<path d="M268 37.5L272 41.5L276 37.5" stroke="#94A3B8" stroke-width="1.33333" stroke-linecap="round" stroke-linejoin="round"/>
<g filter="url(#filter0_d_523_4089)">
<g clip-path="url(#clip0_523_4089)">
<rect width="204" height="165" transform="translate(88 65.5)" fill="white"/>
<rect width="194" height="32" transform="translate(93 65.5)" fill="white"/>
<path d="M126.979 86.5H125.348L129.012 76.3182H130.787L134.451 86.5H132.82L129.942 78.1676H129.862L126.979 86.5ZM127.252 82.5128H132.542V83.8054H127.252V82.5128ZM135.802 89.3636V78.8636H137.254V80.1016H137.378C137.464 79.9425 137.588 79.7585 137.751 79.5497C137.913 79.3409 138.139 79.1586 138.427 79.0028C138.715 78.8438 139.097 78.7642 139.57 78.7642C140.187 78.7642 140.737 78.92 141.221 79.2315C141.705 79.5431 142.084 79.9922 142.36 80.5788C142.638 81.1655 142.777 81.8714 142.777 82.6967C142.777 83.522 142.64 84.2296 142.365 84.8196C142.089 85.4062 141.712 85.8587 141.231 86.1768C140.75 86.4917 140.202 86.6491 139.585 86.6491C139.121 86.6491 138.742 86.5713 138.447 86.4155C138.155 86.2597 137.927 86.0774 137.761 85.8686C137.595 85.6598 137.468 85.4742 137.378 85.3118H137.289V89.3636H135.802ZM137.259 82.6818C137.259 83.2187 137.337 83.6894 137.492 84.0938C137.648 84.4981 137.874 84.8146 138.169 85.0433C138.463 85.2687 138.825 85.3814 139.252 85.3814C139.696 85.3814 140.068 85.2637 140.366 85.0284C140.664 84.7898 140.89 84.4666 141.042 84.0589C141.198 83.6513 141.276 83.1922 141.276 82.6818C141.276 82.178 141.2 81.7256 141.047 81.3246C140.898 80.9235 140.673 80.607 140.371 80.375C140.073 80.143 139.7 80.027 139.252 80.027C138.821 80.027 138.457 80.138 138.159 80.3601C137.864 80.5821 137.64 80.892 137.487 81.2898C137.335 81.6875 137.259 82.1515 137.259 82.6818ZM144.443 89.3636V78.8636H145.894V80.1016H146.019C146.105 79.9425 146.229 79.7585 146.392 79.5497C146.554 79.3409 146.779 79.1586 147.068 79.0028C147.356 78.8438 147.737 78.7642 148.211 78.7642C148.828 78.7642 149.378 78.92 149.862 79.2315C150.346 79.5431 150.725 79.9922 151 80.5788C151.279 81.1655 151.418 81.8714 151.418 82.6967C151.418 83.522 151.28 84.2296 151.005 84.8196C150.73 85.4062 150.352 85.8587 149.872 86.1768C149.391 86.4917 148.843 86.6491 148.226 86.6491C147.762 86.6491 147.383 86.5713 147.088 86.4155C146.796 86.2597 146.567 86.0774 146.401 85.8686C146.236 85.6598 146.108 85.4742 146.019 85.3118H145.929V89.3636H144.443ZM145.899 82.6818C145.899 83.2187 145.977 83.6894 146.133 84.0938C146.289 84.4981 146.514 84.8146 146.809 85.0433C147.104 85.2687 147.465 85.3814 147.893 85.3814C148.337 85.3814 148.708 85.2637 149.007 85.0284C149.305 84.7898 149.53 84.4666 149.683 84.0589C149.838 83.6513 149.916 83.1922 149.916 82.6818C149.916 82.178 149.84 81.7256 149.688 81.3246C149.539 80.9235 149.313 80.607 149.012 80.375C148.713 80.143 148.34 80.027 147.893 80.027C147.462 80.027 147.097 80.138 146.799 80.3601C146.504 80.5821 146.28 80.892 146.128 81.2898C145.976 81.6875 145.899 82.1515 145.899 82.6818ZM154.57 76.3182V86.5H153.083V76.3182H154.57ZM159.861 86.6541C159.108 86.6541 158.46 86.4934 157.917 86.1719C157.377 85.8471 156.959 85.3913 156.664 84.8047C156.372 84.2147 156.227 83.5237 156.227 82.7315C156.227 81.9493 156.372 81.2599 156.664 80.6634C156.959 80.0668 157.37 79.6011 157.897 79.2663C158.427 78.9316 159.047 78.7642 159.756 78.7642C160.187 78.7642 160.605 78.8355 161.009 78.978C161.414 79.1205 161.777 79.3442 162.098 79.6491C162.42 79.9541 162.673 80.3501 162.859 80.8374C163.044 81.3213 163.137 81.9096 163.137 82.6023V83.1293H157.067V82.0156H161.68C161.68 81.6245 161.601 81.2782 161.442 80.9766C161.283 80.6716 161.059 80.4313 160.771 80.2557C160.486 80.08 160.151 79.9922 159.766 79.9922C159.349 79.9922 158.984 80.0949 158.673 80.3004C158.364 80.5026 158.126 80.7678 157.957 81.0959C157.791 81.4207 157.708 81.7737 157.708 82.1548V83.0249C157.708 83.5353 157.798 83.9695 157.977 84.3274C158.159 84.6854 158.412 84.9588 158.737 85.1477C159.062 85.3333 159.442 85.4261 159.876 85.4261C160.157 85.4261 160.414 85.3864 160.646 85.3068C160.878 85.224 161.079 85.1013 161.248 84.9389C161.417 84.7765 161.546 84.576 161.636 84.3374L163.043 84.5909C162.93 85.0052 162.728 85.3681 162.436 85.6797C162.148 85.9879 161.785 86.2282 161.347 86.4006C160.913 86.5696 160.418 86.6541 159.861 86.6541Z" fill="#334155"/>
<rect width="194" height="32" transform="translate(93 97.5)" fill="white"/>
<path d="M126.119 118.5V108.318H129.847C130.57 108.318 131.168 108.437 131.642 108.676C132.116 108.911 132.471 109.231 132.706 109.636C132.941 110.037 133.059 110.489 133.059 110.993C133.059 111.417 132.981 111.775 132.825 112.067C132.67 112.355 132.461 112.587 132.199 112.763C131.94 112.935 131.655 113.061 131.344 113.141V113.24C131.682 113.257 132.012 113.366 132.333 113.568C132.658 113.767 132.926 114.05 133.138 114.418C133.351 114.786 133.457 115.234 133.457 115.761C133.457 116.281 133.334 116.748 133.089 117.163C132.847 117.574 132.472 117.9 131.965 118.142C131.458 118.381 130.81 118.5 130.021 118.5H126.119ZM127.655 117.183H129.872C130.608 117.183 131.135 117.04 131.453 116.755C131.771 116.47 131.93 116.114 131.93 115.686C131.93 115.365 131.849 115.07 131.687 114.801C131.524 114.533 131.292 114.319 130.991 114.16C130.692 114.001 130.338 113.921 129.927 113.921H127.655V117.183ZM127.655 112.723H129.713C130.058 112.723 130.368 112.657 130.643 112.524C130.921 112.392 131.142 112.206 131.304 111.967C131.47 111.725 131.553 111.44 131.553 111.112C131.553 110.691 131.405 110.338 131.11 110.053C130.815 109.768 130.363 109.626 129.753 109.626H127.655V112.723ZM137.382 118.669C136.898 118.669 136.46 118.58 136.069 118.401C135.678 118.218 135.368 117.955 135.14 117.61C134.914 117.265 134.801 116.843 134.801 116.342C134.801 115.911 134.884 115.557 135.05 115.278C135.216 115 135.44 114.78 135.721 114.617C136.003 114.455 136.318 114.332 136.666 114.249C137.014 114.166 137.368 114.103 137.73 114.06C138.187 114.007 138.558 113.964 138.843 113.931C139.128 113.895 139.336 113.837 139.465 113.757C139.594 113.678 139.659 113.548 139.659 113.369V113.335C139.659 112.9 139.536 112.564 139.291 112.325C139.049 112.087 138.688 111.967 138.207 111.967C137.707 111.967 137.312 112.078 137.024 112.3C136.739 112.519 136.542 112.763 136.432 113.031L135.035 112.713C135.201 112.249 135.443 111.875 135.761 111.589C136.083 111.301 136.452 111.092 136.87 110.963C137.287 110.83 137.726 110.764 138.187 110.764C138.492 110.764 138.815 110.801 139.157 110.874C139.501 110.943 139.823 111.072 140.121 111.261C140.423 111.45 140.67 111.72 140.862 112.072C141.054 112.42 141.15 112.872 141.15 113.429V118.5H139.699V117.456H139.639C139.543 117.648 139.399 117.837 139.206 118.023C139.014 118.208 138.767 118.362 138.466 118.485C138.164 118.608 137.803 118.669 137.382 118.669ZM137.705 117.476C138.116 117.476 138.467 117.395 138.759 117.232C139.054 117.07 139.278 116.858 139.43 116.596C139.586 116.331 139.664 116.047 139.664 115.746V114.761C139.611 114.814 139.508 114.864 139.355 114.911C139.206 114.954 139.036 114.992 138.843 115.025C138.651 115.055 138.464 115.083 138.282 115.109C138.099 115.133 137.947 115.152 137.824 115.169C137.536 115.205 137.272 115.267 137.034 115.353C136.798 115.439 136.609 115.563 136.467 115.726C136.328 115.885 136.258 116.097 136.258 116.362C136.258 116.73 136.394 117.009 136.666 117.197C136.938 117.383 137.284 117.476 137.705 117.476ZM144.617 113.966V118.5H143.13V110.864H144.557V112.107H144.651C144.827 111.702 145.102 111.377 145.477 111.132C145.855 110.887 146.33 110.764 146.904 110.764C147.424 110.764 147.88 110.874 148.271 111.092C148.662 111.308 148.965 111.629 149.181 112.057C149.396 112.484 149.504 113.013 149.504 113.643V118.5H148.017V113.822C148.017 113.268 147.873 112.836 147.585 112.524C147.296 112.209 146.9 112.052 146.396 112.052C146.052 112.052 145.745 112.126 145.477 112.276C145.212 112.425 145.001 112.643 144.845 112.932C144.693 113.217 144.617 113.562 144.617 113.966ZM153.72 118.669C153.236 118.669 152.798 118.58 152.407 118.401C152.016 118.218 151.706 117.955 151.477 117.61C151.252 117.265 151.139 116.843 151.139 116.342C151.139 115.911 151.222 115.557 151.388 115.278C151.554 115 151.777 114.78 152.059 114.617C152.341 114.455 152.656 114.332 153.004 114.249C153.352 114.166 153.706 114.103 154.068 114.06C154.525 114.007 154.896 113.964 155.181 113.931C155.466 113.895 155.673 113.837 155.803 113.757C155.932 113.678 155.997 113.548 155.997 113.369V113.335C155.997 112.9 155.874 112.564 155.629 112.325C155.387 112.087 155.026 111.967 154.545 111.967C154.044 111.967 153.65 112.078 153.362 112.3C153.077 112.519 152.879 112.763 152.77 113.031L151.373 112.713C151.539 112.249 151.781 111.875 152.099 111.589C152.42 111.301 152.79 111.092 153.208 110.963C153.625 110.83 154.064 110.764 154.525 110.764C154.83 110.764 155.153 110.801 155.494 110.874C155.839 110.943 156.161 111.072 156.459 111.261C156.761 111.45 157.008 111.72 157.2 112.072C157.392 112.42 157.488 112.872 157.488 113.429V118.5H156.036V117.456H155.977C155.881 117.648 155.736 117.837 155.544 118.023C155.352 118.208 155.105 118.362 154.803 118.485C154.502 118.608 154.141 118.669 153.72 118.669ZM154.043 117.476C154.454 117.476 154.805 117.395 155.097 117.232C155.392 117.07 155.615 116.858 155.768 116.596C155.924 116.331 156.002 116.047 156.002 115.746V114.761C155.949 114.814 155.846 114.864 155.693 114.911C155.544 114.954 155.374 114.992 155.181 115.025C154.989 115.055 154.802 115.083 154.619 115.109C154.437 115.133 154.285 115.152 154.162 115.169C153.874 115.205 153.61 115.267 153.372 115.353C153.136 115.439 152.947 115.563 152.805 115.726C152.666 115.885 152.596 116.097 152.596 116.362C152.596 116.73 152.732 117.009 153.004 117.197C153.276 117.383 153.622 117.476 154.043 117.476ZM160.955 113.966V118.5H159.468V110.864H160.895V112.107H160.989C161.165 111.702 161.44 111.377 161.815 111.132C162.192 110.887 162.668 110.764 163.241 110.764C163.762 110.764 164.218 110.874 164.609 111.092C165 111.308 165.303 111.629 165.518 112.057C165.734 112.484 165.842 113.013 165.842 113.643V118.5H164.355V113.822C164.355 113.268 164.211 112.836 163.923 112.524C163.634 112.209 163.238 112.052 162.734 112.052C162.39 112.052 162.083 112.126 161.815 112.276C161.549 112.425 161.339 112.643 161.183 112.932C161.031 113.217 160.955 113.562 160.955 113.966ZM170.058 118.669C169.574 118.669 169.136 118.58 168.745 118.401C168.354 118.218 168.044 117.955 167.815 117.61C167.59 117.265 167.477 116.843 167.477 116.342C167.477 115.911 167.56 115.557 167.726 115.278C167.892 115 168.115 114.78 168.397 114.617C168.679 114.455 168.994 114.332 169.342 114.249C169.69 114.166 170.044 114.103 170.406 114.06C170.863 114.007 171.234 113.964 171.519 113.931C171.804 113.895 172.011 113.837 172.141 113.757C172.27 113.678 172.335 113.548 172.335 113.369V113.335C172.335 112.9 172.212 112.564 171.967 112.325C171.725 112.087 171.363 111.967 170.883 111.967C170.382 111.967 169.988 112.078 169.7 112.3C169.415 112.519 169.217 112.763 169.108 113.031L167.711 112.713C167.877 112.249 168.119 111.875 168.437 111.589C168.758 111.301 169.128 111.092 169.545 110.963C169.963 110.83 170.402 110.764 170.863 110.764C171.168 110.764 171.491 110.801 171.832 110.874C172.177 110.943 172.499 111.072 172.797 111.261C173.098 111.45 173.345 111.72 173.538 112.072C173.73 112.42 173.826 112.872 173.826 113.429V118.5H172.374V117.456H172.315C172.219 117.648 172.074 117.837 171.882 118.023C171.69 118.208 171.443 118.362 171.141 118.485C170.84 118.608 170.478 118.669 170.058 118.669ZM170.381 117.476C170.792 117.476 171.143 117.395 171.435 117.232C171.73 117.07 171.953 116.858 172.106 116.596C172.262 116.331 172.339 116.047 172.339 115.746V114.761C172.286 114.814 172.184 114.864 172.031 114.911C171.882 114.954 171.711 114.992 171.519 115.025C171.327 115.055 171.14 115.083 170.957 115.109C170.775 115.133 170.623 115.152 170.5 115.169C170.212 115.205 169.948 115.267 169.71 115.353C169.474 115.439 169.285 115.563 169.143 115.726C169.004 115.885 168.934 116.097 168.934 116.362C168.934 116.73 169.07 117.009 169.342 117.197C169.613 117.383 169.96 117.476 170.381 117.476Z" fill="#334155"/>
<rect width="194" height="32" transform="translate(93 129.5)" fill="white"/>
<path d="M126.119 150.5V140.318H129.847C130.57 140.318 131.168 140.437 131.642 140.676C132.116 140.911 132.471 141.231 132.706 141.636C132.941 142.037 133.059 142.489 133.059 142.993C133.059 143.417 132.981 143.775 132.825 144.067C132.67 144.355 132.461 144.587 132.199 144.763C131.94 144.935 131.655 145.061 131.344 145.141V145.24C131.682 145.257 132.012 145.366 132.333 145.568C132.658 145.767 132.926 146.05 133.138 146.418C133.351 146.786 133.457 147.234 133.457 147.761C133.457 148.281 133.334 148.748 133.089 149.163C132.847 149.574 132.472 149.9 131.965 150.142C131.458 150.381 130.81 150.5 130.021 150.5H126.119ZM127.655 149.183H129.872C130.608 149.183 131.135 149.04 131.453 148.755C131.771 148.47 131.93 148.114 131.93 147.686C131.93 147.365 131.849 147.07 131.687 146.801C131.524 146.533 131.292 146.319 130.991 146.16C130.692 146.001 130.338 145.921 129.927 145.921H127.655V149.183ZM127.655 144.723H129.713C130.058 144.723 130.368 144.657 130.643 144.524C130.921 144.392 131.142 144.206 131.304 143.967C131.47 143.725 131.553 143.44 131.553 143.112C131.553 142.691 131.405 142.338 131.11 142.053C130.815 141.768 130.363 141.626 129.753 141.626H127.655V144.723ZM136.646 140.318V150.5H135.159V140.318H136.646ZM143.483 147.333V142.864H144.975V150.5H143.513V149.178H143.433C143.258 149.585 142.976 149.925 142.588 150.197C142.204 150.465 141.725 150.599 141.151 150.599C140.661 150.599 140.227 150.492 139.849 150.276C139.474 150.058 139.179 149.734 138.964 149.307C138.752 148.879 138.646 148.351 138.646 147.721V142.864H140.132V147.542C140.132 148.062 140.276 148.477 140.565 148.785C140.853 149.093 141.228 149.247 141.688 149.247C141.967 149.247 142.244 149.178 142.519 149.038C142.797 148.899 143.027 148.689 143.21 148.407C143.395 148.125 143.486 147.767 143.483 147.333ZM150.263 150.654C149.511 150.654 148.863 150.493 148.319 150.172C147.779 149.847 147.361 149.391 147.066 148.805C146.775 148.215 146.629 147.524 146.629 146.732C146.629 145.949 146.775 145.26 147.066 144.663C147.361 144.067 147.772 143.601 148.299 143.266C148.83 142.932 149.449 142.764 150.159 142.764C150.59 142.764 151.007 142.835 151.412 142.978C151.816 143.121 152.179 143.344 152.5 143.649C152.822 143.954 153.075 144.35 153.261 144.837C153.447 145.321 153.539 145.91 153.539 146.602V147.129H147.469V146.016H152.083C152.083 145.625 152.003 145.278 151.844 144.977C151.685 144.672 151.461 144.431 151.173 144.256C150.888 144.08 150.553 143.992 150.169 143.992C149.751 143.992 149.386 144.095 149.075 144.3C148.767 144.503 148.528 144.768 148.359 145.096C148.193 145.421 148.11 145.774 148.11 146.155V147.025C148.11 147.535 148.2 147.969 148.379 148.327C148.561 148.685 148.815 148.959 149.14 149.148C149.464 149.333 149.844 149.426 150.278 149.426C150.56 149.426 150.817 149.386 151.049 149.307C151.281 149.224 151.481 149.101 151.65 148.939C151.819 148.777 151.949 148.576 152.038 148.337L153.445 148.591C153.332 149.005 153.13 149.368 152.838 149.68C152.55 149.988 152.187 150.228 151.75 150.401C151.315 150.57 150.82 150.654 150.263 150.654ZM155.308 150.5V140.318H156.795V144.102H156.884C156.97 143.942 157.095 143.759 157.257 143.55C157.419 143.341 157.645 143.159 157.933 143.003C158.221 142.844 158.603 142.764 159.077 142.764C159.693 142.764 160.243 142.92 160.727 143.232C161.211 143.543 161.59 143.992 161.866 144.579C162.144 145.165 162.283 145.871 162.283 146.697C162.283 147.522 162.146 148.23 161.871 148.82C161.595 149.406 161.218 149.859 160.737 150.177C160.256 150.492 159.708 150.649 159.091 150.649C158.627 150.649 158.248 150.571 157.953 150.415C157.661 150.26 157.433 150.077 157.267 149.869C157.101 149.66 156.974 149.474 156.884 149.312H156.76V150.5H155.308ZM156.765 146.682C156.765 147.219 156.843 147.689 156.998 148.094C157.154 148.498 157.38 148.815 157.675 149.043C157.97 149.269 158.331 149.381 158.758 149.381C159.202 149.381 159.574 149.264 159.872 149.028C160.17 148.79 160.396 148.467 160.548 148.059C160.704 147.651 160.782 147.192 160.782 146.682C160.782 146.178 160.706 145.726 160.553 145.325C160.404 144.924 160.179 144.607 159.877 144.375C159.579 144.143 159.206 144.027 158.758 144.027C158.327 144.027 157.963 144.138 157.665 144.36C157.37 144.582 157.146 144.892 156.993 145.29C156.841 145.687 156.765 146.152 156.765 146.682ZM167.244 150.654C166.491 150.654 165.843 150.493 165.3 150.172C164.759 149.847 164.342 149.391 164.047 148.805C163.755 148.215 163.609 147.524 163.609 146.732C163.609 145.949 163.755 145.26 164.047 144.663C164.342 144.067 164.753 143.601 165.28 143.266C165.81 142.932 166.43 142.764 167.139 142.764C167.57 142.764 167.988 142.835 168.392 142.978C168.796 143.121 169.159 143.344 169.481 143.649C169.802 143.954 170.056 144.35 170.241 144.837C170.427 145.321 170.52 145.91 170.52 146.602V147.129H164.45V146.016H169.063C169.063 145.625 168.984 145.278 168.825 144.977C168.665 144.672 168.442 144.431 168.153 144.256C167.868 144.08 167.534 143.992 167.149 143.992C166.732 143.992 166.367 144.095 166.055 144.3C165.747 144.503 165.509 144.768 165.339 145.096C165.174 145.421 165.091 145.774 165.091 146.155V147.025C165.091 147.535 165.18 147.969 165.359 148.327C165.542 148.685 165.795 148.959 166.12 149.148C166.445 149.333 166.824 149.426 167.259 149.426C167.54 149.426 167.797 149.386 168.029 149.307C168.261 149.224 168.462 149.101 168.631 148.939C168.8 148.777 168.929 148.576 169.018 148.337L170.425 148.591C170.313 149.005 170.111 149.368 169.819 149.68C169.531 149.988 169.168 150.228 168.73 150.401C168.296 150.57 167.8 150.654 167.244 150.654ZM172.169 150.5V142.864H173.606V144.077H173.686C173.825 143.666 174.07 143.343 174.421 143.107C174.776 142.869 175.177 142.749 175.624 142.749C175.717 142.749 175.827 142.753 175.953 142.759C176.082 142.766 176.183 142.774 176.256 142.784V144.206C176.196 144.189 176.09 144.171 175.938 144.151C175.785 144.128 175.633 144.116 175.48 144.116C175.129 144.116 174.816 144.191 174.541 144.34C174.269 144.486 174.053 144.69 173.894 144.952C173.735 145.21 173.656 145.505 173.656 145.837V150.5H172.169ZM177.542 150.5V142.864H178.979V144.077H179.059C179.198 143.666 179.443 143.343 179.794 143.107C180.149 142.869 180.55 142.749 180.998 142.749C181.09 142.749 181.2 142.753 181.326 142.759C181.455 142.766 181.556 142.774 181.629 142.784V144.206C181.569 144.189 181.463 144.171 181.311 144.151C181.158 144.128 181.006 144.116 180.853 144.116C180.502 144.116 180.189 144.191 179.914 144.34C179.642 144.486 179.426 144.69 179.267 144.952C179.108 145.21 179.029 145.505 179.029 145.837V150.5H177.542ZM184.087 153.364C183.865 153.364 183.663 153.345 183.481 153.309C183.299 153.276 183.163 153.239 183.073 153.2L183.431 151.982C183.703 152.054 183.945 152.086 184.157 152.076C184.369 152.066 184.556 151.987 184.719 151.837C184.884 151.688 185.03 151.445 185.156 151.107L185.34 150.599L182.546 142.864H184.137L186.071 148.79H186.151L188.085 142.864H189.68L186.533 151.519C186.388 151.917 186.202 152.253 185.977 152.528C185.751 152.807 185.483 153.016 185.171 153.155C184.86 153.294 184.498 153.364 184.087 153.364Z" fill="#334155"/>
<rect x="93" y="161.5" width="194" height="32" rx="6" fill="#F1F5F9"/>
<path d="M133.009 175.535C132.913 175.233 132.784 174.963 132.621 174.724C132.462 174.482 132.272 174.277 132.05 174.108C131.828 173.936 131.574 173.805 131.289 173.715C131.007 173.626 130.697 173.581 130.359 173.581C129.786 173.581 129.269 173.728 128.808 174.023C128.348 174.318 127.983 174.751 127.714 175.321C127.449 175.888 127.317 176.582 127.317 177.404C127.317 178.229 127.451 178.927 127.719 179.497C127.988 180.067 128.356 180.5 128.823 180.795C129.29 181.09 129.822 181.237 130.419 181.237C130.973 181.237 131.455 181.125 131.866 180.899C132.28 180.674 132.6 180.356 132.825 179.945C133.054 179.53 133.168 179.043 133.168 178.483L133.566 178.558H130.653V177.29H134.655V178.448C134.655 179.303 134.473 180.046 134.108 180.675C133.747 181.302 133.246 181.786 132.607 182.127C131.97 182.469 131.241 182.639 130.419 182.639C129.498 182.639 128.689 182.427 127.993 182.003C127.3 181.579 126.76 180.977 126.372 180.198C125.984 179.416 125.79 178.488 125.79 177.414C125.79 176.602 125.903 175.873 126.129 175.227C126.354 174.58 126.67 174.032 127.078 173.581C127.489 173.127 127.971 172.781 128.525 172.542C129.082 172.3 129.69 172.179 130.349 172.179C130.9 172.179 131.412 172.26 131.886 172.423C132.363 172.585 132.787 172.815 133.158 173.114C133.533 173.412 133.843 173.767 134.088 174.178C134.333 174.585 134.499 175.038 134.585 175.535H133.009ZM136.486 182.5V174.864H137.922V176.077H138.002C138.141 175.666 138.386 175.343 138.738 175.107C139.092 174.869 139.493 174.749 139.941 174.749C140.034 174.749 140.143 174.753 140.269 174.759C140.398 174.766 140.499 174.774 140.572 174.784V176.206C140.513 176.189 140.407 176.171 140.254 176.151C140.102 176.128 139.949 176.116 139.797 176.116C139.445 176.116 139.132 176.191 138.857 176.34C138.585 176.486 138.37 176.69 138.211 176.952C138.052 177.21 137.972 177.505 137.972 177.837V182.5H136.486ZM144.013 182.669C143.529 182.669 143.091 182.58 142.7 182.401C142.309 182.218 141.999 181.955 141.77 181.61C141.545 181.265 141.432 180.843 141.432 180.342C141.432 179.911 141.515 179.557 141.681 179.278C141.847 179 142.07 178.78 142.352 178.617C142.634 178.455 142.949 178.332 143.297 178.249C143.645 178.166 143.999 178.103 144.361 178.06C144.818 178.007 145.189 177.964 145.474 177.931C145.759 177.895 145.966 177.837 146.096 177.757C146.225 177.678 146.29 177.548 146.29 177.369V177.335C146.29 176.9 146.167 176.564 145.922 176.325C145.68 176.087 145.318 175.967 144.838 175.967C144.337 175.967 143.943 176.078 143.655 176.3C143.37 176.519 143.172 176.763 143.063 177.031L141.666 176.713C141.832 176.249 142.074 175.875 142.392 175.589C142.713 175.301 143.083 175.092 143.501 174.963C143.918 174.83 144.357 174.764 144.818 174.764C145.123 174.764 145.446 174.801 145.787 174.874C146.132 174.943 146.454 175.072 146.752 175.261C147.054 175.45 147.3 175.72 147.493 176.072C147.685 176.42 147.781 176.872 147.781 177.429V182.5H146.329V181.456H146.27C146.174 181.648 146.029 181.837 145.837 182.023C145.645 182.208 145.398 182.362 145.096 182.485C144.795 182.608 144.434 182.669 144.013 182.669ZM144.336 181.476C144.747 181.476 145.098 181.395 145.39 181.232C145.685 181.07 145.908 180.858 146.061 180.596C146.217 180.331 146.295 180.047 146.295 179.746V178.761C146.242 178.814 146.139 178.864 145.986 178.911C145.837 178.954 145.666 178.992 145.474 179.025C145.282 179.055 145.095 179.083 144.912 179.109C144.73 179.133 144.578 179.152 144.455 179.169C144.167 179.205 143.903 179.267 143.665 179.353C143.429 179.439 143.24 179.563 143.098 179.726C142.959 179.885 142.889 180.097 142.889 180.362C142.889 180.73 143.025 181.009 143.297 181.197C143.568 181.383 143.915 181.476 144.336 181.476ZM149.761 185.364V174.864H151.213V176.102H151.337C151.423 175.942 151.547 175.759 151.71 175.55C151.872 175.341 152.098 175.159 152.386 175.003C152.674 174.844 153.056 174.764 153.529 174.764C154.146 174.764 154.696 174.92 155.18 175.232C155.664 175.543 156.043 175.992 156.319 176.579C156.597 177.165 156.736 177.871 156.736 178.697C156.736 179.522 156.599 180.23 156.324 180.82C156.048 181.406 155.671 181.859 155.19 182.177C154.709 182.492 154.161 182.649 153.544 182.649C153.08 182.649 152.701 182.571 152.406 182.415C152.114 182.26 151.886 182.077 151.72 181.869C151.554 181.66 151.426 181.474 151.337 181.312H151.248V185.364H149.761ZM151.218 178.682C151.218 179.219 151.296 179.689 151.451 180.094C151.607 180.498 151.833 180.815 152.127 181.043C152.422 181.269 152.784 181.381 153.211 181.381C153.655 181.381 154.027 181.264 154.325 181.028C154.623 180.79 154.849 180.467 155.001 180.059C155.157 179.651 155.235 179.192 155.235 178.682C155.235 178.178 155.158 177.726 155.006 177.325C154.857 176.924 154.632 176.607 154.33 176.375C154.032 176.143 153.659 176.027 153.211 176.027C152.78 176.027 152.416 176.138 152.118 176.36C151.823 176.582 151.599 176.892 151.446 177.29C151.294 177.687 151.218 178.152 151.218 178.682ZM161.693 182.654C160.94 182.654 160.292 182.493 159.749 182.172C159.209 181.847 158.791 181.391 158.496 180.805C158.204 180.215 158.059 179.524 158.059 178.732C158.059 177.949 158.204 177.26 158.496 176.663C158.791 176.067 159.202 175.601 159.729 175.266C160.259 174.932 160.879 174.764 161.588 174.764C162.019 174.764 162.437 174.835 162.841 174.978C163.246 175.121 163.609 175.344 163.93 175.649C164.252 175.954 164.505 176.35 164.691 176.837C164.876 177.321 164.969 177.91 164.969 178.602V179.129H158.899V178.016H163.512C163.512 177.625 163.433 177.278 163.274 176.977C163.115 176.672 162.891 176.431 162.603 176.256C162.318 176.08 161.983 175.992 161.598 175.992C161.181 175.992 160.816 176.095 160.505 176.3C160.196 176.503 159.958 176.768 159.789 177.096C159.623 177.421 159.54 177.774 159.54 178.155V179.025C159.54 179.535 159.63 179.969 159.809 180.327C159.991 180.685 160.244 180.959 160.569 181.148C160.894 181.333 161.274 181.426 161.708 181.426C161.989 181.426 162.246 181.386 162.478 181.307C162.71 181.224 162.911 181.101 163.08 180.939C163.249 180.777 163.378 180.576 163.468 180.337L164.875 180.591C164.762 181.005 164.56 181.368 164.268 181.68C163.98 181.988 163.617 182.228 163.179 182.401C162.745 182.57 162.25 182.654 161.693 182.654ZM172.341 176.728L170.993 176.967C170.937 176.794 170.848 176.63 170.725 176.474C170.606 176.319 170.443 176.191 170.238 176.092C170.032 175.992 169.775 175.942 169.467 175.942C169.046 175.942 168.695 176.037 168.413 176.226C168.131 176.411 167.991 176.652 167.991 176.947C167.991 177.202 168.085 177.407 168.274 177.563C168.463 177.719 168.768 177.847 169.189 177.946L170.402 178.224C171.104 178.387 171.628 178.637 171.973 178.975C172.318 179.313 172.49 179.752 172.49 180.293C172.49 180.75 172.357 181.158 172.092 181.516C171.83 181.87 171.464 182.149 170.993 182.351C170.526 182.553 169.984 182.654 169.368 182.654C168.513 182.654 167.815 182.472 167.275 182.107C166.734 181.739 166.403 181.217 166.28 180.541L167.717 180.322C167.807 180.697 167.991 180.98 168.269 181.173C168.547 181.362 168.91 181.456 169.358 181.456C169.845 181.456 170.234 181.355 170.526 181.153C170.818 180.947 170.964 180.697 170.964 180.402C170.964 180.163 170.874 179.963 170.695 179.8C170.519 179.638 170.249 179.515 169.885 179.433L168.592 179.149C167.88 178.987 167.353 178.728 167.011 178.374C166.673 178.019 166.504 177.57 166.504 177.026C166.504 176.576 166.63 176.181 166.882 175.843C167.134 175.505 167.482 175.241 167.926 175.053C168.37 174.86 168.879 174.764 169.452 174.764C170.278 174.764 170.927 174.943 171.401 175.301C171.875 175.656 172.188 176.131 172.341 176.728Z" fill="#334155"/>
<rect width="194" height="32" transform="translate(93 193.5)" fill="white"/>
<path d="M126.119 214.5V204.318H129.748C130.54 204.318 131.196 204.462 131.717 204.751C132.237 205.039 132.626 205.433 132.885 205.934C133.143 206.431 133.273 206.991 133.273 207.614C133.273 208.241 133.142 208.804 132.88 209.305C132.621 209.802 132.23 210.196 131.707 210.488C131.186 210.776 130.532 210.92 129.743 210.92H127.247V209.618H129.604C130.104 209.618 130.51 209.532 130.822 209.359C131.133 209.184 131.362 208.945 131.508 208.643C131.654 208.342 131.727 207.999 131.727 207.614C131.727 207.23 131.654 206.888 131.508 206.59C131.362 206.292 131.132 206.058 130.817 205.889C130.505 205.72 130.094 205.636 129.584 205.636H127.655V214.5H126.119ZM134.954 214.5V206.864H136.441V214.5H134.954ZM135.705 205.685C135.447 205.685 135.224 205.599 135.039 205.427C134.857 205.251 134.765 205.042 134.765 204.8C134.765 204.555 134.857 204.346 135.039 204.174C135.224 203.998 135.447 203.911 135.705 203.911C135.964 203.911 136.184 203.998 136.366 204.174C136.552 204.346 136.645 204.555 136.645 204.8C136.645 205.042 136.552 205.251 136.366 205.427C136.184 205.599 135.964 205.685 135.705 205.685ZM139.927 209.966V214.5H138.441V206.864H139.868V208.107H139.962C140.138 207.702 140.413 207.377 140.787 207.132C141.165 206.887 141.641 206.764 142.214 206.764C142.734 206.764 143.19 206.874 143.581 207.092C143.972 207.308 144.276 207.629 144.491 208.057C144.707 208.484 144.814 209.013 144.814 209.643V214.5H143.328V209.822C143.328 209.268 143.184 208.836 142.895 208.524C142.607 208.209 142.211 208.052 141.707 208.052C141.362 208.052 141.056 208.126 140.787 208.276C140.522 208.425 140.312 208.643 140.156 208.932C140.003 209.217 139.927 209.562 139.927 209.966ZM150.099 214.654C149.347 214.654 148.699 214.493 148.155 214.172C147.615 213.847 147.197 213.391 146.902 212.805C146.611 212.215 146.465 211.524 146.465 210.732C146.465 209.949 146.611 209.26 146.902 208.663C147.197 208.067 147.608 207.601 148.135 207.266C148.666 206.932 149.285 206.764 149.995 206.764C150.426 206.764 150.843 206.835 151.248 206.978C151.652 207.121 152.015 207.344 152.336 207.649C152.658 207.954 152.911 208.35 153.097 208.837C153.283 209.321 153.375 209.91 153.375 210.602V211.129H147.305V210.016H151.919C151.919 209.625 151.839 209.278 151.68 208.977C151.521 208.672 151.297 208.431 151.009 208.256C150.724 208.08 150.389 207.992 150.005 207.992C149.587 207.992 149.222 208.095 148.911 208.3C148.603 208.503 148.364 208.768 148.195 209.096C148.029 209.421 147.946 209.774 147.946 210.155V211.025C147.946 211.535 148.036 211.969 148.215 212.327C148.397 212.685 148.651 212.959 148.975 213.148C149.3 213.333 149.68 213.426 150.114 213.426C150.396 213.426 150.653 213.386 150.885 213.307C151.117 213.224 151.317 213.101 151.486 212.939C151.655 212.777 151.784 212.576 151.874 212.337L153.281 212.591C153.168 213.005 152.966 213.368 152.674 213.68C152.386 213.988 152.023 214.228 151.586 214.401C151.151 214.57 150.656 214.654 150.099 214.654ZM157.247 214.669C156.763 214.669 156.326 214.58 155.934 214.401C155.543 214.218 155.233 213.955 155.005 213.61C154.779 213.265 154.667 212.843 154.667 212.342C154.667 211.911 154.75 211.557 154.915 211.278C155.081 211 155.305 210.78 155.586 210.617C155.868 210.455 156.183 210.332 156.531 210.249C156.879 210.166 157.234 210.103 157.595 210.06C158.052 210.007 158.424 209.964 158.709 209.931C158.994 209.895 159.201 209.837 159.33 209.757C159.459 209.678 159.524 209.548 159.524 209.369V209.335C159.524 208.9 159.401 208.564 159.156 208.325C158.914 208.087 158.553 207.967 158.072 207.967C157.572 207.967 157.177 208.078 156.889 208.3C156.604 208.519 156.407 208.763 156.297 209.031L154.9 208.713C155.066 208.249 155.308 207.875 155.626 207.589C155.948 207.301 156.317 207.092 156.735 206.963C157.153 206.83 157.592 206.764 158.052 206.764C158.357 206.764 158.68 206.801 159.022 206.874C159.367 206.943 159.688 207.072 159.986 207.261C160.288 207.45 160.535 207.72 160.727 208.072C160.919 208.42 161.015 208.872 161.015 209.429V214.5H159.564V213.456H159.504C159.408 213.648 159.264 213.837 159.072 214.023C158.879 214.208 158.632 214.362 158.331 214.485C158.029 214.608 157.668 214.669 157.247 214.669ZM157.57 213.476C157.981 213.476 158.332 213.395 158.624 213.232C158.919 213.07 159.143 212.858 159.295 212.596C159.451 212.331 159.529 212.047 159.529 211.746V210.761C159.476 210.814 159.373 210.864 159.221 210.911C159.072 210.954 158.901 210.992 158.709 211.025C158.516 211.055 158.329 211.083 158.147 211.109C157.965 211.133 157.812 211.152 157.689 211.169C157.401 211.205 157.138 211.267 156.899 211.353C156.664 211.439 156.475 211.563 156.332 211.726C156.193 211.885 156.123 212.097 156.123 212.362C156.123 212.73 156.259 213.009 156.531 213.197C156.803 213.383 157.149 213.476 157.57 213.476ZM162.995 217.364V206.864H164.447V208.102H164.571C164.658 207.942 164.782 207.759 164.944 207.55C165.107 207.341 165.332 207.159 165.62 207.003C165.909 206.844 166.29 206.764 166.764 206.764C167.38 206.764 167.931 206.92 168.414 207.232C168.898 207.543 169.278 207.992 169.553 208.579C169.831 209.165 169.971 209.871 169.971 210.697C169.971 211.522 169.833 212.23 169.558 212.82C169.283 213.406 168.905 213.859 168.424 214.177C167.944 214.492 167.395 214.649 166.779 214.649C166.315 214.649 165.935 214.571 165.64 214.415C165.349 214.26 165.12 214.077 164.954 213.869C164.788 213.66 164.661 213.474 164.571 213.312H164.482V217.364H162.995ZM164.452 210.682C164.452 211.219 164.53 211.689 164.686 212.094C164.842 212.498 165.067 212.815 165.362 213.043C165.657 213.269 166.018 213.381 166.446 213.381C166.89 213.381 167.261 213.264 167.559 213.028C167.858 212.79 168.083 212.467 168.235 212.059C168.391 211.651 168.469 211.192 168.469 210.682C168.469 210.178 168.393 209.726 168.24 209.325C168.091 208.924 167.866 208.607 167.564 208.375C167.266 208.143 166.893 208.027 166.446 208.027C166.015 208.027 165.65 208.138 165.352 208.36C165.057 208.582 164.833 208.892 164.681 209.29C164.528 209.687 164.452 210.152 164.452 210.682ZM171.636 217.364V206.864H173.088V208.102H173.212C173.298 207.942 173.422 207.759 173.585 207.55C173.747 207.341 173.973 207.159 174.261 207.003C174.549 206.844 174.931 206.764 175.404 206.764C176.021 206.764 176.571 206.92 177.055 207.232C177.539 207.543 177.918 207.992 178.194 208.579C178.472 209.165 178.611 209.871 178.611 210.697C178.611 211.522 178.474 212.23 178.199 212.82C177.923 213.406 177.546 213.859 177.065 214.177C176.584 214.492 176.036 214.649 175.419 214.649C174.955 214.649 174.576 214.571 174.281 214.415C173.989 214.26 173.761 214.077 173.595 213.869C173.429 213.66 173.301 213.474 173.212 213.312H173.123V217.364H171.636ZM173.093 210.682C173.093 211.219 173.171 211.689 173.326 212.094C173.482 212.498 173.708 212.815 174.002 213.043C174.297 213.269 174.659 213.381 175.086 213.381C175.53 213.381 175.902 213.264 176.2 213.028C176.498 212.79 176.724 212.467 176.876 212.059C177.032 211.651 177.11 211.192 177.11 210.682C177.11 210.178 177.033 209.726 176.881 209.325C176.732 208.924 176.507 208.607 176.205 208.375C175.907 208.143 175.534 208.027 175.086 208.027C174.655 208.027 174.291 208.138 173.993 208.36C173.698 208.582 173.474 208.892 173.321 209.29C173.169 209.687 173.093 210.152 173.093 210.682ZM181.763 204.318V214.5H180.277V204.318H181.763ZM187.054 214.654C186.302 214.654 185.654 214.493 185.11 214.172C184.57 213.847 184.152 213.391 183.857 212.805C183.566 212.215 183.42 211.524 183.42 210.732C183.42 209.949 183.566 209.26 183.857 208.663C184.152 208.067 184.563 207.601 185.09 207.266C185.621 206.932 186.24 206.764 186.95 206.764C187.381 206.764 187.798 206.835 188.203 206.978C188.607 207.121 188.97 207.344 189.291 207.649C189.613 207.954 189.866 208.35 190.052 208.837C190.238 209.321 190.33 209.91 190.33 210.602V211.129H184.26V210.016H188.874C188.874 209.625 188.794 209.278 188.635 208.977C188.476 208.672 188.252 208.431 187.964 208.256C187.679 208.08 187.344 207.992 186.96 207.992C186.542 207.992 186.177 208.095 185.866 208.3C185.558 208.503 185.319 208.768 185.15 209.096C184.984 209.421 184.901 209.774 184.901 210.155V211.025C184.901 211.535 184.991 211.969 185.17 212.327C185.352 212.685 185.606 212.959 185.931 213.148C186.255 213.333 186.635 213.426 187.069 213.426C187.351 213.426 187.608 213.386 187.84 213.307C188.072 213.224 188.272 213.101 188.441 212.939C188.61 212.777 188.74 212.576 188.829 212.337L190.236 212.591C190.123 213.005 189.921 213.368 189.629 213.68C189.341 213.988 188.978 214.228 188.541 214.401C188.106 214.57 187.611 214.654 187.054 214.654Z" fill="#334155"/>
<rect width="204" height="0" transform="translate(88 230.5)" fill="white"/>
<line x1="88" y1="230" x2="292" y2="230" stroke="#F1F5F9"/>
</g>
<rect x="87.5" y="65" width="205" height="166" rx="6.5" stroke="#F1F5F9" shape-rendering="crispEdges"/>
</g>
<defs>
<filter id="filter0_d_523_4089" x="81" y="62.5" width="218" height="179" filterUnits="userSpaceOnUse" color-interpolation-filters="sRGB">
<feFlood flood-opacity="0" result="BackgroundImageFix"/>
<feColorMatrix in="SourceAlpha" type="matrix" values="0 0 0 0 0 0 0 0 0 0 0 0 0 0 0 0 0 0 127 0" result="hardAlpha"/>
<feOffset dy="4"/>
<feGaussianBlur stdDeviation="3"/>
<feComposite in2="hardAlpha" operator="out"/>
<feColorMatrix type="matrix" values="0 0 0 0 0 0 0 0 0 0 0 0 0 0 0 0 0 0 0.09 0"/>
<feBlend mode="normal" in2="BackgroundImageFix" result="effect1_dropShadow_523_4089"/>
<feBlend mode="normal" in="SourceGraphic" in2="effect1_dropShadow_523_4089" result="shape"/>
</filter>
<clipPath id="clip0_523_4089">
<rect x="88" y="65.5" width="204" height="165" rx="6" fill="white"/>
</clipPath>
</defs>
</svg>
