<svg width="380" height="250" viewBox="0 0 380 250" fill="none" xmlns="http://www.w3.org/2000/svg">
<rect width="380" height="250" fill="white"/>
<rect x="61" y="44.5" width="258" height="18" fill="#F2F5F9"/>
<rect x="61" y="66.5" width="36" height="7" fill="#ACACB2" fill-opacity="0.3"/>
<rect x="216" y="66.5" width="36" height="7" fill="#ACACB2" fill-opacity="0.3"/>
<rect x="256" y="66.5" width="63" height="7" fill="#ACACB2" fill-opacity="0.3"/>
<rect width="111" height="7" transform="matrix(1 0 0 -1 101 205.5)" fill="#ACACB2" fill-opacity="0.3"/>
<rect x="61" y="78.5" width="36" height="7" fill="#ACACB2" fill-opacity="0.3"/>
<rect x="216" y="78.5" width="36" height="7" fill="#ACACB2" fill-opacity="0.3"/>
<rect x="256" y="78.5" width="63" height="7" fill="#ACACB2" fill-opacity="0.3"/>
<rect width="111" height="7" transform="matrix(1 0 0 -1 101 193.5)" fill="#ACACB2" fill-opacity="0.3"/>
<rect x="61" y="90.5" width="36" height="7" fill="#ACACB2" fill-opacity="0.3"/>
<rect x="216" y="90.5" width="36" height="7" fill="#ACACB2" fill-opacity="0.3"/>
<rect x="256" y="90.5" width="63" height="7" fill="#ACACB2" fill-opacity="0.3"/>
<rect width="111" height="7" transform="matrix(1 0 0 -1 101 181.5)" fill="#ACACB2" fill-opacity="0.3"/>
<rect x="61" y="102.5" width="36" height="7" fill="#ACACB2" fill-opacity="0.3"/>
<rect x="216" y="102.5" width="36" height="7" fill="#ACACB2" fill-opacity="0.3"/>
<rect x="256" y="102.5" width="63" height="7" fill="#ACACB2" fill-opacity="0.3"/>
<rect width="111" height="7" transform="matrix(1 0 0 -1 101 169.5)" fill="#ACACB2" fill-opacity="0.3"/>
<rect x="61" y="114.5" width="36" height="7" fill="#ACACB2" fill-opacity="0.3"/>
<rect x="216" y="114.5" width="36" height="7" fill="#ACACB2" fill-opacity="0.3"/>
<rect x="256" y="114.5" width="63" height="7" fill="#ACACB2" fill-opacity="0.3"/>
<rect width="111" height="7" transform="matrix(1 0 0 -1 101 157.5)" fill="#ACACB2" fill-opacity="0.3"/>
<rect x="61" y="126.5" width="36" height="7" fill="#ACACB2" fill-opacity="0.3"/>
<rect x="216" y="126.5" width="36" height="7" fill="#ACACB2" fill-opacity="0.3"/>
<rect x="256" y="126.5" width="63" height="7" fill="#ACACB2" fill-opacity="0.3"/>
<rect width="111" height="7" transform="matrix(1 0 0 -1 101 145.5)" fill="#ACACB2" fill-opacity="0.3"/>
<rect x="61" y="138.5" width="36" height="7" fill="#ACACB2" fill-opacity="0.3"/>
<rect x="216" y="138.5" width="36" height="7" fill="#ACACB2" fill-opacity="0.3"/>
<rect x="256" y="138.5" width="63" height="7" fill="#ACACB2" fill-opacity="0.3"/>
<rect width="111" height="7" transform="matrix(1 0 0 -1 101 133.5)" fill="#ACACB2" fill-opacity="0.3"/>
<rect x="61" y="150.5" width="36" height="7" fill="#ACACB2" fill-opacity="0.3"/>
<rect x="216" y="150.5" width="36" height="7" fill="#ACACB2" fill-opacity="0.3"/>
<rect x="256" y="150.5" width="63" height="7" fill="#ACACB2" fill-opacity="0.3"/>
<rect width="111" height="7" transform="matrix(1 0 0 -1 101 121.5)" fill="#ACACB2" fill-opacity="0.3"/>
<rect x="61" y="162.5" width="36" height="7" fill="#ACACB2" fill-opacity="0.3"/>
<rect x="216" y="162.5" width="36" height="7" fill="#ACACB2" fill-opacity="0.3"/>
<rect x="256" y="162.5" width="63" height="7" fill="#ACACB2" fill-opacity="0.3"/>
<rect width="111" height="7" transform="matrix(1 0 0 -1 101 109.5)" fill="#ACACB2" fill-opacity="0.3"/>
<rect x="61" y="174.5" width="36" height="7" fill="#ACACB2" fill-opacity="0.3"/>
<rect x="216" y="174.5" width="36" height="7" fill="#ACACB2" fill-opacity="0.3"/>
<rect x="256" y="174.5" width="63" height="7" fill="#ACACB2" fill-opacity="0.3"/>
<rect width="111" height="7" transform="matrix(1 0 0 -1 101 97.5)" fill="#ACACB2" fill-opacity="0.3"/>
<rect x="61" y="186.5" width="36" height="7" fill="#ACACB2" fill-opacity="0.3"/>
<rect x="216" y="186.5" width="36" height="7" fill="#ACACB2" fill-opacity="0.3"/>
<rect x="256" y="186.5" width="63" height="7" fill="#ACACB2" fill-opacity="0.3"/>
<rect width="111" height="7" transform="matrix(1 0 0 -1 101 85.5)" fill="#ACACB2" fill-opacity="0.3"/>
<rect x="61" y="198.5" width="36" height="7" fill="#ACACB2" fill-opacity="0.3"/>
<rect x="216" y="198.5" width="36" height="7" fill="#ACACB2" fill-opacity="0.3"/>
<rect x="256" y="198.5" width="63" height="7" fill="#ACACB2" fill-opacity="0.3"/>
<rect width="111" height="7" transform="matrix(1 0 0 -1 101 73.5)" fill="#ACACB2" fill-opacity="0.3"/>
<rect x="61" y="44.5" width="258" height="1" fill="black"/>
<line x1="61" y1="62" x2="319" y2="62" stroke="#7D7D7D"/>
</svg>
