<svg width="380" height="250" viewBox="0 0 380 250" fill="none" xmlns="http://www.w3.org/2000/svg">
<rect width="380" height="250" fill="white"/>
<rect x="14.5" y="102.702" width="351" height="44.5959" rx="22.2979" fill="#F4F5F9" stroke="#D7D7D7"/>
<rect x="135.285" y="109" width="109.43" height="32.829" rx="16.4145" fill="#121F48"/>
<rect x="20.3828" y="109" width="109.43" height="32.829" rx="16.4145" fill="#CBD5E1"/>
<path d="M61.0646 122.364V120.818H69.1882V122.364H66.0412V131H64.2116V122.364H61.0646ZM71.7281 131.154C71.2442 131.154 70.8084 131.068 70.4206 130.896C70.0361 130.72 69.7312 130.461 69.5058 130.12C69.2837 129.779 69.1727 129.358 69.1727 128.857C69.1727 128.426 69.2522 128.07 69.4113 127.788C69.5704 127.507 69.7875 127.281 70.0626 127.112C70.3377 126.943 70.6476 126.816 70.9923 126.729C71.3403 126.64 71.6999 126.575 72.0711 126.536C72.5186 126.489 72.8815 126.448 73.1599 126.411C73.4383 126.371 73.6405 126.312 73.7664 126.232C73.8957 126.149 73.9603 126.022 73.9603 125.849V125.82C73.9603 125.445 73.8493 125.155 73.6272 124.95C73.4052 124.744 73.0853 124.641 72.6677 124.641C72.2269 124.641 71.8772 124.737 71.6187 124.93C71.3635 125.122 71.1912 125.349 71.1017 125.611L69.4213 125.372C69.5539 124.908 69.7726 124.52 70.0775 124.209C70.3825 123.894 70.7553 123.659 71.1961 123.503C71.637 123.344 72.1242 123.264 72.6578 123.264C73.0257 123.264 73.3919 123.307 73.7565 123.393C74.1211 123.48 74.4542 123.622 74.7558 123.821C75.0574 124.017 75.2994 124.283 75.4816 124.621C75.6673 124.96 75.7601 125.382 75.7601 125.889V131H74.0299V129.951H73.9703C73.8609 130.163 73.7068 130.362 73.5079 130.548C73.3124 130.73 73.0655 130.877 72.7672 130.99C72.4722 131.099 72.1258 131.154 71.7281 131.154ZM72.1954 129.832C72.5567 129.832 72.8699 129.76 73.1351 129.618C73.4002 129.472 73.604 129.28 73.7466 129.041C73.8924 128.803 73.9653 128.542 73.9653 128.261V127.361C73.909 127.407 73.8129 127.45 73.677 127.49C73.5444 127.53 73.3952 127.565 73.2295 127.594C73.0638 127.624 72.8997 127.651 72.7373 127.674C72.5749 127.697 72.4341 127.717 72.3147 127.734C72.0463 127.77 71.806 127.83 71.5939 127.913C71.3817 127.996 71.2144 128.112 71.0917 128.261C70.9691 128.406 70.9078 128.595 70.9078 128.827C70.9078 129.159 71.0288 129.409 71.2707 129.578C71.5127 129.747 71.8209 129.832 72.1954 129.832ZM77.5443 131V120.818H79.344V124.626H79.4186C79.5114 124.441 79.6423 124.244 79.8113 124.035C79.9803 123.823 80.209 123.642 80.4974 123.493C80.7857 123.34 81.1536 123.264 81.6011 123.264C82.191 123.264 82.723 123.415 83.197 123.717C83.6742 124.015 84.0521 124.457 84.3305 125.044C84.6122 125.627 84.7531 126.343 84.7531 127.192C84.7531 128.03 84.6155 128.743 84.3404 129.33C84.0653 129.916 83.6908 130.364 83.2168 130.672C82.7429 130.98 82.206 131.134 81.6061 131.134C81.1686 131.134 80.8056 131.061 80.5173 130.915C80.2289 130.77 79.9969 130.594 79.8213 130.388C79.6489 130.18 79.5147 129.982 79.4186 129.797H79.3141V131H77.5443ZM79.3092 127.182C79.3092 127.676 79.3788 128.108 79.518 128.479C79.6605 128.851 79.8643 129.141 80.1295 129.349C80.398 129.555 80.7228 129.658 81.1039 129.658C81.5016 129.658 81.8347 129.552 82.1032 129.339C82.3717 129.124 82.5739 128.831 82.7097 128.46C82.8489 128.085 82.9186 127.659 82.9186 127.182C82.9186 126.708 82.8506 126.287 82.7147 125.919C82.5788 125.551 82.3766 125.263 82.1082 125.054C81.8397 124.845 81.505 124.741 81.1039 124.741C80.7195 124.741 80.393 124.842 80.1245 125.044C79.8561 125.246 79.6522 125.53 79.513 125.894C79.3771 126.259 79.3092 126.688 79.3092 127.182ZM90.2995 120.818V131H88.4551V122.613H88.3954L86.014 124.134V122.444L88.5446 120.818H90.2995Z" fill="#0F172A"/>
<rect x="250.188" y="109" width="109.43" height="32.829" rx="16.4145" fill="#CBD5E1"/>
<path d="M288.131 122.364V120.818H296.255V122.364H293.108V131H291.278V122.364H288.131ZM298.795 131.154C298.311 131.154 297.875 131.068 297.487 130.896C297.103 130.72 296.798 130.461 296.572 130.12C296.35 129.779 296.239 129.358 296.239 128.857C296.239 128.426 296.319 128.07 296.478 127.788C296.637 127.507 296.854 127.281 297.129 127.112C297.404 126.943 297.714 126.816 298.059 126.729C298.407 126.64 298.766 126.575 299.138 126.536C299.585 126.489 299.948 126.448 300.226 126.411C300.505 126.371 300.707 126.312 300.833 126.232C300.962 126.149 301.027 126.022 301.027 125.849V125.82C301.027 125.445 300.916 125.155 300.694 124.95C300.472 124.744 300.152 124.641 299.734 124.641C299.293 124.641 298.944 124.737 298.685 124.93C298.43 125.122 298.258 125.349 298.168 125.611L296.488 125.372C296.62 124.908 296.839 124.52 297.144 124.209C297.449 123.894 297.822 123.659 298.263 123.503C298.703 123.344 299.191 123.264 299.724 123.264C300.092 123.264 300.458 123.307 300.823 123.393C301.187 123.48 301.521 123.622 301.822 123.821C302.124 124.017 302.366 124.283 302.548 124.621C302.734 124.96 302.826 125.382 302.826 125.889V131H301.096V129.951H301.037C300.927 130.163 300.773 130.362 300.574 130.548C300.379 130.73 300.132 130.877 299.834 130.99C299.539 131.099 299.192 131.154 298.795 131.154ZM299.262 129.832C299.623 129.832 299.936 129.76 300.201 129.618C300.467 129.472 300.67 129.28 300.813 129.041C300.959 128.803 301.032 128.542 301.032 128.261V127.361C300.975 127.407 300.879 127.45 300.743 127.49C300.611 127.53 300.462 127.565 300.296 127.594C300.13 127.624 299.966 127.651 299.804 127.674C299.641 127.697 299.5 127.717 299.381 127.734C299.113 127.77 298.872 127.83 298.66 127.913C298.448 127.996 298.281 128.112 298.158 128.261C298.036 128.406 297.974 128.595 297.974 128.827C297.974 129.159 298.095 129.409 298.337 129.578C298.579 129.747 298.887 129.832 299.262 129.832ZM304.611 131V120.818H306.41V124.626H306.485C306.578 124.441 306.709 124.244 306.878 124.035C307.047 123.823 307.275 123.642 307.564 123.493C307.852 123.34 308.22 123.264 308.667 123.264C309.257 123.264 309.789 123.415 310.263 123.717C310.741 124.015 311.118 124.457 311.397 125.044C311.679 125.627 311.819 126.343 311.819 127.192C311.819 128.03 311.682 128.743 311.407 129.33C311.132 129.916 310.757 130.364 310.283 130.672C309.809 130.98 309.272 131.134 308.672 131.134C308.235 131.134 307.872 131.061 307.584 130.915C307.295 130.77 307.063 130.594 306.888 130.388C306.715 130.18 306.581 129.982 306.485 129.797H306.381V131H304.611ZM306.376 127.182C306.376 127.676 306.445 128.108 306.584 128.479C306.727 128.851 306.931 129.141 307.196 129.349C307.464 129.555 307.789 129.658 308.17 129.658C308.568 129.658 308.901 129.552 309.17 129.339C309.438 129.124 309.64 128.831 309.776 128.46C309.915 128.085 309.985 127.659 309.985 127.182C309.985 126.708 309.917 126.287 309.781 125.919C309.645 125.551 309.443 125.263 309.175 125.054C308.906 124.845 308.571 124.741 308.17 124.741C307.786 124.741 307.459 124.842 307.191 125.044C306.922 125.246 306.719 125.53 306.579 125.894C306.444 126.259 306.376 126.688 306.376 127.182ZM316.879 131.139C316.163 131.139 315.526 131.017 314.97 130.771C314.416 130.526 313.979 130.185 313.657 129.747C313.336 129.31 313.165 128.804 313.145 128.231H315.014C315.031 128.506 315.122 128.746 315.288 128.952C315.454 129.154 315.674 129.311 315.949 129.424C316.224 129.537 316.532 129.593 316.874 129.593C317.238 129.593 317.561 129.53 317.843 129.404C318.125 129.275 318.345 129.096 318.504 128.867C318.664 128.638 318.741 128.375 318.738 128.077C318.741 127.768 318.662 127.497 318.499 127.261C318.337 127.026 318.102 126.842 317.793 126.71C317.489 126.577 317.121 126.511 316.69 126.511H315.79V125.089H316.69C317.044 125.089 317.354 125.027 317.619 124.905C317.888 124.782 318.098 124.61 318.251 124.388C318.403 124.162 318.478 123.902 318.475 123.607C318.478 123.319 318.413 123.069 318.281 122.857C318.151 122.641 317.967 122.474 317.729 122.354C317.494 122.235 317.217 122.175 316.899 122.175C316.587 122.175 316.299 122.232 316.034 122.344C315.768 122.457 315.555 122.618 315.392 122.827C315.23 123.032 315.144 123.277 315.134 123.562H313.359C313.372 122.992 313.536 122.492 313.851 122.061C314.169 121.627 314.593 121.289 315.124 121.047C315.654 120.802 316.249 120.679 316.909 120.679C317.588 120.679 318.178 120.807 318.678 121.062C319.182 121.314 319.572 121.653 319.847 122.081C320.122 122.509 320.259 122.981 320.259 123.498C320.263 124.071 320.094 124.552 319.752 124.94C319.414 125.327 318.97 125.581 318.42 125.7V125.78C319.136 125.879 319.684 126.144 320.066 126.575C320.45 127.003 320.641 127.535 320.637 128.171C320.637 128.741 320.475 129.252 320.15 129.702C319.829 130.15 319.384 130.501 318.818 130.756C318.254 131.012 317.608 131.139 316.879 131.139Z" fill="#0F172A"/>
<path d="M175.055 122.364V120.818H183.178V122.364H180.031V131H178.202V122.364H175.055ZM185.718 131.154C185.234 131.154 184.799 131.068 184.411 130.896C184.026 130.72 183.721 130.461 183.496 130.12C183.274 129.779 183.163 129.358 183.163 128.857C183.163 128.426 183.242 128.07 183.402 127.788C183.561 127.507 183.778 127.281 184.053 127.112C184.328 126.943 184.638 126.816 184.983 126.729C185.331 126.64 185.69 126.575 186.061 126.536C186.509 126.489 186.872 126.448 187.15 126.411C187.429 126.371 187.631 126.312 187.757 126.232C187.886 126.149 187.951 126.022 187.951 125.849V125.82C187.951 125.445 187.84 125.155 187.617 124.95C187.395 124.744 187.076 124.641 186.658 124.641C186.217 124.641 185.867 124.737 185.609 124.93C185.354 125.122 185.181 125.349 185.092 125.611L183.412 125.372C183.544 124.908 183.763 124.52 184.068 124.209C184.373 123.894 184.746 123.659 185.186 123.503C185.627 123.344 186.114 123.264 186.648 123.264C187.016 123.264 187.382 123.307 187.747 123.393C188.111 123.48 188.444 123.622 188.746 123.821C189.048 124.017 189.29 124.283 189.472 124.621C189.657 124.96 189.75 125.382 189.75 125.889V131H188.02V129.951H187.961C187.851 130.163 187.697 130.362 187.498 130.548C187.303 130.73 187.056 130.877 186.757 130.99C186.462 131.099 186.116 131.154 185.718 131.154ZM186.186 129.832C186.547 129.832 186.86 129.76 187.125 129.618C187.39 129.472 187.594 129.28 187.737 129.041C187.883 128.803 187.956 128.542 187.956 128.261V127.361C187.899 127.407 187.803 127.45 187.667 127.49C187.535 127.53 187.385 127.565 187.22 127.594C187.054 127.624 186.89 127.651 186.728 127.674C186.565 127.697 186.424 127.717 186.305 127.734C186.037 127.77 185.796 127.83 185.584 127.913C185.372 127.996 185.205 128.112 185.082 128.261C184.959 128.406 184.898 128.595 184.898 128.827C184.898 129.159 185.019 129.409 185.261 129.578C185.503 129.747 185.811 129.832 186.186 129.832ZM191.534 131V120.818H193.334V124.626H193.409C193.502 124.441 193.633 124.244 193.802 124.035C193.971 123.823 194.199 123.642 194.488 123.493C194.776 123.34 195.144 123.264 195.591 123.264C196.181 123.264 196.713 123.415 197.187 123.717C197.664 124.015 198.042 124.457 198.321 125.044C198.602 125.627 198.743 126.343 198.743 127.192C198.743 128.03 198.606 128.743 198.331 129.33C198.056 129.916 197.681 130.364 197.207 130.672C196.733 130.98 196.196 131.134 195.596 131.134C195.159 131.134 194.796 131.061 194.508 130.915C194.219 130.77 193.987 130.594 193.811 130.388C193.639 130.18 193.505 129.982 193.409 129.797H193.304V131H191.534ZM193.299 127.182C193.299 127.676 193.369 128.108 193.508 128.479C193.651 128.851 193.855 129.141 194.12 129.349C194.388 129.555 194.713 129.658 195.094 129.658C195.492 129.658 195.825 129.552 196.093 129.339C196.362 129.124 196.564 128.831 196.7 128.46C196.839 128.085 196.909 127.659 196.909 127.182C196.909 126.708 196.841 126.287 196.705 125.919C196.569 125.551 196.367 125.263 196.098 125.054C195.83 124.845 195.495 124.741 195.094 124.741C194.71 124.741 194.383 124.842 194.115 125.044C193.846 125.246 193.642 125.53 193.503 125.894C193.367 126.259 193.299 126.688 193.299 127.182ZM200.148 131V129.668L203.683 126.202C204.021 125.861 204.303 125.558 204.528 125.293C204.754 125.027 204.923 124.771 205.035 124.522C205.148 124.273 205.205 124.008 205.205 123.727C205.205 123.405 205.132 123.13 204.986 122.901C204.84 122.669 204.639 122.49 204.384 122.364C204.129 122.238 203.839 122.175 203.514 122.175C203.179 122.175 202.886 122.245 202.634 122.384C202.382 122.52 202.187 122.714 202.048 122.966C201.912 123.218 201.844 123.518 201.844 123.866H200.089C200.089 123.219 200.236 122.658 200.531 122.18C200.826 121.703 201.232 121.334 201.749 121.072C202.27 120.81 202.866 120.679 203.539 120.679C204.222 120.679 204.822 120.807 205.339 121.062C205.856 121.317 206.257 121.667 206.542 122.111C206.83 122.555 206.974 123.062 206.974 123.632C206.974 124.013 206.902 124.388 206.756 124.756C206.61 125.124 206.353 125.531 205.985 125.979C205.62 126.426 205.108 126.968 204.449 127.604L202.694 129.389V129.459H207.129V131H200.148Z" fill="white"/>
</svg>
