<svg width="380" height="250" viewBox="0 0 380 250" fill="none" xmlns="http://www.w3.org/2000/svg">
<rect width="380" height="250" fill="white"/>
<rect x="50.5" y="69" width="279" height="112" rx="6.5" fill="white"/>
<rect x="50.5" y="69" width="279" height="112" rx="6.5" stroke="#CBD5E1"/>
<path d="M63.6761 90.9119V89.8182H71.3125V90.9119H68.1108V100H66.8778V90.9119H63.6761ZM72.937 102.864C72.7381 102.864 72.5608 102.847 72.405 102.814C72.2492 102.784 72.1415 102.754 72.0819 102.724L72.3801 101.69C72.6652 101.763 72.9171 101.79 73.1358 101.77C73.3546 101.75 73.5485 101.652 73.7175 101.477C73.8899 101.304 74.0473 101.024 74.1898 100.636L74.4086 100.04L71.5847 92.3636H72.8574L74.9654 98.4489H75.0449L77.1529 92.3636H78.4256L75.1841 101.114C75.0383 101.508 74.8577 101.835 74.6422 102.093C74.4268 102.355 74.1766 102.549 73.8915 102.675C73.6098 102.801 73.2916 102.864 72.937 102.864ZM79.9743 102.864V92.3636H81.1078V93.5767H81.247C81.3332 93.4441 81.4525 93.2751 81.6049 93.0696C81.7607 92.8608 81.9828 92.6752 82.2711 92.5128C82.5628 92.3471 82.9572 92.2642 83.4544 92.2642C84.0974 92.2642 84.6641 92.425 85.1547 92.7464C85.6452 93.0679 86.028 93.5237 86.3031 94.1136C86.5782 94.7036 86.7157 95.3996 86.7157 96.2017C86.7157 97.0104 86.5782 97.7114 86.3031 98.3047C86.028 98.8946 85.6468 99.352 85.1596 99.6768C84.6724 99.9983 84.1106 100.159 83.4743 100.159C82.9837 100.159 82.591 100.078 82.296 99.9155C82.001 99.7498 81.774 99.5625 81.6149 99.3537C81.4558 99.1416 81.3332 98.9659 81.247 98.8267H81.1475V102.864H79.9743ZM81.1277 96.1818C81.1277 96.7585 81.2122 97.2673 81.3812 97.7081C81.5502 98.1456 81.7972 98.4886 82.122 98.7372C82.4468 98.9825 82.8445 99.1051 83.3152 99.1051C83.8057 99.1051 84.215 98.9759 84.5431 98.7173C84.8746 98.4555 85.1232 98.1042 85.2889 97.6634C85.4579 97.2192 85.5424 96.7254 85.5424 96.1818C85.5424 95.6449 85.4596 95.161 85.2939 94.7301C85.1315 94.2959 84.8845 93.9529 84.5531 93.701C84.225 93.4458 83.8123 93.3182 83.3152 93.3182C82.8379 93.3182 82.4368 93.4392 82.112 93.6811C81.7872 93.9197 81.542 94.2545 81.3762 94.6854C81.2105 95.1129 81.1277 95.6117 81.1277 96.1818ZM91.7072 100.159C90.9714 100.159 90.3367 99.9967 89.8031 99.6719C89.2728 99.3438 88.8635 98.8864 88.5751 98.2997C88.2901 97.7098 88.1475 97.0237 88.1475 96.2415C88.1475 95.4593 88.2901 94.7699 88.5751 94.1733C88.8635 93.5734 89.2645 93.1061 89.7782 92.7713C90.2953 92.4332 90.8985 92.2642 91.5879 92.2642C91.9856 92.2642 92.3784 92.3305 92.7662 92.4631C93.1539 92.5956 93.5069 92.8111 93.8251 93.1094C94.1433 93.4044 94.3968 93.7955 94.5858 94.2827C94.7747 94.7699 94.8691 95.3698 94.8691 96.0824V96.5795H88.9828V95.5653H93.676C93.676 95.1345 93.5898 94.75 93.4174 94.4119C93.2484 94.0739 93.0065 93.8071 92.6916 93.6115C92.38 93.416 92.0121 93.3182 91.5879 93.3182C91.1206 93.3182 90.7162 93.4342 90.3748 93.6662C90.0368 93.8949 89.7766 94.1932 89.5943 94.5611C89.412 94.929 89.3208 95.3234 89.3208 95.7443V96.4205C89.3208 96.9972 89.4203 97.486 89.6191 97.8871C89.8213 98.2848 90.1014 98.5881 90.4593 98.7969C90.8173 99.0024 91.2333 99.1051 91.7072 99.1051C92.0154 99.1051 92.2939 99.062 92.5424 98.9759C92.7943 98.8864 93.0114 98.7538 93.1937 98.5781C93.376 98.3991 93.5169 98.1771 93.6163 97.9119L94.7498 98.2301C94.6305 98.6146 94.43 98.9527 94.1483 99.2443C93.8665 99.5327 93.5185 99.758 93.1042 99.9205C92.6899 100.08 92.2243 100.159 91.7072 100.159ZM101.347 102.864C101.148 102.864 100.971 102.847 100.815 102.814C100.659 102.784 100.552 102.754 100.492 102.724L100.79 101.69C101.075 101.763 101.327 101.79 101.546 101.77C101.765 101.75 101.959 101.652 102.128 101.477C102.3 101.304 102.457 101.024 102.6 100.636L102.819 100.04L99.9949 92.3636H101.268L103.376 98.4489H103.455L105.563 92.3636H106.836L103.594 101.114C103.448 101.508 103.268 101.835 103.052 102.093C102.837 102.355 102.587 102.549 102.302 102.675C102.02 102.801 101.702 102.864 101.347 102.864ZM111.213 100.159C110.524 100.159 109.919 99.995 109.399 99.6669C108.882 99.3388 108.477 98.8797 108.186 98.2898C107.897 97.6998 107.753 97.0104 107.753 96.2216C107.753 95.4261 107.897 94.7318 108.186 94.1385C108.477 93.5452 108.882 93.0845 109.399 92.7564C109.919 92.4283 110.524 92.2642 111.213 92.2642C111.903 92.2642 112.506 92.4283 113.023 92.7564C113.543 93.0845 113.948 93.5452 114.236 94.1385C114.528 94.7318 114.673 95.4261 114.673 96.2216C114.673 97.0104 114.528 97.6998 114.236 98.2898C113.948 98.8797 113.543 99.3388 113.023 99.6669C112.506 99.995 111.903 100.159 111.213 100.159ZM111.213 99.1051C111.737 99.1051 112.168 98.9709 112.506 98.7024C112.844 98.4339 113.094 98.081 113.257 97.6435C113.419 97.206 113.5 96.732 113.5 96.2216C113.5 95.7112 113.419 95.2356 113.257 94.7947C113.094 94.3539 112.844 93.9976 112.506 93.7259C112.168 93.4541 111.737 93.3182 111.213 93.3182C110.69 93.3182 110.259 93.4541 109.921 93.7259C109.583 93.9976 109.332 94.3539 109.17 94.7947C109.008 95.2356 108.926 95.7112 108.926 96.2216C108.926 96.732 109.008 97.206 109.17 97.6435C109.332 98.081 109.583 98.4339 109.921 98.7024C110.259 98.9709 110.69 99.1051 111.213 99.1051ZM121.277 96.8778V92.3636H122.45V100H121.277V98.7074H121.197C121.018 99.0952 120.74 99.425 120.362 99.6967C119.984 99.9652 119.507 100.099 118.93 100.099C118.453 100.099 118.029 99.995 117.658 99.7862C117.286 99.5741 116.995 99.2559 116.783 98.8317C116.571 98.4041 116.464 97.8655 116.464 97.2159V92.3636H117.638V97.1364C117.638 97.6932 117.794 98.1373 118.105 98.4688C118.42 98.8002 118.821 98.9659 119.308 98.9659C119.6 98.9659 119.897 98.8913 120.198 98.7422C120.503 98.593 120.758 98.3643 120.964 98.0561C121.173 97.7479 121.277 97.3551 121.277 96.8778ZM124.599 100V92.3636H125.733V93.517H125.812C125.952 93.1392 126.203 92.8326 126.568 92.5973C126.933 92.362 127.344 92.2443 127.801 92.2443C127.887 92.2443 127.995 92.246 128.124 92.2493C128.253 92.2526 128.351 92.2576 128.417 92.2642V93.4574C128.378 93.4474 128.287 93.4325 128.144 93.4126C128.005 93.3894 127.857 93.3778 127.702 93.3778C127.33 93.3778 126.999 93.4557 126.707 93.6115C126.419 93.764 126.19 93.9761 126.021 94.2479C125.855 94.5163 125.773 94.8229 125.773 95.1676V100H124.599ZM133.746 100V92.3636H134.879V93.5568H134.979C135.138 93.1491 135.395 92.8326 135.749 92.6072C136.104 92.3786 136.53 92.2642 137.027 92.2642C137.531 92.2642 137.95 92.3786 138.285 92.6072C138.623 92.8326 138.886 93.1491 139.075 93.5568H139.155C139.35 93.1624 139.644 92.8492 140.035 92.6172C140.426 92.3819 140.895 92.2642 141.442 92.2642C142.125 92.2642 142.683 92.478 143.117 92.9055C143.551 93.3298 143.768 93.991 143.768 94.8892V100H142.595V94.8892C142.595 94.3258 142.441 93.9231 142.133 93.6811C141.825 93.4392 141.462 93.3182 141.044 93.3182C140.507 93.3182 140.091 93.4806 139.796 93.8054C139.501 94.1269 139.354 94.5346 139.354 95.0284V100H138.161V94.7699C138.161 94.3357 138.02 93.986 137.738 93.7209C137.456 93.4524 137.093 93.3182 136.649 93.3182C136.344 93.3182 136.059 93.3994 135.794 93.5618C135.532 93.7242 135.32 93.9496 135.158 94.2379C134.999 94.523 134.919 94.8527 134.919 95.2273V100H133.746ZM149.115 100.159C148.38 100.159 147.745 99.9967 147.211 99.6719C146.681 99.3438 146.272 98.8864 145.983 98.2997C145.698 97.7098 145.556 97.0237 145.556 96.2415C145.556 95.4593 145.698 94.7699 145.983 94.1733C146.272 93.5734 146.673 93.1061 147.186 92.7713C147.703 92.4332 148.307 92.2642 148.996 92.2642C149.394 92.2642 149.787 92.3305 150.174 92.4631C150.562 92.5956 150.915 92.8111 151.233 93.1094C151.551 93.4044 151.805 93.7955 151.994 94.2827C152.183 94.7699 152.277 95.3698 152.277 96.0824V96.5795H146.391V95.5653H151.084C151.084 95.1345 150.998 94.75 150.826 94.4119C150.657 94.0739 150.415 93.8071 150.1 93.6115C149.788 93.416 149.42 93.3182 148.996 93.3182C148.529 93.3182 148.124 93.4342 147.783 93.6662C147.445 93.8949 147.185 94.1932 147.002 94.5611C146.82 94.929 146.729 95.3234 146.729 95.7443V96.4205C146.729 96.9972 146.828 97.486 147.027 97.8871C147.23 98.2848 147.51 98.5881 147.868 98.7969C148.225 99.0024 148.641 99.1051 149.115 99.1051C149.424 99.1051 149.702 99.062 149.951 98.9759C150.203 98.8864 150.42 98.7538 150.602 98.5781C150.784 98.3991 150.925 98.1771 151.025 97.9119L152.158 98.2301C152.039 98.6146 151.838 98.9527 151.556 99.2443C151.275 99.5327 150.927 99.758 150.512 99.9205C150.098 100.08 149.632 100.159 149.115 100.159ZM159.471 94.0739L158.417 94.3722C158.351 94.1965 158.253 94.0258 158.124 93.8601C157.998 93.6911 157.826 93.5518 157.607 93.4425C157.388 93.3331 157.108 93.2784 156.767 93.2784C156.299 93.2784 155.91 93.3861 155.598 93.6016C155.29 93.8137 155.136 94.0838 155.136 94.4119C155.136 94.7036 155.242 94.9339 155.454 95.103C155.666 95.272 155.998 95.4129 156.449 95.5256L157.582 95.804C158.265 95.9697 158.774 96.2232 159.108 96.5646C159.443 96.9027 159.61 97.3385 159.61 97.8722C159.61 98.3097 159.484 98.7008 159.233 99.0455C158.984 99.3902 158.636 99.6619 158.189 99.8608C157.741 100.06 157.221 100.159 156.627 100.159C155.849 100.159 155.204 99.9901 154.694 99.652C154.183 99.3139 153.86 98.8201 153.724 98.1705L154.838 97.892C154.944 98.303 155.144 98.6113 155.439 98.8168C155.738 99.0223 156.127 99.125 156.608 99.125C157.154 99.125 157.589 99.009 157.91 98.777C158.235 98.5417 158.397 98.2599 158.397 97.9318C158.397 97.6667 158.305 97.4446 158.119 97.2656C157.933 97.0833 157.648 96.9474 157.264 96.858L155.991 96.5597C155.292 96.3939 154.778 96.1371 154.45 95.7891C154.125 95.4377 153.963 94.9986 153.963 94.4716C153.963 94.0407 154.084 93.6596 154.326 93.3281C154.571 92.9967 154.904 92.7365 155.325 92.5476C155.749 92.3587 156.23 92.2642 156.767 92.2642C157.522 92.2642 158.116 92.4299 158.547 92.7614C158.981 93.0928 159.289 93.5303 159.471 94.0739ZM166.786 94.0739L165.732 94.3722C165.665 94.1965 165.568 94.0258 165.438 93.8601C165.312 93.6911 165.14 93.5518 164.921 93.4425C164.703 93.3331 164.423 93.2784 164.081 93.2784C163.614 93.2784 163.224 93.3861 162.913 93.6016C162.605 93.8137 162.45 94.0838 162.45 94.4119C162.45 94.7036 162.557 94.9339 162.769 95.103C162.981 95.272 163.312 95.4129 163.763 95.5256L164.896 95.804C165.579 95.9697 166.088 96.2232 166.423 96.5646C166.758 96.9027 166.925 97.3385 166.925 97.8722C166.925 98.3097 166.799 98.7008 166.547 99.0455C166.298 99.3902 165.95 99.6619 165.503 99.8608C165.056 100.06 164.535 100.159 163.942 100.159C163.163 100.159 162.518 99.9901 162.008 99.652C161.498 99.3139 161.174 98.8201 161.039 98.1705L162.152 97.892C162.258 98.303 162.459 98.6113 162.754 98.8168C163.052 99.0223 163.441 99.125 163.922 99.125C164.469 99.125 164.903 99.009 165.225 98.777C165.549 98.5417 165.712 98.2599 165.712 97.9318C165.712 97.6667 165.619 97.4446 165.433 97.2656C165.248 97.0833 164.963 96.9474 164.578 96.858L163.306 96.5597C162.606 96.3939 162.093 96.1371 161.764 95.7891C161.44 95.4377 161.277 94.9986 161.277 94.4716C161.277 94.0407 161.398 93.6596 161.64 93.3281C161.885 92.9967 162.218 92.7365 162.639 92.5476C163.064 92.3587 163.544 92.2642 164.081 92.2642C164.837 92.2642 165.43 92.4299 165.861 92.7614C166.295 93.0928 166.603 93.5303 166.786 94.0739ZM170.938 100.179C170.454 100.179 170.015 100.088 169.621 99.9055C169.226 99.7199 168.913 99.4531 168.681 99.1051C168.449 98.7538 168.333 98.3295 168.333 97.8324C168.333 97.3949 168.419 97.0402 168.592 96.7685C168.764 96.4934 168.994 96.2779 169.283 96.1222C169.571 95.9664 169.889 95.8504 170.237 95.7741C170.589 95.6946 170.942 95.6316 171.296 95.5852C171.76 95.5256 172.136 95.4808 172.425 95.451C172.716 95.4179 172.929 95.3632 173.061 95.2869C173.197 95.2107 173.265 95.0781 173.265 94.8892V94.8494C173.265 94.3589 173.131 93.9777 172.862 93.706C172.597 93.4342 172.194 93.2983 171.654 93.2983C171.094 93.2983 170.655 93.4209 170.337 93.6662C170.018 93.9115 169.795 94.1733 169.665 94.4517L168.552 94.054C168.751 93.59 169.016 93.2287 169.347 92.9702C169.682 92.7083 170.047 92.526 170.441 92.4233C170.839 92.3172 171.23 92.2642 171.614 92.2642C171.86 92.2642 172.141 92.294 172.46 92.3537C172.781 92.41 173.091 92.5277 173.389 92.7067C173.691 92.8857 173.941 93.1558 174.14 93.517C174.339 93.8783 174.438 94.3622 174.438 94.9688V100H173.265V98.9659H173.205C173.126 99.1316 172.993 99.3089 172.808 99.4979C172.622 99.6868 172.375 99.8475 172.067 99.9801C171.759 100.113 171.382 100.179 170.938 100.179ZM171.117 99.125C171.581 99.125 171.972 99.0339 172.29 98.8516C172.612 98.6693 172.854 98.4339 173.016 98.1456C173.182 97.8572 173.265 97.554 173.265 97.2358V96.1619C173.215 96.2216 173.106 96.2763 172.937 96.326C172.771 96.3724 172.579 96.4138 172.36 96.4503C172.145 96.4834 171.934 96.5133 171.729 96.5398C171.527 96.563 171.362 96.5829 171.237 96.5994C170.932 96.6392 170.647 96.7038 170.381 96.7933C170.12 96.8795 169.907 97.0104 169.745 97.1861C169.586 97.3584 169.506 97.5937 169.506 97.892C169.506 98.2997 169.657 98.608 169.959 98.8168C170.264 99.0223 170.65 99.125 171.117 99.125ZM179.662 103.023C179.095 103.023 178.608 102.95 178.2 102.804C177.793 102.661 177.453 102.473 177.181 102.237C176.913 102.005 176.699 101.757 176.54 101.491L177.475 100.835C177.581 100.974 177.715 101.134 177.877 101.312C178.04 101.495 178.262 101.652 178.544 101.785C178.829 101.921 179.201 101.989 179.662 101.989C180.279 101.989 180.787 101.839 181.188 101.541C181.589 101.243 181.79 100.776 181.79 100.139V98.5881H181.691C181.604 98.7273 181.482 98.8996 181.323 99.1051C181.167 99.3073 180.941 99.4879 180.646 99.647C180.355 99.8028 179.96 99.8807 179.463 99.8807C178.847 99.8807 178.293 99.7348 177.803 99.4432C177.316 99.1515 176.929 98.7273 176.644 98.1705C176.363 97.6136 176.222 96.9375 176.222 96.142C176.222 95.3598 176.359 94.6787 176.634 94.0987C176.91 93.5154 177.292 93.0646 177.783 92.7464C178.273 92.425 178.84 92.2642 179.483 92.2642C179.98 92.2642 180.375 92.3471 180.666 92.5128C180.961 92.6752 181.187 92.8608 181.343 93.0696C181.502 93.2751 181.624 93.4441 181.71 93.5767H181.83V92.3636H182.963V100.219C182.963 100.875 182.814 101.409 182.516 101.82C182.221 102.234 181.823 102.537 181.323 102.729C180.825 102.925 180.272 103.023 179.662 103.023ZM179.622 98.8267C180.093 98.8267 180.491 98.719 180.816 98.5036C181.14 98.2881 181.387 97.9782 181.556 97.5739C181.725 97.1695 181.81 96.6856 181.81 96.1222C181.81 95.572 181.727 95.0864 181.561 94.6655C181.396 94.2446 181.15 93.9148 180.825 93.6761C180.501 93.4375 180.1 93.3182 179.622 93.3182C179.125 93.3182 178.711 93.4441 178.379 93.696C178.051 93.9479 177.804 94.286 177.639 94.7102C177.476 95.1345 177.395 95.6051 177.395 96.1222C177.395 96.6525 177.478 97.1214 177.644 97.5291C177.813 97.9335 178.061 98.2517 178.389 98.4837C178.721 98.7124 179.132 98.8267 179.622 98.8267ZM188.313 100.159C187.577 100.159 186.942 99.9967 186.409 99.6719C185.878 99.3438 185.469 98.8864 185.181 98.2997C184.896 97.7098 184.753 97.0237 184.753 96.2415C184.753 95.4593 184.896 94.7699 185.181 94.1733C185.469 93.5734 185.87 93.1061 186.384 92.7713C186.901 92.4332 187.504 92.2642 188.193 92.2642C188.591 92.2642 188.984 92.3305 189.372 92.4631C189.759 92.5956 190.112 92.8111 190.431 93.1094C190.749 93.4044 191.002 93.7955 191.191 94.2827C191.38 94.7699 191.475 95.3698 191.475 96.0824V96.5795H185.588V95.5653H190.281C190.281 95.1345 190.195 94.75 190.023 94.4119C189.854 94.0739 189.612 93.8071 189.297 93.6115C188.985 93.416 188.618 93.3182 188.193 93.3182C187.726 93.3182 187.322 93.4342 186.98 93.6662C186.642 93.8949 186.382 94.1932 186.2 94.5611C186.017 94.929 185.926 95.3234 185.926 95.7443V96.4205C185.926 96.9972 186.026 97.486 186.225 97.8871C186.427 98.2848 186.707 98.5881 187.065 98.7969C187.423 99.0024 187.839 99.1051 188.313 99.1051C188.621 99.1051 188.899 99.062 189.148 98.9759C189.4 98.8864 189.617 98.7538 189.799 98.5781C189.981 98.3991 190.122 98.1771 190.222 97.9119L191.355 98.2301C191.236 98.6146 191.035 98.9527 190.754 99.2443C190.472 99.5327 190.124 99.758 189.71 99.9205C189.295 100.08 188.83 100.159 188.313 100.159ZM198.37 95.4062V100H197.197V89.8182H198.37V93.5568H198.47C198.649 93.1624 198.917 92.8492 199.275 92.6172C199.636 92.3819 200.117 92.2642 200.717 92.2642C201.237 92.2642 201.693 92.3686 202.084 92.5774C202.475 92.7829 202.778 93.0994 202.994 93.527C203.213 93.9512 203.322 94.4915 203.322 95.1477V100H202.149V95.2273C202.149 94.6207 201.991 94.1518 201.676 93.8203C201.365 93.4856 200.932 93.3182 200.379 93.3182C199.994 93.3182 199.65 93.3994 199.345 93.5618C199.043 93.7242 198.804 93.9612 198.629 94.2727C198.456 94.5843 198.37 94.9621 198.37 95.4062ZM208.67 100.159C207.934 100.159 207.3 99.9967 206.766 99.6719C206.236 99.3438 205.826 98.8864 205.538 98.2997C205.253 97.7098 205.11 97.0237 205.11 96.2415C205.11 95.4593 205.253 94.7699 205.538 94.1733C205.826 93.5734 206.227 93.1061 206.741 92.7713C207.258 92.4332 207.861 92.2642 208.551 92.2642C208.949 92.2642 209.341 92.3305 209.729 92.4631C210.117 92.5956 210.47 92.8111 210.788 93.1094C211.106 93.4044 211.36 93.7955 211.549 94.2827C211.738 94.7699 211.832 95.3698 211.832 96.0824V96.5795H205.946V95.5653H210.639C210.639 95.1345 210.553 94.75 210.38 94.4119C210.211 94.0739 209.969 93.8071 209.654 93.6115C209.343 93.416 208.975 93.3182 208.551 93.3182C208.083 93.3182 207.679 93.4342 207.338 93.6662C207 93.8949 206.739 94.1932 206.557 94.5611C206.375 94.929 206.284 95.3234 206.284 95.7443V96.4205C206.284 96.9972 206.383 97.486 206.582 97.8871C206.784 98.2848 207.064 98.5881 207.422 98.7969C207.78 99.0024 208.196 99.1051 208.67 99.1051C208.978 99.1051 209.257 99.062 209.505 98.9759C209.757 98.8864 209.974 98.7538 210.157 98.5781C210.339 98.3991 210.48 98.1771 210.579 97.9119L211.713 98.2301C211.593 98.6146 211.393 98.9527 211.111 99.2443C210.829 99.5327 210.481 99.758 210.067 99.9205C209.653 100.08 209.187 100.159 208.67 100.159ZM213.617 100V92.3636H214.75V93.517H214.83C214.969 93.1392 215.221 92.8326 215.586 92.5973C215.95 92.362 216.361 92.2443 216.819 92.2443C216.905 92.2443 217.012 92.246 217.142 92.2493C217.271 92.2526 217.369 92.2576 217.435 92.2642V93.4574C217.395 93.4474 217.304 93.4325 217.162 93.4126C217.022 93.3894 216.875 93.3778 216.719 93.3778C216.348 93.3778 216.016 93.4557 215.725 93.6115C215.436 93.764 215.208 93.9761 215.039 94.2479C214.873 94.5163 214.79 94.8229 214.79 95.1676V100H213.617ZM221.795 100.159C221.059 100.159 220.425 99.9967 219.891 99.6719C219.361 99.3438 218.951 98.8864 218.663 98.2997C218.378 97.7098 218.235 97.0237 218.235 96.2415C218.235 95.4593 218.378 94.7699 218.663 94.1733C218.951 93.5734 219.352 93.1061 219.866 92.7713C220.383 92.4332 220.986 92.2642 221.676 92.2642C222.074 92.2642 222.466 92.3305 222.854 92.4631C223.242 92.5956 223.595 92.8111 223.913 93.1094C224.231 93.4044 224.485 93.7955 224.674 94.2827C224.863 94.7699 224.957 95.3698 224.957 96.0824V96.5795H219.071V95.5653H223.764C223.764 95.1345 223.678 94.75 223.505 94.4119C223.336 94.0739 223.094 93.8071 222.779 93.6115C222.468 93.416 222.1 93.3182 221.676 93.3182C221.208 93.3182 220.804 93.4342 220.463 93.6662C220.125 93.8949 219.864 94.1932 219.682 94.5611C219.5 94.929 219.409 95.3234 219.409 95.7443V96.4205C219.409 96.9972 219.508 97.486 219.707 97.8871C219.909 98.2848 220.189 98.5881 220.547 98.7969C220.905 99.0024 221.321 99.1051 221.795 99.1051C222.103 99.1051 222.382 99.062 222.63 98.9759C222.882 98.8864 223.099 98.7538 223.282 98.5781C223.464 98.3991 223.605 98.1771 223.704 97.9119L224.838 98.2301C224.718 98.6146 224.518 98.9527 224.236 99.2443C223.954 99.5327 223.606 99.758 223.192 99.9205C222.778 100.08 222.312 100.159 221.795 100.159Z" fill="#94A3B8"/>
</svg>
