<svg width="380" height="250" viewBox="0 0 380 250" fill="none" xmlns="http://www.w3.org/2000/svg">
<rect width="380" height="250" fill="white"/>
<path d="M59.232 101.352H60.464C61.296 101.352 62.0747 101.347 62.8 101.336C63.5253 101.315 64.2347 101.277 64.928 101.224C65.6213 101.16 66.3413 101.075 67.088 100.968L67.28 102.648C66.5333 102.765 65.7973 102.856 65.072 102.92C64.3573 102.984 63.6213 103.027 62.864 103.048C62.1173 103.059 61.3173 103.064 60.464 103.064H59.232V101.352ZM59.232 92.824H66.192V94.552H61.36V101.912H59.232V92.824ZM60.848 96.952H65.984V98.616H60.848V96.952ZM68.112 91.608H70.256V106.424H68.112V91.608ZM69.792 97.224H72.4V98.968H69.792V97.224ZM83.5348 91.576H85.6628V106.44H83.5348V91.576ZM77.6788 92.616C78.4361 92.616 79.1081 92.8347 79.6948 93.272C80.2814 93.6987 80.7401 94.312 81.0708 95.112C81.4121 95.9013 81.5828 96.8347 81.5828 97.912C81.5828 99 81.4121 99.944 81.0708 100.744C80.7401 101.533 80.2814 102.147 79.6948 102.584C79.1081 103.011 78.4361 103.224 77.6788 103.224C76.9321 103.224 76.2654 103.011 75.6788 102.584C75.0921 102.147 74.6281 101.533 74.2868 100.744C73.9561 99.944 73.7908 99 73.7908 97.912C73.7908 96.8347 73.9561 95.9013 74.2868 95.112C74.6281 94.312 75.0921 93.6987 75.6788 93.272C76.2654 92.8347 76.9321 92.616 77.6788 92.616ZM77.6788 94.552C77.3161 94.552 76.9961 94.68 76.7188 94.936C76.4414 95.192 76.2228 95.5707 76.0628 96.072C75.9134 96.5627 75.8388 97.176 75.8388 97.912C75.8388 98.6373 75.9134 99.256 76.0628 99.768C76.2228 100.269 76.4414 100.648 76.7188 100.904C76.9961 101.16 77.3161 101.288 77.6788 101.288C78.0521 101.288 78.3774 101.16 78.6548 100.904C78.9321 100.648 79.1454 100.269 79.2948 99.768C79.4548 99.256 79.5348 98.6373 79.5348 97.912C79.5348 97.176 79.4548 96.5627 79.2948 96.072C79.1454 95.5707 78.9321 95.192 78.6548 94.936C78.3774 94.68 78.0521 94.552 77.6788 94.552ZM89.7415 96.12H100.062V97.56H89.7415V96.12ZM89.7415 91.896H99.9335V93.336H91.8535V96.824H89.7415V91.896ZM91.2455 94.04H99.6135V95.416H91.2455V94.04ZM88.1255 98.232H101.454V99.8H88.1255V98.232ZM89.6135 100.488H99.8535V104.072H91.7415V105.576H89.6295V102.664H97.7575V101.96H89.6135V100.488ZM89.6295 104.824H100.254V106.328H89.6295V104.824Z" fill="black"/>
<path d="M58.712 121.328H59.28C59.7227 121.328 60.128 121.323 60.496 121.312C60.864 121.301 61.2187 121.28 61.56 121.248C61.9067 121.216 62.2613 121.168 62.624 121.104L62.688 121.648C62.32 121.712 61.96 121.763 61.608 121.8C61.256 121.832 60.8907 121.853 60.512 121.864C60.1387 121.875 59.728 121.88 59.28 121.88H58.712V121.328ZM58.712 117.04H62.08V117.592H59.376V121.52H58.712V117.04ZM59.208 119.072H61.92V119.608H59.208V119.072ZM63.296 116.384H63.96V123.624H63.296V116.384ZM63.808 119.288H65.144V119.848H63.808V119.288ZM71.0154 116.384H71.6794V123.632H71.0154V116.384ZM67.8634 116.944C68.2207 116.944 68.5354 117.048 68.8074 117.256C69.0847 117.459 69.3007 117.749 69.4554 118.128C69.6154 118.507 69.6954 118.952 69.6954 119.464C69.6954 119.976 69.6154 120.421 69.4554 120.8C69.3007 121.179 69.0847 121.472 68.8074 121.68C68.5354 121.888 68.2207 121.992 67.8634 121.992C67.506 121.992 67.1887 121.888 66.9114 121.68C66.634 121.472 66.4154 121.179 66.2554 120.8C66.1007 120.421 66.0234 119.976 66.0234 119.464C66.0234 118.952 66.1007 118.507 66.2554 118.128C66.4154 117.749 66.634 117.459 66.9114 117.256C67.1887 117.048 67.506 116.944 67.8634 116.944ZM67.8634 117.536C67.6234 117.536 67.4127 117.616 67.2314 117.776C67.0554 117.931 66.9167 118.155 66.8154 118.448C66.714 118.736 66.6634 119.075 66.6634 119.464C66.6634 119.853 66.714 120.195 66.8154 120.488C66.9167 120.776 67.0554 121 67.2314 121.16C67.4127 121.32 67.6234 121.4 67.8634 121.4C68.098 121.4 68.3034 121.32 68.4794 121.16C68.6607 121 68.802 120.776 68.9034 120.488C69.0047 120.195 69.0554 119.853 69.0554 119.464C69.0554 119.075 69.0047 118.736 68.9034 118.448C68.802 118.155 68.6607 117.931 68.4794 117.776C68.3034 117.616 68.098 117.536 67.8634 117.536ZM73.9748 118.704H78.8868V119.184H73.9748V118.704ZM73.9748 116.568H78.8468V117.048H74.6388V118.936H73.9748V116.568ZM74.4388 117.624H78.6548V118.088H74.4388V117.624ZM73.1268 119.728H79.6468V120.24H73.1268V119.728ZM73.9108 120.792H78.8148V122.368H74.5748V123.264H73.9268V121.896H78.1668V121.28H73.9108V120.792ZM73.9268 123.048H79.0308V123.544H73.9268V123.048ZM80.4781 120.192H87.0141V120.728H80.4781V120.192ZM81.3181 122.92H86.2861V123.464H81.3181V122.92ZM81.3181 121.368H81.9821V123.08H81.3181V121.368ZM83.7421 116.632C84.2595 116.632 84.7075 116.691 85.0861 116.808C85.4701 116.92 85.7661 117.085 85.9741 117.304C86.1821 117.517 86.2861 117.773 86.2861 118.072C86.2861 118.371 86.1821 118.629 85.9741 118.848C85.7661 119.067 85.4701 119.235 85.0861 119.352C84.7075 119.464 84.2595 119.52 83.7421 119.52C83.2248 119.52 82.7741 119.464 82.3901 119.352C82.0115 119.235 81.7181 119.067 81.5101 118.848C81.3021 118.629 81.1981 118.371 81.1981 118.072C81.1981 117.773 81.3021 117.517 81.5101 117.304C81.7181 117.085 82.0115 116.92 82.3901 116.808C82.7741 116.691 83.2248 116.632 83.7421 116.632ZM83.7421 117.168C83.3688 117.168 83.0408 117.205 82.7581 117.28C82.4808 117.349 82.2648 117.453 82.1101 117.592C81.9555 117.725 81.8781 117.885 81.8781 118.072C81.8781 118.259 81.9555 118.421 82.1101 118.56C82.2648 118.693 82.4808 118.797 82.7581 118.872C83.0408 118.941 83.3688 118.976 83.7421 118.976C84.1261 118.976 84.4568 118.941 84.7341 118.872C85.0115 118.797 85.2248 118.693 85.3741 118.56C85.5288 118.421 85.6061 118.259 85.6061 118.072C85.6061 117.885 85.5288 117.725 85.3741 117.592C85.2248 117.453 85.0115 117.349 84.7341 117.28C84.4568 117.205 84.1261 117.168 83.7421 117.168ZM90.7307 116.728H95.3867V117.272H90.7307V116.728ZM95.0267 116.728H95.6827V117.344C95.6827 117.68 95.6747 118.04 95.6587 118.424C95.6427 118.808 95.584 119.248 95.4827 119.744L94.8267 119.688C94.928 119.203 94.9867 118.773 95.0027 118.4C95.0187 118.027 95.0267 117.675 95.0267 117.344V116.728ZM95.2107 118.056V118.552L90.6507 118.76L90.5547 118.2L95.2107 118.056ZM89.9627 120.224H96.4827V120.76H89.9627V120.224ZM92.6107 119.176H93.2747V120.568H92.6107V119.176ZM90.7867 122.968H95.8427V123.512H90.7867V122.968ZM90.7867 121.376H91.4507V123.184H90.7867V121.376ZM100.426 118.44H101.658V118.976H100.426V118.44ZM102.778 116.392H103.41V121.816H102.778V116.392ZM101.378 116.536H102.01V121.624H101.378V116.536ZM98.7221 122.92H103.626V123.464H98.7221V122.92ZM98.7221 121.216H99.3861V123.24H98.7221V121.216ZM97.6421 120.072H98.0981C98.4767 120.072 98.8101 120.069 99.0981 120.064C99.3914 120.053 99.6661 120.035 99.9221 120.008C100.178 119.976 100.437 119.936 100.698 119.888L100.77 120.416C100.493 120.475 100.223 120.52 99.9621 120.552C99.7007 120.579 99.4207 120.597 99.1221 120.608C98.8287 120.613 98.4874 120.616 98.0981 120.616H97.6421V120.072ZM97.6421 116.984H100.378V117.528H98.2821V120.272H97.6421V116.984ZM98.0821 118.512H100.09V119.032H98.0821V118.512ZM104.673 122.144H111.233V122.696H104.673V122.144ZM107.609 117.92H108.201V118.08C108.201 118.464 108.124 118.816 107.969 119.136C107.815 119.451 107.604 119.731 107.337 119.976C107.076 120.216 106.772 120.419 106.425 120.584C106.079 120.749 105.711 120.869 105.321 120.944L105.057 120.408C105.404 120.344 105.729 120.243 106.033 120.104C106.343 119.965 106.615 119.795 106.849 119.592C107.089 119.389 107.276 119.16 107.409 118.904C107.543 118.648 107.609 118.373 107.609 118.08V117.92ZM107.697 117.92H108.281V118.08C108.281 118.373 108.348 118.648 108.481 118.904C108.615 119.16 108.799 119.389 109.033 119.592C109.273 119.795 109.545 119.965 109.849 120.104C110.159 120.243 110.487 120.344 110.833 120.408L110.569 120.944C110.18 120.869 109.812 120.749 109.465 120.584C109.124 120.419 108.82 120.216 108.553 119.976C108.287 119.731 108.076 119.451 107.921 119.136C107.772 118.816 107.697 118.464 107.697 118.08V117.92ZM105.281 117.544H110.609V118.088H105.281V117.544ZM107.617 116.552H108.273V117.736H107.617V116.552ZM114.966 116.856H119.494V117.392H114.966V116.856ZM114.15 119.96H120.686V120.512H114.15V119.96ZM117.07 120.328H117.734V123.632H117.07V120.328ZM119.174 116.856H119.83V117.488C119.83 117.739 119.825 118.003 119.814 118.28C119.809 118.557 119.787 118.864 119.75 119.2C119.713 119.531 119.649 119.899 119.558 120.304L118.894 120.216C119.038 119.635 119.121 119.125 119.142 118.688C119.163 118.251 119.174 117.851 119.174 117.488V116.856ZM121.509 122.144H128.069V122.696H121.509V122.144ZM124.453 120.392H125.117V122.328H124.453V120.392ZM124.437 117.304H125.005V117.744C125.005 118.043 124.949 118.325 124.837 118.592C124.731 118.853 124.581 119.099 124.389 119.328C124.203 119.552 123.984 119.752 123.733 119.928C123.488 120.099 123.224 120.248 122.941 120.376C122.664 120.499 122.384 120.589 122.101 120.648L121.829 120.12C122.075 120.077 122.323 120.005 122.573 119.904C122.824 119.797 123.059 119.669 123.277 119.52C123.501 119.371 123.699 119.203 123.869 119.016C124.045 118.829 124.184 118.629 124.285 118.416C124.387 118.203 124.437 117.979 124.437 117.744V117.304ZM124.565 117.304H125.125V117.744C125.125 117.979 125.176 118.203 125.277 118.416C125.379 118.624 125.517 118.821 125.693 119.008C125.869 119.195 126.069 119.363 126.293 119.512C126.517 119.656 126.755 119.779 127.005 119.88C127.261 119.981 127.515 120.051 127.765 120.088L127.493 120.616C127.205 120.557 126.92 120.469 126.637 120.352C126.355 120.229 126.088 120.083 125.837 119.912C125.592 119.736 125.373 119.539 125.181 119.32C124.989 119.096 124.837 118.853 124.725 118.592C124.619 118.325 124.565 118.043 124.565 117.744V117.304ZM122.053 117.04H127.509V117.592H122.053V117.04ZM128.861 119.744H135.421V120.256H128.861V119.744ZM129.645 120.832H134.605V122.376H130.317V123.224H129.661V121.92H133.949V121.312H129.645V120.832ZM129.661 123.048H134.837V123.528H129.661V123.048ZM129.693 116.6H134.581V118.104H130.365V118.888H129.709V117.656H133.925V117.072H129.693V116.6ZM129.709 118.728H134.709V119.208H129.709V118.728ZM139.161 116.856H143.689V117.392H139.161V116.856ZM138.345 119.96H144.881V120.512H138.345V119.96ZM141.265 120.328H141.929V123.632H141.265V120.328ZM143.369 116.856H144.025V117.488C144.025 117.739 144.02 118.003 144.009 118.28C144.004 118.557 143.983 118.864 143.945 119.2C143.908 119.531 143.844 119.899 143.753 120.304L143.089 120.216C143.233 119.635 143.316 119.125 143.337 118.688C143.359 118.251 143.369 117.851 143.369 117.488V116.856ZM145.697 120.208H152.257V120.744H145.697V120.208ZM148.689 120.48H149.353V122.144H148.689V120.48ZM146.529 122.92H151.529V123.464H146.529V122.92ZM146.529 121.496H147.185V123.12H146.529V121.496ZM146.569 116.616H147.225V117.536H150.729V116.616H151.385V119.512H146.569V116.616ZM147.225 118.048V118.976H150.729V118.048H147.225ZM157.968 116.384H158.624V123.624H157.968V116.384ZM158.472 119.36H159.808V119.92H158.472V119.36ZM153.024 117.544H157.288V118.088H153.024V117.544ZM155.192 118.68C155.533 118.68 155.835 118.752 156.096 118.896C156.363 119.04 156.571 119.237 156.72 119.488C156.875 119.733 156.952 120.019 156.952 120.344C156.952 120.669 156.875 120.957 156.72 121.208C156.571 121.459 156.363 121.656 156.096 121.8C155.835 121.939 155.533 122.008 155.192 122.008C154.851 122.008 154.547 121.939 154.28 121.8C154.019 121.656 153.811 121.459 153.656 121.208C153.501 120.957 153.424 120.669 153.424 120.344C153.424 120.019 153.501 119.733 153.656 119.488C153.811 119.237 154.019 119.04 154.28 118.896C154.547 118.752 154.851 118.68 155.192 118.68ZM155.192 119.232C154.973 119.232 154.779 119.28 154.608 119.376C154.437 119.472 154.301 119.603 154.2 119.768C154.104 119.933 154.056 120.125 154.056 120.344C154.056 120.563 154.104 120.757 154.2 120.928C154.301 121.093 154.437 121.224 154.608 121.32C154.779 121.411 154.973 121.456 155.192 121.456C155.405 121.456 155.597 121.411 155.768 121.32C155.939 121.224 156.072 121.093 156.168 120.928C156.269 120.757 156.32 120.563 156.32 120.344C156.32 120.125 156.269 119.933 156.168 119.768C156.072 119.603 155.939 119.472 155.768 119.376C155.597 119.28 155.405 119.232 155.192 119.232ZM154.848 116.472H155.512V117.784H154.848V116.472ZM161.119 117.112H165.775V117.656H161.119V117.112ZM160.423 122.056H166.959V122.608H160.423V122.056ZM162.967 119.472H163.623V122.336H162.967V119.472ZM165.519 117.112H166.183V117.824C166.183 118.123 166.178 118.437 166.167 118.768C166.162 119.099 166.141 119.461 166.103 119.856C166.071 120.251 166.01 120.691 165.919 121.176L165.247 121.096C165.386 120.403 165.466 119.795 165.487 119.272C165.509 118.744 165.519 118.261 165.519 117.824V117.112ZM171.668 117.008H172.212V118.304C172.212 118.704 172.161 119.096 172.06 119.48C171.964 119.864 171.825 120.224 171.644 120.56C171.463 120.896 171.249 121.195 171.004 121.456C170.759 121.717 170.492 121.925 170.204 122.08L169.796 121.544C170.063 121.411 170.308 121.232 170.532 121.008C170.761 120.779 170.961 120.517 171.132 120.224C171.303 119.931 171.433 119.621 171.524 119.296C171.62 118.965 171.668 118.635 171.668 118.304V117.008ZM171.788 117.008H172.324V118.304C172.324 118.624 172.369 118.941 172.46 119.256C172.556 119.571 172.689 119.867 172.86 120.144C173.031 120.421 173.225 120.669 173.444 120.888C173.668 121.107 173.908 121.28 174.164 121.408L173.756 121.936C173.473 121.792 173.212 121.595 172.972 121.344C172.737 121.093 172.529 120.808 172.348 120.488C172.172 120.163 172.033 119.816 171.932 119.448C171.836 119.075 171.788 118.693 171.788 118.304V117.008ZM174.796 116.384H175.46V123.624H174.796V116.384ZM175.308 119.312H176.644V119.88H175.308V119.312ZM178.867 118.84H179.531V120.2H178.867V118.84ZM181.523 118.84H182.179V120.2H181.523V118.84ZM177.259 119.96H183.795V120.496H177.259V119.96ZM180.523 121.048C181.297 121.048 181.902 121.157 182.339 121.376C182.777 121.595 182.995 121.909 182.995 122.32C182.995 122.736 182.777 123.053 182.339 123.272C181.902 123.496 181.297 123.608 180.523 123.608C179.75 123.608 179.142 123.496 178.699 123.272C178.262 123.053 178.043 122.736 178.043 122.32C178.043 121.909 178.262 121.595 178.699 121.376C179.142 121.157 179.75 121.048 180.523 121.048ZM180.523 121.56C180.145 121.56 179.819 121.589 179.547 121.648C179.281 121.707 179.075 121.795 178.931 121.912C178.787 122.024 178.715 122.16 178.715 122.32C178.715 122.491 178.787 122.635 178.931 122.752C179.075 122.864 179.281 122.949 179.547 123.008C179.819 123.067 180.145 123.096 180.523 123.096C180.902 123.096 181.225 123.067 181.491 123.008C181.763 122.949 181.971 122.864 182.115 122.752C182.259 122.635 182.331 122.491 182.331 122.32C182.331 122.16 182.259 122.024 182.115 121.912C181.971 121.795 181.763 121.707 181.491 121.648C181.225 121.589 180.902 121.56 180.523 121.56ZM180.523 116.52C181.046 116.52 181.497 116.573 181.875 116.68C182.259 116.787 182.553 116.941 182.755 117.144C182.963 117.341 183.067 117.581 183.067 117.864C183.067 118.141 182.963 118.381 182.755 118.584C182.553 118.787 182.259 118.941 181.875 119.048C181.497 119.149 181.046 119.2 180.523 119.2C180.001 119.2 179.547 119.149 179.163 119.048C178.785 118.941 178.491 118.787 178.283 118.584C178.081 118.381 177.979 118.141 177.979 117.864C177.979 117.581 178.081 117.341 178.283 117.144C178.491 116.941 178.785 116.787 179.163 116.68C179.547 116.573 180.001 116.52 180.523 116.52ZM180.523 117.04C180.145 117.04 179.814 117.072 179.531 117.136C179.254 117.2 179.038 117.293 178.883 117.416C178.734 117.539 178.659 117.688 178.659 117.864C178.659 118.035 178.734 118.184 178.883 118.312C179.038 118.435 179.254 118.528 179.531 118.592C179.814 118.656 180.145 118.688 180.523 118.688C180.913 118.688 181.246 118.656 181.523 118.592C181.801 118.528 182.014 118.435 182.163 118.312C182.313 118.184 182.387 118.035 182.387 117.864C182.387 117.688 182.313 117.539 182.163 117.416C182.014 117.293 181.801 117.2 181.523 117.136C181.246 117.072 180.913 117.04 180.523 117.04ZM186.403 117.424H186.939V118.592C186.939 118.971 186.885 119.347 186.779 119.72C186.672 120.088 186.523 120.437 186.331 120.768C186.144 121.093 185.928 121.384 185.683 121.64C185.437 121.891 185.173 122.088 184.891 122.232L184.499 121.704C184.76 121.576 185.003 121.403 185.227 121.184C185.456 120.96 185.659 120.707 185.835 120.424C186.011 120.136 186.149 119.837 186.251 119.528C186.352 119.213 186.403 118.901 186.403 118.592V117.424ZM186.531 117.424H187.059V118.592C187.059 118.88 187.104 119.171 187.195 119.464C187.291 119.757 187.424 120.037 187.595 120.304C187.765 120.571 187.963 120.811 188.187 121.024C188.416 121.232 188.659 121.4 188.915 121.528L188.539 122.056C188.256 121.912 187.992 121.72 187.747 121.48C187.501 121.235 187.288 120.957 187.107 120.648C186.925 120.339 186.784 120.008 186.683 119.656C186.581 119.304 186.531 118.949 186.531 118.592V117.424ZM184.755 117.128H188.659V117.68H184.755V117.128ZM189.515 116.384H190.179V123.624H189.515V116.384ZM190.027 119.304H191.363V119.864H190.027V119.304ZM194.914 119.2H196.274V119.744H194.914V119.2ZM197.49 116.384H198.13V123.624H197.49V116.384ZM196.05 116.536H196.682V123.256H196.05V116.536ZM193.602 116.992C193.917 116.992 194.189 117.093 194.418 117.296C194.653 117.499 194.834 117.789 194.962 118.168C195.09 118.547 195.154 118.992 195.154 119.504C195.154 120.021 195.09 120.469 194.962 120.848C194.834 121.227 194.653 121.52 194.418 121.728C194.189 121.931 193.917 122.032 193.602 122.032C193.298 122.032 193.029 121.931 192.794 121.728C192.565 121.52 192.386 121.227 192.258 120.848C192.13 120.469 192.066 120.021 192.066 119.504C192.066 118.992 192.13 118.547 192.258 118.168C192.386 117.789 192.565 117.499 192.794 117.296C193.029 117.093 193.298 116.992 193.602 116.992ZM193.602 117.608C193.415 117.608 193.253 117.685 193.114 117.84C192.975 117.995 192.869 118.213 192.794 118.496C192.719 118.779 192.682 119.115 192.682 119.504C192.682 119.893 192.719 120.232 192.794 120.52C192.869 120.803 192.975 121.021 193.114 121.176C193.253 121.331 193.415 121.408 193.602 121.408C193.794 121.408 193.959 121.331 194.098 121.176C194.242 121.021 194.351 120.803 194.426 120.52C194.501 120.232 194.538 119.893 194.538 119.504C194.538 119.115 194.501 118.779 194.426 118.496C194.351 118.213 194.242 117.995 194.098 117.84C193.959 117.685 193.794 117.608 193.602 117.608ZM204.85 116.384H205.49V123.624H204.85V116.384ZM201.706 119.344H203.53V119.88H201.706V119.344ZM203.345 116.576H203.97V123.256H203.345V116.576ZM201.794 117.304H202.434C202.434 117.933 202.343 118.539 202.162 119.12C201.986 119.696 201.698 120.235 201.298 120.736C200.898 121.232 200.372 121.675 199.722 122.064L199.338 121.584C199.903 121.243 200.367 120.859 200.73 120.432C201.092 120 201.359 119.533 201.53 119.032C201.706 118.525 201.794 117.989 201.794 117.424V117.304ZM199.65 117.304H202.042V117.848H199.65V117.304ZM214.102 116.392H214.766V121.912H214.102V116.392ZM212.878 118.312H214.374V118.856H212.878V118.312ZM212.878 119.832H214.374V120.368H212.878V119.832ZM208.822 117.272H212.878V117.808H208.822V117.272ZM210.87 118.2C211.195 118.2 211.481 118.259 211.726 118.376C211.971 118.493 212.163 118.656 212.302 118.864C212.441 119.072 212.51 119.312 212.51 119.584C212.51 119.856 212.441 120.099 212.302 120.312C212.163 120.52 211.971 120.683 211.726 120.8C211.481 120.912 211.195 120.968 210.87 120.968C210.55 120.968 210.267 120.912 210.022 120.8C209.777 120.683 209.585 120.52 209.446 120.312C209.307 120.099 209.238 119.856 209.238 119.584C209.238 119.312 209.307 119.072 209.446 118.864C209.585 118.656 209.777 118.493 210.022 118.376C210.267 118.259 210.55 118.2 210.87 118.2ZM210.87 118.728C210.571 118.728 210.329 118.808 210.142 118.968C209.955 119.123 209.862 119.328 209.862 119.584C209.862 119.845 209.955 120.056 210.142 120.216C210.329 120.371 210.571 120.448 210.87 120.448C211.169 120.448 211.411 120.371 211.598 120.216C211.79 120.056 211.886 119.845 211.886 119.584C211.886 119.328 211.79 119.123 211.598 118.968C211.411 118.808 211.169 118.728 210.87 118.728ZM210.55 116.384H211.206V117.608H210.55V116.384ZM210.118 122.92H214.934V123.464H210.118V122.92ZM210.118 121.432H210.782V123.176H210.118V121.432ZM221.701 116.384H222.341V123.624H221.701V116.384ZM220.557 119.304H221.949V119.864H220.557V119.304ZM220.125 116.536H220.757V123.256H220.125V116.536ZM217.669 117.504H218.181V118.344C218.181 118.771 218.147 119.179 218.077 119.568C218.008 119.957 217.901 120.315 217.757 120.64C217.619 120.965 217.445 121.256 217.237 121.512C217.029 121.763 216.787 121.971 216.509 122.136L216.093 121.624C216.445 121.432 216.736 121.173 216.965 120.848C217.195 120.517 217.368 120.139 217.485 119.712C217.608 119.285 217.669 118.829 217.669 118.344V117.504ZM217.789 117.504H218.309V118.344C218.309 118.781 218.368 119.197 218.485 119.592C218.603 119.987 218.776 120.339 219.005 120.648C219.235 120.952 219.52 121.192 219.861 121.368L219.469 121.88C219.101 121.672 218.792 121.392 218.541 121.04C218.291 120.688 218.101 120.283 217.973 119.824C217.851 119.365 217.789 118.872 217.789 118.344V117.504ZM216.269 117.24H219.621V117.784H216.269V117.24ZM228.01 116.728C228.373 116.728 228.693 116.792 228.97 116.92C229.247 117.043 229.463 117.216 229.618 117.44C229.778 117.659 229.858 117.917 229.858 118.216C229.858 118.504 229.778 118.763 229.618 118.992C229.463 119.216 229.247 119.392 228.97 119.52C228.693 119.643 228.373 119.704 228.01 119.704C227.658 119.704 227.343 119.643 227.066 119.52C226.789 119.392 226.57 119.216 226.41 118.992C226.25 118.763 226.17 118.504 226.17 118.216C226.17 117.917 226.25 117.659 226.41 117.44C226.57 117.216 226.789 117.043 227.066 116.92C227.343 116.792 227.658 116.728 228.01 116.728ZM228.01 117.272C227.781 117.272 227.575 117.312 227.394 117.392C227.213 117.472 227.069 117.584 226.962 117.728C226.861 117.867 226.81 118.029 226.81 118.216C226.81 118.397 226.861 118.56 226.962 118.704C227.069 118.843 227.213 118.952 227.394 119.032C227.575 119.112 227.781 119.152 228.01 119.152C228.25 119.152 228.461 119.112 228.642 119.032C228.823 118.952 228.965 118.843 229.066 118.704C229.173 118.56 229.226 118.397 229.226 118.216C229.226 118.029 229.173 117.867 229.066 117.728C228.965 117.584 228.823 117.472 228.642 117.392C228.461 117.312 228.25 117.272 228.01 117.272ZM227.722 120.512H228.386V123.4H227.722V120.512ZM230.922 116.392H231.578V123.624H230.922V116.392ZM225.722 120.872L225.634 120.312C226.082 120.312 226.573 120.307 227.106 120.296C227.645 120.285 228.197 120.261 228.762 120.224C229.333 120.187 229.879 120.128 230.402 120.048L230.45 120.544C229.911 120.645 229.362 120.72 228.802 120.768C228.242 120.811 227.698 120.837 227.17 120.848C226.647 120.859 226.165 120.867 225.722 120.872ZM238.265 116.384H238.937V123.624H238.265V116.384ZM235.017 118.104H235.553V118.728C235.553 119.112 235.503 119.485 235.401 119.848C235.3 120.205 235.156 120.539 234.969 120.848C234.788 121.157 234.572 121.429 234.321 121.664C234.076 121.899 233.807 122.085 233.513 122.224L233.145 121.712C233.412 121.589 233.657 121.424 233.881 121.216C234.111 121.008 234.308 120.773 234.473 120.512C234.644 120.245 234.777 119.96 234.873 119.656C234.969 119.352 235.017 119.043 235.017 118.728V118.104ZM235.137 118.104H235.673V118.728C235.673 119.027 235.721 119.323 235.817 119.616C235.913 119.904 236.047 120.176 236.217 120.432C236.388 120.683 236.588 120.907 236.817 121.104C237.047 121.301 237.297 121.461 237.569 121.584L237.201 122.096C236.908 121.963 236.636 121.784 236.385 121.56C236.135 121.331 235.916 121.069 235.729 120.776C235.543 120.477 235.396 120.155 235.289 119.808C235.188 119.461 235.137 119.101 235.137 118.728V118.104ZM233.337 117.64H237.321V118.176H233.337V117.64ZM235.009 116.52H235.673V117.936H235.009V116.52ZM245.753 119.272H247.081V119.824H245.753V119.272ZM245.265 116.384H245.929V123.616H245.265V116.384ZM240.657 117.096H241.313V121.576H240.657V117.096ZM240.657 121.232H241.233C241.761 121.232 242.302 121.208 242.857 121.16C243.417 121.112 243.995 121.027 244.593 120.904L244.673 121.464C244.054 121.587 243.462 121.672 242.897 121.72C242.337 121.763 241.782 121.784 241.233 121.784H240.657V121.232ZM252.773 118.032H254.133V118.576H252.773V118.032ZM251.341 116.816H251.869V117.792C251.869 118.155 251.803 118.517 251.669 118.88C251.541 119.237 251.355 119.563 251.109 119.856C250.864 120.144 250.565 120.368 250.213 120.528L249.853 120.016C250.168 119.872 250.435 119.68 250.653 119.44C250.877 119.195 251.048 118.928 251.165 118.64C251.283 118.352 251.341 118.069 251.341 117.792V116.816ZM251.461 116.816H251.981V117.792C251.981 118.064 252.037 118.333 252.149 118.6C252.261 118.861 252.421 119.101 252.629 119.32C252.843 119.533 253.099 119.704 253.397 119.832L253.045 120.344C252.709 120.195 252.421 119.989 252.181 119.728C251.947 119.461 251.768 119.163 251.645 118.832C251.523 118.496 251.461 118.149 251.461 117.792V116.816ZM255.309 116.384H255.941V120.76H255.309V116.384ZM253.893 116.528H254.525V120.688H253.893V116.528ZM251.093 121.16H255.941V123.624H255.285V121.704H251.093V121.16ZM261.037 117.456H262.661V118H261.037V117.456ZM261.037 118.936H262.661V119.48H261.037V118.936ZM259.021 116.792H259.557V117.712C259.557 118.187 259.474 118.632 259.309 119.048C259.143 119.459 258.911 119.819 258.613 120.128C258.319 120.432 257.973 120.667 257.573 120.832L257.221 120.304C257.493 120.197 257.738 120.059 257.957 119.888C258.175 119.712 258.362 119.509 258.517 119.28C258.677 119.051 258.799 118.805 258.885 118.544C258.975 118.277 259.021 118 259.021 117.712V116.792ZM259.141 116.792H259.677V117.712C259.677 117.979 259.717 118.237 259.797 118.488C259.882 118.739 260.002 118.973 260.157 119.192C260.311 119.411 260.495 119.605 260.709 119.776C260.927 119.947 261.165 120.083 261.421 120.184L261.053 120.704C260.674 120.549 260.341 120.323 260.053 120.024C259.765 119.72 259.541 119.371 259.381 118.976C259.221 118.581 259.141 118.16 259.141 117.712V116.792ZM262.493 116.392H263.157V121.792H262.493V116.392ZM258.509 122.92H263.325V123.464H258.509V122.92ZM258.509 121.24H259.173V123.208H258.509V121.24ZM266.908 116.912C267.287 116.912 267.62 116.984 267.908 117.128C268.201 117.267 268.431 117.464 268.596 117.72C268.761 117.976 268.844 118.275 268.844 118.616C268.844 118.952 268.761 119.251 268.596 119.512C268.431 119.768 268.201 119.968 267.908 120.112C267.62 120.251 267.287 120.32 266.908 120.32C266.535 120.32 266.201 120.251 265.908 120.112C265.615 119.968 265.383 119.768 265.212 119.512C265.047 119.251 264.964 118.952 264.964 118.616C264.964 118.275 265.047 117.976 265.212 117.72C265.383 117.464 265.615 117.267 265.908 117.128C266.201 116.984 266.535 116.912 266.908 116.912ZM266.908 117.488C266.663 117.488 266.441 117.536 266.244 117.632C266.052 117.723 265.9 117.853 265.788 118.024C265.676 118.195 265.62 118.392 265.62 118.616C265.62 118.84 265.676 119.037 265.788 119.208C265.9 119.379 266.052 119.512 266.244 119.608C266.441 119.699 266.663 119.744 266.908 119.744C267.159 119.744 267.38 119.699 267.572 119.608C267.764 119.512 267.916 119.379 268.028 119.208C268.14 119.037 268.196 118.84 268.196 118.616C268.196 118.392 268.14 118.195 268.028 118.024C267.916 117.853 267.764 117.723 267.572 117.632C267.38 117.536 267.159 117.488 266.908 117.488ZM269.796 116.384H270.46V123.632H269.796V116.384ZM264.692 122.048L264.604 121.488C265.047 121.488 265.532 121.485 266.06 121.48C266.588 121.469 267.132 121.448 267.692 121.416C268.257 121.379 268.801 121.32 269.324 121.24L269.38 121.728C268.836 121.829 268.284 121.904 267.724 121.952C267.169 121.995 266.633 122.021 266.116 122.032C265.599 122.043 265.124 122.048 264.692 122.048ZM275.865 116.792H276.417V117.536C276.417 118.005 276.331 118.437 276.161 118.832C275.995 119.227 275.761 119.573 275.457 119.872C275.158 120.165 274.801 120.389 274.385 120.544L274.033 120.008C274.406 119.875 274.729 119.685 275.001 119.44C275.273 119.195 275.483 118.909 275.633 118.584C275.787 118.253 275.865 117.904 275.865 117.536V116.792ZM275.985 116.792H276.521V117.512C276.521 117.853 276.595 118.176 276.745 118.48C276.894 118.784 277.099 119.053 277.361 119.288C277.627 119.517 277.937 119.691 278.289 119.808L277.929 120.328C277.539 120.179 277.198 119.968 276.905 119.696C276.611 119.424 276.385 119.101 276.225 118.728C276.065 118.355 275.985 117.949 275.985 117.512V116.792ZM279.329 116.384H279.993V120.664H279.329V116.384ZM277.609 120.88C278.355 120.88 278.942 121 279.369 121.24C279.801 121.48 280.017 121.816 280.017 122.248C280.017 122.675 279.801 123.008 279.369 123.248C278.942 123.488 278.355 123.608 277.609 123.608C276.862 123.608 276.273 123.488 275.841 123.248C275.414 123.008 275.201 122.675 275.201 122.248C275.201 121.816 275.414 121.48 275.841 121.24C276.273 121 276.862 120.88 277.609 120.88ZM277.609 121.408C277.246 121.408 276.934 121.443 276.673 121.512C276.411 121.576 276.209 121.672 276.065 121.8C275.926 121.923 275.857 122.072 275.857 122.248C275.857 122.419 275.926 122.568 276.065 122.696C276.209 122.819 276.411 122.915 276.673 122.984C276.934 123.048 277.246 123.08 277.609 123.08C277.977 123.08 278.289 123.048 278.545 122.984C278.806 122.915 279.006 122.819 279.145 122.696C279.289 122.568 279.361 122.419 279.361 122.248C279.361 122.072 279.289 121.923 279.145 121.8C279.006 121.672 278.806 121.576 278.545 121.512C278.289 121.443 277.977 121.408 277.609 121.408ZM277.753 117.912H279.465V118.464H277.753V117.912ZM284.488 116.872H285.184C285.184 117.485 285.045 118.037 284.768 118.528C284.491 119.019 284.096 119.44 283.584 119.792C283.077 120.144 282.472 120.416 281.768 120.608L281.512 120.08C282.131 119.909 282.661 119.683 283.104 119.4C283.552 119.112 283.893 118.781 284.128 118.408C284.368 118.029 284.488 117.616 284.488 117.168V116.872ZM281.88 116.872H284.888V117.416H281.88V116.872ZM282.52 121.024H287.352V123.608H286.688V121.56H282.52V121.024ZM286.688 116.392H287.352V120.704H286.688V116.392ZM284.888 117.68H286.824V118.216H284.888V117.68ZM284.808 119.208H286.768V119.752H284.808V119.208ZM292.023 116.512C292.823 116.512 293.447 116.621 293.895 116.84C294.343 117.053 294.567 117.36 294.567 117.76C294.567 118.165 294.343 118.477 293.895 118.696C293.447 118.909 292.823 119.016 292.023 119.016C291.229 119.016 290.605 118.909 290.151 118.696C289.703 118.477 289.479 118.165 289.479 117.76C289.479 117.36 289.703 117.053 290.151 116.84C290.605 116.621 291.229 116.512 292.023 116.512ZM292.023 117.008C291.634 117.008 291.301 117.037 291.023 117.096C290.746 117.155 290.533 117.24 290.383 117.352C290.239 117.464 290.167 117.6 290.167 117.76C290.167 117.92 290.239 118.059 290.383 118.176C290.533 118.288 290.746 118.373 291.023 118.432C291.301 118.485 291.634 118.512 292.023 118.512C292.418 118.512 292.754 118.485 293.031 118.432C293.309 118.373 293.519 118.288 293.663 118.176C293.813 118.059 293.887 117.92 293.887 117.76C293.887 117.6 293.813 117.464 293.663 117.352C293.519 117.24 293.309 117.155 293.031 117.096C292.754 117.037 292.418 117.008 292.023 117.008ZM288.759 119.504H295.295V120.04H288.759V119.504ZM289.551 120.656H294.455V122.288H290.215V123.16H289.567V121.8H293.807V121.168H289.551V120.656ZM289.567 123.024H294.671V123.544H289.567V123.024ZM301.684 117.56H303.772V118.096H301.684V117.56ZM301.684 118.992H303.788V119.536H301.684V118.992ZM303.524 116.384H304.188V120.664H303.524V116.384ZM298.572 116.936H301.868V120.152H298.572V116.936ZM301.22 117.472H299.22V119.616H301.22V117.472ZM301.804 120.88C302.551 120.88 303.137 121 303.564 121.24C303.996 121.48 304.212 121.816 304.212 122.248C304.212 122.68 303.996 123.013 303.564 123.248C303.137 123.488 302.551 123.608 301.804 123.608C301.057 123.608 300.468 123.488 300.036 123.248C299.609 123.013 299.396 122.68 299.396 122.248C299.396 121.816 299.609 121.48 300.036 121.24C300.468 121 301.057 120.88 301.804 120.88ZM301.804 121.4C301.441 121.4 301.129 121.435 300.868 121.504C300.607 121.568 300.404 121.664 300.26 121.792C300.121 121.915 300.052 122.067 300.052 122.248C300.052 122.419 300.121 122.568 300.26 122.696C300.404 122.819 300.607 122.915 300.868 122.984C301.129 123.053 301.441 123.088 301.804 123.088C302.172 123.088 302.484 123.053 302.74 122.984C303.001 122.915 303.201 122.819 303.34 122.696C303.484 122.568 303.556 122.419 303.556 122.248C303.556 122.067 303.484 121.915 303.34 121.792C303.201 121.664 303.001 121.568 302.74 121.504C302.484 121.435 302.172 121.4 301.804 121.4ZM307.491 119.784H308.147V120.704H307.491V119.784ZM310.539 116.392H311.203V121.24H310.539V116.392ZM310.923 118.576H312.259V119.128H310.923V118.576ZM305.635 121.032L305.555 120.496C305.987 120.496 306.459 120.493 306.971 120.488C307.489 120.477 308.017 120.456 308.555 120.424C309.094 120.392 309.611 120.341 310.107 120.272L310.155 120.744C309.643 120.835 309.118 120.901 308.579 120.944C308.046 120.981 307.526 121.005 307.019 121.016C306.518 121.027 306.057 121.032 305.635 121.032ZM306.443 121.608H311.203V123.624H310.539V122.136H306.443V121.608ZM305.739 117.04H309.891V117.544H305.739V117.04ZM307.811 117.816C308.323 117.816 308.731 117.912 309.035 118.104C309.345 118.296 309.499 118.557 309.499 118.888C309.499 119.219 309.345 119.48 309.035 119.672C308.731 119.864 308.323 119.96 307.811 119.96C307.305 119.96 306.897 119.864 306.587 119.672C306.278 119.48 306.123 119.219 306.123 118.888C306.123 118.557 306.278 118.296 306.587 118.104C306.897 117.912 307.305 117.816 307.811 117.816ZM307.811 118.28C307.491 118.28 307.235 118.333 307.043 118.44C306.851 118.547 306.755 118.696 306.755 118.888C306.755 119.069 306.851 119.219 307.043 119.336C307.235 119.448 307.491 119.504 307.811 119.504C308.131 119.504 308.387 119.448 308.579 119.336C308.771 119.219 308.867 119.069 308.867 118.888C308.867 118.696 308.771 118.547 308.579 118.44C308.387 118.333 308.131 118.28 307.811 118.28ZM307.491 116.328H308.147V117.288H307.491V116.328ZM318.211 116.384H318.875V123.624H318.211V116.384ZM313.115 117.552H317.451V118.096H313.115V117.552ZM315.299 118.68C315.64 118.68 315.944 118.752 316.211 118.896C316.483 119.04 316.696 119.237 316.851 119.488C317.005 119.733 317.083 120.019 317.083 120.344C317.083 120.669 317.005 120.957 316.851 121.208C316.696 121.459 316.483 121.656 316.211 121.8C315.944 121.939 315.64 122.008 315.299 122.008C314.952 122.008 314.643 121.939 314.371 121.8C314.104 121.656 313.893 121.459 313.739 121.208C313.584 120.957 313.507 120.669 313.507 120.344C313.507 120.019 313.584 119.733 313.739 119.488C313.893 119.237 314.104 119.04 314.371 118.896C314.643 118.752 314.952 118.68 315.299 118.68ZM315.299 119.232C315.08 119.232 314.883 119.28 314.707 119.376C314.531 119.472 314.392 119.603 314.291 119.768C314.189 119.933 314.139 120.125 314.139 120.344C314.139 120.563 314.189 120.757 314.291 120.928C314.392 121.093 314.531 121.224 314.707 121.32C314.883 121.411 315.08 121.456 315.299 121.456C315.523 121.456 315.72 121.411 315.891 121.32C316.067 121.224 316.203 121.093 316.299 120.928C316.4 120.757 316.451 120.563 316.451 120.344C316.451 120.125 316.4 119.933 316.299 119.768C316.203 119.603 316.067 119.472 315.891 119.376C315.72 119.28 315.523 119.232 315.299 119.232ZM314.947 116.456H315.619V117.888H314.947V116.456ZM63.352 126.384H64.016V131.712H63.352V126.384ZM63.808 128.584H65.08V129.136H63.808V128.584ZM59.512 132.92H64.336V133.464H59.512V132.92ZM59.512 131.168H60.168V133.136H59.512V131.168ZM60.416 126.896C60.7787 126.896 61.1013 126.973 61.384 127.128C61.6667 127.277 61.8907 127.485 62.056 127.752C62.2213 128.019 62.304 128.328 62.304 128.68C62.304 129.021 62.2213 129.328 62.056 129.6C61.8907 129.872 61.6667 130.085 61.384 130.24C61.1013 130.389 60.7787 130.464 60.416 130.464C60.0587 130.464 59.736 130.389 59.448 130.24C59.1653 130.085 58.9413 129.872 58.776 129.6C58.6107 129.328 58.528 129.021 58.528 128.68C58.528 128.328 58.6107 128.019 58.776 127.752C58.9413 127.485 59.1653 127.277 59.448 127.128C59.736 126.973 60.0587 126.896 60.416 126.896ZM60.416 127.472C60.1813 127.472 59.9707 127.523 59.784 127.624C59.5973 127.725 59.448 127.867 59.336 128.048C59.2293 128.229 59.176 128.44 59.176 128.68C59.176 128.915 59.2293 129.123 59.336 129.304C59.448 129.485 59.5973 129.627 59.784 129.728C59.9707 129.829 60.1813 129.88 60.416 129.88C60.6507 129.88 60.8613 129.829 61.048 129.728C61.24 129.627 61.3893 129.485 61.496 129.304C61.608 129.123 61.664 128.915 61.664 128.68C61.664 128.44 61.608 128.229 61.496 128.048C61.3893 127.867 61.24 127.725 61.048 127.624C60.8613 127.523 60.6507 127.472 60.416 127.472ZM71.2474 126.384H71.8874V133.624H71.2474V126.384ZM70.0394 129.328H71.4314V129.88H70.0394V129.328ZM69.6074 126.544H70.2314V133.248H69.6074V126.544ZM66.1114 127.256H66.7754V131.432H66.1114V127.256ZM66.1114 131.168H66.5674C66.946 131.168 67.3434 131.155 67.7594 131.128C68.1754 131.096 68.618 131.032 69.0874 130.936L69.1674 131.52C68.6767 131.616 68.218 131.68 67.7914 131.712C67.3647 131.739 66.9567 131.752 66.5674 131.752H66.1114V131.168ZM78.0228 126.384H78.6788V133.624H78.0228V126.384ZM78.5268 129.36H79.8628V129.92H78.5268V129.36ZM73.0788 127.544H77.3428V128.088H73.0788V127.544ZM75.2468 128.68C75.5881 128.68 75.8894 128.752 76.1508 128.896C76.4174 129.04 76.6254 129.237 76.7748 129.488C76.9294 129.733 77.0068 130.019 77.0068 130.344C77.0068 130.669 76.9294 130.957 76.7748 131.208C76.6254 131.459 76.4174 131.656 76.1508 131.8C75.8894 131.939 75.5881 132.008 75.2468 132.008C74.9054 132.008 74.6014 131.939 74.3348 131.8C74.0734 131.656 73.8654 131.459 73.7108 131.208C73.5561 130.957 73.4788 130.669 73.4788 130.344C73.4788 130.019 73.5561 129.733 73.7108 129.488C73.8654 129.237 74.0734 129.04 74.3348 128.896C74.6014 128.752 74.9054 128.68 75.2468 128.68ZM75.2468 129.232C75.0281 129.232 74.8334 129.28 74.6628 129.376C74.4921 129.472 74.3561 129.603 74.2548 129.768C74.1588 129.933 74.1108 130.125 74.1108 130.344C74.1108 130.563 74.1588 130.757 74.2548 130.928C74.3561 131.093 74.4921 131.224 74.6628 131.32C74.8334 131.411 75.0281 131.456 75.2468 131.456C75.4601 131.456 75.6521 131.411 75.8228 131.32C75.9934 131.224 76.1268 131.093 76.2228 130.928C76.3241 130.757 76.3748 130.563 76.3748 130.344C76.3748 130.125 76.3241 129.933 76.2228 129.768C76.1268 129.603 75.9934 129.472 75.8228 129.376C75.6521 129.28 75.4601 129.232 75.2468 129.232ZM74.9028 126.472H75.5668V127.784H74.9028V126.472ZM85.7501 126.384H86.4141V133.624H85.7501V126.384ZM83.6301 127.168H84.2861C84.2861 127.691 84.2221 128.195 84.0941 128.68C83.9715 129.165 83.7768 129.627 83.5101 130.064C83.2435 130.496 82.8968 130.899 82.4701 131.272C82.0435 131.645 81.5261 131.979 80.9181 132.272L80.5661 131.736C81.2648 131.4 81.8408 131.008 82.2941 130.56C82.7475 130.112 83.0835 129.613 83.3021 129.064C83.5208 128.509 83.6301 127.912 83.6301 127.272V127.168ZM80.9021 127.168H83.9101V127.704H80.9021V127.168ZM92.3147 126.728C92.6774 126.728 92.9974 126.792 93.2747 126.92C93.552 127.043 93.768 127.216 93.9227 127.44C94.0827 127.659 94.1627 127.917 94.1627 128.216C94.1627 128.504 94.0827 128.763 93.9227 128.992C93.768 129.216 93.552 129.392 93.2747 129.52C92.9974 129.643 92.6774 129.704 92.3147 129.704C91.9627 129.704 91.648 129.643 91.3707 129.52C91.0934 129.392 90.8747 129.216 90.7147 128.992C90.5547 128.763 90.4747 128.504 90.4747 128.216C90.4747 127.917 90.5547 127.659 90.7147 127.44C90.8747 127.216 91.0934 127.043 91.3707 126.92C91.648 126.792 91.9627 126.728 92.3147 126.728ZM92.3147 127.272C92.0854 127.272 91.88 127.312 91.6987 127.392C91.5174 127.472 91.3734 127.584 91.2667 127.728C91.1654 127.867 91.1147 128.029 91.1147 128.216C91.1147 128.397 91.1654 128.56 91.2667 128.704C91.3734 128.843 91.5174 128.952 91.6987 129.032C91.88 129.112 92.0854 129.152 92.3147 129.152C92.5547 129.152 92.7654 129.112 92.9467 129.032C93.128 128.952 93.2694 128.843 93.3707 128.704C93.4774 128.56 93.5307 128.397 93.5307 128.216C93.5307 128.029 93.4774 127.867 93.3707 127.728C93.2694 127.584 93.128 127.472 92.9467 127.392C92.7654 127.312 92.5547 127.272 92.3147 127.272ZM92.0267 130.512H92.6907V133.4H92.0267V130.512ZM95.2267 126.392H95.8827V133.624H95.2267V126.392ZM90.0267 130.872L89.9387 130.312C90.3867 130.312 90.8774 130.307 91.4107 130.296C91.9494 130.285 92.5014 130.261 93.0667 130.224C93.6374 130.187 94.184 130.128 94.7067 130.048L94.7547 130.544C94.216 130.645 93.6667 130.72 93.1067 130.768C92.5467 130.811 92.0027 130.837 91.4747 130.848C90.952 130.859 90.4694 130.867 90.0267 130.872ZM102.266 126.392H102.93V131.816H102.266V126.392ZM102.722 128.768H103.994V129.32H102.722V128.768ZM97.3301 127.272H101.602V127.808H97.3301V127.272ZM99.4661 128.2C99.8074 128.2 100.109 128.259 100.37 128.376C100.631 128.488 100.834 128.645 100.978 128.848C101.122 129.045 101.194 129.28 101.194 129.552C101.194 129.824 101.122 130.061 100.978 130.264C100.834 130.461 100.631 130.616 100.37 130.728C100.109 130.84 99.8074 130.896 99.4661 130.896C99.1247 130.896 98.8234 130.84 98.5621 130.728C98.3007 130.616 98.0954 130.461 97.9461 130.264C97.8021 130.061 97.7301 129.824 97.7301 129.552C97.7301 129.28 97.8021 129.045 97.9461 128.848C98.0954 128.645 98.3007 128.488 98.5621 128.376C98.8234 128.259 99.1247 128.2 99.4661 128.2ZM99.4661 128.72C99.1407 128.72 98.8767 128.797 98.6741 128.952C98.4714 129.101 98.3701 129.301 98.3701 129.552C98.3701 129.803 98.4714 130.003 98.6741 130.152C98.8767 130.301 99.1407 130.376 99.4661 130.376C99.7967 130.376 100.061 130.301 100.258 130.152C100.461 130.003 100.562 129.803 100.562 129.552C100.562 129.301 100.461 129.101 100.258 128.952C100.061 128.797 99.7967 128.72 99.4661 128.72ZM99.1381 126.392H99.8021V127.544H99.1381V126.392ZM98.4261 132.92H103.25V133.464H98.4261V132.92ZM98.4261 131.384H99.0821V133.144H98.4261V131.384ZM112.303 126.384H112.943V133.624H112.303V126.384ZM110.135 129.184H111.367V129.736H110.135V129.184ZM110.943 126.544H111.567V133.264H110.943V126.544ZM106.775 127.624H110.335V128.168H106.775V127.624ZM108.543 128.656C108.841 128.656 109.103 128.728 109.327 128.872C109.556 129.011 109.735 129.203 109.863 129.448C109.996 129.693 110.063 129.979 110.063 130.304C110.063 130.629 109.996 130.917 109.863 131.168C109.735 131.413 109.556 131.608 109.327 131.752C109.103 131.891 108.841 131.96 108.543 131.96C108.255 131.96 107.996 131.891 107.767 131.752C107.537 131.608 107.356 131.413 107.223 131.168C107.095 130.917 107.031 130.629 107.031 130.304C107.031 129.979 107.095 129.693 107.223 129.448C107.356 129.203 107.537 129.011 107.767 128.872C107.996 128.728 108.255 128.656 108.543 128.656ZM108.543 129.216C108.367 129.216 108.209 129.264 108.071 129.36C107.932 129.451 107.82 129.579 107.735 129.744C107.655 129.904 107.615 130.091 107.615 130.304C107.615 130.517 107.655 130.707 107.735 130.872C107.82 131.037 107.932 131.168 108.071 131.264C108.209 131.355 108.367 131.4 108.543 131.4C108.729 131.4 108.892 131.355 109.031 131.264C109.169 131.168 109.279 131.037 109.359 130.872C109.439 130.707 109.479 130.517 109.479 130.304C109.479 130.091 109.439 129.904 109.359 129.744C109.279 129.579 109.169 129.451 109.031 129.36C108.892 129.264 108.729 129.216 108.543 129.216ZM108.231 126.576H108.887V127.936H108.231V126.576ZM114.982 129.856H119.95V130.4H114.982V129.856ZM114.15 132.088H120.71V132.64H114.15V132.088ZM114.982 127.056H119.878V127.6H115.638V130.096H114.982V127.056ZM126.413 126.384H127.069V133.632H126.413V126.384ZM126.917 129.256H128.253V129.816H126.917V129.256ZM121.805 131.328H122.381C122.829 131.328 123.24 131.323 123.613 131.312C123.992 131.296 124.357 131.272 124.709 131.24C125.061 131.203 125.419 131.149 125.781 131.08L125.845 131.624C125.472 131.693 125.107 131.747 124.749 131.784C124.397 131.821 124.029 131.848 123.645 131.864C123.261 131.88 122.84 131.888 122.381 131.888H121.805V131.328ZM121.789 127.056H125.053V129.656H122.461V131.552H121.805V129.104H124.397V127.6H121.789V127.056ZM134.133 126.392H134.797V131.672H134.133V126.392ZM130.149 132.92H135.021V133.464H130.149V132.92ZM130.149 131.136H130.813V133.104H130.149V131.136ZM130.917 126.896C131.279 126.896 131.602 126.971 131.885 127.12C132.167 127.269 132.391 127.48 132.557 127.752C132.722 128.019 132.805 128.325 132.805 128.672C132.805 129.019 132.722 129.328 132.557 129.6C132.391 129.867 132.167 130.077 131.885 130.232C131.602 130.381 131.279 130.456 130.917 130.456C130.559 130.456 130.237 130.381 129.949 130.232C129.666 130.077 129.442 129.867 129.277 129.6C129.111 129.328 129.029 129.019 129.029 128.672C129.029 128.325 129.111 128.019 129.277 127.752C129.442 127.48 129.666 127.269 129.949 127.12C130.237 126.971 130.559 126.896 130.917 126.896ZM130.917 127.472C130.682 127.472 130.471 127.523 130.285 127.624C130.098 127.725 129.949 127.867 129.837 128.048C129.73 128.229 129.677 128.437 129.677 128.672C129.677 128.912 129.73 129.123 129.837 129.304C129.949 129.48 130.098 129.619 130.285 129.72C130.471 129.821 130.682 129.872 130.917 129.872C131.151 129.872 131.362 129.821 131.549 129.72C131.741 129.619 131.89 129.48 131.997 129.304C132.103 129.123 132.157 128.912 132.157 128.672C132.157 128.437 132.103 128.229 131.997 128.048C131.89 127.867 131.741 127.725 131.549 127.624C131.362 127.523 131.151 127.472 130.917 127.472ZM141.641 127.448H143.841V127.992H141.641V127.448ZM141.641 129.072H143.841V129.616H141.641V129.072ZM139.465 131.048H144.297V133.624H143.633V131.584H139.465V131.048ZM143.633 126.384H144.297V130.648H143.633V126.384ZM140.321 126.792C140.673 126.792 140.988 126.867 141.265 127.016C141.548 127.16 141.769 127.365 141.929 127.632C142.095 127.893 142.177 128.192 142.177 128.528C142.177 128.869 142.095 129.171 141.929 129.432C141.769 129.693 141.548 129.899 141.265 130.048C140.988 130.197 140.673 130.272 140.321 130.272C139.964 130.272 139.644 130.197 139.361 130.048C139.084 129.899 138.863 129.693 138.697 129.432C138.537 129.171 138.457 128.869 138.457 128.528C138.457 128.192 138.537 127.893 138.697 127.632C138.863 127.365 139.084 127.16 139.361 127.016C139.644 126.867 139.964 126.792 140.321 126.792ZM140.321 127.36C140.087 127.36 139.876 127.411 139.689 127.512C139.503 127.613 139.356 127.752 139.249 127.928C139.143 128.104 139.089 128.304 139.089 128.528C139.089 128.757 139.143 128.963 139.249 129.144C139.356 129.32 139.503 129.459 139.689 129.56C139.876 129.656 140.087 129.704 140.321 129.704C140.551 129.704 140.759 129.656 140.945 129.56C141.132 129.459 141.279 129.32 141.385 129.144C141.492 128.963 141.545 128.757 141.545 128.528C141.545 128.304 141.492 128.104 141.385 127.928C141.279 127.752 141.132 127.613 140.945 127.512C140.759 127.411 140.551 127.36 140.321 127.36ZM150.657 126.36H151.321V130.36H150.657V126.36ZM151.033 128.104H152.393V128.656H151.033V128.104ZM146.721 130.728H151.321V132.344H147.393V133.216H146.745V131.864H150.665V131.224H146.721V130.728ZM146.745 133.032H151.577V133.544H146.745V133.032ZM145.721 127.04H149.993V127.56H145.721V127.04ZM147.857 127.88C148.379 127.88 148.798 127.987 149.113 128.2C149.427 128.408 149.585 128.696 149.585 129.064C149.585 129.427 149.427 129.715 149.113 129.928C148.798 130.141 148.379 130.248 147.857 130.248C147.329 130.248 146.907 130.141 146.593 129.928C146.278 129.715 146.121 129.427 146.121 129.064C146.121 128.696 146.278 128.408 146.593 128.2C146.907 127.987 147.329 127.88 147.857 127.88ZM147.857 128.368C147.526 128.368 147.259 128.432 147.057 128.56C146.859 128.683 146.761 128.851 146.761 129.064C146.761 129.277 146.859 129.448 147.057 129.576C147.259 129.699 147.526 129.76 147.857 129.76C148.193 129.76 148.459 129.699 148.657 129.576C148.854 129.448 148.953 129.277 148.953 129.064C148.953 128.851 148.854 128.683 148.657 128.56C148.459 128.432 148.193 128.368 147.857 128.368ZM147.529 126.312H148.193V127.4H147.529V126.312ZM156.328 126.512C157.128 126.512 157.752 126.621 158.2 126.84C158.648 127.053 158.872 127.36 158.872 127.76C158.872 128.165 158.648 128.477 158.2 128.696C157.752 128.909 157.128 129.016 156.328 129.016C155.533 129.016 154.909 128.909 154.456 128.696C154.008 128.477 153.784 128.165 153.784 127.76C153.784 127.36 154.008 127.053 154.456 126.84C154.909 126.621 155.533 126.512 156.328 126.512ZM156.328 127.008C155.939 127.008 155.605 127.037 155.328 127.096C155.051 127.155 154.837 127.24 154.688 127.352C154.544 127.464 154.472 127.6 154.472 127.76C154.472 127.92 154.544 128.059 154.688 128.176C154.837 128.288 155.051 128.373 155.328 128.432C155.605 128.485 155.939 128.512 156.328 128.512C156.723 128.512 157.059 128.485 157.336 128.432C157.613 128.373 157.824 128.288 157.968 128.176C158.117 128.059 158.192 127.92 158.192 127.76C158.192 127.6 158.117 127.464 157.968 127.352C157.824 127.24 157.613 127.155 157.336 127.096C157.059 127.037 156.723 127.008 156.328 127.008ZM153.064 129.504H159.6V130.04H153.064V129.504ZM153.856 130.656H158.76V132.288H154.52V133.16H153.872V131.8H158.112V131.168H153.856V130.656ZM153.872 133.024H158.976V133.544H153.872V133.024ZM167.493 126.384H168.157V130.592H167.493V126.384ZM167.869 128.232H169.221V128.792H167.869V128.232ZM163.605 130.912H164.261V131.672H167.493V130.912H168.157V133.528H163.605V130.912ZM164.261 132.192V132.992H167.493V132.192H164.261ZM162.557 127.128H166.829V127.664H162.557V127.128ZM164.693 128C165.039 128 165.341 128.053 165.597 128.16C165.858 128.261 166.061 128.408 166.205 128.6C166.349 128.787 166.421 129.008 166.421 129.264C166.421 129.52 166.349 129.744 166.205 129.936C166.061 130.128 165.858 130.277 165.597 130.384C165.341 130.485 165.039 130.536 164.693 130.536C164.346 130.536 164.042 130.485 163.781 130.384C163.525 130.277 163.322 130.128 163.173 129.936C163.029 129.744 162.957 129.52 162.957 129.264C162.957 129.008 163.029 128.787 163.173 128.6C163.322 128.408 163.525 128.261 163.781 128.16C164.042 128.053 164.346 128 164.693 128ZM164.693 128.504C164.362 128.504 164.095 128.573 163.893 128.712C163.695 128.851 163.597 129.035 163.597 129.264C163.597 129.499 163.695 129.685 163.893 129.824C164.095 129.963 164.362 130.032 164.693 130.032C165.018 130.032 165.282 129.963 165.485 129.824C165.687 129.685 165.789 129.499 165.789 129.264C165.789 129.035 165.687 128.851 165.485 128.712C165.287 128.573 165.023 128.504 164.693 128.504ZM164.365 126.32H165.029V127.416H164.365V126.32ZM175.164 126.384H175.82V133.624H175.164V126.384ZM170.356 127.096H171.012V131.576H170.356V127.096ZM170.356 131.184H170.948C171.503 131.184 172.065 131.16 172.636 131.112C173.212 131.059 173.804 130.971 174.412 130.848L174.5 131.408C173.871 131.541 173.265 131.635 172.684 131.688C172.103 131.736 171.524 131.76 170.948 131.76H170.356V131.184ZM182.155 126.384H182.819V133.632H182.155V126.384ZM182.667 129.24H184.003V129.792H182.667V129.24ZM177.571 131.264H178.139C178.582 131.264 178.987 131.259 179.355 131.248C179.729 131.232 180.086 131.205 180.427 131.168C180.774 131.131 181.126 131.08 181.483 131.016L181.563 131.584C181.19 131.648 180.827 131.699 180.475 131.736C180.129 131.773 179.766 131.797 179.387 131.808C179.009 131.819 178.593 131.824 178.139 131.824H177.571V131.264ZM177.571 127.088H180.923V127.632H178.227V131.52H177.571V127.088ZM185.349 133.054C185.194 133.054 185.061 132.999 184.949 132.889C184.837 132.777 184.781 132.643 184.781 132.486C184.781 132.33 184.837 132.198 184.949 132.088C185.061 131.976 185.194 131.92 185.349 131.92C185.505 131.92 185.638 131.976 185.75 132.088C185.862 132.198 185.918 132.33 185.918 132.486C185.918 132.59 185.891 132.686 185.838 132.773C185.787 132.858 185.719 132.926 185.634 132.977C185.548 133.028 185.454 133.054 185.349 133.054Z" fill="#52525B"/>
<line x1="60" y1="144.5" x2="323" y2="144.5" stroke="black"/>
</svg>
