<svg width="380" height="250" viewBox="0 0 380 250" fill="none" xmlns="http://www.w3.org/2000/svg">
<rect width="380" height="250" fill="white"/>
<g filter="url(#filter0_d_535_4275)">
<rect x="56.5" y="121.5" width="264" height="51" rx="5.5" stroke="#CBD5E1" shape-rendering="crispEdges"/>
<path d="M166.116 143.141V141.818H173.996V143.141H170.82V152H169.288V143.141H166.116ZM177.728 152.154C177.012 152.154 176.387 151.99 175.853 151.662C175.32 151.334 174.905 150.875 174.61 150.285C174.315 149.695 174.168 149.005 174.168 148.217C174.168 147.424 174.315 146.732 174.61 146.138C174.905 145.545 175.32 145.085 175.853 144.756C176.387 144.428 177.012 144.264 177.728 144.264C178.444 144.264 179.068 144.428 179.602 144.756C180.136 145.085 180.55 145.545 180.845 146.138C181.14 146.732 181.287 147.424 181.287 148.217C181.287 149.005 181.14 149.695 180.845 150.285C180.55 150.875 180.136 151.334 179.602 151.662C179.068 151.99 178.444 152.154 177.728 152.154ZM177.733 150.906C178.197 150.906 178.581 150.784 178.886 150.538C179.191 150.293 179.416 149.967 179.562 149.559C179.711 149.151 179.786 148.702 179.786 148.212C179.786 147.724 179.711 147.277 179.562 146.869C179.416 146.458 179.191 146.129 178.886 145.88C178.581 145.631 178.197 145.507 177.733 145.507C177.265 145.507 176.877 145.631 176.569 145.88C176.264 146.129 176.037 146.458 175.888 146.869C175.742 147.277 175.669 147.724 175.669 148.212C175.669 148.702 175.742 149.151 175.888 149.559C176.037 149.967 176.264 150.293 176.569 150.538C176.877 150.784 177.265 150.906 177.733 150.906ZM186.148 155.023C185.542 155.023 185.02 154.943 184.582 154.784C184.148 154.625 183.793 154.415 183.518 154.153C183.243 153.891 183.038 153.604 182.902 153.293L184.18 152.766C184.269 152.911 184.388 153.066 184.537 153.228C184.69 153.394 184.895 153.535 185.154 153.651C185.416 153.767 185.752 153.825 186.163 153.825C186.727 153.825 187.192 153.687 187.56 153.412C187.928 153.14 188.112 152.706 188.112 152.109V150.608H188.018C187.928 150.77 187.799 150.951 187.63 151.15C187.464 151.349 187.235 151.521 186.944 151.667C186.652 151.813 186.273 151.886 185.805 151.886C185.202 151.886 184.658 151.745 184.175 151.463C183.694 151.178 183.313 150.759 183.031 150.205C182.753 149.648 182.613 148.964 182.613 148.152C182.613 147.34 182.751 146.644 183.026 146.064C183.305 145.484 183.686 145.04 184.17 144.732C184.653 144.42 185.202 144.264 185.815 144.264C186.289 144.264 186.672 144.344 186.964 144.503C187.255 144.659 187.482 144.841 187.645 145.05C187.81 145.259 187.938 145.442 188.028 145.602H188.137V144.364H189.594V152.169C189.594 152.825 189.441 153.364 189.136 153.785C188.831 154.206 188.419 154.517 187.898 154.719C187.381 154.922 186.798 155.023 186.148 155.023ZM186.133 150.653C186.561 150.653 186.922 150.553 187.217 150.354C187.515 150.152 187.741 149.864 187.893 149.489C188.049 149.112 188.127 148.659 188.127 148.132C188.127 147.618 188.051 147.166 187.898 146.775C187.746 146.384 187.522 146.079 187.227 145.86C186.932 145.638 186.568 145.527 186.133 145.527C185.686 145.527 185.313 145.643 185.015 145.875C184.716 146.104 184.491 146.415 184.339 146.81C184.189 147.204 184.115 147.645 184.115 148.132C184.115 148.633 184.191 149.072 184.344 149.45C184.496 149.827 184.721 150.122 185.02 150.335C185.321 150.547 185.693 150.653 186.133 150.653ZM194.789 155.023C194.182 155.023 193.66 154.943 193.223 154.784C192.789 154.625 192.434 154.415 192.159 154.153C191.884 153.891 191.678 153.604 191.542 153.293L192.82 152.766C192.91 152.911 193.029 153.066 193.178 153.228C193.331 153.394 193.536 153.535 193.795 153.651C194.056 153.767 194.393 153.825 194.804 153.825C195.367 153.825 195.833 153.687 196.201 153.412C196.569 153.14 196.753 152.706 196.753 152.109V150.608H196.658C196.569 150.77 196.439 150.951 196.27 151.15C196.105 151.349 195.876 151.521 195.584 151.667C195.293 151.813 194.913 151.886 194.446 151.886C193.843 151.886 193.299 151.745 192.815 151.463C192.335 151.178 191.953 150.759 191.672 150.205C191.393 149.648 191.254 148.964 191.254 148.152C191.254 147.34 191.392 146.644 191.667 146.064C191.945 145.484 192.326 145.04 192.81 144.732C193.294 144.42 193.843 144.264 194.456 144.264C194.93 144.264 195.313 144.344 195.604 144.503C195.896 144.659 196.123 144.841 196.285 145.05C196.451 145.259 196.579 145.442 196.668 145.602H196.778V144.364H198.234V152.169C198.234 152.825 198.082 153.364 197.777 153.785C197.472 154.206 197.059 154.517 196.539 154.719C196.022 154.922 195.439 155.023 194.789 155.023ZM194.774 150.653C195.202 150.653 195.563 150.553 195.858 150.354C196.156 150.152 196.381 149.864 196.534 149.489C196.69 149.112 196.768 148.659 196.768 148.132C196.768 147.618 196.691 147.166 196.539 146.775C196.386 146.384 196.163 146.079 195.868 145.86C195.573 145.638 195.208 145.527 194.774 145.527C194.327 145.527 193.954 145.643 193.655 145.875C193.357 146.104 193.132 146.415 192.979 146.81C192.83 147.204 192.756 147.645 192.756 148.132C192.756 148.633 192.832 149.072 192.984 149.45C193.137 149.827 193.362 150.122 193.66 150.335C193.962 150.547 194.333 150.653 194.774 150.653ZM201.714 141.818V152H200.228V141.818H201.714ZM207.005 152.154C206.253 152.154 205.605 151.993 205.061 151.672C204.521 151.347 204.104 150.891 203.809 150.305C203.517 149.715 203.371 149.024 203.371 148.232C203.371 147.449 203.517 146.76 203.809 146.163C204.104 145.567 204.515 145.101 205.042 144.766C205.572 144.432 206.192 144.264 206.901 144.264C207.332 144.264 207.749 144.335 208.154 144.478C208.558 144.621 208.921 144.844 209.243 145.149C209.564 145.454 209.818 145.85 210.003 146.337C210.189 146.821 210.282 147.41 210.282 148.102V148.629H204.211V147.516H208.825C208.825 147.125 208.745 146.778 208.586 146.477C208.427 146.172 208.203 145.931 207.915 145.756C207.63 145.58 207.295 145.492 206.911 145.492C206.493 145.492 206.129 145.595 205.817 145.8C205.509 146.003 205.27 146.268 205.101 146.596C204.935 146.921 204.853 147.274 204.853 147.655V148.525C204.853 149.035 204.942 149.469 205.121 149.827C205.303 150.185 205.557 150.459 205.882 150.648C206.207 150.833 206.586 150.926 207.02 150.926C207.302 150.926 207.559 150.886 207.791 150.807C208.023 150.724 208.223 150.601 208.392 150.439C208.561 150.277 208.691 150.076 208.78 149.837L210.187 150.091C210.074 150.505 209.872 150.868 209.581 151.18C209.292 151.488 208.929 151.728 208.492 151.901C208.058 152.07 207.562 152.154 207.005 152.154Z" fill="#121F48"/>
</g>
<g filter="url(#filter1_d_535_4275)">
<rect x="42" y="106" width="293" height="52" rx="6" fill="white" shape-rendering="crispEdges"/>
<rect x="42.5" y="106.5" width="292" height="51" rx="5.5" stroke="#CBD5E1" shape-rendering="crispEdges"/>
<path d="M166.116 128.141V126.818H173.996V128.141H170.82V137H169.288V128.141H166.116ZM177.728 137.154C177.012 137.154 176.387 136.99 175.853 136.662C175.32 136.334 174.905 135.875 174.61 135.285C174.315 134.695 174.168 134.005 174.168 133.217C174.168 132.424 174.315 131.732 174.61 131.138C174.905 130.545 175.32 130.085 175.853 129.756C176.387 129.428 177.012 129.264 177.728 129.264C178.444 129.264 179.068 129.428 179.602 129.756C180.136 130.085 180.55 130.545 180.845 131.138C181.14 131.732 181.287 132.424 181.287 133.217C181.287 134.005 181.14 134.695 180.845 135.285C180.55 135.875 180.136 136.334 179.602 136.662C179.068 136.99 178.444 137.154 177.728 137.154ZM177.733 135.906C178.197 135.906 178.581 135.784 178.886 135.538C179.191 135.293 179.416 134.967 179.562 134.559C179.711 134.151 179.786 133.702 179.786 133.212C179.786 132.724 179.711 132.277 179.562 131.869C179.416 131.458 179.191 131.129 178.886 130.88C178.581 130.631 178.197 130.507 177.733 130.507C177.265 130.507 176.877 130.631 176.569 130.88C176.264 131.129 176.037 131.458 175.888 131.869C175.742 132.277 175.669 132.724 175.669 133.212C175.669 133.702 175.742 134.151 175.888 134.559C176.037 134.967 176.264 135.293 176.569 135.538C176.877 135.784 177.265 135.906 177.733 135.906ZM186.148 140.023C185.542 140.023 185.02 139.943 184.582 139.784C184.148 139.625 183.793 139.415 183.518 139.153C183.243 138.891 183.038 138.604 182.902 138.293L184.18 137.766C184.269 137.911 184.388 138.066 184.537 138.228C184.69 138.394 184.895 138.535 185.154 138.651C185.416 138.767 185.752 138.825 186.163 138.825C186.727 138.825 187.192 138.687 187.56 138.412C187.928 138.14 188.112 137.706 188.112 137.109V135.608H188.018C187.928 135.77 187.799 135.951 187.63 136.15C187.464 136.349 187.235 136.521 186.944 136.667C186.652 136.813 186.273 136.886 185.805 136.886C185.202 136.886 184.658 136.745 184.175 136.463C183.694 136.178 183.313 135.759 183.031 135.205C182.753 134.648 182.613 133.964 182.613 133.152C182.613 132.34 182.751 131.644 183.026 131.064C183.305 130.484 183.686 130.04 184.17 129.732C184.653 129.42 185.202 129.264 185.815 129.264C186.289 129.264 186.672 129.344 186.964 129.503C187.255 129.659 187.482 129.841 187.645 130.05C187.81 130.259 187.938 130.442 188.028 130.602H188.137V129.364H189.594V137.169C189.594 137.825 189.441 138.364 189.136 138.785C188.831 139.206 188.419 139.517 187.898 139.719C187.381 139.922 186.798 140.023 186.148 140.023ZM186.133 135.653C186.561 135.653 186.922 135.553 187.217 135.354C187.515 135.152 187.741 134.864 187.893 134.489C188.049 134.112 188.127 133.659 188.127 133.132C188.127 132.618 188.051 132.166 187.898 131.775C187.746 131.384 187.522 131.079 187.227 130.86C186.932 130.638 186.568 130.527 186.133 130.527C185.686 130.527 185.313 130.643 185.015 130.875C184.716 131.104 184.491 131.415 184.339 131.81C184.189 132.204 184.115 132.645 184.115 133.132C184.115 133.633 184.191 134.072 184.344 134.45C184.496 134.827 184.721 135.122 185.02 135.335C185.321 135.547 185.693 135.653 186.133 135.653ZM194.789 140.023C194.182 140.023 193.66 139.943 193.223 139.784C192.789 139.625 192.434 139.415 192.159 139.153C191.884 138.891 191.678 138.604 191.542 138.293L192.82 137.766C192.91 137.911 193.029 138.066 193.178 138.228C193.331 138.394 193.536 138.535 193.795 138.651C194.056 138.767 194.393 138.825 194.804 138.825C195.367 138.825 195.833 138.687 196.201 138.412C196.569 138.14 196.753 137.706 196.753 137.109V135.608H196.658C196.569 135.77 196.439 135.951 196.27 136.15C196.105 136.349 195.876 136.521 195.584 136.667C195.293 136.813 194.913 136.886 194.446 136.886C193.843 136.886 193.299 136.745 192.815 136.463C192.335 136.178 191.953 135.759 191.672 135.205C191.393 134.648 191.254 133.964 191.254 133.152C191.254 132.34 191.392 131.644 191.667 131.064C191.945 130.484 192.326 130.04 192.81 129.732C193.294 129.42 193.843 129.264 194.456 129.264C194.93 129.264 195.313 129.344 195.604 129.503C195.896 129.659 196.123 129.841 196.285 130.05C196.451 130.259 196.579 130.442 196.668 130.602H196.778V129.364H198.234V137.169C198.234 137.825 198.082 138.364 197.777 138.785C197.472 139.206 197.059 139.517 196.539 139.719C196.022 139.922 195.439 140.023 194.789 140.023ZM194.774 135.653C195.202 135.653 195.563 135.553 195.858 135.354C196.156 135.152 196.381 134.864 196.534 134.489C196.69 134.112 196.768 133.659 196.768 133.132C196.768 132.618 196.691 132.166 196.539 131.775C196.386 131.384 196.163 131.079 195.868 130.86C195.573 130.638 195.208 130.527 194.774 130.527C194.327 130.527 193.954 130.643 193.655 130.875C193.357 131.104 193.132 131.415 192.979 131.81C192.83 132.204 192.756 132.645 192.756 133.132C192.756 133.633 192.832 134.072 192.984 134.45C193.137 134.827 193.362 135.122 193.66 135.335C193.962 135.547 194.333 135.653 194.774 135.653ZM201.714 126.818V137H200.228V126.818H201.714ZM207.005 137.154C206.253 137.154 205.605 136.993 205.061 136.672C204.521 136.347 204.104 135.891 203.809 135.305C203.517 134.715 203.371 134.024 203.371 133.232C203.371 132.449 203.517 131.76 203.809 131.163C204.104 130.567 204.515 130.101 205.042 129.766C205.572 129.432 206.192 129.264 206.901 129.264C207.332 129.264 207.749 129.335 208.154 129.478C208.558 129.621 208.921 129.844 209.243 130.149C209.564 130.454 209.818 130.85 210.003 131.337C210.189 131.821 210.282 132.41 210.282 133.102V133.629H204.211V132.516H208.825C208.825 132.125 208.745 131.778 208.586 131.477C208.427 131.172 208.203 130.931 207.915 130.756C207.63 130.58 207.295 130.492 206.911 130.492C206.493 130.492 206.129 130.595 205.817 130.8C205.509 131.003 205.27 131.268 205.101 131.596C204.935 131.921 204.853 132.274 204.853 132.655V133.525C204.853 134.035 204.942 134.469 205.121 134.827C205.303 135.185 205.557 135.459 205.882 135.648C206.207 135.833 206.586 135.926 207.02 135.926C207.302 135.926 207.559 135.886 207.791 135.807C208.023 135.724 208.223 135.601 208.392 135.439C208.561 135.277 208.691 135.076 208.78 134.837L210.187 135.091C210.074 135.505 209.872 135.868 209.581 136.18C209.292 136.488 208.929 136.728 208.492 136.901C208.058 137.07 207.562 137.154 207.005 137.154Z" fill="#121F48"/>
</g>
<g filter="url(#filter2_d_535_4275)">
<rect x="29" y="78" width="318" height="64" rx="6" fill="white" shape-rendering="crispEdges"/>
<rect x="29.5" y="78.5" width="317" height="63" rx="5.5" stroke="#CBD5E1" shape-rendering="crispEdges"/>
<path d="M105.116 106.141V104.818H112.996V106.141H109.82V115H108.288V106.141H105.116ZM116.105 110.466V115H114.618V104.818H116.085V108.607H116.18C116.358 108.196 116.632 107.869 117 107.627C117.368 107.385 117.848 107.264 118.442 107.264C118.965 107.264 119.423 107.372 119.814 107.587C120.208 107.803 120.513 108.124 120.729 108.552C120.947 108.976 121.057 109.506 121.057 110.143V115H119.57V110.322C119.57 109.762 119.426 109.327 119.138 109.019C118.849 108.708 118.448 108.552 117.934 108.552C117.583 108.552 117.268 108.626 116.99 108.776C116.715 108.925 116.498 109.143 116.339 109.432C116.183 109.717 116.105 110.062 116.105 110.466ZM123.04 115V107.364H124.527V115H123.04ZM123.791 106.185C123.532 106.185 123.31 106.099 123.125 105.927C122.943 105.751 122.851 105.542 122.851 105.3C122.851 105.055 122.943 104.846 123.125 104.674C123.31 104.498 123.532 104.411 123.791 104.411C124.05 104.411 124.27 104.498 124.452 104.674C124.638 104.846 124.731 105.055 124.731 105.3C124.731 105.542 124.638 105.751 124.452 105.927C124.27 106.099 124.05 106.185 123.791 106.185ZM132.249 109.228L130.902 109.467C130.845 109.294 130.756 109.13 130.633 108.974C130.514 108.819 130.351 108.691 130.146 108.592C129.94 108.492 129.684 108.442 129.375 108.442C128.954 108.442 128.603 108.537 128.321 108.726C128.04 108.911 127.899 109.152 127.899 109.447C127.899 109.702 127.993 109.907 128.182 110.063C128.371 110.219 128.676 110.347 129.097 110.446L130.31 110.724C131.013 110.887 131.536 111.137 131.881 111.475C132.226 111.813 132.398 112.252 132.398 112.793C132.398 113.25 132.266 113.658 132 114.016C131.739 114.37 131.372 114.649 130.902 114.851C130.434 115.053 129.892 115.154 129.276 115.154C128.421 115.154 127.723 114.972 127.183 114.607C126.643 114.239 126.311 113.717 126.189 113.041L127.625 112.822C127.715 113.197 127.899 113.48 128.177 113.673C128.456 113.862 128.819 113.956 129.266 113.956C129.753 113.956 130.143 113.855 130.434 113.653C130.726 113.447 130.872 113.197 130.872 112.902C130.872 112.663 130.782 112.463 130.603 112.3C130.428 112.138 130.158 112.015 129.793 111.933L128.5 111.649C127.788 111.487 127.261 111.228 126.919 110.874C126.581 110.519 126.412 110.07 126.412 109.526C126.412 109.076 126.538 108.681 126.79 108.343C127.042 108.005 127.39 107.741 127.834 107.553C128.278 107.36 128.787 107.264 129.36 107.264C130.186 107.264 130.835 107.443 131.309 107.801C131.783 108.156 132.096 108.631 132.249 109.228ZM137.738 115V107.364H139.224V115H137.738ZM138.488 106.185C138.23 106.185 138.008 106.099 137.822 105.927C137.64 105.751 137.549 105.542 137.549 105.3C137.549 105.055 137.64 104.846 137.822 104.674C138.008 104.498 138.23 104.411 138.488 104.411C138.747 104.411 138.967 104.498 139.15 104.674C139.335 104.846 139.428 105.055 139.428 105.3C139.428 105.542 139.335 105.751 139.15 105.927C138.967 106.099 138.747 106.185 138.488 106.185ZM146.946 109.228L145.599 109.467C145.543 109.294 145.453 109.13 145.33 108.974C145.211 108.819 145.049 108.691 144.843 108.592C144.638 108.492 144.381 108.442 144.073 108.442C143.652 108.442 143.3 108.537 143.019 108.726C142.737 108.911 142.596 109.152 142.596 109.447C142.596 109.702 142.691 109.907 142.879 110.063C143.068 110.219 143.373 110.347 143.794 110.446L145.007 110.724C145.71 110.887 146.234 111.137 146.578 111.475C146.923 111.813 147.095 112.252 147.095 112.793C147.095 113.25 146.963 113.658 146.698 114.016C146.436 114.37 146.07 114.649 145.599 114.851C145.132 115.053 144.59 115.154 143.973 115.154C143.118 115.154 142.42 114.972 141.88 114.607C141.34 114.239 141.008 113.717 140.886 113.041L142.323 112.822C142.412 113.197 142.596 113.48 142.874 113.673C143.153 113.862 143.516 113.956 143.963 113.956C144.45 113.956 144.84 113.855 145.132 113.653C145.423 113.447 145.569 113.197 145.569 112.902C145.569 112.663 145.48 112.463 145.301 112.3C145.125 112.138 144.855 112.015 144.49 111.933L143.198 111.649C142.485 111.487 141.958 111.228 141.617 110.874C141.279 110.519 141.11 110.07 141.11 109.526C141.11 109.076 141.235 108.681 141.487 108.343C141.739 108.005 142.087 107.741 142.531 107.553C142.976 107.36 143.484 107.264 144.058 107.264C144.883 107.264 145.533 107.443 146.007 107.801C146.481 108.156 146.794 108.631 146.946 109.228ZM152.052 106.141V104.818H159.932V106.141H156.755V115H155.224V106.141H152.052ZM163.663 115.154C162.947 115.154 162.323 114.99 161.789 114.662C161.255 114.334 160.841 113.875 160.546 113.285C160.251 112.695 160.104 112.005 160.104 111.217C160.104 110.424 160.251 109.732 160.546 109.138C160.841 108.545 161.255 108.085 161.789 107.756C162.323 107.428 162.947 107.264 163.663 107.264C164.379 107.264 165.004 107.428 165.537 107.756C166.071 108.085 166.485 108.545 166.78 109.138C167.075 109.732 167.223 110.424 167.223 111.217C167.223 112.005 167.075 112.695 166.78 113.285C166.485 113.875 166.071 114.334 165.537 114.662C165.004 114.99 164.379 115.154 163.663 115.154ZM163.668 113.906C164.132 113.906 164.517 113.784 164.822 113.538C165.126 113.293 165.352 112.967 165.498 112.559C165.647 112.151 165.721 111.702 165.721 111.212C165.721 110.724 165.647 110.277 165.498 109.869C165.352 109.458 165.126 109.129 164.822 108.88C164.517 108.631 164.132 108.507 163.668 108.507C163.201 108.507 162.813 108.631 162.505 108.88C162.2 109.129 161.973 109.458 161.824 109.869C161.678 110.277 161.605 110.724 161.605 111.212C161.605 111.702 161.678 112.151 161.824 112.559C161.973 112.967 162.2 113.293 162.505 113.538C162.813 113.784 163.201 113.906 163.668 113.906ZM171.104 115.169C170.621 115.169 170.183 115.08 169.792 114.901C169.401 114.718 169.091 114.455 168.862 114.11C168.637 113.765 168.524 113.343 168.524 112.842C168.524 112.411 168.607 112.057 168.773 111.778C168.938 111.5 169.162 111.28 169.444 111.117C169.726 110.955 170.04 110.832 170.388 110.749C170.737 110.666 171.091 110.603 171.452 110.56C171.91 110.507 172.281 110.464 172.566 110.431C172.851 110.395 173.058 110.337 173.188 110.257C173.317 110.178 173.381 110.048 173.381 109.869V109.835C173.381 109.4 173.259 109.064 173.013 108.825C172.772 108.587 172.41 108.467 171.93 108.467C171.429 108.467 171.035 108.578 170.746 108.8C170.461 109.019 170.264 109.263 170.155 109.531L168.758 109.213C168.924 108.749 169.165 108.375 169.484 108.089C169.805 107.801 170.175 107.592 170.592 107.463C171.01 107.33 171.449 107.264 171.91 107.264C172.215 107.264 172.538 107.301 172.879 107.374C173.224 107.443 173.545 107.572 173.844 107.761C174.145 107.95 174.392 108.22 174.585 108.572C174.777 108.92 174.873 109.372 174.873 109.929V115H173.421V113.956H173.362C173.265 114.148 173.121 114.337 172.929 114.523C172.737 114.708 172.49 114.862 172.188 114.985C171.887 115.108 171.525 115.169 171.104 115.169ZM171.428 113.976C171.839 113.976 172.19 113.895 172.482 113.732C172.777 113.57 173 113.358 173.153 113.096C173.308 112.831 173.386 112.547 173.386 112.246V111.261C173.333 111.314 173.231 111.364 173.078 111.411C172.929 111.454 172.758 111.492 172.566 111.525C172.374 111.555 172.187 111.583 172.004 111.609C171.822 111.633 171.67 111.652 171.547 111.669C171.259 111.705 170.995 111.767 170.756 111.853C170.521 111.939 170.332 112.063 170.19 112.226C170.05 112.385 169.981 112.597 169.981 112.862C169.981 113.23 170.117 113.509 170.388 113.697C170.66 113.883 171.007 113.976 171.428 113.976ZM182.575 109.228L181.228 109.467C181.171 109.294 181.082 109.13 180.959 108.974C180.84 108.819 180.678 108.691 180.472 108.592C180.267 108.492 180.01 108.442 179.702 108.442C179.281 108.442 178.929 108.537 178.648 108.726C178.366 108.911 178.225 109.152 178.225 109.447C178.225 109.702 178.319 109.907 178.508 110.063C178.697 110.219 179.002 110.347 179.423 110.446L180.636 110.724C181.339 110.887 181.863 111.137 182.207 111.475C182.552 111.813 182.724 112.252 182.724 112.793C182.724 113.25 182.592 113.658 182.327 114.016C182.065 114.37 181.698 114.649 181.228 114.851C180.76 115.053 180.219 115.154 179.602 115.154C178.747 115.154 178.049 114.972 177.509 114.607C176.969 114.239 176.637 113.717 176.515 113.041L177.952 112.822C178.041 113.197 178.225 113.48 178.503 113.673C178.782 113.862 179.145 113.956 179.592 113.956C180.079 113.956 180.469 113.855 180.76 113.653C181.052 113.447 181.198 113.197 181.198 112.902C181.198 112.663 181.108 112.463 180.93 112.3C180.754 112.138 180.484 112.015 180.119 111.933L178.827 111.649C178.114 111.487 177.587 111.228 177.246 110.874C176.907 110.519 176.738 110.07 176.738 109.526C176.738 109.076 176.864 108.681 177.116 108.343C177.368 108.005 177.716 107.741 178.16 107.553C178.604 107.36 179.113 107.264 179.687 107.264C180.512 107.264 181.162 107.443 181.635 107.801C182.109 108.156 182.423 108.631 182.575 109.228ZM187.923 107.364V108.557H183.752V107.364H187.923ZM184.871 105.534H186.357V112.758C186.357 113.046 186.4 113.263 186.487 113.409C186.573 113.552 186.684 113.649 186.82 113.702C186.959 113.752 187.11 113.777 187.272 113.777C187.391 113.777 187.496 113.769 187.585 113.752C187.675 113.736 187.744 113.722 187.794 113.712L188.062 114.94C187.976 114.973 187.854 115.007 187.695 115.04C187.536 115.076 187.337 115.096 187.098 115.099C186.707 115.106 186.342 115.036 186.004 114.891C185.666 114.745 185.393 114.519 185.184 114.214C184.975 113.91 184.871 113.527 184.871 113.066V105.534ZM201.849 108.129H200.298C200.238 107.798 200.127 107.506 199.964 107.254C199.802 107.002 199.603 106.789 199.368 106.613C199.133 106.437 198.869 106.305 198.577 106.215C198.289 106.126 197.982 106.081 197.658 106.081C197.071 106.081 196.546 106.228 196.082 106.523C195.621 106.818 195.256 107.251 194.988 107.821C194.723 108.391 194.59 109.087 194.59 109.909C194.59 110.738 194.723 111.437 194.988 112.007C195.256 112.577 195.623 113.008 196.087 113.3C196.551 113.591 197.073 113.737 197.653 113.737C197.974 113.737 198.279 113.694 198.567 113.608C198.859 113.518 199.123 113.388 199.358 113.215C199.593 113.043 199.792 112.832 199.955 112.584C200.12 112.332 200.235 112.044 200.298 111.719L201.849 111.724C201.766 112.224 201.605 112.685 201.366 113.106C201.131 113.523 200.828 113.885 200.457 114.19C200.089 114.491 199.668 114.725 199.194 114.891C198.72 115.056 198.203 115.139 197.643 115.139C196.761 115.139 195.976 114.93 195.286 114.513C194.597 114.092 194.053 113.49 193.656 112.708C193.261 111.926 193.064 110.993 193.064 109.909C193.064 108.822 193.263 107.889 193.661 107.11C194.058 106.328 194.602 105.728 195.291 105.31C195.981 104.889 196.764 104.679 197.643 104.679C198.183 104.679 198.687 104.757 199.154 104.913C199.625 105.065 200.047 105.29 200.422 105.589C200.796 105.884 201.106 106.245 201.352 106.673C201.597 107.097 201.763 107.582 201.849 108.129ZM206.784 115.154C206.068 115.154 205.444 114.99 204.91 114.662C204.376 114.334 203.962 113.875 203.667 113.285C203.372 112.695 203.225 112.005 203.225 111.217C203.225 110.424 203.372 109.732 203.667 109.138C203.962 108.545 204.376 108.085 204.91 107.756C205.444 107.428 206.068 107.264 206.784 107.264C207.5 107.264 208.125 107.428 208.659 107.756C209.192 108.085 209.606 108.545 209.901 109.138C210.196 109.732 210.344 110.424 210.344 111.217C210.344 112.005 210.196 112.695 209.901 113.285C209.606 113.875 209.192 114.334 208.659 114.662C208.125 114.99 207.5 115.154 206.784 115.154ZM206.789 113.906C207.253 113.906 207.638 113.784 207.943 113.538C208.248 113.293 208.473 112.967 208.619 112.559C208.768 112.151 208.843 111.702 208.843 111.212C208.843 110.724 208.768 110.277 208.619 109.869C208.473 109.458 208.248 109.129 207.943 108.88C207.638 108.631 207.253 108.507 206.789 108.507C206.322 108.507 205.934 108.631 205.626 108.88C205.321 109.129 205.094 109.458 204.945 109.869C204.799 110.277 204.726 110.724 204.726 111.212C204.726 111.702 204.799 112.151 204.945 112.559C205.094 112.967 205.321 113.293 205.626 113.538C205.934 113.784 206.322 113.906 206.789 113.906ZM212.003 115V107.364H213.43V108.607H213.525C213.684 108.186 213.944 107.857 214.305 107.622C214.666 107.384 215.099 107.264 215.603 107.264C216.113 107.264 216.541 107.384 216.885 107.622C217.233 107.861 217.49 108.189 217.656 108.607H217.735C217.918 108.199 218.208 107.874 218.605 107.632C219.003 107.387 219.477 107.264 220.027 107.264C220.72 107.264 221.285 107.481 221.723 107.915C222.163 108.35 222.384 109.004 222.384 109.879V115H220.897V110.018C220.897 109.501 220.757 109.127 220.475 108.895C220.193 108.663 219.857 108.547 219.466 108.547C218.982 108.547 218.605 108.696 218.337 108.994C218.069 109.289 217.934 109.669 217.934 110.133V115H216.453V109.924C216.453 109.51 216.324 109.177 216.065 108.925C215.806 108.673 215.47 108.547 215.056 108.547C214.774 108.547 214.514 108.621 214.275 108.771C214.04 108.916 213.849 109.12 213.703 109.382C213.561 109.644 213.49 109.947 213.49 110.292V115H212.003ZM224.376 117.864V107.364H225.828V108.602H225.952C226.038 108.442 226.163 108.259 226.325 108.05C226.488 107.841 226.713 107.659 227.001 107.503C227.29 107.344 227.671 107.264 228.145 107.264C228.761 107.264 229.311 107.42 229.795 107.732C230.279 108.043 230.659 108.492 230.934 109.079C231.212 109.665 231.351 110.371 231.351 111.197C231.351 112.022 231.214 112.73 230.939 113.32C230.664 113.906 230.286 114.359 229.805 114.677C229.325 114.992 228.776 115.149 228.16 115.149C227.696 115.149 227.316 115.071 227.021 114.915C226.729 114.76 226.501 114.577 226.335 114.369C226.169 114.16 226.042 113.974 225.952 113.812H225.863V117.864H224.376ZM225.833 111.182C225.833 111.719 225.911 112.189 226.067 112.594C226.222 112.998 226.448 113.315 226.743 113.543C227.038 113.769 227.399 113.881 227.827 113.881C228.271 113.881 228.642 113.764 228.94 113.528C229.238 113.29 229.464 112.967 229.616 112.559C229.772 112.151 229.85 111.692 229.85 111.182C229.85 110.678 229.774 110.226 229.621 109.825C229.472 109.424 229.247 109.107 228.945 108.875C228.647 108.643 228.274 108.527 227.827 108.527C227.396 108.527 227.031 108.638 226.733 108.86C226.438 109.082 226.214 109.392 226.062 109.79C225.909 110.187 225.833 110.652 225.833 111.182ZM236.233 115.154C235.518 115.154 234.893 114.99 234.359 114.662C233.826 114.334 233.411 113.875 233.116 113.285C232.821 112.695 232.674 112.005 232.674 111.217C232.674 110.424 232.821 109.732 233.116 109.138C233.411 108.545 233.826 108.085 234.359 107.756C234.893 107.428 235.518 107.264 236.233 107.264C236.949 107.264 237.574 107.428 238.108 107.756C238.641 108.085 239.056 108.545 239.351 109.138C239.646 109.732 239.793 110.424 239.793 111.217C239.793 112.005 239.646 112.695 239.351 113.285C239.056 113.875 238.641 114.334 238.108 114.662C237.574 114.99 236.949 115.154 236.233 115.154ZM236.238 113.906C236.702 113.906 237.087 113.784 237.392 113.538C237.697 113.293 237.922 112.967 238.068 112.559C238.217 112.151 238.292 111.702 238.292 111.212C238.292 110.724 238.217 110.277 238.068 109.869C237.922 109.458 237.697 109.129 237.392 108.88C237.087 108.631 236.702 108.507 236.238 108.507C235.771 108.507 235.383 108.631 235.075 108.88C234.77 109.129 234.543 109.458 234.394 109.869C234.248 110.277 234.175 110.724 234.175 111.212C234.175 111.702 234.248 112.151 234.394 112.559C234.543 112.967 234.77 113.293 235.075 113.538C235.383 113.784 235.771 113.906 236.238 113.906ZM242.939 110.466V115H241.452V107.364H242.879V108.607H242.974C243.149 108.202 243.424 107.877 243.799 107.632C244.177 107.387 244.652 107.264 245.226 107.264C245.746 107.264 246.202 107.374 246.593 107.592C246.984 107.808 247.287 108.129 247.503 108.557C247.718 108.984 247.826 109.513 247.826 110.143V115H246.339V110.322C246.339 109.768 246.195 109.336 245.907 109.024C245.619 108.709 245.223 108.552 244.719 108.552C244.374 108.552 244.067 108.626 243.799 108.776C243.534 108.925 243.323 109.143 243.168 109.432C243.015 109.717 242.939 110.062 242.939 110.466ZM253.111 115.154C252.358 115.154 251.71 114.993 251.167 114.672C250.627 114.347 250.209 113.891 249.914 113.305C249.622 112.715 249.477 112.024 249.477 111.232C249.477 110.449 249.622 109.76 249.914 109.163C250.209 108.567 250.62 108.101 251.147 107.766C251.677 107.432 252.297 107.264 253.006 107.264C253.437 107.264 253.855 107.335 254.259 107.478C254.664 107.621 255.027 107.844 255.348 108.149C255.67 108.454 255.923 108.85 256.109 109.337C256.294 109.821 256.387 110.41 256.387 111.102V111.629H250.317V110.516H254.93C254.93 110.125 254.851 109.778 254.692 109.477C254.533 109.172 254.309 108.931 254.021 108.756C253.736 108.58 253.401 108.492 253.016 108.492C252.599 108.492 252.234 108.595 251.923 108.8C251.614 109.003 251.376 109.268 251.207 109.596C251.041 109.921 250.958 110.274 250.958 110.655V111.525C250.958 112.035 251.048 112.469 251.227 112.827C251.409 113.185 251.662 113.459 251.987 113.648C252.312 113.833 252.692 113.926 253.126 113.926C253.407 113.926 253.664 113.886 253.896 113.807C254.128 113.724 254.329 113.601 254.498 113.439C254.667 113.277 254.796 113.076 254.886 112.837L256.293 113.091C256.18 113.505 255.978 113.868 255.686 114.18C255.398 114.488 255.035 114.728 254.597 114.901C254.163 115.07 253.668 115.154 253.111 115.154ZM259.523 110.466V115H258.036V107.364H259.463V108.607H259.558C259.733 108.202 260.008 107.877 260.383 107.632C260.761 107.387 261.236 107.264 261.81 107.264C262.33 107.264 262.786 107.374 263.177 107.592C263.568 107.808 263.871 108.129 264.087 108.557C264.302 108.984 264.41 109.513 264.41 110.143V115H262.923V110.322C262.923 109.768 262.779 109.336 262.491 109.024C262.203 108.709 261.807 108.552 261.303 108.552C260.958 108.552 260.651 108.626 260.383 108.776C260.118 108.925 259.907 109.143 259.752 109.432C259.599 109.717 259.523 110.062 259.523 110.466ZM269.968 107.364V108.557H265.797V107.364H269.968ZM266.916 105.534H268.402V112.758C268.402 113.046 268.445 113.263 268.531 113.409C268.618 113.552 268.729 113.649 268.865 113.702C269.004 113.752 269.155 113.777 269.317 113.777C269.436 113.777 269.541 113.769 269.63 113.752C269.72 113.736 269.789 113.722 269.839 113.712L270.107 114.94C270.021 114.973 269.899 115.007 269.74 115.04C269.58 115.076 269.382 115.096 269.143 115.099C268.752 115.106 268.387 115.036 268.049 114.891C267.711 114.745 267.438 114.519 267.229 114.214C267.02 113.91 266.916 113.527 266.916 113.066V105.534Z" fill="#121F48"/>
</g>
<defs>
<filter id="filter0_d_535_4275" x="52" y="121" width="273" height="60" filterUnits="userSpaceOnUse" color-interpolation-filters="sRGB">
<feFlood flood-opacity="0" result="BackgroundImageFix"/>
<feColorMatrix in="SourceAlpha" type="matrix" values="0 0 0 0 0 0 0 0 0 0 0 0 0 0 0 0 0 0 127 0" result="hardAlpha"/>
<feOffset dy="4"/>
<feGaussianBlur stdDeviation="2"/>
<feComposite in2="hardAlpha" operator="out"/>
<feColorMatrix type="matrix" values="0 0 0 0 0 0 0 0 0 0 0 0 0 0 0 0 0 0 0.25 0"/>
<feBlend mode="normal" in2="BackgroundImageFix" result="effect1_dropShadow_535_4275"/>
<feBlend mode="normal" in="SourceGraphic" in2="effect1_dropShadow_535_4275" result="shape"/>
</filter>
<filter id="filter1_d_535_4275" x="38" y="106" width="301" height="60" filterUnits="userSpaceOnUse" color-interpolation-filters="sRGB">
<feFlood flood-opacity="0" result="BackgroundImageFix"/>
<feColorMatrix in="SourceAlpha" type="matrix" values="0 0 0 0 0 0 0 0 0 0 0 0 0 0 0 0 0 0 127 0" result="hardAlpha"/>
<feOffset dy="4"/>
<feGaussianBlur stdDeviation="2"/>
<feComposite in2="hardAlpha" operator="out"/>
<feColorMatrix type="matrix" values="0 0 0 0 0 0 0 0 0 0 0 0 0 0 0 0 0 0 0.25 0"/>
<feBlend mode="normal" in2="BackgroundImageFix" result="effect1_dropShadow_535_4275"/>
<feBlend mode="normal" in="SourceGraphic" in2="effect1_dropShadow_535_4275" result="shape"/>
</filter>
<filter id="filter2_d_535_4275" x="25" y="78" width="326" height="72" filterUnits="userSpaceOnUse" color-interpolation-filters="sRGB">
<feFlood flood-opacity="0" result="BackgroundImageFix"/>
<feColorMatrix in="SourceAlpha" type="matrix" values="0 0 0 0 0 0 0 0 0 0 0 0 0 0 0 0 0 0 127 0" result="hardAlpha"/>
<feOffset dy="4"/>
<feGaussianBlur stdDeviation="2"/>
<feComposite in2="hardAlpha" operator="out"/>
<feColorMatrix type="matrix" values="0 0 0 0 0 0 0 0 0 0 0 0 0 0 0 0 0 0 0.25 0"/>
<feBlend mode="normal" in2="BackgroundImageFix" result="effect1_dropShadow_535_4275"/>
<feBlend mode="normal" in="SourceGraphic" in2="effect1_dropShadow_535_4275" result="shape"/>
</filter>
</defs>
</svg>
