<svg width="380" height="250" viewBox="0 0 380 250" fill="none" xmlns="http://www.w3.org/2000/svg">
<rect width="380" height="250" fill="white"/>
<rect x="151.5" y="105.5" width="77" height="39" rx="5.5" stroke="#CBD5E1"/>
<path d="M167.616 121.141V119.818H175.496V121.141H172.32V130H170.788V121.141H167.616ZM179.228 130.154C178.512 130.154 177.887 129.99 177.353 129.662C176.82 129.334 176.405 128.875 176.11 128.285C175.815 127.695 175.668 127.005 175.668 126.217C175.668 125.424 175.815 124.732 176.11 124.138C176.405 123.545 176.82 123.085 177.353 122.756C177.887 122.428 178.512 122.264 179.228 122.264C179.944 122.264 180.568 122.428 181.102 122.756C181.636 123.085 182.05 123.545 182.345 124.138C182.64 124.732 182.787 125.424 182.787 126.217C182.787 127.005 182.64 127.695 182.345 128.285C182.05 128.875 181.636 129.334 181.102 129.662C180.568 129.99 179.944 130.154 179.228 130.154ZM179.233 128.906C179.697 128.906 180.081 128.784 180.386 128.538C180.691 128.293 180.916 127.967 181.062 127.559C181.211 127.151 181.286 126.702 181.286 126.212C181.286 125.724 181.211 125.277 181.062 124.869C180.916 124.458 180.691 124.129 180.386 123.88C180.081 123.631 179.697 123.507 179.233 123.507C178.765 123.507 178.377 123.631 178.069 123.88C177.764 124.129 177.537 124.458 177.388 124.869C177.242 125.277 177.169 125.724 177.169 126.212C177.169 126.702 177.242 127.151 177.388 127.559C177.537 127.967 177.764 128.293 178.069 128.538C178.377 128.784 178.765 128.906 179.233 128.906ZM187.648 133.023C187.042 133.023 186.52 132.943 186.082 132.784C185.648 132.625 185.293 132.415 185.018 132.153C184.743 131.891 184.538 131.604 184.402 131.293L185.68 130.766C185.769 130.911 185.888 131.066 186.037 131.228C186.19 131.394 186.395 131.535 186.654 131.651C186.916 131.767 187.252 131.825 187.663 131.825C188.227 131.825 188.692 131.687 189.06 131.412C189.428 131.14 189.612 130.706 189.612 130.109V128.608H189.518C189.428 128.77 189.299 128.951 189.13 129.15C188.964 129.349 188.735 129.521 188.444 129.667C188.152 129.813 187.773 129.886 187.305 129.886C186.702 129.886 186.158 129.745 185.675 129.463C185.194 129.178 184.813 128.759 184.531 128.205C184.253 127.648 184.113 126.964 184.113 126.152C184.113 125.34 184.251 124.644 184.526 124.064C184.805 123.484 185.186 123.04 185.67 122.732C186.153 122.42 186.702 122.264 187.315 122.264C187.789 122.264 188.172 122.344 188.464 122.503C188.755 122.659 188.982 122.841 189.145 123.05C189.31 123.259 189.438 123.442 189.528 123.602H189.637V122.364H191.094V130.169C191.094 130.825 190.941 131.364 190.636 131.785C190.331 132.206 189.919 132.517 189.398 132.719C188.881 132.922 188.298 133.023 187.648 133.023ZM187.633 128.653C188.061 128.653 188.422 128.553 188.717 128.354C189.015 128.152 189.241 127.864 189.393 127.489C189.549 127.112 189.627 126.659 189.627 126.132C189.627 125.618 189.551 125.166 189.398 124.775C189.246 124.384 189.022 124.079 188.727 123.86C188.432 123.638 188.068 123.527 187.633 123.527C187.186 123.527 186.813 123.643 186.515 123.875C186.216 124.104 185.991 124.415 185.839 124.81C185.689 125.204 185.615 125.645 185.615 126.132C185.615 126.633 185.691 127.072 185.844 127.45C185.996 127.827 186.221 128.122 186.52 128.335C186.821 128.547 187.193 128.653 187.633 128.653ZM196.289 133.023C195.682 133.023 195.16 132.943 194.723 132.784C194.289 132.625 193.934 132.415 193.659 132.153C193.384 131.891 193.178 131.604 193.042 131.293L194.32 130.766C194.41 130.911 194.529 131.066 194.678 131.228C194.831 131.394 195.036 131.535 195.295 131.651C195.556 131.767 195.893 131.825 196.304 131.825C196.867 131.825 197.333 131.687 197.701 131.412C198.069 131.14 198.253 130.706 198.253 130.109V128.608H198.158C198.069 128.77 197.939 128.951 197.77 129.15C197.605 129.349 197.376 129.521 197.084 129.667C196.793 129.813 196.413 129.886 195.946 129.886C195.343 129.886 194.799 129.745 194.315 129.463C193.835 129.178 193.453 128.759 193.172 128.205C192.893 127.648 192.754 126.964 192.754 126.152C192.754 125.34 192.892 124.644 193.167 124.064C193.445 123.484 193.826 123.04 194.31 122.732C194.794 122.42 195.343 122.264 195.956 122.264C196.43 122.264 196.813 122.344 197.104 122.503C197.396 122.659 197.623 122.841 197.785 123.05C197.951 123.259 198.079 123.442 198.168 123.602H198.278V122.364H199.734V130.169C199.734 130.825 199.582 131.364 199.277 131.785C198.972 132.206 198.559 132.517 198.039 132.719C197.522 132.922 196.939 133.023 196.289 133.023ZM196.274 128.653C196.702 128.653 197.063 128.553 197.358 128.354C197.656 128.152 197.881 127.864 198.034 127.489C198.19 127.112 198.268 126.659 198.268 126.132C198.268 125.618 198.191 125.166 198.039 124.775C197.886 124.384 197.663 124.079 197.368 123.86C197.073 123.638 196.708 123.527 196.274 123.527C195.827 123.527 195.454 123.643 195.155 123.875C194.857 124.104 194.632 124.415 194.479 124.81C194.33 125.204 194.256 125.645 194.256 126.132C194.256 126.633 194.332 127.072 194.484 127.45C194.637 127.827 194.862 128.122 195.16 128.335C195.462 128.547 195.833 128.653 196.274 128.653ZM203.214 119.818V130H201.728V119.818H203.214ZM208.505 130.154C207.753 130.154 207.105 129.993 206.561 129.672C206.021 129.347 205.604 128.891 205.309 128.305C205.017 127.715 204.871 127.024 204.871 126.232C204.871 125.449 205.017 124.76 205.309 124.163C205.604 123.567 206.015 123.101 206.542 122.766C207.072 122.432 207.692 122.264 208.401 122.264C208.832 122.264 209.249 122.335 209.654 122.478C210.058 122.621 210.421 122.844 210.743 123.149C211.064 123.454 211.318 123.85 211.503 124.337C211.689 124.821 211.782 125.41 211.782 126.102V126.629H205.711V125.516H210.325C210.325 125.125 210.245 124.778 210.086 124.477C209.927 124.172 209.703 123.931 209.415 123.756C209.13 123.58 208.795 123.492 208.411 123.492C207.993 123.492 207.629 123.595 207.317 123.8C207.009 124.003 206.77 124.268 206.601 124.596C206.435 124.921 206.353 125.274 206.353 125.655V126.525C206.353 127.035 206.442 127.469 206.621 127.827C206.803 128.185 207.057 128.459 207.382 128.648C207.707 128.833 208.086 128.926 208.52 128.926C208.802 128.926 209.059 128.886 209.291 128.807C209.523 128.724 209.723 128.601 209.892 128.439C210.061 128.277 210.191 128.076 210.28 127.837L211.687 128.091C211.574 128.505 211.372 128.868 211.081 129.18C210.792 129.488 210.429 129.728 209.992 129.901C209.558 130.07 209.062 130.154 208.505 130.154Z" fill="#121F48"/>
</svg>
