<svg width="380" height="250" viewBox="0 0 380 250" fill="none" xmlns="http://www.w3.org/2000/svg">
<rect width="380" height="250" fill="white"/>
<rect x="154" y="127" width="72" height="40" rx="6" fill="#121F48"/>
<path d="M171.119 152V141.818H172.655V146.243H177.731V141.818H179.272V152H177.731V147.56H172.655V152H171.119ZM184.607 152.154C183.891 152.154 183.266 151.99 182.732 151.662C182.199 151.334 181.784 150.875 181.489 150.285C181.194 149.695 181.047 149.005 181.047 148.217C181.047 147.424 181.194 146.732 181.489 146.138C181.784 145.545 182.199 145.085 182.732 144.756C183.266 144.428 183.891 144.264 184.607 144.264C185.322 144.264 185.947 144.428 186.481 144.756C187.014 145.085 187.429 145.545 187.724 146.138C188.019 146.732 188.166 147.424 188.166 148.217C188.166 149.005 188.019 149.695 187.724 150.285C187.429 150.875 187.014 151.334 186.481 151.662C185.947 151.99 185.322 152.154 184.607 152.154ZM184.612 150.906C185.076 150.906 185.46 150.784 185.765 150.538C186.07 150.293 186.295 149.967 186.441 149.559C186.59 149.151 186.665 148.702 186.665 148.212C186.665 147.724 186.59 147.277 186.441 146.869C186.295 146.458 186.07 146.129 185.765 145.88C185.46 145.631 185.076 145.507 184.612 145.507C184.144 145.507 183.756 145.631 183.448 145.88C183.143 146.129 182.916 146.458 182.767 146.869C182.621 147.277 182.548 147.724 182.548 148.212C182.548 148.702 182.621 149.151 182.767 149.559C182.916 149.967 183.143 150.293 183.448 150.538C183.756 150.784 184.144 150.906 184.612 150.906ZM196.098 144.364L193.329 152H191.738L188.964 144.364H190.56L192.494 150.24H192.574L194.502 144.364H196.098ZM200.527 152.154C199.774 152.154 199.126 151.993 198.583 151.672C198.043 151.347 197.625 150.891 197.33 150.305C197.038 149.715 196.893 149.024 196.893 148.232C196.893 147.449 197.038 146.76 197.33 146.163C197.625 145.567 198.036 145.101 198.563 144.766C199.093 144.432 199.713 144.264 200.422 144.264C200.853 144.264 201.271 144.335 201.675 144.478C202.08 144.621 202.443 144.844 202.764 145.149C203.086 145.454 203.339 145.85 203.525 146.337C203.71 146.821 203.803 147.41 203.803 148.102V148.629H197.733V147.516H202.346C202.346 147.125 202.267 146.778 202.108 146.477C201.949 146.172 201.725 145.931 201.437 145.756C201.152 145.58 200.817 145.492 200.432 145.492C200.015 145.492 199.65 145.595 199.339 145.8C199.03 146.003 198.792 146.268 198.623 146.596C198.457 146.921 198.374 147.274 198.374 147.655V148.525C198.374 149.035 198.464 149.469 198.643 149.827C198.825 150.185 199.078 150.459 199.403 150.648C199.728 150.833 200.108 150.926 200.542 150.926C200.823 150.926 201.08 150.886 201.312 150.807C201.544 150.724 201.745 150.601 201.914 150.439C202.083 150.277 202.212 150.076 202.302 149.837L203.709 150.091C203.596 150.505 203.394 150.868 203.102 151.18C202.814 151.488 202.451 151.728 202.013 151.901C201.579 152.07 201.084 152.154 200.527 152.154ZM205.452 152V144.364H206.889V145.577H206.969C207.108 145.166 207.353 144.843 207.705 144.607C208.059 144.369 208.46 144.249 208.908 144.249C209 144.249 209.11 144.253 209.236 144.259C209.365 144.266 209.466 144.274 209.539 144.284V145.706C209.479 145.689 209.373 145.671 209.221 145.651C209.068 145.628 208.916 145.616 208.763 145.616C208.412 145.616 208.099 145.691 207.824 145.84C207.552 145.986 207.337 146.19 207.178 146.452C207.018 146.71 206.939 147.005 206.939 147.337V152H205.452Z" fill="white"/>
<rect x="154" y="127" width="72" height="40" rx="6" fill="#121F48"/>
<path d="M171.119 152V141.818H172.655V146.243H177.731V141.818H179.272V152H177.731V147.56H172.655V152H171.119ZM184.607 152.154C183.891 152.154 183.266 151.99 182.732 151.662C182.199 151.334 181.784 150.875 181.489 150.285C181.194 149.695 181.047 149.005 181.047 148.217C181.047 147.424 181.194 146.732 181.489 146.138C181.784 145.545 182.199 145.085 182.732 144.756C183.266 144.428 183.891 144.264 184.607 144.264C185.322 144.264 185.947 144.428 186.481 144.756C187.014 145.085 187.429 145.545 187.724 146.138C188.019 146.732 188.166 147.424 188.166 148.217C188.166 149.005 188.019 149.695 187.724 150.285C187.429 150.875 187.014 151.334 186.481 151.662C185.947 151.99 185.322 152.154 184.607 152.154ZM184.612 150.906C185.076 150.906 185.46 150.784 185.765 150.538C186.07 150.293 186.295 149.967 186.441 149.559C186.59 149.151 186.665 148.702 186.665 148.212C186.665 147.724 186.59 147.277 186.441 146.869C186.295 146.458 186.07 146.129 185.765 145.88C185.46 145.631 185.076 145.507 184.612 145.507C184.144 145.507 183.756 145.631 183.448 145.88C183.143 146.129 182.916 146.458 182.767 146.869C182.621 147.277 182.548 147.724 182.548 148.212C182.548 148.702 182.621 149.151 182.767 149.559C182.916 149.967 183.143 150.293 183.448 150.538C183.756 150.784 184.144 150.906 184.612 150.906ZM196.098 144.364L193.329 152H191.738L188.964 144.364H190.56L192.494 150.24H192.574L194.502 144.364H196.098ZM200.527 152.154C199.774 152.154 199.126 151.993 198.583 151.672C198.043 151.347 197.625 150.891 197.33 150.305C197.038 149.715 196.893 149.024 196.893 148.232C196.893 147.449 197.038 146.76 197.33 146.163C197.625 145.567 198.036 145.101 198.563 144.766C199.093 144.432 199.713 144.264 200.422 144.264C200.853 144.264 201.271 144.335 201.675 144.478C202.08 144.621 202.443 144.844 202.764 145.149C203.086 145.454 203.339 145.85 203.525 146.337C203.71 146.821 203.803 147.41 203.803 148.102V148.629H197.733V147.516H202.346C202.346 147.125 202.267 146.778 202.108 146.477C201.949 146.172 201.725 145.931 201.437 145.756C201.152 145.58 200.817 145.492 200.432 145.492C200.015 145.492 199.65 145.595 199.339 145.8C199.03 146.003 198.792 146.268 198.623 146.596C198.457 146.921 198.374 147.274 198.374 147.655V148.525C198.374 149.035 198.464 149.469 198.643 149.827C198.825 150.185 199.078 150.459 199.403 150.648C199.728 150.833 200.108 150.926 200.542 150.926C200.823 150.926 201.08 150.886 201.312 150.807C201.544 150.724 201.745 150.601 201.914 150.439C202.083 150.277 202.212 150.076 202.302 149.837L203.709 150.091C203.596 150.505 203.394 150.868 203.102 151.18C202.814 151.488 202.451 151.728 202.013 151.901C201.579 152.07 201.084 152.154 200.527 152.154ZM205.452 152V144.364H206.889V145.577H206.969C207.108 145.166 207.353 144.843 207.705 144.607C208.059 144.369 208.46 144.249 208.908 144.249C209 144.249 209.11 144.253 209.236 144.259C209.365 144.266 209.466 144.274 209.539 144.284V145.706C209.479 145.689 209.373 145.671 209.221 145.651C209.068 145.628 208.916 145.616 208.763 145.616C208.412 145.616 208.099 145.691 207.824 145.84C207.552 145.986 207.337 146.19 207.178 146.452C207.018 146.71 206.939 147.005 206.939 147.337V152H205.452Z" fill="white"/>
<rect x="110" y="83" width="160" height="32" rx="8" fill="#0F172A"/>
<path d="M190 123L175.278 99H204.722L190 123Z" fill="#0F172A"/>
<path d="M129.204 93.696H135.014V101.872H129.204V93.696ZM133.866 94.62H130.338V100.934H133.866V94.62ZM137.268 92.422H138.43V105.092H137.268V92.422ZM138.164 97.476H140.502V98.456H138.164V97.476ZM141.565 99.674H153.045V100.64H141.565V99.674ZM146.703 100.262H147.851V105.092H146.703V100.262ZM147.277 92.926C148.164 92.926 148.938 93.0427 149.601 93.276C150.264 93.5 150.782 93.822 151.155 94.242C151.528 94.6527 151.715 95.1427 151.715 95.712C151.715 96.272 151.528 96.762 151.155 97.182C150.782 97.602 150.264 97.924 149.601 98.148C148.938 98.372 148.164 98.484 147.277 98.484C146.409 98.484 145.639 98.372 144.967 98.148C144.304 97.924 143.786 97.602 143.413 97.182C143.04 96.762 142.853 96.272 142.853 95.712C142.853 95.1427 143.04 94.6527 143.413 94.242C143.786 93.822 144.304 93.5 144.967 93.276C145.639 93.0427 146.409 92.926 147.277 92.926ZM147.277 93.864C146.642 93.864 146.078 93.9387 145.583 94.088C145.098 94.2373 144.72 94.452 144.449 94.732C144.178 95.0027 144.043 95.3247 144.043 95.698C144.043 96.0807 144.178 96.412 144.449 96.692C144.72 96.9627 145.098 97.1727 145.583 97.322C146.078 97.4713 146.642 97.546 147.277 97.546C147.93 97.546 148.5 97.4713 148.985 97.322C149.47 97.1727 149.848 96.9627 150.119 96.692C150.39 96.412 150.525 96.0807 150.525 95.698C150.525 95.3247 150.39 95.0027 150.119 94.732C149.848 94.452 149.47 94.2373 148.985 94.088C148.5 93.9387 147.93 93.864 147.277 93.864ZM159.526 93.29H160.548V94.27C160.548 94.8207 160.45 95.3433 160.254 95.838C160.067 96.3327 159.806 96.7947 159.47 97.224C159.143 97.644 158.76 98.022 158.322 98.358C157.892 98.694 157.43 98.9787 156.936 99.212C156.45 99.4453 155.956 99.6227 155.452 99.744L154.934 98.778C155.372 98.6847 155.811 98.54 156.25 98.344C156.698 98.148 157.118 97.91 157.51 97.63C157.902 97.3407 158.247 97.0187 158.546 96.664C158.854 96.3093 159.092 95.9313 159.26 95.53C159.437 95.1193 159.526 94.6993 159.526 94.27V93.29ZM159.75 93.29H160.744V94.27C160.744 94.6993 160.832 95.1193 161.01 95.53C161.187 95.9313 161.425 96.3093 161.724 96.664C162.032 97.0187 162.382 97.3407 162.774 97.63C163.166 97.91 163.581 98.1527 164.02 98.358C164.468 98.554 164.916 98.694 165.364 98.778L164.832 99.744C164.328 99.6227 163.833 99.4453 163.348 99.212C162.862 98.9787 162.4 98.694 161.962 98.358C161.532 98.022 161.15 97.644 160.814 97.224C160.478 96.7947 160.216 96.3327 160.03 95.838C159.843 95.3433 159.75 94.8207 159.75 94.27V93.29ZM154.458 102.418H165.938V103.384H154.458V102.418ZM167.323 98.302H178.803V99.198H167.323V98.302ZM168.695 100.206H177.375V102.908H169.871V104.392H168.723V102.11H176.227V101.046H168.695V100.206ZM168.723 104.084H177.781V104.924H168.723V104.084ZM168.779 92.8H177.333V95.432H169.955V96.804H168.807V94.648H176.185V93.626H168.779V92.8ZM168.807 96.524H177.557V97.364H168.807V96.524ZM189.045 96.608H190.193V98.316H189.045V96.608ZM189.633 92.576C191.033 92.576 192.125 92.7673 192.909 93.15C193.693 93.5233 194.085 94.06 194.085 94.76C194.085 95.4693 193.693 96.0153 192.909 96.398C192.125 96.7713 191.033 96.958 189.633 96.958C188.242 96.958 187.15 96.7713 186.357 96.398C185.573 96.0153 185.181 95.4693 185.181 94.76C185.181 94.06 185.573 93.5233 186.357 93.15C187.15 92.7673 188.242 92.576 189.633 92.576ZM189.633 93.458C188.951 93.458 188.368 93.5093 187.883 93.612C187.397 93.7147 187.024 93.864 186.763 94.06C186.511 94.2467 186.385 94.48 186.385 94.76C186.385 95.04 186.511 95.2827 186.763 95.488C187.024 95.684 187.397 95.8333 187.883 95.936C188.368 96.0293 188.951 96.076 189.633 96.076C190.323 96.076 190.911 96.0293 191.397 95.936C191.882 95.8333 192.251 95.684 192.503 95.488C192.764 95.2827 192.895 95.04 192.895 94.76C192.895 94.48 192.764 94.2467 192.503 94.06C192.251 93.864 191.882 93.7147 191.397 93.612C190.911 93.5093 190.323 93.458 189.633 93.458ZM183.921 97.91H195.359V98.848H183.921V97.91ZM185.307 99.898H193.889V102.768H186.469V104.308H185.335V101.914H192.755V100.794H185.307V99.898ZM185.335 104.042H194.267V104.952H185.335V104.042ZM206.054 92.422H207.202V105.106H206.054V92.422ZM203.562 95.306H206.362V96.272H203.562V95.306ZM197.276 101.186H198.214C198.876 101.186 199.502 101.177 200.09 101.158C200.678 101.13 201.266 101.093 201.854 101.046C202.451 100.99 203.072 100.911 203.716 100.808L203.814 101.774C203.151 101.877 202.516 101.956 201.91 102.012C201.312 102.068 200.715 102.105 200.118 102.124C199.52 102.143 198.886 102.152 198.214 102.152H197.276V101.186ZM197.234 93.57H202.764V98.106H198.424V101.41H197.276V97.154H201.63V94.522H197.234V93.57ZM203.478 98.764H206.278V99.73H203.478V98.764ZM209.679 102.516H221.159V103.482H209.679V102.516ZM214.817 99.478H215.965V102.796H214.817V99.478ZM211.023 93.318H212.185V95.572H218.625V93.318H219.773V99.8H211.023V93.318ZM212.185 96.524V98.848H218.625V96.524H212.185ZM227.541 96.958H229.977V97.924H227.541V96.958ZM225.189 93.612H226.099V96.034C226.099 96.6873 226.029 97.3313 225.889 97.966C225.759 98.6007 225.563 99.198 225.301 99.758C225.049 100.318 224.741 100.822 224.377 101.27C224.013 101.718 223.603 102.082 223.145 102.362L222.417 101.494C222.847 101.233 223.234 100.906 223.579 100.514C223.925 100.122 224.214 99.6833 224.447 99.198C224.69 98.7033 224.872 98.19 224.993 97.658C225.124 97.1167 225.189 96.5753 225.189 96.034V93.612ZM225.413 93.612H226.309V95.992C226.309 96.496 226.365 97.0047 226.477 97.518C226.599 98.022 226.767 98.5073 226.981 98.974C227.205 99.4313 227.481 99.8513 227.807 100.234C228.134 100.617 228.503 100.934 228.913 101.186L228.255 102.082C227.798 101.802 227.392 101.447 227.037 101.018C226.683 100.579 226.384 100.089 226.141 99.548C225.899 98.9973 225.717 98.4187 225.595 97.812C225.474 97.2053 225.413 96.5987 225.413 95.992V93.612ZM232.203 92.422H233.323V105.092H232.203V92.422ZM229.627 92.688H230.719V104.448H229.627V92.688ZM238.25 98.946H239.398V102.726H238.25V98.946ZM242.926 98.946H244.088V102.726H242.926V98.946ZM235.436 102.502H246.916V103.468H235.436V102.502ZM241.148 93.22C242.044 93.22 242.838 93.3553 243.528 93.626C244.219 93.8967 244.76 94.2747 245.152 94.76C245.554 95.2453 245.754 95.8193 245.754 96.482C245.754 97.1353 245.554 97.7093 245.152 98.204C244.76 98.6893 244.219 99.0673 243.528 99.338C242.838 99.5993 242.044 99.73 241.148 99.73C240.262 99.73 239.468 99.5993 238.768 99.338C238.078 99.0673 237.536 98.6893 237.144 98.204C236.752 97.7093 236.556 97.1353 236.556 96.482C236.556 95.8193 236.752 95.2453 237.144 94.76C237.536 94.2747 238.078 93.8967 238.768 93.626C239.468 93.3553 240.262 93.22 241.148 93.22ZM241.148 94.144C240.476 94.144 239.879 94.242 239.356 94.438C238.834 94.634 238.423 94.9093 238.124 95.264C237.826 95.6093 237.676 96.0153 237.676 96.482C237.676 96.9487 237.826 97.3593 238.124 97.714C238.423 98.0593 238.834 98.33 239.356 98.526C239.879 98.722 240.476 98.82 241.148 98.82C241.83 98.82 242.432 98.722 242.954 98.526C243.477 98.33 243.888 98.0593 244.186 97.714C244.485 97.3593 244.634 96.9487 244.634 96.482C244.634 96.0153 244.485 95.6093 244.186 95.264C243.888 94.9093 243.477 94.634 242.954 94.438C242.432 94.242 241.83 94.144 241.148 94.144ZM249.594 104.094C249.322 104.094 249.088 103.998 248.893 103.806C248.697 103.611 248.6 103.375 248.6 103.1C248.6 102.828 248.697 102.596 248.893 102.404C249.088 102.209 249.322 102.111 249.594 102.111C249.866 102.111 250.099 102.209 250.295 102.404C250.49 102.596 250.588 102.828 250.588 103.1C250.588 103.282 250.542 103.45 250.449 103.602C250.36 103.751 250.24 103.871 250.091 103.96C249.942 104.05 249.776 104.094 249.594 104.094Z" fill="white"/>
</svg>
